<?xml version="1.0" encoding="UTF-8"?>
<!--Generator: Apple Native CoreSVG 175.5-->
<!DOCTYPE svg
PUBLIC "-//W3C//DTD SVG 1.1//EN"
       "http://www.w3.org/Graphics/SVG/1.1/DTD/svg11.dtd">
<svg version="1.1" xmlns="http://www.w3.org/2000/svg" xmlns:xlink="http://www.w3.org/1999/xlink" width="3300" height="2200">
 <!--glyph: "uni10143E.medium", point size: 100.0, font version: "18.0d9e1", template writer version: "84"-->
 <g id="Notes">
  <rect height="2200" id="artboard" style="fill:white;opacity:1" width="3300" x="0" y="0"/>
  <line style="fill:none;stroke:black;opacity:1;stroke-width:0.5;" x1="263" x2="3036" y1="292" y2="292"/>
  <text style="stroke:none;fill:black;font-family:sans-serif;font-size:13;font-weight:bold;" transform="matrix(1 0 0 1 263 322)">Weight/Scale Variations</text>
  <text style="stroke:none;fill:black;font-family:sans-serif;font-size:13;text-anchor:middle;" transform="matrix(1 0 0 1 559.711 322)">Ultralight</text>
  <text style="stroke:none;fill:black;font-family:sans-serif;font-size:13;text-anchor:middle;" transform="matrix(1 0 0 1 856.422 322)">Thin</text>
  <text style="stroke:none;fill:black;font-family:sans-serif;font-size:13;text-anchor:middle;" transform="matrix(1 0 0 1 1153.13 322)">Light</text>
  <text style="stroke:none;fill:black;font-family:sans-serif;font-size:13;text-anchor:middle;" transform="matrix(1 0 0 1 1449.84 322)">Regular</text>
  <text style="stroke:none;fill:black;font-family:sans-serif;font-size:13;text-anchor:middle;" transform="matrix(1 0 0 1 1746.56 322)">Medium</text>
  <text style="stroke:none;fill:black;font-family:sans-serif;font-size:13;text-anchor:middle;" transform="matrix(1 0 0 1 2043.27 322)">Semibold</text>
  <text style="stroke:none;fill:black;font-family:sans-serif;font-size:13;text-anchor:middle;" transform="matrix(1 0 0 1 2339.98 322)">Bold</text>
  <text style="stroke:none;fill:black;font-family:sans-serif;font-size:13;text-anchor:middle;" transform="matrix(1 0 0 1 2636.69 322)">Heavy</text>
  <text style="stroke:none;fill:black;font-family:sans-serif;font-size:13;text-anchor:middle;" transform="matrix(1 0 0 1 2933.4 322)">Black</text>
  <line style="fill:none;stroke:black;opacity:1;stroke-width:0.5;" x1="263" x2="3036" y1="1903" y2="1903"/>
  <g transform="matrix(1 0 0 1 263 1933)">
   <path d="M9.24805 0.830078Q10.8691 0.830078 12.2949 0.214844Q13.7207-0.400391 14.8096-1.49414Q15.8984-2.58789 16.5186-4.01367Q17.1387-5.43945 17.1387-7.05078Q17.1387-8.66211 16.5186-10.0879Q15.8984-11.5137 14.8047-12.6074Q13.7109-13.7012 12.2852-14.3164Q10.8594-14.9316 9.23828-14.9316Q7.62695-14.9316 6.20117-14.3164Q4.77539-13.7012 3.69141-12.6074Q2.60742-11.5137 1.9873-10.0879Q1.36719-8.66211 1.36719-7.05078Q1.36719-5.43945 1.9873-4.01367Q2.60742-2.58789 3.69629-1.49414Q4.78516-0.400391 6.21094 0.214844Q7.63672 0.830078 9.24805 0.830078ZM9.24805-0.654297Q7.91992-0.654297 6.7627-1.14746Q5.60547-1.64062 4.73145-2.51953Q3.85742-3.39844 3.36426-4.56055Q2.87109-5.72266 2.87109-7.05078Q2.87109-8.37891 3.35938-9.54102Q3.84766-10.7031 4.72168-11.582Q5.5957-12.4609 6.75293-12.9541Q7.91016-13.4473 9.23828-13.4473Q10.5762-13.4473 11.7383-12.9541Q12.9004-12.4609 13.7793-11.582Q14.6582-10.7031 15.1514-9.54102Q15.6445-8.37891 15.6445-7.05078Q15.6445-5.72266 15.1514-4.56055Q14.6582-3.39844 13.7793-2.51953Q12.9004-1.64062 11.7432-1.14746Q10.5859-0.654297 9.24805-0.654297ZM5.6543-7.05078Q5.6543-6.72852 5.85938-6.52832Q6.06445-6.32812 6.40625-6.32812L8.51562-6.32812L8.51562-4.20898Q8.51562-3.88672 8.71094-3.67676Q8.90625-3.4668 9.23828-3.4668Q9.56055-3.4668 9.77051-3.67676Q9.98047-3.88672 9.98047-4.20898L9.98047-6.32812L12.0898-6.32812Q12.4219-6.32812 12.627-6.52832Q12.832-6.72852 12.832-7.05078Q12.832-7.38281 12.627-7.58789Q12.4219-7.79297 12.0898-7.79297L9.98047-7.79297L9.98047-9.90234Q9.98047-10.2344 9.77051-10.4443Q9.56055-10.6543 9.23828-10.6543Q8.90625-10.6543 8.71094-10.4443Q8.51562-10.2344 8.51562-9.90234L8.51562-7.79297L6.40625-7.79297Q6.06445-7.79297 5.85938-7.58789Q5.6543-7.38281 5.6543-7.05078Z"/>
  </g>
  <g transform="matrix(1 0 0 1 281.867 1933)">
   <path d="M11.709 2.91016Q13.75 2.91016 15.5518 2.12891Q17.3535 1.34766 18.7305-0.0292969Q20.1074-1.40625 20.8887-3.20801Q21.6699-5.00977 21.6699-7.05078Q21.6699-9.0918 20.8887-10.8936Q20.1074-12.6953 18.7305-14.0723Q17.3535-15.4492 15.5469-16.2305Q13.7402-17.0117 11.6992-17.0117Q9.6582-17.0117 7.85645-16.2305Q6.05469-15.4492 4.68262-14.0723Q3.31055-12.6953 2.5293-10.8936Q1.74805-9.0918 1.74805-7.05078Q1.74805-5.00977 2.5293-3.20801Q3.31055-1.40625 4.6875-0.0292969Q6.06445 1.34766 7.86621 2.12891Q9.66797 2.91016 11.709 2.91016ZM11.709 1.25Q9.98047 1.25 8.47656 0.605469Q6.97266-0.0390625 5.83496-1.17676Q4.69727-2.31445 4.05762-3.81836Q3.41797-5.32227 3.41797-7.05078Q3.41797-8.7793 4.05762-10.2832Q4.69727-11.7871 5.83008-12.9297Q6.96289-14.0723 8.4668-14.7119Q9.9707-15.3516 11.6992-15.3516Q13.4277-15.3516 14.9365-14.7119Q16.4453-14.0723 17.583-12.9297Q18.7207-11.7871 19.3652-10.2832Q20.0098-8.7793 20.0098-7.05078Q20.0098-5.32227 19.3701-3.81836Q18.7305-2.31445 17.5879-1.17676Q16.4453-0.0390625 14.9414 0.605469Q13.4375 1.25 11.709 1.25ZM7.17773-7.05078Q7.17773-6.69922 7.41211-6.47461Q7.64648-6.25 8.01758-6.25L10.8887-6.25L10.8887-3.36914Q10.8887-2.99805 11.1133-2.76855Q11.3379-2.53906 11.6895-2.53906Q12.0605-2.53906 12.29-2.76855Q12.5195-2.99805 12.5195-3.36914L12.5195-6.25L15.4004-6.25Q15.7715-6.25 16.001-6.47461Q16.2305-6.69922 16.2305-7.05078Q16.2305-7.42188 16.001-7.65137Q15.7715-7.88086 15.4004-7.88086L12.5195-7.88086L12.5195-10.752Q12.5195-11.1328 12.29-11.3623Q12.0605-11.5918 11.6895-11.5918Q11.3379-11.5918 11.1133-11.3574Q10.8887-11.123 10.8887-10.752L10.8887-7.88086L8.01758-7.88086Q7.63672-7.88086 7.40723-7.65137Q7.17773-7.42188 7.17773-7.05078Z"/>
  </g>
  <g transform="matrix(1 0 0 1 305.646 1933)">
   <path d="M14.9707 5.66406Q17.0605 5.66406 18.96 5.01465Q20.8594 4.36523 22.4512 3.19336Q24.043 2.02148 25.2197 0.429688Q26.3965-1.16211 27.0459-3.06641Q27.6953-4.9707 27.6953-7.05078Q27.6953-9.14062 27.0459-11.04Q26.3965-12.9395 25.2197-14.5312Q24.043-16.123 22.4512-17.2998Q20.8594-18.4766 18.9551-19.126Q17.0508-19.7754 14.9609-19.7754Q12.8711-19.7754 10.9717-19.126Q9.07227-18.4766 7.48535-17.2998Q5.89844-16.123 4.72168-14.5312Q3.54492-12.9395 2.90039-11.04Q2.25586-9.14062 2.25586-7.05078Q2.25586-4.9707 2.90527-3.06641Q3.55469-1.16211 4.72656 0.429688Q5.89844 2.02148 7.49023 3.19336Q9.08203 4.36523 10.9814 5.01465Q12.8809 5.66406 14.9707 5.66406ZM14.9707 3.84766Q13.1641 3.84766 11.5283 3.2959Q9.89258 2.74414 8.53516 1.74805Q7.17773 0.751953 6.17676-0.610352Q5.17578-1.97266 4.62891-3.6084Q4.08203-5.24414 4.08203-7.05078Q4.08203-8.86719 4.62891-10.5029Q5.17578-12.1387 6.17188-13.501Q7.16797-14.8633 8.52539-15.8594Q9.88281-16.8555 11.5186-17.4023Q13.1543-17.9492 14.9609-17.9492Q16.7773-17.9492 18.4131-17.4023Q20.0488-16.8555 21.4111-15.8594Q22.7734-14.8633 23.7744-13.501Q24.7754-12.1387 25.3223-10.5029Q25.8691-8.86719 25.8691-7.05078Q25.8691-5.24414 25.3223-3.6084Q24.7754-1.97266 23.7793-0.610352Q22.7832 0.751953 21.4209 1.74805Q20.0586 2.74414 18.4229 3.2959Q16.7871 3.84766 14.9707 3.84766ZM9.19922-7.05078Q9.19922-6.66992 9.45801-6.4209Q9.7168-6.17188 10.1172-6.17188L14.0625-6.17188L14.0625-2.2168Q14.0625-1.81641 14.3115-1.55762Q14.5605-1.29883 14.9512-1.29883Q15.3516-1.29883 15.6104-1.55273Q15.8691-1.80664 15.8691-2.2168L15.8691-6.17188L19.8242-6.17188Q20.2246-6.17188 20.4785-6.4209Q20.7324-6.66992 20.7324-7.05078Q20.7324-7.46094 20.4785-7.71484Q20.2246-7.96875 19.8242-7.96875L15.8691-7.96875L15.8691-11.9141Q15.8691-12.3242 15.6104-12.583Q15.3516-12.8418 14.9512-12.8418Q14.5605-12.8418 14.3115-12.583Q14.0625-12.3242 14.0625-11.9141L14.0625-7.96875L10.1172-7.96875Q9.70703-7.96875 9.45312-7.71484Q9.19922-7.46094 9.19922-7.05078Z"/>
  </g>
  <text style="stroke:none;fill:black;font-family:sans-serif;font-size:13;font-weight:bold;" transform="matrix(1 0 0 1 263 1953)">Design Variations</text>
  <text style="stroke:none;fill:black;font-family:sans-serif;font-size:13;" transform="matrix(1 0 0 1 263 1971)">Symbols are supported in up to nine weights and three scales.</text>
  <text style="stroke:none;fill:black;font-family:sans-serif;font-size:13;" transform="matrix(1 0 0 1 263 1989)">For optimal layout with text and other symbols, vertically align</text>
  <text style="stroke:none;fill:black;font-family:sans-serif;font-size:13;" transform="matrix(1 0 0 1 263 2007)">symbols with the adjacent text.</text>
  <line style="fill:none;stroke:#00AEEF;stroke-width:0.5;opacity:1.0;" x1="776" x2="776" y1="1919" y2="1933"/>
  <g transform="matrix(1 0 0 1 776 1933)">
   <path d="M3.31055 0.15625Q3.70117 0.15625 3.91602-0.00976562Q4.13086-0.175781 4.26758-0.585938L5.52734-4.0332L11.2891-4.0332L12.5488-0.585938Q12.6855-0.175781 12.9004-0.00976562Q13.1152 0.15625 13.4961 0.15625Q13.8867 0.15625 14.1162-0.0585938Q14.3457-0.273438 14.3457-0.644531Q14.3457-0.869141 14.2383-1.17188L9.6582-13.3691Q9.48242-13.8184 9.17969-14.043Q8.87695-14.2676 8.4082-14.2676Q7.5-14.2676 7.17773-13.3789L2.59766-1.16211Q2.49023-0.859375 2.49023-0.634766Q2.49023-0.263672 2.70996-0.0537109Q2.92969 0.15625 3.31055 0.15625ZM6.00586-5.51758L8.37891-12.0898L8.42773-12.0898L10.8008-5.51758Z"/>
  </g>
  <line style="fill:none;stroke:#00AEEF;stroke-width:0.5;opacity:1.0;" x1="793.197" x2="793.197" y1="1919" y2="1933"/>
  <text style="stroke:none;fill:black;font-family:sans-serif;font-size:13;font-weight:bold;" transform="matrix(1 0 0 1 776 1953)">Margins</text>
  <text style="stroke:none;fill:black;font-family:sans-serif;font-size:13;" transform="matrix(1 0 0 1 776 1971)">Leading and trailing margins on the left and right side of each symbol</text>
  <text style="stroke:none;fill:black;font-family:sans-serif;font-size:13;" transform="matrix(1 0 0 1 776 1989)">can be adjusted by modifying the x-location of the margin guidelines.</text>
  <text style="stroke:none;fill:black;font-family:sans-serif;font-size:13;" transform="matrix(1 0 0 1 776 2007)">Modifications are automatically applied proportionally to all</text>
  <text style="stroke:none;fill:black;font-family:sans-serif;font-size:13;" transform="matrix(1 0 0 1 776 2025)">scales and weights.</text>
  <g transform="matrix(1 0 0 1 1289 1933)">
   <path d="M2.8418 1.86523L4.54102 3.57422Q5.18555 4.22852 5.90332 4.17969Q6.62109 4.13086 7.31445 3.35938L18.0078-8.42773L17.041-9.4043L6.42578 2.27539Q6.16211 2.57812 5.89355 2.61719Q5.625 2.65625 5.27344 2.30469L4.10156 1.14258Q3.75 0.791016 3.79395 0.522461Q3.83789 0.253906 4.14062-0.0195312L15.6152-10.8203L14.6387-11.7871L3.04688-0.898438Q2.30469-0.214844 2.25098 0.498047Q2.19727 1.21094 2.8418 1.86523ZM9.25781-16.3281Q8.94531-16.0254 8.90625-15.6348Q8.86719-15.2441 9.04297-14.9512Q9.21875-14.6777 9.55566-14.541Q9.89258-14.4043 10.3809-14.5215Q11.4746-14.7754 12.5977-14.7314Q13.7207-14.6875 14.7949-13.9844L14.209-12.5293Q13.9551-11.9043 14.0674-11.4404Q14.1797-10.9766 14.5801-10.5664L16.875-8.25195Q17.2363-7.88086 17.5781-7.82227Q17.9199-7.76367 18.3398-7.8418L19.4043-8.03711L20.0684-7.36328L20.0293-6.80664Q20-6.43555 20.1221-6.12305Q20.2441-5.81055 20.6055-5.44922L21.3672-4.70703Q21.7285-4.3457 22.1533-4.33105Q22.5781-4.31641 22.9297-4.66797L25.8398-7.58789Q26.1914-7.93945 26.1816-8.35449Q26.1719-8.76953 25.8105-9.13086L25.0391-9.89258Q24.6875-10.2539 24.3799-10.3857Q24.0723-10.5176 23.7109-10.4883L23.1348-10.4395L22.4902-11.0742L22.7344-12.1973Q22.832-12.6172 22.6953-12.9834Q22.5586-13.3496 22.1191-13.7891L19.9219-15.9766Q18.6719-17.2168 17.2607-17.8369Q15.8496-18.457 14.4189-18.4814Q12.9883-18.5059 11.665-17.959Q10.3418-17.4121 9.25781-16.3281ZM10.752-15.957Q11.6602-16.6211 12.7002-16.9043Q13.7402-17.1875 14.8047-17.085Q15.8691-16.9824 16.8701-16.5137Q17.8711-16.0449 18.7012-15.2051L21.1328-12.793Q21.3086-12.6172 21.3525-12.4512Q21.3965-12.2852 21.3379-12.0312L21.0156-10.5469L22.5195-9.0625L23.5059-9.12109Q23.6914-9.13086 23.7891-9.09668Q23.8867-9.0625 24.0332-8.91602L24.6094-8.33984L22.168-5.89844L21.5918-6.47461Q21.4453-6.62109 21.4062-6.71875Q21.3672-6.81641 21.377-7.01172L21.4453-7.98828L19.9512-9.47266L18.4277-9.21875Q18.1836-9.16992 18.042-9.2041Q17.9004-9.23828 17.7148-9.41406L15.7129-11.416Q15.5176-11.5918 15.4932-11.7529Q15.4688-11.9141 15.5859-12.1875L16.4648-14.2773Q15.293-15.3711 13.8281-15.791Q12.3633-16.2109 10.8398-15.7617Q10.7227-15.7324 10.6885-15.8057Q10.6543-15.8789 10.752-15.957Z"/>
  </g>
  <text style="stroke:none;fill:black;font-family:sans-serif;font-size:13;font-weight:bold;" transform="matrix(1 0 0 1 1289 1953)">Exporting</text>
  <text style="stroke:none;fill:black;font-family:sans-serif;font-size:13;" transform="matrix(1 0 0 1 1289 1971)">Symbols should be outlined when exporting to ensure the</text>
  <text style="stroke:none;fill:black;font-family:sans-serif;font-size:13;" transform="matrix(1 0 0 1 1289 1989)">design is preserved when submitting to Xcode.</text>
  <text id="template-version" style="stroke:none;fill:black;font-family:sans-serif;font-size:13;text-anchor:end;" transform="matrix(1 0 0 1 3036 1933)">Template v.2.0</text>
  <text style="stroke:none;fill:black;font-family:sans-serif;font-size:13;text-anchor:end;" transform="matrix(1 0 0 1 3036 1951)">Requires Xcode 12 or greater</text>
  <text id="descriptive-name" style="stroke:none;fill:black;font-family:sans-serif;font-size:13;text-anchor:end;" transform="matrix(1 0 0 1 3036 1969)">Generated from toilet</text>
  <text style="stroke:none;fill:black;font-family:sans-serif;font-size:13;text-anchor:end;" transform="matrix(1 0 0 1 3036 1987)">Typeset at 100 points</text>
  <text style="stroke:none;fill:black;font-family:sans-serif;font-size:13;" transform="matrix(1 0 0 1 263 726)">Small</text>
  <text style="stroke:none;fill:black;font-family:sans-serif;font-size:13;" transform="matrix(1 0 0 1 263 1156)">Medium</text>
  <text style="stroke:none;fill:black;font-family:sans-serif;font-size:13;" transform="matrix(1 0 0 1 263 1586)">Large</text>
 </g>
 <g id="Guides">
  <g id="H-reference" style="fill:#27AAE1;stroke:none;" transform="matrix(1 0 0 1 339 696)">
   <path d="M0.993347 0L3.6377 0L29.3282-67.1326L30.0301-67.1326L30.0301-70.459L28.1227-70.459ZM11.6882-24.4797L46.9818-24.4797L46.2311-26.7288L12.4382-26.7288ZM55.1193 0L57.7637 0L30.6381-70.459L29.4327-70.459L29.4327-67.1326Z"/>
  </g>
  <line id="Baseline-S" style="fill:none;stroke:#27AAE1;opacity:1;stroke-width:0.5;" x1="263" x2="3036" y1="696" y2="696"/>
  <line id="Capline-S" style="fill:none;stroke:#27AAE1;opacity:1;stroke-width:0.5;" x1="263" x2="3036" y1="625.541" y2="625.541"/>
  <g id="H-reference" style="fill:#27AAE1;stroke:none;" transform="matrix(1 0 0 1 339 1126)">
   <path d="M0.993347 0L3.6377 0L29.3282-67.1326L30.0301-67.1326L30.0301-70.459L28.1227-70.459ZM11.6882-24.4797L46.9818-24.4797L46.2311-26.7288L12.4382-26.7288ZM55.1193 0L57.7637 0L30.6381-70.459L29.4327-70.459L29.4327-67.1326Z"/>
  </g>
  <line id="Baseline-M" style="fill:none;stroke:#27AAE1;opacity:1;stroke-width:0.5;" x1="263" x2="3036" y1="1126" y2="1126"/>
  <line id="Capline-M" style="fill:none;stroke:#27AAE1;opacity:1;stroke-width:0.5;" x1="263" x2="3036" y1="1055.54" y2="1055.54"/>
  <g id="H-reference" style="fill:#27AAE1;stroke:none;" transform="matrix(1 0 0 1 339 1556)">
   <path d="M0.993347 0L3.6377 0L29.3282-67.1326L30.0301-67.1326L30.0301-70.459L28.1227-70.459ZM11.6882-24.4797L46.9818-24.4797L46.2311-26.7288L12.4382-26.7288ZM55.1193 0L57.7637 0L30.6381-70.459L29.4327-70.459L29.4327-67.1326Z"/>
  </g>
  <line id="Baseline-L" style="fill:none;stroke:#27AAE1;opacity:1;stroke-width:0.5;" x1="263" x2="3036" y1="1556" y2="1556"/>
  <line id="Capline-L" style="fill:none;stroke:#27AAE1;opacity:1;stroke-width:0.5;" x1="263" x2="3036" y1="1485.54" y2="1485.54"/>
  <line id="left-margin" style="fill:none;stroke:#00AEEF;stroke-width:0.5;opacity:1.0;" x1="1400.63" x2="1400.63" y1="1030.79" y2="1150.12"/>
  <line id="right-margin" style="fill:none;stroke:#00AEEF;stroke-width:0.5;opacity:1.0;" x1="1499.06" x2="1499.06" y1="1030.79" y2="1150.12"/>
 </g>
 <g id="Symbols">
  <g id="Black-L" transform="matrix(1 0 0 1 2865.91 1556)">
   <path d="M25.132-100.259L109.839-100.259Q113.393-100.259 115.881-102.786Q118.369-105.314 118.369-108.789Q118.369-112.344 115.881-114.842Q113.393-117.34 109.839-117.34L25.132-117.34Q21.636-117.34 19.1189-114.842Q16.6017-112.344 16.6017-108.789Q16.6017-105.314 19.1189-102.786Q21.636-100.259 25.132-100.259ZM26.9622-50.4951L44.0425-51.6909L40.3157-108.604L23.2306-107.507ZM90.9284-51.6909L107.988-50.4951L111.74-107.507L94.6553-108.604ZM67.4763-16.4839Q82.4476-16.4839 94.0324-19.5506Q105.617-22.6174 112.252-28.3444Q118.886-34.0714 118.886-42.0857Q118.886-50.1377 112.278-55.8459Q105.671-61.5541 94.0849-64.6105Q82.4988-67.6668 67.4763-67.6668Q52.5329-67.6668 40.9177-64.6105Q29.3024-61.5541 22.6938-55.8459Q16.0852-50.1377 16.0852-42.0857Q16.0852-34.0714 22.723-28.3444Q29.3608-22.6174 40.9865-19.5506Q52.6121-16.4839 67.4763-16.4839ZM67.4751-33.5666Q56.8704-33.5666 49.1835-34.8231Q41.4965-36.0796 37.3614-38.0354Q33.2263-39.9911 33.2263-42.0857Q33.2263-44.2192 37.3614-46.1555Q41.4965-48.0919 49.1835-49.349Q56.8704-50.6061 67.4751-50.6061Q78.1017-50.6061 85.7881-49.349Q93.4745-48.0919 97.5997-46.1555Q101.725-44.2192 101.725-42.0857Q101.725-39.9911 97.6021-38.0354Q93.4792-36.0796 85.7935-34.8231Q78.1077-33.5666 67.4751-33.5666ZM66.0585 10.4209L68.9136 10.4209Q83.9009 10.4209 95.1546 3.79329Q106.408-2.83436 112.679-14.6708Q118.949-26.5073 118.887-42.0857L101.725-42.0857Q101.786-30.8975 97.9525-22.9601Q94.1187-15.0227 86.7751-10.8312Q79.4314-6.63975 68.9136-6.63975L66.0585-6.63975Q55.5783-6.63975 48.2048-10.8312Q40.8314-15.0227 37.008-22.9497Q33.1846-30.8767 33.2263-42.0857L16.084-42.0857Q16.0215-26.5073 22.2921-14.6708Q28.5626-2.83436 39.8169 3.79329Q51.0713 10.4209 66.0585 10.4209ZM67.5167 46.7594Q74.1407 46.7594 80.9679 45.7279Q87.7952 44.6964 93.6663 42.4515Q99.5373 40.2065 103.124 36.5452Q104.683 34.852 105.106 32.5481Q105.528 30.2443 104.753 27.7914L92.694-11.167L77.5481-2.421L90.1819 38.3698L94.0096 21.7431Q88.1478 26.4448 81.6135 28.0613Q75.0793 29.6779 67.5167 29.6779Q59.9749 29.6779 53.4303 28.0613Q46.8856 26.4448 41.0446 21.7431L44.8723 38.3698L57.5061-2.421L42.3602-11.167L30.2808 27.7914Q29.5635 30.2443 29.9672 32.5481Q30.3709 34.852 31.9092 36.5452Q35.5169 40.2065 41.3885 42.4515Q47.2602 44.6964 54.1161 45.7279Q60.972 46.7594 67.5167 46.7594Z"/>
  </g>
  <g id="Heavy-L" transform="matrix(1 0 0 1 2570.27 1556)">
   <path d="M24.2987-100.457L108.544-100.457Q111.725-100.457 113.952-102.721Q116.178-104.985 116.178-108.092Q116.178-111.273 113.952-113.515Q111.725-115.757 108.544-115.757L24.2987-115.757Q21.1618-115.757 18.9129-113.515Q16.6641-111.273 16.6641-108.092Q16.6641-104.985 18.9129-102.721Q21.1618-100.457 24.2987-100.457ZM26.9474-51.144L42.2412-52.3415L38.6015-107.356L23.2852-106.488ZM90.601-52.3415L105.865-51.144L109.557-106.488L94.2408-107.356ZM66.4117-17.6152Q81.1485-17.6152 92.4865-20.5802Q103.825-23.5452 110.289-29.0389Q116.753-34.5326 116.753-42.1751Q116.753-49.8321 110.3-55.3186Q103.847-60.8051 92.5031-63.755Q81.1595-66.7049 66.4117-66.7049Q51.7386-66.7049 40.3727-63.755Q29.0068-60.8051 22.5482-55.3186Q16.0896-49.8321 16.0896-42.1751Q16.0896-34.5326 22.5705-29.0389Q29.0514-23.5452 40.4324-20.5802Q51.8135-17.6152 66.4117-17.6152ZM66.406-32.9203Q55.7468-32.9203 47.8861-34.2408Q40.0255-35.5613 35.7324-37.6792Q31.4392-39.7971 31.4392-42.1751Q31.4392-44.5732 35.7324-46.6811Q40.0255-48.789 47.8861-50.1123Q55.7468-51.4356 66.406-51.4356Q77.1011-51.4356 84.959-50.1123Q92.8169-48.789 97.0976-46.6811Q101.378-44.5732 101.378-42.1751Q101.378-39.7971 97.1089-37.6792Q92.8393-35.5613 84.9842-34.2408Q77.1291-32.9203 66.406-32.9203ZM64.8341 8.65817L68.0137 8.65817Q82.5823 8.65817 93.5746 2.22497Q104.567-4.20823 110.708-15.6674Q116.849-27.1266 116.758-42.1751L101.378-42.1751Q101.463-31.0988 97.4908-23.1226Q93.5183-15.1463 86.0269-10.8787Q78.5354-6.61111 68.0137-6.61111L64.8341-6.61111Q54.3269-6.61111 46.8103-10.8787Q39.2937-15.1463 35.3363-23.1074Q31.3789-31.0686 31.4392-42.1751L16.084-42.1751Q15.9935-27.1266 22.1344-15.6674Q28.2753-4.20823 39.2704 2.22497Q50.2655 8.65817 64.8341 8.65817ZM66.4664 45.1569Q72.8891 45.1569 79.5032 44.1434Q86.1173 43.1298 91.7875 40.9706Q97.4577 38.8115 100.873 35.3443Q102.358 33.7565 102.714 31.6379Q103.07 29.5193 102.359 27.2279L90.748-10.4976L77.1889-2.67435L89.2717 36.5773L92.3054 22.453Q87.0964 26.6855 80.555 28.2714Q74.0136 29.8574 66.4664 29.8574Q58.9494 29.8574 52.3929 28.2714Q45.8364 26.6855 40.6576 22.453L43.6913 36.5773L55.774-2.67435L42.215-10.4976L30.5742 27.2279Q29.9076 29.5193 30.2564 31.6379Q30.6052 33.7565 32.0603 35.3443Q35.5052 38.8115 41.1783 40.9706Q46.8514 43.1298 53.4849 44.1434Q60.1185 45.1569 66.4664 45.1569Z"/>
  </g>
  <g id="Bold-L" transform="matrix(1 0 0 1 2274.98 1556)">
   <path d="M23.254-100.599L106.744-100.599Q109.45-100.599 111.342-102.525Q113.235-104.451 113.235-107.09Q113.235-109.795 111.342-111.707Q109.45-113.618 106.744-113.618L23.254-113.618Q20.5777-113.618 18.6705-111.707Q16.7633-109.795 16.7633-107.09Q16.7633-104.451 18.6705-102.525Q20.5777-100.599 23.254-100.599ZM26.9468-51.8539L39.9532-53.0961L36.4136-105.789L23.3544-105.258ZM90.0448-53.0961L103.013-51.8539L106.644-105.258L93.5845-105.789ZM64.9933-19.1404Q79.4009-19.1404 90.4092-21.9675Q101.418-24.7946 107.659-29.9778Q113.901-35.1609 113.901-42.3126Q113.901-49.4555 107.647-54.6432Q101.394-59.8308 90.3723-62.6388Q79.3508-65.4468 64.9933-65.4468Q50.7028-65.4468 39.6667-62.6388Q28.6305-59.8308 22.3639-54.6432Q16.0973-49.4555 16.0973-42.3126Q16.0973-35.1609 22.3785-29.9778Q28.6597-24.7946 39.7149-21.9675Q50.7701-19.1404 64.9933-19.1404ZM64.9799-32.1732Q54.2517-32.1732 46.1833-33.5707Q38.115-34.9681 33.6371-37.2821Q29.1591-39.596 29.1591-42.3126Q29.1591-45.0335 33.6371-47.3453Q38.115-49.6571 46.1833-51.0612Q54.2517-52.4652 64.9799-52.4652Q75.7596-52.4652 83.8214-51.0612Q91.8832-49.6571 96.3486-47.3453Q100.814-45.0335 100.814-42.3126Q100.814-39.596 96.3751-37.2821Q91.9361-34.9681 83.8808-33.5707Q75.8256-32.1732 64.9799-32.1732ZM63.2904 6.38649L66.7206 6.38649Q80.7594 6.38649 91.4178 0.217641Q102.076-5.9512 108.052-16.9268Q114.028-27.9024 113.914-42.3126L100.814-42.3126Q100.915-31.3374 96.7656-23.315Q92.6165-15.2926 84.9369-10.9438Q77.2573-6.59512 66.7206-6.59512L63.2904-6.59512Q52.745-6.59512 45.0442-10.9438Q37.3433-15.2926 33.2132-23.2959Q29.0831-31.2993 29.1591-42.3126L16.084-42.3126Q15.9701-27.9024 21.946-16.9268Q27.9218-5.9512 38.5867 0.217641Q49.2517 6.38649 63.2904 6.38649ZM65.0559 43.003Q71.2402 43.003 77.5743 42.0162Q83.9084 41.0293 89.2991 38.9889Q94.6898 36.9484 97.8746 33.7494Q99.2826 32.2847 99.5616 30.3855Q99.8406 28.4862 99.1988 26.3648L88.1937-9.72741L76.6614-3.08625L88.0528 34.3044L90.1849 23.1428Q85.7007 26.8584 79.1554 28.4208Q72.6101 29.9833 65.0559 29.9833Q57.5398 29.9833 50.9754 28.4208Q44.4111 26.8584 39.965 23.1428L42.0971 34.3044L53.4885-3.08625L41.9562-9.72741L30.913 26.3648Q30.3006 28.4862 30.5839 30.3855Q30.8673 32.2847 32.2374 33.7494Q35.4601 36.9484 40.8575 38.9889Q46.2548 41.0293 52.5969 42.0162Q58.9389 43.003 65.0559 43.003Z"/>
  </g>
  <g id="Semibold-L" transform="matrix(1 0 0 1 1979.25 1556)">
   <path d="M22.5338-100.696L105.503-100.696Q107.881-100.696 109.543-102.39Q111.205-104.083 111.205-106.399Q111.205-108.776 109.543-110.46Q107.881-112.144 105.503-112.144L22.5338-112.144Q20.1751-112.144 18.5034-110.46Q16.8317-108.776 16.8317-106.399Q16.8317-104.083 18.5034-102.39Q20.1751-100.696 22.5338-100.696ZM26.9464-52.3432L38.3758-53.6163L34.9054-104.709L23.4021-104.41ZM89.6613-53.6163L101.047-52.3432L104.635-104.41L93.132-104.709ZM64.0154-20.1919Q78.1961-20.1919 88.9772-22.9239Q99.7582-25.6559 105.846-30.625Q111.935-35.5941 111.935-42.4073Q111.935-49.1959 105.819-54.1775Q99.7029-59.1591 88.9034-61.8693Q78.1038-64.5795 64.0154-64.5795Q49.9888-64.5795 39.18-61.8693Q28.3712-59.1591 22.2369-54.1775Q16.1026-49.1959 16.1026-42.4073Q16.1026-35.5941 22.2462-30.625Q28.3897-25.6559 39.2203-22.9239Q50.0509-20.1919 64.0154-20.1919ZM63.9968-31.6582Q53.221-31.6582 45.0094-33.1087Q36.7979-34.5591 32.1926-37.0083Q27.5872-39.4575 27.5872-42.4073Q27.5872-45.3509 32.1926-47.8032Q36.7979-50.2556 45.0094-51.7153Q53.221-53.175 63.9968-53.175Q74.8348-53.175 83.0371-51.7153Q91.2395-50.2556 95.8322-47.8032Q100.425-45.3509 100.425-42.4073Q100.425-39.4575 95.8692-37.0083Q91.3134-34.5591 83.1202-33.1087Q74.927-31.6582 63.9968-31.6582ZM62.2262 4.8204L65.8292 4.8204Q79.5027 4.8204 89.9308-1.1662Q100.359-7.1528 106.221-17.795Q112.083-28.4373 111.953-42.4073L100.425-42.4073Q100.537-31.5019 96.2657-23.4476Q91.9948-15.3934 84.1855-10.9887Q76.3763-6.5841 65.8292-6.5841L62.2262-6.5841Q51.6545-6.5841 43.8266-10.9887Q35.9988-15.3934 31.7496-23.4259Q27.5005-31.4584 27.5872-42.4073L16.084-42.4073Q15.954-28.4373 21.8161-17.795Q27.6781-7.1528 38.1154-1.1662Q48.5527 4.8204 62.2262 4.8204ZM64.0835 41.5181Q70.1034 41.5181 76.2445 40.5497Q82.3856 39.5813 87.5836 37.6227Q92.7816 35.6641 95.8079 32.6499Q97.1626 31.2701 97.3885 29.522Q97.6144 27.774 97.0204 25.7698L86.4329-9.19644L76.2977-3.3702L87.2125 32.7376L88.723 23.6184Q84.7386 26.9776 78.1905 28.5238Q71.6425 30.0701 64.0835 30.0701Q56.5681 30.0701 49.9983 28.5238Q43.4284 26.9776 39.4875 23.6184L40.9981 32.7376L51.9129-3.3702L41.7777-9.19644L31.1466 25.7698Q30.5715 27.774 30.8098 29.522Q31.048 31.2701 32.3595 32.6499Q35.429 35.6641 40.6363 37.6227Q45.8436 39.5813 51.9846 40.5497Q58.1257 41.5181 64.0835 41.5181Z"/>
  </g>
  <g id="Medium-L" transform="matrix(1 0 0 1 1683.28 1556)">
   <path d="M21.9878-100.77L104.563-100.77Q106.691-100.77 108.179-102.287Q109.667-103.804 109.667-105.875Q109.667-108.003 108.179-109.515Q106.691-111.027 104.563-111.027L21.9878-111.027Q19.8698-111.027 18.3767-109.515Q16.8836-108.003 16.8836-105.875Q16.8836-103.804 18.3767-102.287Q19.8698-100.77 21.9878-100.77ZM26.9461-52.7143L37.1798-54.0108L33.7617-103.89L23.4382-103.766ZM89.3705-54.0108L99.5569-52.7143L103.112-103.766L92.789-103.89ZM63.274-20.9892Q77.2826-20.9892 87.8913-23.6491Q98.5-26.309 104.472-31.1158Q110.444-35.9225 110.444-42.4792Q110.444-48.9991 104.432-53.8244Q98.4207-58.6497 87.7895-61.2858Q77.1584-63.9219 63.274-63.9219Q49.4473-63.9219 38.8109-61.2858Q28.1745-58.6497 22.1406-53.8244Q16.1066-48.9991 16.1066-42.4792Q16.1066-35.9225 22.1458-31.1158Q28.185-26.309 38.8453-23.6491Q49.5055-20.9892 63.274-20.9892ZM63.2513-31.2677Q52.4394-31.2677 44.1193-32.7584Q35.7992-34.249 31.0973-36.8007Q26.3953-39.3524 26.3953-42.4792Q26.3953-45.5915 31.0973-48.1504Q35.7992-50.7093 44.1193-52.2113Q52.4394-53.7132 63.2513-53.7132Q74.1335-53.7132 82.4425-52.2113Q90.7514-50.7093 95.4407-48.1504Q100.13-45.5915 100.13-42.4792Q100.13-39.3524 95.4856-36.8007Q90.8413-34.249 82.5434-32.7584Q74.2456-31.2677 63.2513-31.2677ZM61.4193 3.63293L65.1533 3.63293Q78.5498 3.63293 88.8034-2.21548Q99.057-8.0639 104.833-18.4533Q110.609-28.8428 110.466-42.4792L100.13-42.4792Q100.25-31.6266 95.8866-23.5482Q91.5234-15.4699 83.6158-11.0228Q75.7082-6.57574 65.1533-6.57574L61.4193-6.57574Q50.8276-6.57574 42.9035-11.0228Q34.9793-15.4699 30.6399-23.5244Q26.3004-31.579 26.3953-42.4792L16.084-42.4792Q15.9418-28.8428 21.7176-18.4533Q27.4933-8.0639 37.758-2.21548Q48.0228 3.63293 61.4193 3.63293ZM63.3462 40.3922Q69.2415 40.3922 75.2362 39.4377Q81.231 38.4833 86.2828 36.5867Q91.3347 34.6902 94.2408 31.8161Q95.5551 30.5007 95.7407 28.8673Q95.9264 27.2339 95.3687 25.3186L85.0977-8.79383L76.0219-3.58551L86.5754 31.5495L87.6146 23.979Q84.0091 27.0679 77.4589 28.6019Q70.9088 30.1359 63.3462 30.1359Q55.8313 30.1359 49.2574 28.6019Q42.6834 27.0679 39.1255 23.979L40.1647 31.5495L50.7182-3.58551L41.6424-8.79383L31.3237 25.3186Q30.7769 27.2339 30.981 28.8673Q31.185 30.5007 32.4521 31.8161Q35.4054 34.6902 40.4686 36.5867Q45.5317 38.4833 51.5204 39.4377Q57.5091 40.3922 63.3462 40.3922Z"/>
  </g>
  <g id="Regular-L" transform="matrix(1 0 0 1 1387.54 1556)">
   <path d="M21.2755-100.867L103.335-100.867Q105.14-100.867 106.4-102.153Q107.66-103.44 107.66-105.191Q107.66-106.995 106.4-108.282Q105.14-109.569 103.335-109.569L21.2755-109.569Q19.4716-109.569 18.2114-108.282Q16.9513-106.995 16.9513-105.191Q16.9513-103.44 18.2114-102.153Q19.4716-100.867 21.2755-100.867ZM26.9457-53.1983L35.6197-54.5253L32.27-102.822L23.4854-102.927ZM88.9913-54.5253L97.6127-53.1983L101.126-102.927L92.3415-102.822ZM62.3069-22.0291Q76.091-22.0291 86.475-24.5949Q96.8589-27.1608 102.679-31.7559Q108.5-36.3509 108.5-42.5729Q108.5-48.7423 102.624-53.3638Q96.7483-57.9854 86.3367-60.5248Q75.9252-63.0642 62.3069-63.0642Q48.7411-63.0642 38.3296-60.5248Q27.918-57.9854 22.0149-53.3638Q16.1119-48.7423 16.1119-42.5729Q16.1119-36.3509 22.0149-31.7559Q27.918-27.1608 38.3561-24.5949Q48.7941-22.0291 62.3069-22.0291ZM62.279-30.7584Q51.42-30.7584 42.9583-32.3014Q34.4966-33.8445 29.6687-36.5299Q24.8407-39.2153 24.8407-42.5729Q24.8407-45.9053 29.6687-48.6033Q34.4966-51.3013 42.9583-52.8583Q51.42-54.4153 62.279-54.4153Q73.2189-54.4153 81.6669-52.8583Q90.1148-51.3013 94.93-48.6033Q99.7452-45.9053 99.7452-42.5729Q99.7452-39.2153 94.9853-36.5299Q90.2254-33.8445 81.7911-32.3014Q73.3569-30.7584 62.279-30.7584ZM60.3668 2.08406L64.2716 2.08406Q77.3069 2.08406 87.3328-3.58412Q97.3587-9.25229 103.022-19.312Q108.686-29.3717 108.527-42.5729L99.7452-42.5729Q99.8758-31.7893 95.3922-23.6794Q90.9085-15.5696 82.8726-11.0672Q74.8368-6.56484 64.2716-6.56484L60.3668-6.56484Q49.7491-6.56484 41.6993-11.0672Q33.6495-15.5696 29.1923-23.6529Q24.7352-31.7363 24.8407-42.5729L16.084-42.5729Q15.9259-29.3717 21.5891-19.312Q27.2523-9.25229 37.2919-3.58412Q47.3315 2.08406 60.3668 2.08406ZM62.3845 38.9236Q68.1172 38.9236 73.9211 37.9874Q79.725 37.0511 84.5862 35.2355Q89.4474 33.4199 92.1967 30.7287Q93.4583 29.4973 93.5915 28.0134Q93.7247 26.5295 93.2143 24.7301L83.3561-8.26869L75.6622-3.86634L85.7443 29.9999L86.1688 24.4493Q83.0575 27.1858 76.5047 28.7038Q69.9518 30.2217 62.3845 30.2217Q54.8703 30.2217 48.2909 28.7038Q41.7116 27.1858 38.6533 24.4493L39.0778 29.9999L49.1599-3.86634L41.4659-8.26869L31.5548 24.7301Q31.0448 26.5295 31.2043 28.0134Q31.3638 29.4973 32.5728 30.7287Q35.3747 33.4199 40.2498 35.2355Q45.125 37.0511 50.9149 37.9874Q56.7049 38.9236 62.3845 38.9236Z"/>
  </g>
  <g id="Light-L" transform="matrix(1 0 0 1 1092.48 1556)">
   <path d="M20.4739-100.294L100.835-100.294Q102.22-100.294 103.184-101.275Q104.148-102.257 104.148-103.607Q104.148-104.991 103.184-105.973Q102.22-106.954 100.835-106.954L20.4739-106.954Q19.09-106.954 18.1257-105.973Q17.1613-104.991 17.1613-103.607Q17.1613-102.257 18.1257-101.275Q19.09-100.294 20.4739-100.294ZM27.0602-53.0838L33.673-54.7161L30.3425-101.6L23.5428-102.278ZM87.6362-54.7161L94.2157-53.0838L97.7672-102.278L90.9675-101.6ZM60.6847-23.8802Q73.9917-23.8802 83.9939-26.2744Q93.9961-28.6685 99.5875-32.9106Q105.179-37.1526 105.179-42.84Q105.179-48.4941 99.494-52.7532Q93.8092-57.0122 83.7603-59.3893Q73.7113-61.7665 60.6847-61.7665Q47.6913-61.7665 37.6424-59.3893Q27.5935-57.0122 21.8623-52.7532Q16.1311-48.4941 16.1311-42.84Q16.1311-37.1526 21.8623-32.9106Q27.5935-28.6685 37.6594-26.2744Q47.7254-23.8802 60.6847-23.8802ZM60.6376-30.5865Q49.7215-30.5865 41.1644-32.1677Q32.6073-33.749 27.722-36.5394Q22.8366-39.3298 22.8366-42.84Q22.8366-46.3632 27.722-49.1471Q32.6073-51.931 41.1644-53.5358Q49.7215-55.1406 60.6376-55.1406Q71.6348-55.1406 80.1687-53.5358Q88.7027-51.931 93.5941-49.1471Q98.4856-46.3632 98.4856-42.84Q98.4856-39.3298 93.6876-36.5394Q88.8896-33.749 80.3788-32.1677Q71.8681-30.5865 60.6376-30.5865ZM59.1262-0.0534322L62.2293-0.0534322Q74.8256-0.0534322 84.5558-5.38764Q94.2859-10.7219 99.8063-20.3426Q105.327-29.9633 105.225-42.84L98.4856-42.84Q98.54-31.8848 93.9035-23.7559Q89.2671-15.627 81.0689-11.1531Q72.8708-6.67931 62.2293-6.67931L59.1262-6.67931Q48.4514-6.67931 40.2297-11.1531Q32.0081-15.627 27.3886-23.7389Q22.7692-31.8507 22.8366-42.84L16.084-42.84Q15.9833-29.9633 21.5033-20.3426Q27.0233-10.7219 36.7766-5.38764Q46.5299-0.0534322 59.1262-0.0534322ZM60.7049 36.3471Q66.3424 36.3471 71.8504 35.4585Q77.3585 34.5699 81.8284 32.9166Q86.2982 31.2632 88.7805 28.9346Q90.0802 27.7414 90.1943 26.3434Q90.3084 24.9455 89.7788 23.0698L80.6652-8.11606L74.7653-4.78246L84.3129 28.0913L84.6418 23.705Q81.4924 26.4987 74.9682 28.0929Q68.4441 29.6872 60.7049 29.6872Q52.9999 29.6872 46.4587 28.0929Q39.9175 26.4987 36.8022 23.705L37.1311 28.0913L46.6787-4.78246L40.7788-8.11606L31.6311 23.0698Q31.1022 24.9455 31.233 26.3434Q31.3638 27.7414 32.6302 28.9346Q35.1457 31.2632 39.6391 32.9166Q44.1326 34.5699 49.6171 35.4585Q55.1016 36.3471 60.7049 36.3471Z"/>
  </g>
  <g id="Thin-L" transform="matrix(1 0 0 1 797.951 1556)">
   <path d="M19.4136-99.5365L97.5287-99.5365Q98.3582-99.5365 98.9307-100.114Q99.5032-100.692 99.5032-101.512Q99.5032-102.341 98.9307-102.918Q98.3582-103.496 97.5287-103.496L19.4136-103.496Q18.5854-103.496 18.0122-102.918Q17.4391-102.341 17.4391-101.512Q17.4391-100.692 18.0122-100.114Q18.5854-99.5365 19.4136-99.5365ZM27.2116-52.9324L31.0984-54.9684L27.7933-99.985L23.6187-101.42ZM85.8439-54.9684L89.7229-52.9324L93.3248-101.42L89.1502-99.985ZM58.5392-26.3285Q71.2152-26.3285 80.7125-28.4956Q90.2098-30.6626 95.4984-34.4377Q100.787-38.2128 100.787-43.1933Q100.787-48.1658 95.3545-51.9455Q89.9219-55.7251 80.3527-57.8876Q70.7834-60.0502 58.5392-60.0502Q46.3028-60.0502 36.7336-57.8876Q27.1643-55.7251 21.6604-51.9455Q16.1565-48.1658 16.1565-43.1933Q16.1565-38.2128 21.6604-34.4377Q27.1643-30.6626 36.7381-28.4956Q46.3119-26.3285 58.5392-26.3285ZM58.4666-30.3592Q47.4751-30.3592 38.7918-31.9909Q30.1086-33.6226 25.1473-36.5519Q20.186-39.4812 20.186-43.1933Q20.186-46.9688 25.1473-49.8664Q30.1086-52.7639 38.7918-54.4319Q47.4751-56.0999 58.4666-56.0999Q69.5398-56.0999 78.1874-54.4319Q86.835-52.7639 91.8274-49.8664Q96.8198-46.9688 96.8198-43.1933Q96.8198-39.4812 91.9713-36.5519Q87.1228-33.6226 78.5109-31.9909Q69.899-30.3592 58.4666-30.3592ZM57.4854-2.88044L59.5283-2.88044Q71.544-2.88044 80.8829-7.77296Q90.2218-12.6655 95.5531-21.7056Q100.884-30.7458 100.858-43.1933L96.8198-43.1933Q96.7732-32.0112 91.9347-23.857Q87.0961-15.7029 78.6834-11.2668Q70.2707-6.83071 59.5283-6.83071L57.4854-6.83071Q46.7351-6.83071 38.2861-11.2668Q29.8371-15.7029 25.0031-23.8525Q20.1691-32.0021 20.186-43.1933L16.084-43.1933Q16.0592-30.7458 21.3899-21.7056Q26.7205-12.6655 36.0951-7.77296Q45.4697-2.88044 57.4854-2.88044ZM58.4835 32.9396Q63.995 32.9396 69.1119 32.1139Q74.2287 31.2883 78.181 29.8495Q82.1332 28.4108 84.2622 26.5618Q85.6124 25.419 85.7013 24.1347Q85.7901 22.8505 85.2351 20.8738L77.1062-7.91419L73.5791-5.99409L82.4197 25.5671L82.6223 22.7207Q79.4224 25.5898 72.9362 27.285Q66.45 28.9802 58.4835 28.9802Q50.5262 28.9802 44.0354 27.285Q37.5447 25.5898 34.3539 22.7207L34.5564 25.5671L43.397-5.99409L39.8699-7.91419L31.732 20.8738Q31.1782 22.8505 31.271 24.1347Q31.3638 25.419 32.7061 26.5618Q34.8429 28.4108 38.8315 29.8495Q42.82 31.2883 47.9006 32.1139Q52.9812 32.9396 58.4835 32.9396Z"/>
  </g>
  <g id="Ultralight-L" transform="matrix(1 0 0 1 502.358 1556)">
   <path d="M18.8706-99.1486L95.835-99.1486Q96.3802-99.1486 96.7522-99.5195Q97.1243-99.8903 97.1243-100.439Q97.1243-100.983 96.7522-101.354Q96.3802-101.725 95.835-101.725L18.8706-101.725Q18.3269-101.725 17.9541-101.354Q17.5814-100.983 17.5814-100.439Q17.5814-99.8903 17.9541-99.5195Q18.3269-99.1486 18.8706-99.1486ZM27.2891-52.8549L29.7796-55.0977L26.4876-99.1576L23.6576-100.98ZM84.926-55.0977L87.4217-52.8549L91.0495-100.98L88.2194-99.1576ZM57.4403-27.5825Q69.793-27.5825 79.0317-29.6332Q88.2704-31.684 93.404-35.2199Q98.5375-38.7559 98.5375-43.3742Q98.5375-47.9977 93.2342-51.5318Q87.9309-55.0658 78.6073-57.1185Q69.2837-59.1711 57.4403-59.1711Q45.5917-59.1711 36.2681-57.1185Q26.9445-55.0658 21.557-51.5318Q16.1696-47.9977 16.1696-43.3742Q16.1696-38.7559 21.557-35.2199Q26.9445-31.684 36.2662-29.6332Q45.5879-27.5825 57.4403-27.5825ZM57.3547-30.2428Q46.3245-30.2428 37.5766-31.9003Q28.8287-33.5578 23.8286-36.5583Q18.8284-39.5587 18.8284-43.3742Q18.8284-47.279 23.8286-50.2348Q28.8287-53.1906 37.5766-54.8909Q46.3245-56.5912 57.3547-56.5912Q68.4667-56.5912 77.1725-54.8909Q85.8783-53.1906 90.9224-50.2348Q95.9665-47.279 95.9665-43.3742Q95.9665-39.5587 91.0922-36.5583Q86.2179-33.5578 77.5542-31.9003Q68.8905-30.2428 57.3547-30.2428ZM56.645-4.32841L58.1448-4.32841Q69.8632-4.32841 79.0017-8.9947Q88.1402-13.661 93.3746-22.4038Q98.609-31.1466 98.6216-43.3742L95.9665-43.3742Q95.8683-32.0759 90.9262-23.9089Q85.9842-15.7418 77.4616-11.325Q68.939-6.90826 58.1448-6.90826L56.645-6.90826Q45.856-6.90826 37.2906-11.325Q28.7252-15.7418 23.7813-23.9107Q18.8373-32.0797 18.8284-43.3742L16.084-43.3742Q16.0981-31.1466 21.3318-22.4038Q26.5654-13.661 35.746-8.9947Q44.9266-4.32841 56.645-4.32841ZM57.3458 31.1942Q62.7927 31.1942 67.7092 30.4008Q72.6257 29.6074 76.3128 28.2786Q79.9999 26.9498 81.9479 25.3465Q83.324 24.2295 83.3999 23.0035Q83.4759 21.7774 82.9078 19.7491L75.2833-7.81079L72.9716-6.61468L81.4501 24.2742L81.5879 22.2165Q78.3621 25.1243 71.8954 26.8712Q65.4286 28.6181 57.3458 28.6181Q49.2591 28.6181 42.7942 26.8712Q36.3294 25.1243 33.0999 22.2165L33.2377 24.2742L41.7162-6.61468L39.4044-7.81079L31.7837 19.7491Q31.217 21.7774 31.2904 23.0035Q31.3638 24.2295 32.745 25.3465Q34.6878 26.9498 38.4178 28.2786Q42.1477 29.6074 47.0214 30.4008Q51.8951 31.1942 57.3458 31.1942Z"/>
  </g>
  <g id="Black-M" transform="matrix(1 0 0 1 2880.43 1126)">
   <path d="M20.0784-85.3625L85.8713-85.3625Q88.8886-85.3625 91.0008-87.5059Q93.1129-89.6494 93.1129-92.6041Q93.1129-95.6214 91.0008-97.7362Q88.8886-99.8511 85.8713-99.8511L20.0784-99.8511Q17.1182-99.8511 14.9775-97.7362Q12.8369-95.6214 12.8369-92.6041Q12.8369-89.6494 14.9775-87.5059Q17.1182-85.3625 20.0784-85.3625ZM20.9171-46.4832L35.406-47.4495L32.4463-92.9821L17.9585-92.0132ZM70.5438-47.4495L85.0272-46.4832L87.9912-92.0132L73.5035-92.9821ZM52.9718-19.9849Q64.7076-19.9849 73.8433-22.4251Q82.979-24.8652 88.2341-29.4549Q93.4891-34.0445 93.4891-40.5007Q93.4891-47.0085 88.2632-51.5723Q83.0373-56.1361 73.9019-58.5735Q64.7664-61.0109 52.9718-61.0109Q41.2399-61.0109 32.0759-58.5735Q22.9119-56.1361 17.6863-51.5723Q12.4607-47.0085 12.4607-40.5007Q12.4607-34.0445 17.7148-29.4549Q22.969-24.8652 32.1357-22.4251Q41.3024-19.9849 52.9718-19.9849ZM52.9721-34.4733Q44.7954-34.4733 38.9764-35.397Q33.1573-36.3207 30.0817-37.7107Q27.0061-39.1008 27.0061-40.5007Q27.0061-41.9519 30.0817-43.3163Q33.1573-44.6807 38.9764-45.6043Q44.7954-46.5278 52.9721-46.5278Q61.154-46.5278 66.9732-45.6043Q72.7924-44.6807 75.8652-43.3163Q78.9379-41.9519 78.9379-40.5007Q78.9379-39.1008 75.8646-37.7107Q72.7913-36.3207 66.972-35.397Q61.1526-34.4733 52.9721-34.4733ZM52.0625 1.36318L53.887 1.36318Q65.7985 1.36318 74.7019-3.8934Q83.6052-9.14998 88.5552-18.5849Q93.5053-28.0199 93.4888-40.5007L78.9379-40.5007Q78.9546-31.7133 76.083-25.5947Q73.2113-19.4761 67.6269-16.298Q62.0426-13.1199 53.887-13.1199L52.0625-13.1199Q43.9585-13.1199 38.3457-16.298Q32.7329-19.4761 29.864-25.5919Q26.9951-31.7078 27.0061-40.5007L12.4609-40.5007Q12.4445-28.0199 17.3945-18.5849Q22.3445-9.14998 31.2477-3.8934Q40.151 1.36318 52.0625 1.36318ZM52.9831 29.3188Q58.275 29.3188 63.7075 28.5108Q69.14 27.7027 73.8082 25.9117Q78.4763 24.1207 81.3669 21.1664Q82.6435 19.7692 83.0254 17.8367Q83.4072 15.9042 82.7482 13.8547L73.1217-17.1419L60.2669-9.71776L70.456 23.0729L74.0909 8.19857Q68.9833 12.2522 63.931 13.5412Q58.8787 14.8302 52.9831 14.8302Q47.093 14.8302 42.038 13.5412Q36.9829 12.2522 31.8808 8.19857L35.5157 23.0729L45.7048-9.71776L32.85-17.1419L23.2181 13.8547Q22.6161 15.9042 22.9722 17.8367Q23.3282 19.7692 24.5993 21.1664Q27.4954 24.1207 32.1634 25.9117Q36.8314 27.7027 42.2926 28.5108Q47.7538 29.3188 52.9831 29.3188Z"/>
  </g>
  <g id="Heavy-M" transform="matrix(1 0 0 1 2584.6 1126)">
   <path d="M19.3377-85.6092L84.8357-85.6092Q87.5273-85.6092 89.4111-87.5231Q91.2949-89.4369 91.2949-92.0685Q91.2949-94.76 89.4111-96.6521Q87.5273-98.5441 84.8357-98.5441L19.3377-98.5441Q16.6898-98.5441 14.7841-96.6521Q12.8785-94.76 12.8785-92.0685Q12.8785-89.4369 14.7841-87.5231Q16.6898-85.6092 19.3377-85.6092ZM20.892-47.1281L33.8246-48.0679L30.9484-91.8753L18.0066-91.0774ZM70.3488-48.0679L83.2651-47.1281L86.1668-91.0774L73.2251-91.8753ZM52.0808-20.9202Q63.6314-20.9202 72.561-23.2767Q81.4906-25.6332 86.6004-30.0273Q91.7102-34.4214 91.7102-40.5634Q91.7102-46.7327 86.6177-51.1132Q81.5251-55.4937 72.5932-57.842Q63.6614-60.1903 52.0808-60.1903Q40.5602-60.1903 31.6065-57.842Q22.6528-55.4937 17.558-51.1132Q12.4632-46.7327 12.4632-40.5634Q12.4632-34.4214 17.5798-30.0273Q22.6965-25.6332 31.6584-23.2767Q40.6203-20.9202 52.0808-20.9202ZM52.0785-33.8574Q43.8537-33.8574 37.8737-34.8401Q31.8936-35.8228 28.6688-37.3617Q25.444-38.9005 25.444-40.5634Q25.444-42.2558 28.6688-43.7799Q31.8936-45.3041 37.8737-46.2879Q43.8537-47.2718 52.0785-47.2718Q60.322-47.2718 66.3009-46.2879Q72.2798-45.3041 75.4975-43.7799Q78.7152-42.2558 78.7152-40.5634Q78.7152-38.9005 75.5021-37.3617Q72.2889-35.8228 66.3111-34.8401Q60.3333-33.8574 52.0785-33.8574ZM50.98-0.162855L53.1957-0.162855Q64.7385-0.162855 73.4135-5.26016Q82.0886-10.3575 86.9252-19.4641Q91.7617-28.5708 91.7125-40.5634L78.7152-40.5634Q78.7622-31.9012 75.769-25.7464Q72.7758-19.5916 67.0619-16.3365Q61.348-13.0814 53.1957-13.0814L50.98-13.0814Q42.8549-13.0814 37.118-16.3365Q31.3812-19.5916 28.3962-25.7382Q25.4112-31.8848 25.444-40.5634L12.4609-40.5634Q12.4117-28.5708 17.2483-19.4641Q22.0848-10.3575 30.761-5.26016Q39.4372-0.162855 50.98-0.162855ZM52.1113 27.99Q57.2153 27.99 62.4667 27.1951Q67.7181 26.4001 72.226 24.678Q76.7339 22.9559 79.4809 20.1579Q80.6818 18.8603 81.0004 17.1009Q81.3191 15.3416 80.7248 13.4571L71.4677-16.5016L59.9986-9.88092L69.6983 21.4967L72.5659 8.96125Q68.0999 12.5509 63.0379 13.803Q57.976 15.0551 52.1113 15.0551Q46.2631 15.0551 41.1929 13.803Q36.1227 12.5509 31.6732 8.96125L34.5408 21.4967L44.2405-9.88092L32.7714-16.5016L23.4978 13.4571Q22.9472 15.3416 23.2522 17.1009Q23.5573 18.8603 24.7417 20.1579Q27.5051 22.9559 32.0142 24.678Q36.5233 26.4001 41.7953 27.1951Q47.0674 27.99 52.1113 27.99Z"/>
  </g>
  <g id="Bold-M" transform="matrix(1 0 0 1 2288.88 1126)">
   <path d="M18.5091-85.8851L83.6772-85.8851Q86.0044-85.8851 87.6328-87.5422Q89.2613-89.1993 89.2613-91.4693Q89.2613-93.7964 87.6328-95.4392Q86.0044-97.0821 83.6772-97.0821L18.5091-97.0821Q16.2106-97.0821 14.5678-95.4392Q12.925-93.7964 12.925-91.4693Q12.925-89.1993 14.5678-87.5422Q16.2106-85.8851 18.5091-85.8851ZM20.8639-47.8495L32.0557-48.7598L29.2728-90.6371L18.0605-90.0305ZM70.1306-48.7598L81.2938-47.8495L84.1259-90.0305L72.9136-90.6371ZM51.084-21.9663Q62.4274-21.9663 71.1265-24.2293Q79.8255-26.4922 84.7729-30.6676Q89.7203-34.843 89.7203-40.6336Q89.7203-46.4242 84.7769-50.5996Q79.8336-54.7751 71.1294-57.0237Q62.4252-59.2723 51.084-59.2723Q39.8-59.2723 31.0815-57.0237Q22.363-54.7751 17.4146-50.5996Q12.4661-46.4242 12.4661-40.6336Q12.4661-34.843 17.4288-30.6676Q22.3916-26.4922 31.1244-24.2293Q39.8572-21.9663 51.084-21.9663ZM51.0788-33.1684Q42.8003-33.1684 36.6401-34.2171Q30.48-35.2658 27.0883-36.9712Q23.6966-38.6765 23.6966-40.6336Q23.6966-42.5957 27.0883-44.2986Q30.48-46.0014 36.6401-47.0527Q42.8003-48.104 51.0788-48.104Q59.3912-48.104 65.5488-47.0527Q71.7065-46.0014 75.0863-44.2986Q78.4662-42.5957 78.4662-40.6336Q78.4662-38.6765 75.0966-36.9712Q71.727-35.2658 65.5719-34.2171Q59.4168-33.1684 51.0788-33.1684ZM49.7691-1.86995L52.4223-1.86995Q63.5527-1.86995 71.9724-6.78908Q80.3921-11.7082 85.1017-20.4476Q89.8113-29.187 89.7254-40.6336L78.4662-40.6336Q78.5469-32.1115 75.4178-25.9161Q72.2887-19.7207 66.4298-16.3795Q60.571-13.0382 52.4223-13.0382L49.7691-13.0382Q41.6204-13.0382 35.7447-16.3795Q29.869-19.7207 26.7542-25.9018Q23.6394-32.0828 23.6966-40.6336L12.4609-40.6336Q12.3751-29.187 17.0847-20.4476Q21.7942-11.7082 30.2165-6.78908Q38.6388-1.86995 49.7691-1.86995ZM51.1361 26.5035Q56.0298 26.5035 61.0786 25.7233Q66.1274 24.943 70.4561 23.2979Q74.7848 21.6529 77.3712 19.0299Q78.4873 17.8434 78.7353 16.2779Q78.9832 14.7123 78.4615 13.0123L69.6173-15.7853L59.6984-10.0634L68.8507 19.7334L70.8598 9.81441Q67.1117 12.885 62.0389 14.0958Q56.9662 15.3066 51.1361 15.3066Q45.3346 15.3066 40.2475 14.0958Q35.1605 12.885 31.441 9.81441L33.4501 19.7334L42.6025-10.0634L32.6835-15.7853L23.8107 13.0123Q23.3176 14.7123 23.5655 16.2779Q23.8135 17.8434 24.9011 19.0299Q27.516 21.6529 31.8473 23.2979Q36.1786 24.943 41.2391 25.7233Q46.2995 26.5035 51.1361 26.5035Z"/>
  </g>
  <g id="Semibold-M" transform="matrix(1 0 0 1 1992.86 1126)">
   <path d="M17.9379-86.0753L82.8785-86.0753Q84.9545-86.0753 86.4069-87.5554Q87.8593-89.0355 87.8593-91.0562Q87.8593-93.1321 86.4069-94.6031Q84.9545-96.0741 82.8785-96.0741L17.9379-96.0741Q15.8802-96.0741 14.4186-94.6031Q12.9571-93.1321 12.9571-91.0562Q12.9571-89.0355 14.4186-87.5554Q15.8802-86.0753 17.9379-86.0753ZM20.8446-48.3469L30.8362-49.2367L28.1176-89.7835L18.0976-89.3088ZM69.9802-49.2367L79.9349-48.3469L82.719-89.3088L72.6989-89.7835ZM50.3968-22.6875Q61.5974-22.6875 70.1375-24.886Q78.6777-27.0844 83.5131-31.109Q88.3485-35.1337 88.3485-40.682Q88.3485-46.2115 83.5079-50.2456Q78.6674-54.2797 70.1202-56.4596Q61.573-58.6394 50.3968-58.6394Q39.2758-58.6394 30.7195-56.4596Q22.1632-54.2797 17.3157-50.2456Q12.4681-46.2115 12.4681-40.682Q12.4681-35.1337 17.3247-31.109Q22.1814-27.0844 30.7562-24.886Q39.3311-22.6875 50.3968-22.6875ZM50.3897-32.6934Q42.0741-32.6934 35.7897-33.7876Q29.5054-34.8818 25.9987-36.702Q22.492-38.5221 22.492-40.682Q22.492-42.8301 25.9987-44.6561Q29.5054-46.4821 35.7897-47.5799Q42.0741-48.6777 50.3897-48.6777Q58.7495-48.6777 65.0303-47.5799Q71.3112-46.4821 74.8028-44.6561Q78.2945-42.8301 78.2945-40.682Q78.2945-38.5221 74.817-36.702Q71.3396-34.8818 65.0623-33.7876Q58.785-32.6934 50.3897-32.6934ZM48.9343-3.0468L51.8892-3.0468Q62.7352-3.0468 70.9788-7.8431Q79.2225-12.6394 83.8446-21.1256Q88.4667-29.6118 88.3555-40.682L78.2945-40.682Q78.3985-32.2565 75.1757-26.0331Q71.9528-19.8098 65.9941-16.4092Q60.0354-13.0085 51.8892-13.0085L48.9343-13.0085Q40.7693-13.0085 34.7979-16.4092Q28.8265-19.8098 25.6222-26.0146Q22.4179-32.2194 22.492-40.682L12.4609-40.682Q12.3499-29.6118 16.9719-21.1256Q21.5939-12.6394 29.8411-7.8431Q38.0883-3.0468 48.9343-3.0468ZM50.4638 25.4788Q55.2126 25.4788 60.1217 24.7086Q65.0308 23.9385 69.2359 22.3465Q73.441 20.7546 75.9167 18.2522Q76.9744 17.1425 77.1737 15.7105Q77.3729 14.2785 76.9011 12.7056L68.3417-15.2916L59.4914-10.1893L68.2664 18.5179L69.6837 10.4026Q66.4304 13.1154 61.3502 14.2977Q56.2701 15.48 50.4638 15.48Q44.6945 15.48 39.5958 14.2977Q34.4971 13.1154 31.2809 10.4026L32.6983 18.5179L41.4732-10.1893L32.6229-15.2916L24.0264 12.7056Q23.5729 14.2785 23.7815 15.7105Q23.9902 17.1425 25.0109 18.2522Q27.5236 20.7546 31.7323 22.3465Q35.941 23.9385 40.8556 24.7086Q45.7702 25.4788 50.4638 25.4788Z"/>
  </g>
  <g id="Medium-M" transform="matrix(1 0 0 1 1696.67 1126)">
   <path d="M17.5048-86.2196L82.2729-86.2196Q84.1585-86.2196 85.4774-87.5654Q86.7963-88.9113 86.7963-90.7431Q86.7963-92.6284 85.4774-93.9692Q84.1585-95.3099 82.2729-95.3099L17.5048-95.3099Q15.6297-95.3099 14.3056-93.9692Q12.9814-92.6284 12.9814-90.7431Q12.9814-88.9113 14.3056-87.5654Q15.6297-86.2196 17.5048-86.2196ZM20.8299-48.724L29.9115-49.5983L27.2417-89.1363L18.1257-88.7615ZM69.8662-49.5983L78.9045-48.724L81.6522-88.7615L72.5361-89.1363ZM49.8758-23.2344Q60.9681-23.2344 69.3877-25.3839Q77.8073-27.5335 82.5578-31.4438Q87.3083-35.3541 87.3083-40.7187Q87.3083-46.0502 82.5457-49.9771Q77.7832-53.904 69.355-56.0318Q60.9268-58.1596 49.8758-58.1596Q38.8784-58.1596 30.4451-56.0318Q22.0118-53.904 17.2407-49.9771Q12.4696-46.0502 12.4696-40.7187Q12.4696-35.3541 17.2458-31.4438Q22.022-27.5335 30.4771-25.3839Q38.9322-23.2344 49.8758-23.2344ZM49.8671-32.3332Q41.5234-32.3332 35.1449-33.462Q28.7664-34.5907 25.1725-36.4978Q21.5786-38.405 21.5786-40.7187Q21.5786-43.0078 25.1725-44.9272Q28.7664-46.8466 35.1449-47.9797Q41.5234-49.1128 49.8671-49.1128Q58.263-49.1128 64.6372-47.9797Q71.0114-46.8466 74.5879-44.9272Q78.1643-43.0078 78.1643-40.7187Q78.1643-38.405 74.6051-36.4978Q71.0458-34.5907 64.6759-33.462Q58.3059-32.3332 49.8671-32.3332ZM48.3013-3.93914L51.485-3.93914Q62.1153-3.93914 70.2255-8.64231Q78.3357-13.3455 82.8914-21.6397Q87.4471-29.934 87.3168-40.7187L78.1643-40.7187Q78.286-32.3664 74.9921-26.1219Q71.6982-19.8773 65.6637-16.4316Q59.6292-12.986 51.485-12.986L48.3013-12.986Q40.1239-12.986 34.08-16.4316Q28.0361-19.8773 24.7639-26.1001Q21.4917-32.3229 21.5786-40.7187L12.4609-40.7187Q12.3307-29.934 16.8864-21.6397Q21.442-13.3455 29.5565-8.64231Q37.6709-3.93914 48.3013-3.93914ZM49.954 24.7017Q54.5929 24.7017 59.3961 23.9393Q64.1993 23.1768 68.3108 21.6251Q72.4222 20.0735 74.8139 17.6626Q75.8273 16.6109 75.9896 15.2802Q76.1518 13.9495 75.718 12.4731L67.3745-14.9172L59.3345-10.2847L67.8233 17.5962L68.7919 10.8486Q65.9138 13.29 60.828 14.4507Q55.7423 15.6114 49.954 15.6114Q44.2092 15.6114 39.1017 14.4507Q33.9941 13.29 31.1595 10.8486L32.1281 17.5962L40.617-10.2847L32.5769-14.9172L24.19 12.4731Q23.7665 13.9495 23.9453 15.2802Q24.1241 16.6109 25.0942 17.6626Q27.5293 20.0735 31.645 21.6251Q35.7608 23.1768 40.5648 23.9393Q45.3688 24.7017 49.954 24.7017Z"/>
  </g>
  <g id="Regular-M" transform="matrix(1 0 0 1 1400.63 1126)">
   <path d="M16.9398-86.4077L81.4831-86.4077Q83.1202-86.4077 84.2649-87.5785Q85.4097-88.7493 85.4097-90.3345Q85.4097-91.9715 84.2649-93.1422Q83.1202-94.313 81.4831-94.313L16.9398-94.313Q15.3029-94.313 14.158-93.1422Q13.0132-91.9715 13.0132-90.3345Q13.0132-88.7493 14.158-87.5785Q15.3029-86.4077 16.9398-86.4077ZM20.8107-49.2159L28.7054-50.07L26.0993-88.2921L18.1624-88.0477ZM69.7175-50.07L77.5605-49.2159L80.2607-88.0477L72.3238-88.2921ZM49.1962-23.9477Q60.1472-23.9477 68.4096-26.0334Q76.672-28.1192 81.3118-31.8803Q85.9515-35.6415 85.9515-40.7665Q85.9515-45.8398 81.2907-49.6269Q76.6298-53.414 68.3569-55.4738Q60.0839-57.5337 49.1962-57.5337Q38.36-57.5337 30.0871-55.4738Q21.8142-53.414 17.1429-49.6269Q12.4716-45.8398 12.4716-40.7665Q12.4716-35.6415 17.1429-31.8803Q21.8142-28.1192 30.113-26.0334Q38.4119-23.9477 49.1962-23.9477ZM49.1855-31.8635Q40.8051-31.8635 34.3039-33.0372Q27.8026-34.2109 24.0949-36.2316Q20.3872-38.2523 20.3872-40.7665Q20.3872-43.2396 24.0949-45.2808Q27.8026-47.3221 34.3039-48.5011Q40.8051-49.6802 49.1855-49.6802Q57.6284-49.6802 64.1244-48.5011Q70.6205-47.3221 74.3075-45.2808Q77.9945-43.2396 77.9945-40.7665Q77.9945-38.2523 74.3286-36.2316Q70.6627-34.2109 64.1719-33.0372Q57.681-31.8635 49.1855-31.8635ZM47.4757-5.10307L50.9577-5.10307Q61.3068-5.10307 69.2429-9.68475Q77.179-14.2664 81.6481-22.3103Q86.1173-30.3541 85.962-40.7665L77.9945-40.7665Q78.1392-32.5098 74.7526-26.2376Q71.366-19.9654 65.2327-16.461Q59.0995-12.9565 50.9577-12.9565L47.4757-12.9565Q39.2822-12.9565 33.1436-16.461Q27.0051-19.9654 23.6444-26.2117Q20.2837-32.4579 20.3872-40.7665L12.4609-40.7665Q12.3058-30.3541 16.7748-22.3103Q21.2439-14.2664 29.1852-9.68475Q37.1266-5.10307 47.4757-5.10307ZM49.289 23.6882Q53.7846 23.6882 58.4497 22.9357Q63.1148 22.1833 67.104 20.6842Q71.0932 19.1851 73.3754 16.8934Q74.3311 15.9176 74.4452 14.7191Q74.5592 13.5205 74.1748 12.1699L66.1129-14.4288L59.1298-10.4091L67.2454 16.394L67.6287 11.4303Q65.24 13.5179 60.1469 14.6504Q55.0538 15.7829 49.289 15.7829Q43.5761 15.7829 38.4571 14.6504Q33.3381 13.5179 31.0012 11.4303L31.3845 16.394L39.5002-10.4091L32.517-14.4288L24.4033 12.1699Q24.019 13.5205 24.1589 14.7191Q24.2988 15.9176 25.2028 16.8934Q27.5367 19.1851 31.5312 20.6842Q35.5258 22.1833 40.1855 22.9357Q44.8453 23.6882 49.289 23.6882Z"/>
  </g>
  <g id="Light-M" transform="matrix(1 0 0 1 1105.4 1126)">
   <path d="M16.2211-85.8943L79.2415-85.8943Q80.5023-85.8943 81.3817-86.7914Q82.2612-87.6885 82.2612-88.9144Q82.2612-90.1747 81.3817-91.0718Q80.5023-91.9689 79.2415-91.9689L16.2211-91.9689Q14.9608-91.9689 14.0811-91.0718Q13.2015-90.1747 13.2015-88.9144Q13.2015-87.6885 14.0811-86.7914Q14.9608-85.8943 16.2211-85.8943ZM20.9134-49.1133L26.9601-50.2411L24.3712-87.197L18.2139-87.4659ZM68.5025-50.2411L74.5149-49.1133L77.2493-87.4659L71.0919-87.197ZM47.7418-25.6073Q58.2651-25.6073 66.1852-27.5391Q74.1054-29.4709 78.5398-32.9156Q82.9743-36.3602 82.9743-41.006Q82.9743-45.6173 78.4845-49.0794Q73.9947-52.5415 66.0469-54.4559Q58.0991-56.3702 47.7418-56.3702Q37.4188-56.3702 29.471-54.4559Q21.5232-52.5415 17.006-49.0794Q12.4888-45.6173 12.4888-41.006Q12.4888-36.3602 17.006-32.9156Q21.5232-29.4709 29.4885-27.5391Q37.4537-25.6073 47.7418-25.6073ZM47.7139-31.7094Q39.2823-31.7094 32.6955-32.9173Q26.1087-34.1253 22.3496-36.2401Q18.5904-38.3549 18.5904-41.006Q18.5904-43.6501 22.3496-45.7684Q26.1087-47.8867 32.6955-49.1086Q39.2823-50.3305 47.7139-50.3305Q56.2082-50.3305 62.7813-49.1086Q69.3544-47.8867 73.1098-45.7684Q76.8653-43.6501 76.8653-41.006Q76.8653-38.3549 73.1651-36.2401Q69.465-34.1253 62.9056-32.9173Q56.3462-31.7094 47.7139-31.7094ZM46.3634-7.01944L49.1267-7.01944Q59.0822-7.01944 66.7531-11.3017Q74.424-15.584 78.765-23.2342Q83.1059-30.8845 83.0017-41.006L76.8653-41.006Q76.9416-32.5954 73.418-26.3062Q69.8944-20.0169 63.6156-16.538Q57.3369-13.0592 49.1267-13.0592L46.3634-13.0592Q38.1187-13.0592 31.8261-16.538Q25.5334-20.0169 22.0273-26.2887Q18.5211-32.5605 18.5904-41.006L12.4609-41.006Q12.3572-30.8845 16.6979-23.2342Q21.0387-15.584 28.7233-11.3017Q36.4078-7.01944 46.3634-7.01944ZM47.7832 21.3783Q52.1934 21.3783 56.5933 20.6685Q60.9932 19.9587 64.6315 18.6051Q68.2698 17.2515 70.3126 15.285Q71.3024 14.3434 71.3994 13.2218Q71.4964 12.1003 71.0946 10.6813L63.7004-14.292L58.3257-11.2304L65.9621 14.6829L66.2597 10.763Q63.8368 12.9018 58.7694 14.1027Q53.702 15.3037 47.7832 15.3037Q41.8992 15.3037 36.8144 14.1027Q31.7296 12.9018 29.3416 10.763L29.6392 14.6829L37.2756-11.2304L31.9009-14.292L24.4717 10.6813Q24.0705 12.1003 24.1847 13.2218Q24.2988 14.3434 25.2543 15.285Q27.3314 17.2515 30.9837 18.6051Q34.636 19.9587 39.0219 20.6685Q43.4079 21.3783 47.7832 21.3783Z"/>
  </g>
  <g id="Thin-M" transform="matrix(1 0 0 1 810.648 1126)">
   <path d="M15.2706-85.2152L76.277-85.2152Q77.04-85.2152 77.5685-85.7503Q78.097-86.2855 78.097-87.0361Q78.097-87.7983 77.5685-88.3334Q77.04-88.8686 76.277-88.8686L15.2706-88.8686Q14.5083-88.8686 13.9794-88.3334Q13.4505-87.7983 13.4505-87.0361Q13.4505-86.2855 13.9794-85.7503Q14.5083-85.2152 15.2706-85.2152ZM21.0491-48.9775L24.6518-50.4673L22.0857-85.7488L18.2819-86.6963ZM66.8957-50.4673L70.4868-48.9775L73.2665-86.6963L69.4627-85.7488ZM45.8182-27.8024Q55.7758-27.8024 63.2432-29.5305Q70.7107-31.2587 74.8737-34.2848Q79.0367-37.3108 79.0367-41.3227Q79.0367-45.323 74.7732-48.3553Q70.5096-51.3875 62.9919-53.1095Q55.4741-54.8315 45.8182-54.8315Q36.174-54.8315 28.6562-53.1095Q21.1384-51.3875 16.825-48.3553Q12.5116-45.323 12.5116-41.3227Q12.5116-37.3108 16.825-34.2848Q21.1384-31.2587 28.6624-29.5305Q36.1864-27.8024 45.8182-27.8024ZM45.7675-31.5056Q37.2683-31.5056 30.5684-32.7588Q23.8685-34.012 20.0412-36.2513Q16.214-38.4906 16.214-41.3227Q16.214-44.1931 20.0412-46.4133Q23.8685-48.6335 30.5684-49.912Q37.2683-51.1905 45.7675-51.1905Q54.3299-51.1905 61.0049-49.912Q67.6799-48.6335 71.5258-46.4133Q75.3718-44.1931 75.3718-41.3227Q75.3718-38.4906 71.6264-36.2513Q67.881-34.012 61.2309-32.7588Q54.5809-31.5056 45.7675-31.5056ZM44.8923-9.554L46.7051-9.554Q56.1401-9.554 63.4602-13.4403Q70.7803-17.3265 74.9517-24.4563Q79.1231-31.586 79.0866-41.3227L75.3718-41.3227Q75.3576-32.7087 71.6528-26.3968Q67.948-20.0849 61.4769-16.6399Q55.0058-13.1949 46.7051-13.1949L44.8923-13.1949Q36.58-13.1949 30.0835-16.6399Q23.5871-20.0849 19.8885-26.3906Q16.19-32.6963 16.214-41.3227L12.4609-41.3227Q12.4253-31.586 16.5962-24.4563Q20.7672-17.3265 28.1122-13.4403Q35.4573-9.554 44.8923-9.554ZM45.7916 18.3232Q50.0889 18.3232 54.138 17.6699Q58.1871 17.0166 61.3614 15.8553Q64.5357 14.6941 66.2617 13.1576Q67.2968 12.2613 67.3711 11.2417Q67.4455 10.222 67.021 8.71251L60.5095-14.111L57.2622-12.3167L64.2647 12.4198L64.4491 9.88051Q61.9809 12.087 56.9476 13.3784Q51.9142 14.6698 45.7916 14.6698Q39.6814 14.6698 34.6418 13.3784Q29.6022 12.087 27.1466 9.88051L27.3309 12.4198L34.3335-12.3167L31.0861-14.111L24.5622 8.71251Q24.1386 10.222 24.2187 11.2417Q24.2988 12.2613 25.3223 13.1576Q27.06 14.6941 30.2596 15.8553Q33.4592 17.0166 37.483 17.6699Q41.5068 18.3232 45.7916 18.3232Z"/>
  </g>
  <g id="Ultralight-M" transform="matrix(1 0 0 1 514.94 1126)">
   <path d="M14.7837-84.8674L74.7585-84.8674Q75.2667-84.8674 75.6154-85.2171Q75.9641-85.5668 75.9641-86.074Q75.9641-86.5811 75.6154-86.9309Q75.2667-87.2806 74.7585-87.2806L14.7837-87.2806Q14.2766-87.2806 13.9273-86.9309Q13.5781-86.5811 13.5781-86.074Q13.5781-85.5668 13.9273-85.2171Q14.2766-84.8674 14.7837-84.8674ZM21.1186-48.908L23.4695-50.5832L20.9151-85.007L18.3168-86.3021ZM66.0727-50.5832L68.4236-48.908L71.2265-86.3021L68.6282-85.007ZM44.833-28.9266Q54.5007-28.9266 61.7364-30.5505Q68.972-32.1744 72.996-34.986Q77.0199-37.7976 77.0199-41.4849Q77.0199-45.1723 72.8723-47.9844Q68.7246-50.7965 61.4271-52.4199Q54.1296-54.0433 44.833-54.0433Q35.5364-54.0433 28.2389-52.4199Q20.9414-50.7965 16.7323-47.9844Q12.5233-45.1723 12.5233-41.4849Q12.5233-37.7976 16.7323-34.986Q20.9414-32.1744 28.2393-30.5505Q35.5373-28.9266 44.833-28.9266ZM44.7706-31.4012Q36.2367-31.4012 29.4789-32.6776Q22.721-33.9539 18.8589-36.257Q14.9968-38.5601 14.9968-41.4849Q14.9968-44.4712 18.8589-46.7435Q22.721-49.0159 29.4789-50.3235Q36.2367-51.6311 44.7706-51.6311Q53.3679-51.6311 60.095-50.3235Q66.8222-49.0159 70.7145-46.7435Q74.6068-44.4712 74.6068-41.4849Q74.6068-38.5601 70.8382-36.257Q67.0697-33.9539 60.3732-32.6776Q53.6767-31.4012 44.7706-31.4012ZM44.1388-10.8522L45.4647-10.8522Q54.6331-10.8522 61.7736-14.5356Q68.9141-18.2191 72.9986-25.0822Q77.0831-31.9453 77.0813-41.4849L74.6068-41.4849Q74.5462-32.7668 70.7487-26.4433Q66.9511-20.1198 60.3814-16.6921Q53.8118-13.2644 45.4647-13.2644L44.1388-13.2644Q35.7918-13.2644 29.191-16.6921Q22.5902-20.1198 18.7931-26.4428Q14.996-32.7658 14.9968-41.4849L12.4609-41.4849Q12.4601-31.9453 16.5441-25.0822Q20.6281-18.2191 27.7993-14.5356Q34.9704-10.8522 44.1388-10.8522ZM44.7715 16.7584Q49.011 16.7584 52.8804 16.134Q56.7499 15.5096 59.6865 14.4469Q62.6231 13.3843 64.1868 12.068Q65.2451 11.1949 65.3079 10.2274Q65.3706 9.25996 64.9344 7.7041L58.8752-14.0183L56.7175-12.8731L63.3954 11.2607L63.5217 9.4285Q61.0304 11.6696 56.0145 13.0074Q50.9985 14.3452 44.7715 14.3452Q38.5454 14.3452 33.529 13.0074Q28.5126 11.6696 26.0223 9.4285L26.1486 11.2607L32.8265-12.8731L30.6687-14.0183L24.6086 7.7041Q24.1734 9.25996 24.2361 10.2274Q24.2988 11.1949 25.3572 12.068Q26.9209 13.3843 29.8887 14.4469Q32.8565 15.5096 36.6947 16.134Q40.533 16.7584 44.7715 16.7584Z"/>
  </g>
  <g id="Black-S" transform="matrix(1 0 0 1 2891.7 696)">
   <path d="M15.918-74.4141L67.4805-74.4141Q69.9219-74.4141 71.6309-76.1475Q73.3398-77.8809 73.3398-80.2734Q73.3398-82.7148 71.6309-84.4238Q69.9219-86.1328 67.4805-86.1328L15.918-86.1328Q13.5254-86.1328 11.792-84.4238Q10.0586-82.7148 10.0586-80.2734Q10.0586-77.8809 11.792-76.1475Q13.5254-74.4141 15.918-74.4141ZM16.4062-43.8477L28.125-44.6289L25.7812-80.7617L14.0625-79.9805ZM55.2734-44.6289L66.9922-43.8477L69.3359-79.9805L57.6172-80.7617ZM41.6992-23.0957Q50.9277-23.0957 58.1299-25.0244Q65.332-26.9531 69.4824-30.5908Q73.6328-34.2285 73.6328-39.3555Q73.6328-44.5312 69.5068-48.1445Q65.3809-51.7578 58.1787-53.6865Q50.9766-55.6152 41.6992-55.6152Q32.4707-55.6152 25.2441-53.6865Q18.0176-51.7578 13.8916-48.1445Q9.76562-44.5312 9.76562-39.3555Q9.76562-34.2285 13.916-30.5908Q18.0664-26.9531 25.293-25.0244Q32.5195-23.0957 41.6992-23.0957ZM41.6992-34.8145Q35.3027-34.8145 30.7861-35.5225Q26.2695-36.2305 23.9014-37.2803Q21.5332-38.3301 21.5332-39.3555Q21.5332-40.4297 23.9014-41.4551Q26.2695-42.4805 30.7861-43.1885Q35.3027-43.8965 41.6992-43.8965Q48.0957-43.8965 52.6123-43.1885Q57.1289-42.4805 59.4971-41.4551Q61.8652-40.4297 61.8652-39.3555Q61.8652-38.3301 59.4971-37.2803Q57.1289-36.2305 52.6123-35.5225Q48.0957-34.8145 41.6992-34.8145ZM41.0645-6.20117L42.334-6.20117Q51.7578-6.20117 58.7891-10.3516Q65.8203-14.502 69.7266-21.9727Q73.6328-29.4434 73.6328-39.3555L61.8652-39.3555Q61.8652-32.4219 59.6436-27.6367Q57.4219-22.8516 53.0762-20.3857Q48.7305-17.9199 42.334-17.9199L41.0645-17.9199Q34.7168-17.9199 30.3467-20.3857Q25.9766-22.8516 23.7549-27.6367Q21.5332-32.4219 21.5332-39.3555L9.76562-39.3555Q9.76562-29.4434 13.6719-21.9727Q17.5781-14.502 24.6094-10.3516Q31.6406-6.20117 41.0645-6.20117ZM41.6992 15.625Q45.8984 15.625 50.1953 14.9902Q54.4922 14.3555 58.1787 12.9395Q61.8652 11.5234 64.1602 9.17969Q65.1855 8.05664 65.5029 6.49414Q65.8203 4.93164 65.2832 3.27148L57.666-21.2402L47.2656-15.2344L55.3711 10.8398L58.4473-1.46484Q54.248 1.85547 50.293 2.88086Q46.3379 3.90625 41.6992 3.90625Q37.0605 3.90625 33.1055 2.88086Q29.1504 1.85547 24.9512-1.46484L28.0273 10.8398L36.1328-15.2344L25.7324-21.2402L18.1152 3.27148Q17.627 4.93164 17.9199 6.49414Q18.2129 8.05664 19.2383 9.17969Q21.5332 11.5234 25.2197 12.9395Q28.9062 14.3555 33.2275 14.9902Q37.5488 15.625 41.6992 15.625Z"/>
  </g>
  <g id="Heavy-S" transform="matrix(1 0 0 1 2595.56 696)">
   <path d="M15.3763-74.6906L66.8812-74.6906Q69.0921-74.6906 70.6398-76.2627Q72.1874-77.8348 72.1874-79.9969Q72.1874-82.2078 70.6398-83.7612Q69.0921-85.3146 66.8812-85.3146L15.3763-85.3146Q13.2027-85.3146 11.6364-83.7612Q10.0701-82.2078 10.0701-79.9969Q10.0701-77.8348 11.6364-76.2627Q13.2027-74.6906 15.3763-74.6906ZM16.3717-44.4124L26.9956-45.136L24.721-79.955L14.0971-79.2544ZM55.2619-45.136L65.8743-44.4124L68.1604-79.2544L57.5365-79.955ZM41.123-23.6835Q50.2478-23.6835 57.3174-25.5603Q64.387-27.4372 68.4395-30.9481Q72.4919-34.459 72.4919-39.3785Q72.4919-44.3238 68.4581-47.8218Q64.4243-51.3199 57.3547-53.191Q50.2851-55.0621 41.123-55.0621Q32.0097-55.0621 24.9215-53.191Q17.8332-51.3199 13.7994-47.8218Q9.76562-44.3238 9.76562-39.3785Q9.76562-34.459 13.8181-30.9481Q17.8705-27.4372 24.9645-25.5603Q32.0586-23.6835 41.123-23.6835ZM41.123-34.3074Q34.6919-34.3074 30.0486-35.0615Q25.4052-35.8156 22.916-36.9806Q20.4269-38.1457 20.4269-39.3785Q20.4269-40.6371 22.916-41.7893Q25.4052-42.9414 30.0486-43.6956Q34.6919-44.4497 41.123-44.4497Q47.5656-44.4497 52.2089-43.6956Q56.8523-42.9414 59.3357-41.7893Q61.8191-40.6371 61.8191-39.3785Q61.8191-38.1457 59.3357-36.9806Q56.8523-35.8156 52.2089-35.0615Q47.5656-34.3074 41.123-34.3074ZM40.2808-7.26142L41.9767-7.26142Q51.1355-7.26142 58.0054-11.3139Q64.8753-15.3663 68.7009-22.6065Q72.5265-29.8467 72.4919-39.3785L61.8191-39.3785Q61.8537-32.5717 59.5456-27.7577Q57.2375-22.9438 52.7996-20.4088Q48.3617-17.8738 41.9767-17.8738L40.2808-17.8738Q33.9216-17.8738 29.4651-20.4088Q25.0085-22.9438 22.7062-27.752Q20.4038-32.5602 20.4269-39.3785L9.76562-39.3785Q9.73105-29.8467 13.5566-22.6065Q17.3822-15.3663 24.2521-11.3139Q31.122-7.26142 40.2808-7.26142ZM41.146 14.7837Q45.1954 14.7837 49.3713 14.1547Q53.5472 13.5257 57.1415 12.15Q60.7358 10.7743 62.9386 8.52279Q63.8948 7.48042 64.1603 6.05621Q64.4259 4.632 63.9464 3.12167L56.5597-20.7101L47.1389-15.2689L54.8871 9.71045L57.3179-0.727278Q53.6718 2.18968 49.7052 3.17473Q45.7386 4.15979 41.146 4.15979Q36.565 4.15979 32.5926 3.17473Q28.6203 2.18968 24.9857-0.727278L27.4165 9.71045L35.1648-15.2689L25.7439-20.7101L18.3457 3.12167Q17.9035 4.632 18.1562 6.05621Q18.4088 7.48042 19.3535 8.52279Q21.5678 10.7743 25.1621 12.15Q28.7564 13.5257 32.951 14.1547Q37.1455 14.7837 41.146 14.7837Z"/>
  </g>
  <g id="Bold-S" transform="matrix(1 0 0 1 2299.49 696)">
   <path d="M14.7705-75L66.2109-75Q68.1641-75 69.5312-76.3916Q70.8984-77.7832 70.8984-79.6875Q70.8984-81.6406 69.5312-83.02Q68.1641-84.3994 66.2109-84.3994L14.7705-84.3994Q12.8418-84.3994 11.4624-83.02Q10.083-81.6406 10.083-79.6875Q10.083-77.7832 11.4624-76.3916Q12.8418-75 14.7705-75ZM16.333-45.0439L25.7324-45.7031L23.5352-79.0527L14.1357-78.4424ZM55.249-45.7031L64.624-45.0439L66.8457-78.4424L57.4463-79.0527ZM40.4785-24.3408Q49.4873-24.3408 56.4087-26.1597Q63.3301-27.9785 67.2729-31.3477Q71.2158-34.7168 71.2158-39.4043Q71.2158-44.0918 67.2852-47.4609Q63.3545-50.8301 56.4331-52.6367Q49.5117-54.4434 40.4785-54.4434Q31.4941-54.4434 24.5605-52.6367Q17.627-50.8301 13.6963-47.4609Q9.76562-44.0918 9.76562-39.4043Q9.76562-34.7168 13.7085-31.3477Q17.6514-27.9785 24.5972-26.1597Q31.543-24.3408 40.4785-24.3408ZM40.4785-33.7402Q34.0088-33.7402 29.2236-34.5459Q24.4385-35.3516 21.814-36.6455Q19.1895-37.9395 19.1895-39.4043Q19.1895-40.8691 21.814-42.1631Q24.4385-43.457 29.2236-44.2627Q34.0088-45.0684 40.4785-45.0684Q46.9727-45.0684 51.7578-44.2627Q56.543-43.457 59.1553-42.1631Q61.7676-40.8691 61.7676-39.4043Q61.7676-37.9395 59.1553-36.6455Q56.543-35.3516 51.7578-34.5459Q46.9727-33.7402 40.4785-33.7402ZM39.4043-8.44727L41.5771-8.44727Q50.4395-8.44727 57.1289-12.3901Q63.8184-16.333 67.5537-23.3154Q71.2891-30.2979 71.2158-39.4043L61.7676-39.4043Q61.8408-32.7393 59.436-27.8931Q57.0312-23.0469 52.4902-20.4346Q47.9492-17.8223 41.5771-17.8223L39.4043-17.8223Q33.0322-17.8223 28.479-20.4346Q23.9258-23.0469 21.5332-27.8809Q19.1406-32.7148 19.1895-39.4043L9.76562-39.4043Q9.69238-30.2979 13.4277-23.3154Q17.1631-16.333 23.8525-12.3901Q30.542-8.44727 39.4043-8.44727ZM40.5273 13.8428Q44.4092 13.8428 48.4497 13.2202Q52.4902 12.5977 55.9814 11.2671Q59.4727 9.93652 61.5723 7.78809Q62.4512 6.83594 62.6587 5.56641Q62.8662 4.29688 62.4512 2.9541L55.3223-20.1172L46.9971-15.3076L54.3457 8.44727L56.0547 0.0976562Q53.0273 2.56348 49.0479 3.50342Q45.0684 4.44336 40.5273 4.44336Q36.0107 4.44336 32.019 3.50342Q28.0273 2.56348 25.0244 0.0976562L26.7334 8.44727L34.082-15.3076L25.7568-20.1172L18.6035 2.9541Q18.2129 4.29688 18.4204 5.56641Q18.6279 6.83594 19.4824 7.78809Q21.6064 9.93652 25.0977 11.2671Q28.5889 12.5977 32.6416 13.2202Q36.6943 13.8428 40.5273 13.8428Z"/>
  </g>
  <g id="Semibold-S" transform="matrix(1 0 0 1 2003.22 696)">
   <path d="M14.3528-75.2133L65.7488-75.2133Q67.5242-75.2133 68.767-76.4805Q70.0098-77.7477 70.0098-79.4742Q70.0098-81.2496 68.767-82.509Q67.5242-83.7685 65.7488-83.7685L14.3528-83.7685Q12.593-83.7685 11.3424-82.509Q10.0919-81.2496 10.0919-79.4742Q10.0919-77.7477 11.3424-76.4805Q12.593-75.2133 14.3528-75.2133ZM16.3063-45.4794L24.8615-46.0941L22.7176-78.4307L14.1624-77.8825ZM55.2401-46.0941L63.762-45.4794L65.9393-77.8825L57.3841-78.4307ZM40.0342-24.794Q48.963-24.794 55.7822-26.5729Q62.6014-28.3518 66.4687-31.6231Q70.336-34.8945 70.336-39.4221Q70.336-43.9318 66.4765-47.2121Q62.6169-50.4924 55.7977-52.2546Q48.9785-54.0168 40.0342-54.0168Q31.1387-54.0168 24.3117-52.2546Q17.4848-50.4924 13.6252-47.2121Q9.76562-43.9318 9.76562-39.4221Q9.76562-34.8945 13.633-31.6231Q17.5003-28.3518 24.3439-26.5729Q31.1875-24.794 40.0342-24.794ZM40.0342-33.3492Q33.5378-33.3492 28.6549-34.1904Q23.772-35.0316 21.0542-36.4145Q18.3363-37.7973 18.3363-39.4221Q18.3363-41.0291 21.0542-42.4208Q23.772-43.8125 28.6549-44.6537Q33.5378-45.4949 40.0342-45.4949Q46.5639-45.4949 51.4468-44.6537Q56.3297-43.8125 59.0309-42.4208Q61.732-41.0291 61.732-39.4221Q61.732-37.7973 59.0309-36.4145Q56.3297-35.0316 51.4468-34.1904Q46.5639-33.3492 40.0342-33.3492ZM38.8-9.26484L41.3017-9.26484Q49.9596-9.26484 56.5246-13.1322Q63.0896-16.9995 66.7628-23.8042Q70.4359-30.6089 70.336-39.4221L61.732-39.4221Q61.8319-32.8548 59.3605-27.9864Q56.8891-23.118 52.277-20.4523Q47.6648-17.7867 41.3017-17.7867L38.8-17.7867Q32.419-17.7867 27.7992-20.4523Q23.1793-23.118 20.7245-27.9697Q18.2697-32.8215 18.3363-39.4221L9.76562-39.4221Q9.66572-30.6089 13.3389-23.8042Q17.012-16.9995 23.5771-13.1322Q30.1421-9.26484 38.8-9.26484ZM40.1008 13.194Q43.8671 13.194 47.8143 12.5759Q51.7615 11.9578 55.1816 10.6583Q58.6018 9.35889 60.6303 7.28154Q61.4559 6.3916 61.6234 5.22871Q61.7909 4.06582 61.4203 2.83857L54.4691-19.7084L46.8993-15.3343L53.9725 7.57637L55.1838 0.666406Q52.583 2.82119 48.5946 3.73003Q44.6063 4.63887 40.1008 4.63887Q35.6286 4.63887 31.6236 3.73003Q27.6186 2.82119 25.0511 0.666406L26.2624 7.57637L33.3355-15.3343L25.7657-19.7084L18.7812 2.83857Q18.4262 4.06582 18.6026 5.22871Q18.779 6.3916 19.5713 7.28154Q21.6331 9.35889 25.0532 10.6583Q28.4733 11.9578 32.4283 12.5759Q36.3833 13.194 40.1008 13.194Z"/>
  </g>
  <g id="Medium-S" transform="matrix(1 0 0 1 1706.84 696)">
   <path d="M14.0361-75.375L65.3984-75.375Q67.0391-75.375 68.1875-76.5479Q69.3359-77.7207 69.3359-79.3125Q69.3359-80.9531 68.1875-82.1216Q67.0391-83.29 65.3984-83.29L14.0361-83.29Q12.4043-83.29 11.2515-82.1216Q10.0986-80.9531 10.0986-79.3125Q10.0986-77.7207 11.2515-76.5479Q12.4043-75.375 14.0361-75.375ZM16.2861-45.8096L24.2012-46.3906L22.0977-77.959L14.1826-77.458ZM55.2334-46.3906L63.1084-45.8096L65.252-77.458L57.3369-77.959ZM39.6973-25.1377Q48.5654-25.1377 55.3071-26.8862Q62.0488-28.6348 65.8589-31.832Q69.6689-35.0293 69.6689-39.4355Q69.6689-43.8105 65.8633-47.0234Q62.0576-50.2363 55.3159-51.9648Q48.5742-53.6934 39.6973-53.6934Q30.8691-53.6934 24.123-51.9648Q17.377-50.2363 13.5713-47.0234Q9.76562-43.8105 9.76562-39.4355Q9.76562-35.0293 13.5757-31.832Q17.3857-28.6348 24.1519-26.8862Q30.918-25.1377 39.6973-25.1377ZM39.6973-33.0527Q33.1807-33.0527 28.2236-33.9209Q23.2666-34.7891 20.478-36.2393Q17.6895-37.6895 17.6895-39.4355Q17.6895-41.1504 20.478-42.6162Q23.2666-44.082 28.2236-44.9502Q33.1807-45.8184 39.6973-45.8184Q46.2539-45.8184 51.2109-44.9502Q56.168-44.082 58.9365-42.6162Q61.7051-41.1504 61.7051-39.4355Q61.7051-37.6895 58.9365-36.2393Q56.168-34.7891 51.2109-33.9209Q46.2539-33.0527 39.6973-33.0527ZM38.3418-9.88477L41.0928-9.88477Q49.5957-9.88477 56.0664-13.6948Q62.5371-17.5049 66.1631-24.1748Q69.7891-30.8447 69.6689-39.4355L61.7051-39.4355Q61.8252-32.9424 59.3032-28.0571Q56.7812-23.1719 52.1152-20.4658Q47.4492-17.7598 41.0928-17.7598L38.3418-17.7598Q31.9541-17.7598 27.2837-20.4658Q22.6133-23.1719 20.1113-28.0371Q17.6094-32.9023 17.6895-39.4355L9.76562-39.4355Q9.64551-30.8447 13.2715-24.1748Q16.8975-17.5049 23.3682-13.6948Q29.8389-9.88477 38.3418-9.88477ZM39.7773 12.7021Q43.4561 12.7021 47.3325 12.0874Q51.209 11.4727 54.5752 10.1968Q57.9414 8.9209 59.916 6.89746Q60.7012 6.05469 60.8384 4.97266Q60.9756 3.89062 60.6387 2.75098L53.8223-19.3984L46.8252-15.3545L53.6895 6.91602L54.5234 1.09766Q52.2461 3.0166 48.251 3.90186Q44.2559 4.78711 39.7773 4.78711Q35.3389 4.78711 31.3237 3.90186Q27.3086 3.0166 25.0713 1.09766L25.9053 6.91602L32.7695-15.3545L25.7725-19.3984L18.916 2.75098Q18.5879 3.89062 18.7407 4.97266Q18.8936 6.05469 19.6387 6.89746Q21.6533 8.9209 25.0195 10.1968Q28.3857 11.4727 32.2666 12.0874Q36.1475 12.7021 39.7773 12.7021Z"/>
  </g>
  <g id="Regular-S" transform="matrix(1 0 0 1 1410.56 696)">
   <path d="M13.623-75.5859L64.9414-75.5859Q66.4062-75.5859 67.4316-76.6357Q68.457-77.6855 68.457-79.1016Q68.457-80.5664 67.4316-81.6162Q66.4062-82.666 64.9414-82.666L13.623-82.666Q12.1582-82.666 11.1328-81.6162Q10.1074-80.5664 10.1074-79.1016Q10.1074-77.6855 11.1328-76.6357Q12.1582-75.5859 13.623-75.5859ZM16.2598-46.2402L23.3398-46.7773L21.2891-77.3438L14.209-76.9043ZM55.2246-46.7773L62.2559-46.2402L64.3555-76.9043L57.2754-77.3438ZM39.2578-25.5859Q48.0469-25.5859 54.6875-27.2949Q61.3281-29.0039 65.0635-32.1045Q68.7988-35.2051 68.7988-39.4531Q68.7988-43.6523 65.0635-46.7773Q61.3281-49.9023 54.6875-51.5869Q48.0469-53.2715 39.2578-53.2715Q30.5176-53.2715 23.877-51.5869Q17.2363-49.9023 13.501-46.7773Q9.76562-43.6523 9.76562-39.4531Q9.76562-35.2051 13.501-32.1045Q17.2363-29.0039 23.9014-27.2949Q30.5664-25.5859 39.2578-25.5859ZM39.2578-32.666Q32.7148-32.666 27.6611-33.5693Q22.6074-34.4727 19.7266-36.0107Q16.8457-37.5488 16.8457-39.4531Q16.8457-41.3086 19.7266-42.8711Q22.6074-44.4336 27.6611-45.3369Q32.7148-46.2402 39.2578-46.2402Q45.8496-46.2402 50.9033-45.3369Q55.957-44.4336 58.8135-42.8711Q61.6699-41.3086 61.6699-39.4531Q61.6699-37.5488 58.8135-36.0107Q55.957-34.4727 50.9033-33.5693Q45.8496-32.666 39.2578-32.666ZM37.7441-10.6934L40.8203-10.6934Q49.1211-10.6934 55.4688-14.4287Q61.8164-18.1641 65.3809-24.6582Q68.9453-31.1523 68.7988-39.4531L61.6699-39.4531Q61.8164-33.0566 59.2285-28.1494Q56.6406-23.2422 51.9043-20.4834Q47.168-17.7246 40.8203-17.7246L37.7441-17.7246Q31.3477-17.7246 26.6113-20.4834Q21.875-23.2422 19.3115-28.125Q16.748-33.0078 16.8457-39.4531L9.76562-39.4531Q9.61914-31.1523 13.1836-24.6582Q16.748-18.1641 23.0957-14.4287Q29.4434-10.6934 37.7441-10.6934ZM39.3555 12.0605Q42.9199 12.0605 46.7041 11.4502Q50.4883 10.8398 53.7842 9.59473Q57.0801 8.34961 58.9844 6.39648Q59.7168 5.61523 59.8145 4.63867Q59.9121 3.66211 59.6191 2.63672L52.9785-18.9941L46.7285-15.3809L53.3203 6.05469L53.6621 1.66016Q51.8066 3.27148 47.8027 4.12598Q43.7988 4.98047 39.3555 4.98047Q34.9609 4.98047 30.9326 4.12598Q26.9043 3.27148 25.0977 1.66016L25.4395 6.05469L32.0312-15.3809L25.7812-18.9941L19.0918 2.63672Q18.7988 3.66211 18.9209 4.63867Q19.043 5.61523 19.7266 6.39648Q21.6797 8.34961 24.9756 9.59473Q28.2715 10.8398 32.0557 11.4502Q35.8398 12.0605 39.3555 12.0605Z"/>
  </g>
  <g id="Light-S" transform="matrix(1 0 0 1 1115.16 696)">
   <path d="M12.9873-75.1317L62.9585-75.1317Q64.0905-75.1317 64.8811-75.9394Q65.6718-76.7471 65.6718-77.8453Q65.6718-78.9769 64.8811-79.7846Q64.0905-80.5923 62.9585-80.5923L12.9873-80.5923Q11.8556-80.5923 11.0648-79.7846Q10.274-78.9769 10.274-77.8453Q10.274-76.7471 11.0648-75.9394Q11.8556-75.1317 12.9873-75.1317ZM16.3506-46.1494L21.7959-46.9287L19.7604-76.3751L14.2545-76.3896ZM54.1499-46.9287L59.5617-46.1494L61.6915-76.3896L56.1857-76.3751ZM37.9712-27.0541Q46.3819-27.0541 52.7198-28.6269Q59.0576-30.1997 62.6114-33.0203Q66.1652-35.8409 66.1652-39.665Q66.1652-43.4555 62.5811-46.293Q58.9971-49.1305 52.6441-50.6864Q46.2911-52.2423 37.9712-52.2423Q29.685-52.2423 23.332-50.6864Q16.979-49.1305 13.3799-46.293Q9.78088-43.4555 9.78088-39.665Q9.78088-35.8409 13.3799-33.0203Q16.979-30.1997 23.3489-28.6269Q29.7188-27.0541 37.9712-27.0541ZM37.956-32.5297Q31.3677-32.5297 26.2384-33.4633Q21.109-34.3969 18.1826-36.0182Q15.2562-37.6396 15.2562-39.665Q15.2562-41.6718 18.1826-43.3024Q21.109-44.9331 26.2384-45.8743Q31.3677-46.8155 37.956-46.8155Q44.5933-46.8155 49.7152-45.8743Q54.837-44.9331 57.754-43.3024Q60.671-41.6718 60.671-39.665Q60.671-37.6396 57.7843-36.0182Q54.8976-34.3969 49.7832-33.4633Q44.6688-32.5297 37.956-32.5297ZM36.7602-12.3886L39.2006-12.3886Q47.1532-12.3886 53.2663-15.8591Q59.3793-19.3296 62.8304-25.4756Q66.2814-31.6216 66.1802-39.665L60.671-39.665Q60.7569-33.1324 58.0479-28.2101Q55.3388-23.2877 50.4738-20.5516Q45.6088-17.8154 39.2006-17.8154L36.7602-17.8154Q30.3185-17.8154 25.4458-20.5516Q20.5732-23.2877 17.881-28.1932Q15.1889-33.0986 15.2562-39.665L9.76562-39.665Q9.66466-31.6216 13.1156-25.4756Q16.5665-19.3296 22.687-15.8591Q28.8076-12.3886 36.7602-12.3886ZM38.0234 10.0171Q41.5123 10.0171 45.0619 9.44455Q48.6115 8.87197 51.597 7.75553Q54.5825 6.6391 56.2749 4.9736Q57.0376 4.22262 57.1201 3.31421Q57.2027 2.4058 56.8944 1.31989L50.8443-18.8731L46.0172-16.1074L52.1851 4.54102L52.4511 1.0699Q50.5653 2.72649 46.5842 3.64151Q42.603 4.55653 38.0234 4.55653Q33.4775 4.55653 29.4795 3.64151Q25.4814 2.72649 23.6295 1.0699L23.8955 4.54102L30.0634-16.1074L25.2363-18.8731L19.1523 1.31989Q18.8444 2.4058 18.9437 3.31421Q19.043 4.22262 19.7721 4.9736Q21.4981 6.6391 24.4912 7.75553Q27.4844 8.87197 31.0263 9.44455Q34.5683 10.0171 38.0234 10.0171Z"/>
  </g>
  <g id="Thin-S" transform="matrix(1 0 0 1 820.181 696)">
   <path d="M12.1464-74.531L60.336-74.531Q61.0277-74.531 61.5079-75.0185Q61.9881-75.506 61.9881-76.1837Q61.9881-76.8748 61.5079-77.3623Q61.0277-77.8498 60.336-77.8498L12.1464-77.8498Q11.4553-77.8498 10.9748-77.3623Q10.4943-76.8748 10.4943-76.1837Q10.4943-75.506 10.9748-75.0185Q11.4553-74.531 12.1464-74.531ZM16.4706-46.0294L19.7539-47.1288L17.7386-75.0939L14.3147-75.7088ZM52.7285-47.1288L55.9984-46.0294L58.1683-75.7088L54.7444-75.0939ZM36.2696-28.9958Q44.1798-28.9958 50.1172-30.3885Q56.0547-31.7812 59.3683-34.2315Q62.6819-36.6817 62.6819-39.9451Q62.6819-43.1952 59.298-45.6524Q55.9141-48.1097 49.9415-49.4954Q43.9689-50.8811 36.2696-50.8811Q28.5837-50.8811 22.6112-49.4954Q16.6386-48.1097 13.2198-45.6524Q9.80106-43.1952 9.80106-39.9451Q9.80106-36.6817 13.2198-34.2315Q16.6386-31.7812 22.6182-30.3885Q28.5977-28.9958 36.2696-28.9958ZM36.2342-32.3494Q29.5861-32.3494 24.3567-33.323Q19.1272-34.2966 16.1406-36.0282Q13.1541-37.7597 13.1541-39.9451Q13.1541-42.1521 16.1406-43.8729Q19.1272-45.5937 24.3567-46.585Q29.5861-47.5763 36.2342-47.5763Q42.9317-47.5763 48.1437-46.585Q53.3558-45.5937 56.3528-43.8729Q59.3498-42.1521 59.3498-39.9451Q59.3498-37.7597 56.4231-36.0282Q53.4963-34.2966 48.3017-33.323Q43.1072-32.3494 36.2342-32.3494ZM35.4589-14.6307L37.0584-14.6307Q44.5505-14.6307 50.3533-17.7509Q56.1561-20.8711 59.4571-26.5566Q62.7581-32.2421 62.7168-39.9451L59.3498-39.9451Q59.3557-33.2327 56.4864-28.2903Q53.617-23.3479 48.5818-20.6417Q43.5466-17.9355 37.0584-17.9355L35.4589-17.9355Q28.9572-17.9355 23.9043-20.6417Q18.8514-23.3479 15.989-28.2833Q13.1267-33.2187 13.1541-39.9451L9.76562-39.9451Q9.72487-32.2421 13.0256-26.5566Q16.3263-20.8711 22.1465-17.7509Q27.9667-14.6307 35.4589-14.6307ZM36.2616 7.31457Q39.6506 7.31457 42.8899 6.79193Q46.1292 6.26929 48.7042 5.32305Q51.2792 4.37681 52.6915 3.09173Q53.4942 2.38076 53.5567 1.5625Q53.6192 0.744235 53.2908-0.421733L48.0217-18.713L45.0764-17.0684L50.6836 2.53906L50.8494 0.289228Q48.9236 2.00569 44.9726 3.00076Q41.0215 3.99583 36.2616 3.99583Q31.5156 3.99583 27.5576 3.00076Q23.5995 2.00569 21.6878 0.289228L21.8535 2.53906L27.4607-17.0684L24.5155-18.713L19.2324-0.421733Q18.9046 0.744235 18.9738 1.5625Q19.043 2.38076 19.8323 3.09173Q21.258 4.37681 23.8507 5.32305Q26.4434 6.26929 29.665 6.79193Q32.8865 7.31457 36.2616 7.31457Z"/>
  </g>
  <g id="Ultralight-S" transform="matrix(1 0 0 1 524.357 696)">
   <path d="M11.7157-74.2233L58.9928-74.2233Q59.4589-74.2233 59.7801-74.5468Q60.1013-74.8703 60.1013-75.3326Q60.1013-75.798 59.7801-76.1215Q59.4589-76.445 58.9928-76.445L11.7157-76.445Q11.2503-76.445 10.9287-76.1215Q10.6071-75.798 10.6071-75.3326Q10.6071-74.8703 10.9287-74.5468Q11.2503-74.2233 11.7157-74.2233ZM16.5321-45.9679L18.708-47.2313L16.703-74.4377L14.3456-75.3601ZM52.0004-47.2313L54.1733-45.9679L56.3637-75.3601L54.0062-74.4377ZM35.3981-29.9904Q43.0519-29.9904 48.7843-31.2908Q54.5166-32.5912 57.7072-34.8518Q60.8978-37.1124 60.8978-40.0887Q60.8978-43.0618 57.6164-45.3243Q54.335-47.5868 48.5573-48.8853Q42.7795-50.1839 35.3981-50.1839Q28.0197-50.1839 22.242-48.8853Q16.4642-47.5868 13.1378-45.3243Q9.8114-43.0618 9.8114-40.0887Q9.8114-37.1124 13.1378-34.8518Q16.4642-32.5912 22.2439-31.2908Q28.0235-29.9904 35.3981-29.9904ZM35.3523-32.2571Q28.6736-32.2571 23.3929-33.2512Q18.1122-34.2453 15.0948-36.0332Q12.0773-37.8212 12.0773-40.0887Q12.0773-42.3981 15.0948-44.165Q18.1122-45.932 23.3929-46.949Q28.6736-47.966 35.3523-47.966Q42.0807-47.966 47.3389-46.949Q52.597-45.932 55.6351-44.165Q58.6731-42.3981 58.6731-40.0887Q58.6731-37.8212 55.7259-36.0332Q52.7786-34.2453 47.543-33.2512Q42.3073-32.2571 35.3523-32.2571ZM34.7923-15.7791L35.9612-15.7791Q43.2175-15.7791 48.8613-18.7199Q54.5052-21.6606 57.7293-27.1103Q60.9535-32.56 60.9428-40.0887L58.6731-40.0887Q58.638-33.284 55.6866-28.3314Q52.7351-23.3788 47.6128-20.6879Q42.4904-17.997 35.9612-17.997L34.7923-17.997Q28.26-17.997 23.1148-20.6879Q17.9695-23.3788 15.02-28.3295Q12.0705-33.2802 12.0773-40.0887L9.76562-40.0887Q9.75571-32.56 12.9795-27.1103Q16.2033-21.6606 21.8697-18.7199Q27.536-15.7791 34.7923-15.7791ZM35.3592 5.93033Q38.6971 5.93033 41.7774 5.43327Q44.8578 4.93622 47.2225 4.07715Q49.5872 3.21808 50.856 2.12784Q51.6792 1.43738 51.7315 0.665283Q51.7838-0.106812 51.445-1.31378L46.5759-18.631L44.5946-17.5606L49.9146 1.51367L50.029-0.110626Q48.0827 1.63651 44.1471 2.67258Q40.2115 3.70865 35.3592 3.70865Q30.5107 3.70865 26.5732 2.67258Q22.6357 1.63651 20.6932-0.110626L20.8076 1.51367L26.1276-17.5606L24.1463-18.631L19.2734-1.31378Q18.9354-0.106812 18.9892 0.665283Q19.043 1.43738 19.8631 2.12784Q21.1349 3.21808 23.5226 4.07715Q25.9102 4.93622 28.9677 5.43327Q32.0251 5.93033 35.3592 5.93033Z"/>
  </g>
 </g>
</svg>
