<?xml version="1.0" encoding="UTF-8"?>
<!--Generator: Apple Native CoreSVG 175.5-->
<!DOCTYPE svg
PUBLIC "-//W3C//DTD SVG 1.1//EN"
       "http://www.w3.org/Graphics/SVG/1.1/DTD/svg11.dtd">
<svg version="1.1" xmlns="http://www.w3.org/2000/svg" xmlns:xlink="http://www.w3.org/1999/xlink" width="3300" height="2200">
 <!--glyph: "uni10158C.medium", point size: 100.0, font version: "18.0d9e1", template writer version: "84"-->
 <style>.template-0 {fill:#000000}

.SFSymbolsPreview000000 {fill:#000000;opacity:1.0}
</style>
 <g id="Notes">
  <rect height="2200" id="artboard" style="fill:white;opacity:1" width="3300" x="0" y="0"/>
  <line style="fill:none;stroke:black;opacity:1;stroke-width:0.5;" x1="263" x2="3036" y1="292" y2="292"/>
  <text style="stroke:none;fill:black;font-family:sans-serif;font-size:13;font-weight:bold;" transform="matrix(1 0 0 1 263 322)">Weight/Scale Variations</text>
  <text style="stroke:none;fill:black;font-family:sans-serif;font-size:13;text-anchor:middle;" transform="matrix(1 0 0 1 559.711 322)">Ultralight</text>
  <text style="stroke:none;fill:black;font-family:sans-serif;font-size:13;text-anchor:middle;" transform="matrix(1 0 0 1 856.422 322)">Thin</text>
  <text style="stroke:none;fill:black;font-family:sans-serif;font-size:13;text-anchor:middle;" transform="matrix(1 0 0 1 1153.13 322)">Light</text>
  <text style="stroke:none;fill:black;font-family:sans-serif;font-size:13;text-anchor:middle;" transform="matrix(1 0 0 1 1449.84 322)">Regular</text>
  <text style="stroke:none;fill:black;font-family:sans-serif;font-size:13;text-anchor:middle;" transform="matrix(1 0 0 1 1746.56 322)">Medium</text>
  <text style="stroke:none;fill:black;font-family:sans-serif;font-size:13;text-anchor:middle;" transform="matrix(1 0 0 1 2043.27 322)">Semibold</text>
  <text style="stroke:none;fill:black;font-family:sans-serif;font-size:13;text-anchor:middle;" transform="matrix(1 0 0 1 2339.98 322)">Bold</text>
  <text style="stroke:none;fill:black;font-family:sans-serif;font-size:13;text-anchor:middle;" transform="matrix(1 0 0 1 2636.69 322)">Heavy</text>
  <text style="stroke:none;fill:black;font-family:sans-serif;font-size:13;text-anchor:middle;" transform="matrix(1 0 0 1 2933.4 322)">Black</text>
  <line style="fill:none;stroke:black;opacity:1;stroke-width:0.5;" x1="263" x2="3036" y1="1903" y2="1903"/>
  <g transform="matrix(1 0 0 1 263 1933)">
   <path d="M9.24805 0.830078Q10.8691 0.830078 12.2949 0.214844Q13.7207-0.400391 14.8096-1.49414Q15.8984-2.58789 16.5186-4.01367Q17.1387-5.43945 17.1387-7.05078Q17.1387-8.66211 16.5186-10.0879Q15.8984-11.5137 14.8047-12.6074Q13.7109-13.7012 12.2852-14.3164Q10.8594-14.9316 9.23828-14.9316Q7.62695-14.9316 6.20117-14.3164Q4.77539-13.7012 3.69141-12.6074Q2.60742-11.5137 1.9873-10.0879Q1.36719-8.66211 1.36719-7.05078Q1.36719-5.43945 1.9873-4.01367Q2.60742-2.58789 3.69629-1.49414Q4.78516-0.400391 6.21094 0.214844Q7.63672 0.830078 9.24805 0.830078ZM9.24805-0.654297Q7.91992-0.654297 6.7627-1.14746Q5.60547-1.64062 4.73145-2.51953Q3.85742-3.39844 3.36426-4.56055Q2.87109-5.72266 2.87109-7.05078Q2.87109-8.37891 3.35938-9.54102Q3.84766-10.7031 4.72168-11.582Q5.5957-12.4609 6.75293-12.9541Q7.91016-13.4473 9.23828-13.4473Q10.5762-13.4473 11.7383-12.9541Q12.9004-12.4609 13.7793-11.582Q14.6582-10.7031 15.1514-9.54102Q15.6445-8.37891 15.6445-7.05078Q15.6445-5.72266 15.1514-4.56055Q14.6582-3.39844 13.7793-2.51953Q12.9004-1.64062 11.7432-1.14746Q10.5859-0.654297 9.24805-0.654297ZM5.6543-7.05078Q5.6543-6.72852 5.85938-6.52832Q6.06445-6.32812 6.40625-6.32812L8.51562-6.32812L8.51562-4.20898Q8.51562-3.88672 8.71094-3.67676Q8.90625-3.4668 9.23828-3.4668Q9.56055-3.4668 9.77051-3.67676Q9.98047-3.88672 9.98047-4.20898L9.98047-6.32812L12.0898-6.32812Q12.4219-6.32812 12.627-6.52832Q12.832-6.72852 12.832-7.05078Q12.832-7.38281 12.627-7.58789Q12.4219-7.79297 12.0898-7.79297L9.98047-7.79297L9.98047-9.90234Q9.98047-10.2344 9.77051-10.4443Q9.56055-10.6543 9.23828-10.6543Q8.90625-10.6543 8.71094-10.4443Q8.51562-10.2344 8.51562-9.90234L8.51562-7.79297L6.40625-7.79297Q6.06445-7.79297 5.85938-7.58789Q5.6543-7.38281 5.6543-7.05078Z"/>
  </g>
  <g transform="matrix(1 0 0 1 281.867 1933)">
   <path d="M11.709 2.91016Q13.75 2.91016 15.5518 2.12891Q17.3535 1.34766 18.7305-0.0292969Q20.1074-1.40625 20.8887-3.20801Q21.6699-5.00977 21.6699-7.05078Q21.6699-9.0918 20.8887-10.8936Q20.1074-12.6953 18.7305-14.0723Q17.3535-15.4492 15.5469-16.2305Q13.7402-17.0117 11.6992-17.0117Q9.6582-17.0117 7.85645-16.2305Q6.05469-15.4492 4.68262-14.0723Q3.31055-12.6953 2.5293-10.8936Q1.74805-9.0918 1.74805-7.05078Q1.74805-5.00977 2.5293-3.20801Q3.31055-1.40625 4.6875-0.0292969Q6.06445 1.34766 7.86621 2.12891Q9.66797 2.91016 11.709 2.91016ZM11.709 1.25Q9.98047 1.25 8.47656 0.605469Q6.97266-0.0390625 5.83496-1.17676Q4.69727-2.31445 4.05762-3.81836Q3.41797-5.32227 3.41797-7.05078Q3.41797-8.7793 4.05762-10.2832Q4.69727-11.7871 5.83008-12.9297Q6.96289-14.0723 8.4668-14.7119Q9.9707-15.3516 11.6992-15.3516Q13.4277-15.3516 14.9365-14.7119Q16.4453-14.0723 17.583-12.9297Q18.7207-11.7871 19.3652-10.2832Q20.0098-8.7793 20.0098-7.05078Q20.0098-5.32227 19.3701-3.81836Q18.7305-2.31445 17.5879-1.17676Q16.4453-0.0390625 14.9414 0.605469Q13.4375 1.25 11.709 1.25ZM7.17773-7.05078Q7.17773-6.69922 7.41211-6.47461Q7.64648-6.25 8.01758-6.25L10.8887-6.25L10.8887-3.36914Q10.8887-2.99805 11.1133-2.76855Q11.3379-2.53906 11.6895-2.53906Q12.0605-2.53906 12.29-2.76855Q12.5195-2.99805 12.5195-3.36914L12.5195-6.25L15.4004-6.25Q15.7715-6.25 16.001-6.47461Q16.2305-6.69922 16.2305-7.05078Q16.2305-7.42188 16.001-7.65137Q15.7715-7.88086 15.4004-7.88086L12.5195-7.88086L12.5195-10.752Q12.5195-11.1328 12.29-11.3623Q12.0605-11.5918 11.6895-11.5918Q11.3379-11.5918 11.1133-11.3574Q10.8887-11.123 10.8887-10.752L10.8887-7.88086L8.01758-7.88086Q7.63672-7.88086 7.40723-7.65137Q7.17773-7.42188 7.17773-7.05078Z"/>
  </g>
  <g transform="matrix(1 0 0 1 305.646 1933)">
   <path d="M14.9707 5.66406Q17.0605 5.66406 18.96 5.01465Q20.8594 4.36523 22.4512 3.19336Q24.043 2.02148 25.2197 0.429688Q26.3965-1.16211 27.0459-3.06641Q27.6953-4.9707 27.6953-7.05078Q27.6953-9.14062 27.0459-11.04Q26.3965-12.9395 25.2197-14.5312Q24.043-16.123 22.4512-17.2998Q20.8594-18.4766 18.9551-19.126Q17.0508-19.7754 14.9609-19.7754Q12.8711-19.7754 10.9717-19.126Q9.07227-18.4766 7.48535-17.2998Q5.89844-16.123 4.72168-14.5312Q3.54492-12.9395 2.90039-11.04Q2.25586-9.14062 2.25586-7.05078Q2.25586-4.9707 2.90527-3.06641Q3.55469-1.16211 4.72656 0.429688Q5.89844 2.02148 7.49023 3.19336Q9.08203 4.36523 10.9814 5.01465Q12.8809 5.66406 14.9707 5.66406ZM14.9707 3.84766Q13.1641 3.84766 11.5283 3.2959Q9.89258 2.74414 8.53516 1.74805Q7.17773 0.751953 6.17676-0.610352Q5.17578-1.97266 4.62891-3.6084Q4.08203-5.24414 4.08203-7.05078Q4.08203-8.86719 4.62891-10.5029Q5.17578-12.1387 6.17188-13.501Q7.16797-14.8633 8.52539-15.8594Q9.88281-16.8555 11.5186-17.4023Q13.1543-17.9492 14.9609-17.9492Q16.7773-17.9492 18.4131-17.4023Q20.0488-16.8555 21.4111-15.8594Q22.7734-14.8633 23.7744-13.501Q24.7754-12.1387 25.3223-10.5029Q25.8691-8.86719 25.8691-7.05078Q25.8691-5.24414 25.3223-3.6084Q24.7754-1.97266 23.7793-0.610352Q22.7832 0.751953 21.4209 1.74805Q20.0586 2.74414 18.4229 3.2959Q16.7871 3.84766 14.9707 3.84766ZM9.19922-7.05078Q9.19922-6.66992 9.45801-6.4209Q9.7168-6.17188 10.1172-6.17188L14.0625-6.17188L14.0625-2.2168Q14.0625-1.81641 14.3115-1.55762Q14.5605-1.29883 14.9512-1.29883Q15.3516-1.29883 15.6104-1.55273Q15.8691-1.80664 15.8691-2.2168L15.8691-6.17188L19.8242-6.17188Q20.2246-6.17188 20.4785-6.4209Q20.7324-6.66992 20.7324-7.05078Q20.7324-7.46094 20.4785-7.71484Q20.2246-7.96875 19.8242-7.96875L15.8691-7.96875L15.8691-11.9141Q15.8691-12.3242 15.6104-12.583Q15.3516-12.8418 14.9512-12.8418Q14.5605-12.8418 14.3115-12.583Q14.0625-12.3242 14.0625-11.9141L14.0625-7.96875L10.1172-7.96875Q9.70703-7.96875 9.45312-7.71484Q9.19922-7.46094 9.19922-7.05078Z"/>
  </g>
  <text style="stroke:none;fill:black;font-family:sans-serif;font-size:13;font-weight:bold;" transform="matrix(1 0 0 1 263 1953)">Design Variations</text>
  <text style="stroke:none;fill:black;font-family:sans-serif;font-size:13;" transform="matrix(1 0 0 1 263 1971)">Symbols are supported in up to nine weights and three scales.</text>
  <text style="stroke:none;fill:black;font-family:sans-serif;font-size:13;" transform="matrix(1 0 0 1 263 1989)">For optimal layout with text and other symbols, vertically align</text>
  <text style="stroke:none;fill:black;font-family:sans-serif;font-size:13;" transform="matrix(1 0 0 1 263 2007)">symbols with the adjacent text.</text>
  <line style="fill:none;stroke:#00AEEF;stroke-width:0.5;opacity:1.0;" x1="776" x2="776" y1="1919" y2="1933"/>
  <g transform="matrix(1 0 0 1 776 1933)">
   <path d="M3.31055 0.15625Q3.70117 0.15625 3.91602-0.00976562Q4.13086-0.175781 4.26758-0.585938L5.52734-4.0332L11.2891-4.0332L12.5488-0.585938Q12.6855-0.175781 12.9004-0.00976562Q13.1152 0.15625 13.4961 0.15625Q13.8867 0.15625 14.1162-0.0585938Q14.3457-0.273438 14.3457-0.644531Q14.3457-0.869141 14.2383-1.17188L9.6582-13.3691Q9.48242-13.8184 9.17969-14.043Q8.87695-14.2676 8.4082-14.2676Q7.5-14.2676 7.17773-13.3789L2.59766-1.16211Q2.49023-0.859375 2.49023-0.634766Q2.49023-0.263672 2.70996-0.0537109Q2.92969 0.15625 3.31055 0.15625ZM6.00586-5.51758L8.37891-12.0898L8.42773-12.0898L10.8008-5.51758Z"/>
  </g>
  <line style="fill:none;stroke:#00AEEF;stroke-width:0.5;opacity:1.0;" x1="793.197" x2="793.197" y1="1919" y2="1933"/>
  <text style="stroke:none;fill:black;font-family:sans-serif;font-size:13;font-weight:bold;" transform="matrix(1 0 0 1 776 1953)">Margins</text>
  <text style="stroke:none;fill:black;font-family:sans-serif;font-size:13;" transform="matrix(1 0 0 1 776 1971)">Leading and trailing margins on the left and right side of each symbol</text>
  <text style="stroke:none;fill:black;font-family:sans-serif;font-size:13;" transform="matrix(1 0 0 1 776 1989)">can be adjusted by modifying the x-location of the margin guidelines.</text>
  <text style="stroke:none;fill:black;font-family:sans-serif;font-size:13;" transform="matrix(1 0 0 1 776 2007)">Modifications are automatically applied proportionally to all</text>
  <text style="stroke:none;fill:black;font-family:sans-serif;font-size:13;" transform="matrix(1 0 0 1 776 2025)">scales and weights.</text>
  <g transform="matrix(1 0 0 1 1289 1933)">
   <path d="M2.8418 1.86523L4.54102 3.57422Q5.18555 4.22852 5.90332 4.17969Q6.62109 4.13086 7.31445 3.35938L18.0078-8.42773L17.041-9.4043L6.42578 2.27539Q6.16211 2.57812 5.89355 2.61719Q5.625 2.65625 5.27344 2.30469L4.10156 1.14258Q3.75 0.791016 3.79395 0.522461Q3.83789 0.253906 4.14062-0.0195312L15.6152-10.8203L14.6387-11.7871L3.04688-0.898438Q2.30469-0.214844 2.25098 0.498047Q2.19727 1.21094 2.8418 1.86523ZM9.25781-16.3281Q8.94531-16.0254 8.90625-15.6348Q8.86719-15.2441 9.04297-14.9512Q9.21875-14.6777 9.55566-14.541Q9.89258-14.4043 10.3809-14.5215Q11.4746-14.7754 12.5977-14.7314Q13.7207-14.6875 14.7949-13.9844L14.209-12.5293Q13.9551-11.9043 14.0674-11.4404Q14.1797-10.9766 14.5801-10.5664L16.875-8.25195Q17.2363-7.88086 17.5781-7.82227Q17.9199-7.76367 18.3398-7.8418L19.4043-8.03711L20.0684-7.36328L20.0293-6.80664Q20-6.43555 20.1221-6.12305Q20.2441-5.81055 20.6055-5.44922L21.3672-4.70703Q21.7285-4.3457 22.1533-4.33105Q22.5781-4.31641 22.9297-4.66797L25.8398-7.58789Q26.1914-7.93945 26.1816-8.35449Q26.1719-8.76953 25.8105-9.13086L25.0391-9.89258Q24.6875-10.2539 24.3799-10.3857Q24.0723-10.5176 23.7109-10.4883L23.1348-10.4395L22.4902-11.0742L22.7344-12.1973Q22.832-12.6172 22.6953-12.9834Q22.5586-13.3496 22.1191-13.7891L19.9219-15.9766Q18.6719-17.2168 17.2607-17.8369Q15.8496-18.457 14.4189-18.4814Q12.9883-18.5059 11.665-17.959Q10.3418-17.4121 9.25781-16.3281ZM10.752-15.957Q11.6602-16.6211 12.7002-16.9043Q13.7402-17.1875 14.8047-17.085Q15.8691-16.9824 16.8701-16.5137Q17.8711-16.0449 18.7012-15.2051L21.1328-12.793Q21.3086-12.6172 21.3525-12.4512Q21.3965-12.2852 21.3379-12.0312L21.0156-10.5469L22.5195-9.0625L23.5059-9.12109Q23.6914-9.13086 23.7891-9.09668Q23.8867-9.0625 24.0332-8.91602L24.6094-8.33984L22.168-5.89844L21.5918-6.47461Q21.4453-6.62109 21.4062-6.71875Q21.3672-6.81641 21.377-7.01172L21.4453-7.98828L19.9512-9.47266L18.4277-9.21875Q18.1836-9.16992 18.042-9.2041Q17.9004-9.23828 17.7148-9.41406L15.7129-11.416Q15.5176-11.5918 15.4932-11.7529Q15.4688-11.9141 15.5859-12.1875L16.4648-14.2773Q15.293-15.3711 13.8281-15.791Q12.3633-16.2109 10.8398-15.7617Q10.7227-15.7324 10.6885-15.8057Q10.6543-15.8789 10.752-15.957Z"/>
  </g>
  <text style="stroke:none;fill:black;font-family:sans-serif;font-size:13;font-weight:bold;" transform="matrix(1 0 0 1 1289 1953)">Exporting</text>
  <text style="stroke:none;fill:black;font-family:sans-serif;font-size:13;" transform="matrix(1 0 0 1 1289 1971)">Symbols should be outlined when exporting to ensure the</text>
  <text style="stroke:none;fill:black;font-family:sans-serif;font-size:13;" transform="matrix(1 0 0 1 1289 1989)">design is preserved when submitting to Xcode.</text>
  <text id="template-version" style="stroke:none;fill:black;font-family:sans-serif;font-size:13;text-anchor:end;" transform="matrix(1 0 0 1 3036 1933)">Template v.4.0</text>
  <text style="stroke:none;fill:black;font-family:sans-serif;font-size:13;text-anchor:end;" transform="matrix(1 0 0 1 3036 1951)">Requires Xcode 14 or greater</text>
  <text id="descriptive-name" style="stroke:none;fill:black;font-family:sans-serif;font-size:13;text-anchor:end;" transform="matrix(1 0 0 1 3036 1969)">Generated from dumbbell</text>
  <text style="stroke:none;fill:black;font-family:sans-serif;font-size:13;text-anchor:end;" transform="matrix(1 0 0 1 3036 1987)">Typeset at 100 points</text>
  <text style="stroke:none;fill:black;font-family:sans-serif;font-size:13;" transform="matrix(1 0 0 1 263 726)">Small</text>
  <text style="stroke:none;fill:black;font-family:sans-serif;font-size:13;" transform="matrix(1 0 0 1 263 1156)">Medium</text>
  <text style="stroke:none;fill:black;font-family:sans-serif;font-size:13;" transform="matrix(1 0 0 1 263 1586)">Large</text>
 </g>
 <g id="Guides">
  <g id="H-reference" style="fill:#27AAE1;stroke:none;" transform="matrix(1 0 0 1 339 696)">
   <path d="M0.993347 0L3.6377 0L29.3282-67.1326L30.0301-67.1326L30.0301-70.459L28.1227-70.459ZM11.6882-24.4797L46.9818-24.4797L46.2311-26.7288L12.4382-26.7288ZM55.1193 0L57.7637 0L30.6381-70.459L29.4327-70.459L29.4327-67.1326Z"/>
  </g>
  <line id="Baseline-S" style="fill:none;stroke:#27AAE1;opacity:1;stroke-width:0.5;" x1="263" x2="3036" y1="696" y2="696"/>
  <line id="Capline-S" style="fill:none;stroke:#27AAE1;opacity:1;stroke-width:0.5;" x1="263" x2="3036" y1="625.541" y2="625.541"/>
  <g id="H-reference" style="fill:#27AAE1;stroke:none;" transform="matrix(1 0 0 1 339 1126)">
   <path d="M0.993347 0L3.6377 0L29.3282-67.1326L30.0301-67.1326L30.0301-70.459L28.1227-70.459ZM11.6882-24.4797L46.9818-24.4797L46.2311-26.7288L12.4382-26.7288ZM55.1193 0L57.7637 0L30.6381-70.459L29.4327-70.459L29.4327-67.1326Z"/>
  </g>
  <line id="Baseline-M" style="fill:none;stroke:#27AAE1;opacity:1;stroke-width:0.5;" x1="263" x2="3036" y1="1126" y2="1126"/>
  <line id="Capline-M" style="fill:none;stroke:#27AAE1;opacity:1;stroke-width:0.5;" x1="263" x2="3036" y1="1055.54" y2="1055.54"/>
  <g id="H-reference" style="fill:#27AAE1;stroke:none;" transform="matrix(1 0 0 1 339 1556)">
   <path d="M0.993347 0L3.6377 0L29.3282-67.1326L30.0301-67.1326L30.0301-70.459L28.1227-70.459ZM11.6882-24.4797L46.9818-24.4797L46.2311-26.7288L12.4382-26.7288ZM55.1193 0L57.7637 0L30.6381-70.459L29.4327-70.459L29.4327-67.1326Z"/>
  </g>
  <line id="Baseline-L" style="fill:none;stroke:#27AAE1;opacity:1;stroke-width:0.5;" x1="263" x2="3036" y1="1556" y2="1556"/>
  <line id="Capline-L" style="fill:none;stroke:#27AAE1;opacity:1;stroke-width:0.5;" x1="263" x2="3036" y1="1485.54" y2="1485.54"/>
  <line id="left-margin-Ultralight-S" style="fill:none;stroke:#00AEEF;stroke-width:0.5;opacity:1.0;" x1="510.768" x2="510.768" y1="600.785" y2="720.121"/>
  <line id="right-margin-Ultralight-S" style="fill:none;stroke:#00AEEF;stroke-width:0.5;opacity:1.0;" x1="608.655" x2="608.655" y1="600.785" y2="720.121"/>
  <line id="left-margin-Regular-S" style="fill:none;stroke:#00AEEF;stroke-width:0.5;opacity:1.0;" x1="1389.64" x2="1389.64" y1="600.785" y2="720.121"/>
  <line id="right-margin-Regular-S" style="fill:none;stroke:#00AEEF;stroke-width:0.5;opacity:1.0;" x1="1510.05" x2="1510.05" y1="600.785" y2="720.121"/>
  <line id="left-margin-Black-S" style="fill:none;stroke:#00AEEF;stroke-width:0.5;opacity:1.0;" x1="2864.23" x2="2864.23" y1="600.785" y2="720.121"/>
  <line id="right-margin-Black-S" style="fill:none;stroke:#00AEEF;stroke-width:0.5;opacity:1.0;" x1="3002.57" x2="3002.57" y1="600.785" y2="720.121"/>
 </g>
 <g id="Symbols">
  <g id="Black-S" transform="matrix(1 0 0 1 2864.23 696)">
   <path class="template-0 SFSymbolsPreview000000" d="M38.2812-0.244141L40.625-0.244141Q46.8262-0.244141 50.7324-3.85742Q54.6387-7.4707 54.6387-13.1348L54.6387-57.4219Q54.6387-63.0859 50.7324-66.6992Q46.8262-70.3125 40.625-70.3125L38.2812-70.3125Q32.0801-70.3125 28.1738-66.6992Q24.2676-63.0859 24.2676-57.4219L24.2676-13.1348Q24.2676-7.4707 28.1738-3.85742Q32.0801-0.244141 38.2812-0.244141ZM97.7051-0.244141L100.049-0.244141Q106.25-0.244141 110.156-3.85742Q114.062-7.4707 114.062-13.1348L114.062-57.4219Q114.062-63.0859 110.156-66.6992Q106.25-70.3125 100.049-70.3125L97.7051-70.3125Q91.5039-70.3125 87.5977-66.6992Q83.6914-63.0859 83.6914-57.4219L83.6914-13.1348Q83.6914-7.4707 87.5977-3.85742Q91.5039-0.244141 97.7051-0.244141ZM97.8027-12.3047Q96.875-12.3047 96.3135-12.8174Q95.752-13.3301 95.752-14.1113L95.752-56.4453Q95.752-57.2754 96.3135-57.7637Q96.875-58.252 97.8027-58.252L99.9512-58.252Q100.879-58.252 101.44-57.7637Q102.002-57.2754 102.002-56.4453L102.002-14.1113Q102.002-13.3301 101.44-12.8174Q100.879-12.3047 99.9512-12.3047ZM38.3789-12.3047Q37.4512-12.3047 36.8896-12.8174Q36.3281-13.3301 36.3281-14.1113L36.3281-56.4453Q36.3281-57.2754 36.8896-57.7637Q37.4512-58.252 38.3789-58.252L40.5273-58.252Q41.4551-58.252 42.0166-57.7637Q42.5781-57.2754 42.5781-56.4453L42.5781-14.1113Q42.5781-13.3301 42.0166-12.8174Q41.4551-12.3047 40.5273-12.3047ZM20.3613-11.3281L28.4668-11.3281L28.4668-22.9004L22.2656-22.9004Q21.7773-22.9004 21.5332-23.1445Q21.2891-23.3887 21.2891-23.877L21.2891-46.7773Q21.2891-47.2656 21.5332-47.5098Q21.7773-47.7539 22.2656-47.7539L28.4668-47.7539L28.4668-59.2773L20.3613-59.2773Q15.918-59.2773 12.8418-56.2256Q9.76562-53.1738 9.76562-48.6816L9.76562-21.875Q9.76562-17.5293 12.8418-14.4287Q15.918-11.3281 20.3613-11.3281ZM109.863-11.3281L117.969-11.3281Q122.461-11.3281 125.513-14.4287Q128.564-17.5293 128.564-21.875L128.564-48.6816Q128.564-53.1738 125.513-56.2256Q122.461-59.2773 117.969-59.2773L109.863-59.2773L109.863-47.7539L116.064-47.7539Q116.553-47.7539 116.797-47.5098Q117.041-47.2656 117.041-46.7773L117.041-23.877Q117.041-23.3887 116.797-23.1445Q116.553-22.9004 116.064-22.9004L109.863-22.9004ZM48.7305-36.6699L89.5996-36.6699L89.5996-48.7305L48.7305-48.7305ZM48.7305-21.875L89.5996-21.875L89.5996-33.9355L48.7305-33.9355Z"/>
  </g>
  <g id="Regular-S" transform="matrix(1 0 0 1 1389.64 696)">
   <path class="template-0 SFSymbolsPreview000000" d="M30.5664-6.29883L33.3008-6.29883Q38.4766-6.29883 41.2842-9.27734Q44.0918-12.2559 44.0918-17.7734L44.0918-52.7344Q44.0918-58.252 41.2842-61.2549Q38.4766-64.2578 33.3008-64.2578L30.127-64.2578Q25.3418-64.2578 22.7783-61.2549Q20.2148-58.252 20.2148-52.7344L20.2148-17.7734Q20.2148-12.2559 22.9004-9.27734Q25.5859-6.29883 30.5664-6.29883ZM87.1094-6.29883L89.8438-6.29883Q94.8242-6.29883 97.5098-9.27734Q100.195-12.2559 100.195-17.7734L100.195-52.7344Q100.195-58.252 97.6318-61.2549Q95.0684-64.2578 90.2832-64.2578L87.1094-64.2578Q81.9336-64.2578 79.126-61.2549Q76.3184-58.252 76.3184-52.7344L76.3184-17.7734Q76.3184-12.2559 79.126-9.27734Q81.9336-6.29883 87.1094-6.29883ZM87.207-12.8906Q85.1562-12.8906 84.0088-14.1602Q82.8613-15.4297 82.8613-17.7734L82.8613-52.7344Q82.8613-55.0781 84.0088-56.3721Q85.1562-57.666 87.207-57.666L90.1855-57.666Q91.7969-57.666 92.7002-56.3721Q93.6035-55.0781 93.6035-52.7344L93.6035-17.7734Q93.6035-15.4297 92.6025-14.1602Q91.6016-12.8906 89.7461-12.8906ZM30.6641-12.8906Q28.8086-12.8906 27.8076-14.1602Q26.8066-15.4297 26.8066-17.7734L26.8066-52.7344Q26.8066-55.0781 27.71-56.3721Q28.6133-57.666 30.2246-57.666L33.2031-57.666Q35.2539-57.666 36.4014-56.3721Q37.5488-55.0781 37.5488-52.7344L37.5488-17.7734Q37.5488-15.4297 36.4014-14.1602Q35.2539-12.8906 33.2031-12.8906ZM17.3828-14.9414L22.7051-14.9414L22.7051-21.0449L17.4316-21.0449Q16.7969-21.0449 16.333-21.5088Q15.8691-21.9727 15.8691-22.6074L15.8691-47.9492Q15.8691-48.584 16.333-49.0723Q16.7969-49.5605 17.4316-49.5605L22.7051-49.5605L22.7051-55.6641L17.3828-55.6641Q14.1602-55.6641 11.9629-53.4424Q9.76562-51.2207 9.76562-48.0469L9.76562-22.5098Q9.76562-19.3359 11.9629-17.1387Q14.1602-14.9414 17.3828-14.9414ZM97.7539-14.9414L103.027-14.9414Q106.25-14.9414 108.447-17.1387Q110.645-19.3359 110.645-22.5098L110.645-48.0469Q110.645-51.2207 108.447-53.4424Q106.25-55.6641 103.027-55.6641L97.7539-55.6641L97.7539-49.5605L102.979-49.5605Q103.662-49.5605 104.102-49.0723Q104.541-48.584 104.541-47.9492L104.541-22.6074Q104.541-21.9727 104.102-21.5088Q103.662-21.0449 102.979-21.0449L97.7539-21.0449ZM43.1152-38.0859L77.2949-38.0859L77.2949-44.6777L43.1152-44.6777ZM43.1152-25.9277L77.2949-25.9277L77.2949-32.5195L43.1152-32.5195Z"/>
  </g>
  <g id="Ultralight-S" transform="matrix(1 0 0 1 510.768 696)">
   <path class="template-0 SFSymbolsPreview000000" d="M23.8457-10.0227L26.4893-10.0227Q29.5761-10.0227 31.5437-11.7752Q33.5114-13.5277 33.5114-16.275L33.5114-54.2328Q33.5114-57.0709 31.6574-58.8478Q29.8035-60.6247 26.8524-60.6247L23.452-60.6247Q20.4826-60.6247 18.6459-58.8478Q16.8091-57.0709 16.8091-54.2328L16.8091-16.275Q16.8091-13.5277 18.7679-11.7752Q20.7268-10.0227 23.8457-10.0227ZM71.3974-10.0227L74.041-10.0227Q77.1599-10.0227 79.1187-11.7752Q81.0776-13.5277 81.0776-16.275L81.0776-54.2328Q81.0776-57.0709 79.2408-58.8478Q77.404-60.6247 74.4354-60.6247L71.0342-60.6247Q68.084-60.6247 66.2296-58.8478Q64.3753-57.0709 64.3753-54.2328L64.3753-16.275Q64.3753-13.5277 66.3429-11.7752Q68.3105-10.0227 71.3974-10.0227ZM71.4951-12.2093Q69.3085-12.2093 67.9337-13.3427Q66.5588-14.476 66.5588-16.275L66.5588-54.2328Q66.5588-56.0768 67.8429-57.2575Q69.1269-58.4381 71.1319-58.4381L74.3378-58.4381Q76.3573-58.4381 77.6241-57.2575Q78.891-56.0768 78.891-54.2328L78.891-16.275Q78.891-14.476 77.5265-13.3427Q76.162-12.2093 73.9433-12.2093ZM23.9433-12.2093Q21.7697-12.2093 20.3831-13.3427Q18.9964-14.476 18.9964-16.275L18.9964-54.2328Q18.9964-56.0768 20.2629-57.2575Q21.5294-58.4381 23.5497-58.4381L26.7548-58.4381Q28.7605-58.4381 30.0442-57.2575Q31.3278-56.0768 31.3278-54.2328L31.3278-16.275Q31.3278-14.476 29.9534-13.3427Q28.5789-12.2093 26.3916-12.2093ZM14.9757-17.6208L18.119-17.6208L18.119-19.7731L15.0246-19.7731Q13.6635-19.7731 12.7911-20.6459Q11.9186-21.5187 11.9186-22.8798L11.9186-47.6768Q11.9186-49.0379 12.7911-49.9577Q13.6635-50.8774 15.0246-50.8774L18.119-50.8774L18.119-53.0304L14.9757-53.0304Q12.7068-53.0304 11.2362-51.5579Q9.76562-50.0854 9.76562-47.7745L9.76562-22.7821Q9.76562-20.562 11.2362-19.0914Q12.7068-17.6208 14.9757-17.6208ZM79.7714-17.6208L82.9109-17.6208Q85.2249-17.6208 86.673-19.0914Q88.121-20.562 88.121-22.7821L88.121-47.7745Q88.121-50.0854 86.673-51.5579Q85.2249-53.0304 82.9109-53.0304L79.7714-53.0304L79.7714-50.8774L82.8621-50.8774Q84.227-50.8774 85.0979-49.9577Q85.9688-49.0379 85.9688-47.6768L85.9688-22.8798Q85.9688-21.5187 85.0979-20.6459Q84.227-19.7731 82.8621-19.7731L79.7714-19.7731ZM32.3532-39.9475L65.5334-39.9475L65.5334-42.1349L32.3532-42.1349ZM32.3532-28.4706L65.5334-28.4706L65.5334-30.658L32.3532-30.658Z"/>
  </g>
 </g>
</svg>
