<?xml version="1.0" encoding="UTF-8"?>
<!--Generator: Apple Native CoreSVG 175.5-->
<!DOCTYPE svg
PUBLIC "-//W3C//DTD SVG 1.1//EN"
       "http://www.w3.org/Graphics/SVG/1.1/DTD/svg11.dtd">
<svg version="1.1" xmlns="http://www.w3.org/2000/svg" xmlns:xlink="http://www.w3.org/1999/xlink" width="3300" height="2200">
 <!--glyph: "uni10158C.medium", point size: 100.0, font version: "18.0d9e1", template writer version: "84"-->
 <g id="Notes">
  <rect height="2200" id="artboard" style="fill:white;opacity:1" width="3300" x="0" y="0"/>
  <line style="fill:none;stroke:black;opacity:1;stroke-width:0.5;" x1="263" x2="3036" y1="292" y2="292"/>
  <text style="stroke:none;fill:black;font-family:sans-serif;font-size:13;font-weight:bold;" transform="matrix(1 0 0 1 263 322)">Weight/Scale Variations</text>
  <text style="stroke:none;fill:black;font-family:sans-serif;font-size:13;text-anchor:middle;" transform="matrix(1 0 0 1 559.711 322)">Ultralight</text>
  <text style="stroke:none;fill:black;font-family:sans-serif;font-size:13;text-anchor:middle;" transform="matrix(1 0 0 1 856.422 322)">Thin</text>
  <text style="stroke:none;fill:black;font-family:sans-serif;font-size:13;text-anchor:middle;" transform="matrix(1 0 0 1 1153.13 322)">Light</text>
  <text style="stroke:none;fill:black;font-family:sans-serif;font-size:13;text-anchor:middle;" transform="matrix(1 0 0 1 1449.84 322)">Regular</text>
  <text style="stroke:none;fill:black;font-family:sans-serif;font-size:13;text-anchor:middle;" transform="matrix(1 0 0 1 1746.56 322)">Medium</text>
  <text style="stroke:none;fill:black;font-family:sans-serif;font-size:13;text-anchor:middle;" transform="matrix(1 0 0 1 2043.27 322)">Semibold</text>
  <text style="stroke:none;fill:black;font-family:sans-serif;font-size:13;text-anchor:middle;" transform="matrix(1 0 0 1 2339.98 322)">Bold</text>
  <text style="stroke:none;fill:black;font-family:sans-serif;font-size:13;text-anchor:middle;" transform="matrix(1 0 0 1 2636.69 322)">Heavy</text>
  <text style="stroke:none;fill:black;font-family:sans-serif;font-size:13;text-anchor:middle;" transform="matrix(1 0 0 1 2933.4 322)">Black</text>
  <line style="fill:none;stroke:black;opacity:1;stroke-width:0.5;" x1="263" x2="3036" y1="1903" y2="1903"/>
  <g transform="matrix(1 0 0 1 263 1933)">
   <path d="M9.24805 0.830078Q10.8691 0.830078 12.2949 0.214844Q13.7207-0.400391 14.8096-1.49414Q15.8984-2.58789 16.5186-4.01367Q17.1387-5.43945 17.1387-7.05078Q17.1387-8.66211 16.5186-10.0879Q15.8984-11.5137 14.8047-12.6074Q13.7109-13.7012 12.2852-14.3164Q10.8594-14.9316 9.23828-14.9316Q7.62695-14.9316 6.20117-14.3164Q4.77539-13.7012 3.69141-12.6074Q2.60742-11.5137 1.9873-10.0879Q1.36719-8.66211 1.36719-7.05078Q1.36719-5.43945 1.9873-4.01367Q2.60742-2.58789 3.69629-1.49414Q4.78516-0.400391 6.21094 0.214844Q7.63672 0.830078 9.24805 0.830078ZM9.24805-0.654297Q7.91992-0.654297 6.7627-1.14746Q5.60547-1.64062 4.73145-2.51953Q3.85742-3.39844 3.36426-4.56055Q2.87109-5.72266 2.87109-7.05078Q2.87109-8.37891 3.35938-9.54102Q3.84766-10.7031 4.72168-11.582Q5.5957-12.4609 6.75293-12.9541Q7.91016-13.4473 9.23828-13.4473Q10.5762-13.4473 11.7383-12.9541Q12.9004-12.4609 13.7793-11.582Q14.6582-10.7031 15.1514-9.54102Q15.6445-8.37891 15.6445-7.05078Q15.6445-5.72266 15.1514-4.56055Q14.6582-3.39844 13.7793-2.51953Q12.9004-1.64062 11.7432-1.14746Q10.5859-0.654297 9.24805-0.654297ZM5.6543-7.05078Q5.6543-6.72852 5.85938-6.52832Q6.06445-6.32812 6.40625-6.32812L8.51562-6.32812L8.51562-4.20898Q8.51562-3.88672 8.71094-3.67676Q8.90625-3.4668 9.23828-3.4668Q9.56055-3.4668 9.77051-3.67676Q9.98047-3.88672 9.98047-4.20898L9.98047-6.32812L12.0898-6.32812Q12.4219-6.32812 12.627-6.52832Q12.832-6.72852 12.832-7.05078Q12.832-7.38281 12.627-7.58789Q12.4219-7.79297 12.0898-7.79297L9.98047-7.79297L9.98047-9.90234Q9.98047-10.2344 9.77051-10.4443Q9.56055-10.6543 9.23828-10.6543Q8.90625-10.6543 8.71094-10.4443Q8.51562-10.2344 8.51562-9.90234L8.51562-7.79297L6.40625-7.79297Q6.06445-7.79297 5.85938-7.58789Q5.6543-7.38281 5.6543-7.05078Z"/>
  </g>
  <g transform="matrix(1 0 0 1 281.867 1933)">
   <path d="M11.709 2.91016Q13.75 2.91016 15.5518 2.12891Q17.3535 1.34766 18.7305-0.0292969Q20.1074-1.40625 20.8887-3.20801Q21.6699-5.00977 21.6699-7.05078Q21.6699-9.0918 20.8887-10.8936Q20.1074-12.6953 18.7305-14.0723Q17.3535-15.4492 15.5469-16.2305Q13.7402-17.0117 11.6992-17.0117Q9.6582-17.0117 7.85645-16.2305Q6.05469-15.4492 4.68262-14.0723Q3.31055-12.6953 2.5293-10.8936Q1.74805-9.0918 1.74805-7.05078Q1.74805-5.00977 2.5293-3.20801Q3.31055-1.40625 4.6875-0.0292969Q6.06445 1.34766 7.86621 2.12891Q9.66797 2.91016 11.709 2.91016ZM11.709 1.25Q9.98047 1.25 8.47656 0.605469Q6.97266-0.0390625 5.83496-1.17676Q4.69727-2.31445 4.05762-3.81836Q3.41797-5.32227 3.41797-7.05078Q3.41797-8.7793 4.05762-10.2832Q4.69727-11.7871 5.83008-12.9297Q6.96289-14.0723 8.4668-14.7119Q9.9707-15.3516 11.6992-15.3516Q13.4277-15.3516 14.9365-14.7119Q16.4453-14.0723 17.583-12.9297Q18.7207-11.7871 19.3652-10.2832Q20.0098-8.7793 20.0098-7.05078Q20.0098-5.32227 19.3701-3.81836Q18.7305-2.31445 17.5879-1.17676Q16.4453-0.0390625 14.9414 0.605469Q13.4375 1.25 11.709 1.25ZM7.17773-7.05078Q7.17773-6.69922 7.41211-6.47461Q7.64648-6.25 8.01758-6.25L10.8887-6.25L10.8887-3.36914Q10.8887-2.99805 11.1133-2.76855Q11.3379-2.53906 11.6895-2.53906Q12.0605-2.53906 12.29-2.76855Q12.5195-2.99805 12.5195-3.36914L12.5195-6.25L15.4004-6.25Q15.7715-6.25 16.001-6.47461Q16.2305-6.69922 16.2305-7.05078Q16.2305-7.42188 16.001-7.65137Q15.7715-7.88086 15.4004-7.88086L12.5195-7.88086L12.5195-10.752Q12.5195-11.1328 12.29-11.3623Q12.0605-11.5918 11.6895-11.5918Q11.3379-11.5918 11.1133-11.3574Q10.8887-11.123 10.8887-10.752L10.8887-7.88086L8.01758-7.88086Q7.63672-7.88086 7.40723-7.65137Q7.17773-7.42188 7.17773-7.05078Z"/>
  </g>
  <g transform="matrix(1 0 0 1 305.646 1933)">
   <path d="M14.9707 5.66406Q17.0605 5.66406 18.96 5.01465Q20.8594 4.36523 22.4512 3.19336Q24.043 2.02148 25.2197 0.429688Q26.3965-1.16211 27.0459-3.06641Q27.6953-4.9707 27.6953-7.05078Q27.6953-9.14062 27.0459-11.04Q26.3965-12.9395 25.2197-14.5312Q24.043-16.123 22.4512-17.2998Q20.8594-18.4766 18.9551-19.126Q17.0508-19.7754 14.9609-19.7754Q12.8711-19.7754 10.9717-19.126Q9.07227-18.4766 7.48535-17.2998Q5.89844-16.123 4.72168-14.5312Q3.54492-12.9395 2.90039-11.04Q2.25586-9.14062 2.25586-7.05078Q2.25586-4.9707 2.90527-3.06641Q3.55469-1.16211 4.72656 0.429688Q5.89844 2.02148 7.49023 3.19336Q9.08203 4.36523 10.9814 5.01465Q12.8809 5.66406 14.9707 5.66406ZM14.9707 3.84766Q13.1641 3.84766 11.5283 3.2959Q9.89258 2.74414 8.53516 1.74805Q7.17773 0.751953 6.17676-0.610352Q5.17578-1.97266 4.62891-3.6084Q4.08203-5.24414 4.08203-7.05078Q4.08203-8.86719 4.62891-10.5029Q5.17578-12.1387 6.17188-13.501Q7.16797-14.8633 8.52539-15.8594Q9.88281-16.8555 11.5186-17.4023Q13.1543-17.9492 14.9609-17.9492Q16.7773-17.9492 18.4131-17.4023Q20.0488-16.8555 21.4111-15.8594Q22.7734-14.8633 23.7744-13.501Q24.7754-12.1387 25.3223-10.5029Q25.8691-8.86719 25.8691-7.05078Q25.8691-5.24414 25.3223-3.6084Q24.7754-1.97266 23.7793-0.610352Q22.7832 0.751953 21.4209 1.74805Q20.0586 2.74414 18.4229 3.2959Q16.7871 3.84766 14.9707 3.84766ZM9.19922-7.05078Q9.19922-6.66992 9.45801-6.4209Q9.7168-6.17188 10.1172-6.17188L14.0625-6.17188L14.0625-2.2168Q14.0625-1.81641 14.3115-1.55762Q14.5605-1.29883 14.9512-1.29883Q15.3516-1.29883 15.6104-1.55273Q15.8691-1.80664 15.8691-2.2168L15.8691-6.17188L19.8242-6.17188Q20.2246-6.17188 20.4785-6.4209Q20.7324-6.66992 20.7324-7.05078Q20.7324-7.46094 20.4785-7.71484Q20.2246-7.96875 19.8242-7.96875L15.8691-7.96875L15.8691-11.9141Q15.8691-12.3242 15.6104-12.583Q15.3516-12.8418 14.9512-12.8418Q14.5605-12.8418 14.3115-12.583Q14.0625-12.3242 14.0625-11.9141L14.0625-7.96875L10.1172-7.96875Q9.70703-7.96875 9.45312-7.71484Q9.19922-7.46094 9.19922-7.05078Z"/>
  </g>
  <text style="stroke:none;fill:black;font-family:sans-serif;font-size:13;font-weight:bold;" transform="matrix(1 0 0 1 263 1953)">Design Variations</text>
  <text style="stroke:none;fill:black;font-family:sans-serif;font-size:13;" transform="matrix(1 0 0 1 263 1971)">Symbols are supported in up to nine weights and three scales.</text>
  <text style="stroke:none;fill:black;font-family:sans-serif;font-size:13;" transform="matrix(1 0 0 1 263 1989)">For optimal layout with text and other symbols, vertically align</text>
  <text style="stroke:none;fill:black;font-family:sans-serif;font-size:13;" transform="matrix(1 0 0 1 263 2007)">symbols with the adjacent text.</text>
  <line style="fill:none;stroke:#00AEEF;stroke-width:0.5;opacity:1.0;" x1="776" x2="776" y1="1919" y2="1933"/>
  <g transform="matrix(1 0 0 1 776 1933)">
   <path d="M3.31055 0.15625Q3.70117 0.15625 3.91602-0.00976562Q4.13086-0.175781 4.26758-0.585938L5.52734-4.0332L11.2891-4.0332L12.5488-0.585938Q12.6855-0.175781 12.9004-0.00976562Q13.1152 0.15625 13.4961 0.15625Q13.8867 0.15625 14.1162-0.0585938Q14.3457-0.273438 14.3457-0.644531Q14.3457-0.869141 14.2383-1.17188L9.6582-13.3691Q9.48242-13.8184 9.17969-14.043Q8.87695-14.2676 8.4082-14.2676Q7.5-14.2676 7.17773-13.3789L2.59766-1.16211Q2.49023-0.859375 2.49023-0.634766Q2.49023-0.263672 2.70996-0.0537109Q2.92969 0.15625 3.31055 0.15625ZM6.00586-5.51758L8.37891-12.0898L8.42773-12.0898L10.8008-5.51758Z"/>
  </g>
  <line style="fill:none;stroke:#00AEEF;stroke-width:0.5;opacity:1.0;" x1="793.197" x2="793.197" y1="1919" y2="1933"/>
  <text style="stroke:none;fill:black;font-family:sans-serif;font-size:13;font-weight:bold;" transform="matrix(1 0 0 1 776 1953)">Margins</text>
  <text style="stroke:none;fill:black;font-family:sans-serif;font-size:13;" transform="matrix(1 0 0 1 776 1971)">Leading and trailing margins on the left and right side of each symbol</text>
  <text style="stroke:none;fill:black;font-family:sans-serif;font-size:13;" transform="matrix(1 0 0 1 776 1989)">can be adjusted by modifying the x-location of the margin guidelines.</text>
  <text style="stroke:none;fill:black;font-family:sans-serif;font-size:13;" transform="matrix(1 0 0 1 776 2007)">Modifications are automatically applied proportionally to all</text>
  <text style="stroke:none;fill:black;font-family:sans-serif;font-size:13;" transform="matrix(1 0 0 1 776 2025)">scales and weights.</text>
  <g transform="matrix(1 0 0 1 1289 1933)">
   <path d="M2.8418 1.86523L4.54102 3.57422Q5.18555 4.22852 5.90332 4.17969Q6.62109 4.13086 7.31445 3.35938L18.0078-8.42773L17.041-9.4043L6.42578 2.27539Q6.16211 2.57812 5.89355 2.61719Q5.625 2.65625 5.27344 2.30469L4.10156 1.14258Q3.75 0.791016 3.79395 0.522461Q3.83789 0.253906 4.14062-0.0195312L15.6152-10.8203L14.6387-11.7871L3.04688-0.898438Q2.30469-0.214844 2.25098 0.498047Q2.19727 1.21094 2.8418 1.86523ZM9.25781-16.3281Q8.94531-16.0254 8.90625-15.6348Q8.86719-15.2441 9.04297-14.9512Q9.21875-14.6777 9.55566-14.541Q9.89258-14.4043 10.3809-14.5215Q11.4746-14.7754 12.5977-14.7314Q13.7207-14.6875 14.7949-13.9844L14.209-12.5293Q13.9551-11.9043 14.0674-11.4404Q14.1797-10.9766 14.5801-10.5664L16.875-8.25195Q17.2363-7.88086 17.5781-7.82227Q17.9199-7.76367 18.3398-7.8418L19.4043-8.03711L20.0684-7.36328L20.0293-6.80664Q20-6.43555 20.1221-6.12305Q20.2441-5.81055 20.6055-5.44922L21.3672-4.70703Q21.7285-4.3457 22.1533-4.33105Q22.5781-4.31641 22.9297-4.66797L25.8398-7.58789Q26.1914-7.93945 26.1816-8.35449Q26.1719-8.76953 25.8105-9.13086L25.0391-9.89258Q24.6875-10.2539 24.3799-10.3857Q24.0723-10.5176 23.7109-10.4883L23.1348-10.4395L22.4902-11.0742L22.7344-12.1973Q22.832-12.6172 22.6953-12.9834Q22.5586-13.3496 22.1191-13.7891L19.9219-15.9766Q18.6719-17.2168 17.2607-17.8369Q15.8496-18.457 14.4189-18.4814Q12.9883-18.5059 11.665-17.959Q10.3418-17.4121 9.25781-16.3281ZM10.752-15.957Q11.6602-16.6211 12.7002-16.9043Q13.7402-17.1875 14.8047-17.085Q15.8691-16.9824 16.8701-16.5137Q17.8711-16.0449 18.7012-15.2051L21.1328-12.793Q21.3086-12.6172 21.3525-12.4512Q21.3965-12.2852 21.3379-12.0312L21.0156-10.5469L22.5195-9.0625L23.5059-9.12109Q23.6914-9.13086 23.7891-9.09668Q23.8867-9.0625 24.0332-8.91602L24.6094-8.33984L22.168-5.89844L21.5918-6.47461Q21.4453-6.62109 21.4062-6.71875Q21.3672-6.81641 21.377-7.01172L21.4453-7.98828L19.9512-9.47266L18.4277-9.21875Q18.1836-9.16992 18.042-9.2041Q17.9004-9.23828 17.7148-9.41406L15.7129-11.416Q15.5176-11.5918 15.4932-11.7529Q15.4688-11.9141 15.5859-12.1875L16.4648-14.2773Q15.293-15.3711 13.8281-15.791Q12.3633-16.2109 10.8398-15.7617Q10.7227-15.7324 10.6885-15.8057Q10.6543-15.8789 10.752-15.957Z"/>
  </g>
  <text style="stroke:none;fill:black;font-family:sans-serif;font-size:13;font-weight:bold;" transform="matrix(1 0 0 1 1289 1953)">Exporting</text>
  <text style="stroke:none;fill:black;font-family:sans-serif;font-size:13;" transform="matrix(1 0 0 1 1289 1971)">Symbols should be outlined when exporting to ensure the</text>
  <text style="stroke:none;fill:black;font-family:sans-serif;font-size:13;" transform="matrix(1 0 0 1 1289 1989)">design is preserved when submitting to Xcode.</text>
  <text id="template-version" style="stroke:none;fill:black;font-family:sans-serif;font-size:13;text-anchor:end;" transform="matrix(1 0 0 1 3036 1933)">Template v.2.0</text>
  <text style="stroke:none;fill:black;font-family:sans-serif;font-size:13;text-anchor:end;" transform="matrix(1 0 0 1 3036 1951)">Requires Xcode 12 or greater</text>
  <text id="descriptive-name" style="stroke:none;fill:black;font-family:sans-serif;font-size:13;text-anchor:end;" transform="matrix(1 0 0 1 3036 1969)">Generated from dumbbell</text>
  <text style="stroke:none;fill:black;font-family:sans-serif;font-size:13;text-anchor:end;" transform="matrix(1 0 0 1 3036 1987)">Typeset at 100 points</text>
  <text style="stroke:none;fill:black;font-family:sans-serif;font-size:13;" transform="matrix(1 0 0 1 263 726)">Small</text>
  <text style="stroke:none;fill:black;font-family:sans-serif;font-size:13;" transform="matrix(1 0 0 1 263 1156)">Medium</text>
  <text style="stroke:none;fill:black;font-family:sans-serif;font-size:13;" transform="matrix(1 0 0 1 263 1586)">Large</text>
 </g>
 <g id="Guides">
  <g id="H-reference" style="fill:#27AAE1;stroke:none;" transform="matrix(1 0 0 1 339 696)">
   <path d="M0.993347 0L3.6377 0L29.3282-67.1326L30.0301-67.1326L30.0301-70.459L28.1227-70.459ZM11.6882-24.4797L46.9818-24.4797L46.2311-26.7288L12.4382-26.7288ZM55.1193 0L57.7637 0L30.6381-70.459L29.4327-70.459L29.4327-67.1326Z"/>
  </g>
  <line id="Baseline-S" style="fill:none;stroke:#27AAE1;opacity:1;stroke-width:0.5;" x1="263" x2="3036" y1="696" y2="696"/>
  <line id="Capline-S" style="fill:none;stroke:#27AAE1;opacity:1;stroke-width:0.5;" x1="263" x2="3036" y1="625.541" y2="625.541"/>
  <g id="H-reference" style="fill:#27AAE1;stroke:none;" transform="matrix(1 0 0 1 339 1126)">
   <path d="M0.993347 0L3.6377 0L29.3282-67.1326L30.0301-67.1326L30.0301-70.459L28.1227-70.459ZM11.6882-24.4797L46.9818-24.4797L46.2311-26.7288L12.4382-26.7288ZM55.1193 0L57.7637 0L30.6381-70.459L29.4327-70.459L29.4327-67.1326Z"/>
  </g>
  <line id="Baseline-M" style="fill:none;stroke:#27AAE1;opacity:1;stroke-width:0.5;" x1="263" x2="3036" y1="1126" y2="1126"/>
  <line id="Capline-M" style="fill:none;stroke:#27AAE1;opacity:1;stroke-width:0.5;" x1="263" x2="3036" y1="1055.54" y2="1055.54"/>
  <g id="H-reference" style="fill:#27AAE1;stroke:none;" transform="matrix(1 0 0 1 339 1556)">
   <path d="M0.993347 0L3.6377 0L29.3282-67.1326L30.0301-67.1326L30.0301-70.459L28.1227-70.459ZM11.6882-24.4797L46.9818-24.4797L46.2311-26.7288L12.4382-26.7288ZM55.1193 0L57.7637 0L30.6381-70.459L29.4327-70.459L29.4327-67.1326Z"/>
  </g>
  <line id="Baseline-L" style="fill:none;stroke:#27AAE1;opacity:1;stroke-width:0.5;" x1="263" x2="3036" y1="1556" y2="1556"/>
  <line id="Capline-L" style="fill:none;stroke:#27AAE1;opacity:1;stroke-width:0.5;" x1="263" x2="3036" y1="1485.54" y2="1485.54"/>
  <line id="left-margin" style="fill:none;stroke:#00AEEF;stroke-width:0.5;opacity:1.0;" x1="1375.64" x2="1375.64" y1="1030.79" y2="1150.12"/>
  <line id="right-margin" style="fill:none;stroke:#00AEEF;stroke-width:0.5;opacity:1.0;" x1="1524.05" x2="1524.05" y1="1030.79" y2="1150.12"/>
 </g>
 <g id="Symbols">
  <g id="Black-L" transform="matrix(1 0 0 1 2823.82 1556)">
   <path d="M32.1289 2.43648L44.1664 2.43648L44.1664-14.0534L34.4287-14.0534Q33.5394-14.0534 33.0274-14.5654Q32.5155-15.0773 32.5155-15.9667L32.5155-54.7699Q32.5155-55.6593 33.0274-56.1829Q33.5394-56.7064 34.4287-56.7064L44.1664-56.7064L44.1664-73.1379L32.1289-73.1379Q25.3861-73.1379 20.7351-68.5056Q16.084-63.8734 16.084-57.0918L16.084-13.528Q16.084-6.92407 20.7351-2.24379Q25.3861 2.43648 32.1289 2.43648ZM59.394 19.5636L63.4279 19.5636Q73.1239 19.5636 79.0401 13.931Q84.9563 8.29842 84.9563-0.891268L84.9563-69.7065Q84.9563-78.8986 79.0431-84.5422Q73.1299-90.1858 63.4375-90.1858L59.1971-90.1858Q49.67-90.1858 43.8609-84.5422Q38.0519-78.8986 38.0519-69.7065L38.0519-0.891268Q38.0519 8.29842 43.916 13.931Q49.7801 19.5636 59.394 19.5636ZM59.5549 2.28145Q57.6003 2.28145 56.4672 1.09942Q55.3341-0.0826056 55.3341-2.0594L55.3341-68.5384Q55.3341-70.5748 56.4225-71.7392Q57.511-72.9037 59.358-72.9037L63.2766-72.9037Q65.3097-72.9037 66.5023-71.7392Q67.6949-70.5748 67.6949-68.5384L67.6949-2.0594Q67.6949-0.0826056 66.4999 1.09942Q65.305 2.28145 63.2671 2.28145ZM77.444-38.2893L141.713-38.2893L141.713-55.5715L77.444-55.5715ZM77.444-15.1287L141.713-15.1287L141.713-32.4109L77.444-32.4109ZM155.729 19.5636L159.763 19.5636Q169.377 19.5636 175.241 13.931Q181.105 8.29842 181.105-0.891268L181.105-69.7065Q181.105-78.8986 175.296-84.5422Q169.487-90.1858 159.96-90.1858L155.72-90.1858Q146.027-90.1858 140.114-84.5422Q134.201-78.8986 134.201-69.7065L134.201-0.891268Q134.201 8.29842 140.117 13.931Q146.033 19.5636 155.729 19.5636ZM155.89 2.28145Q153.852 2.28145 152.657 1.09942Q151.462-0.0826056 151.462-2.0594L151.462-68.5384Q151.462-70.5748 152.655-71.7392Q153.848-72.9037 155.881-72.9037L159.799-72.9037Q161.646-72.9037 162.735-71.7392Q163.823-70.5748 163.823-68.5384L163.823-2.0594Q163.823-0.0826056 162.691 1.09942Q161.558 2.28145 159.602 2.28145ZM175.012 2.43648L187.028 2.43648Q193.831 2.43648 198.452-2.24379Q203.073-6.92407 203.073-13.528L203.073-57.0918Q203.073-63.8734 198.452-68.5056Q193.831-73.1379 187.028-73.1379L175.012-73.1379L175.012-56.7064L184.729-56.7064Q185.639-56.7064 186.14-56.1829Q186.642-55.6593 186.642-54.7699L186.642-15.9667Q186.642-15.0773 186.14-14.5654Q185.639-14.0534 184.729-14.0534L175.012-14.0534Z"/>
  </g>
  <g id="Heavy-L" transform="matrix(1 0 0 1 2530.73 1556)">
   <path d="M31.0539 1.15586L42.0939 1.15586L42.0939-13.406L32.83-13.406Q31.8287-13.406 31.215-14.0197Q30.6013-14.6334 30.6013-15.6348L30.6013-55.0743Q30.6013-56.0756 31.215-56.7101Q31.8287-57.3445 32.83-57.3445L42.0939-57.3445L42.0939-71.8618L31.0539-71.8618Q24.7485-71.8618 20.4163-67.5367Q16.084-63.2116 16.084-56.8861L16.084-13.7337Q16.084-7.55332 20.4163-3.19873Q24.7485 1.15586 31.0539 1.15586ZM56.5625 17.4922L60.6978 17.4922Q69.9012 17.4922 75.4255 12.1581Q80.9499 6.82389 80.9499-2.05501L80.9499-68.529Q80.9499-77.4191 75.4396-82.7712Q69.9293-88.1233 60.7427-88.1233L56.246-88.1233Q47.2952-88.1233 41.9359-82.7712Q36.5766-77.4191 36.5766-68.529L36.5766-2.05501Q36.5766 6.82389 42.0254 12.1581Q47.4742 17.4922 56.5625 17.4922ZM56.7234 2.18231Q54.4759 2.18231 53.1812 0.799873Q51.8866-0.582561 51.8866-2.94746L51.8866-67.6366Q51.8866-70.0517 53.1069-71.4325Q54.3272-72.8134 56.4068-72.8134L60.5819-72.8134Q62.9276-72.8134 64.2989-71.4325Q65.6701-70.0517 65.6701-67.6366L65.6701-2.94746Q65.6701-0.582561 64.2876 0.799873Q62.9052 2.18231 60.537 2.18231ZM74.8121-38.8701L137.096-38.8701L137.096-54.1801L74.8121-54.1801ZM74.8121-16.5201L137.096-16.5201L137.096-31.8301L74.8121-31.8301ZM151.21 17.4922L155.345 17.4922Q164.434 17.4922 169.883 12.1581Q175.331 6.82389 175.331-2.05501L175.331-68.529Q175.331-77.4191 169.972-82.7712Q164.613-88.1233 155.662-88.1233L151.165-88.1233Q141.979-88.1233 136.468-82.7712Q130.958-77.4191 130.958-68.529L130.958-2.05501Q130.958 6.82389 136.482 12.1581Q142.007 17.4922 151.21 17.4922ZM151.371 2.18231Q149.003 2.18231 147.62 0.799873Q146.238-0.582561 146.238-2.94746L146.238-67.6366Q146.238-70.0517 147.609-71.4325Q148.98-72.8134 151.326-72.8134L155.501-72.8134Q157.581-72.8134 158.801-71.4325Q160.022-70.0517 160.022-67.6366L160.022-2.94746Q160.022-0.582561 158.73 0.799873Q157.438 2.18231 155.185 2.18231ZM169.844 1.15586L180.854 1.15586Q187.21 1.15586 191.517-3.19873Q195.824-7.55332 195.824-13.7337L195.824-56.8861Q195.824-63.2116 191.517-67.5367Q187.21-71.8618 180.854-71.8618L169.844-71.8618L169.844-57.3445L179.078-57.3445Q180.11-57.3445 180.708-56.7101Q181.307-56.0756 181.307-55.0743L181.307-15.6348Q181.307-14.6334 180.708-14.0197Q180.11-13.406 179.078-13.406L169.844-13.406Z"/>
  </g>
  <g id="Bold-L" transform="matrix(1 0 0 1 2238.74 1556)">
   <path d="M29.7096-0.434627L39.5051-0.434627L39.5051-12.6067L30.8997-12.6067Q29.7303-12.6067 28.9787-13.3584Q28.2271-14.1101 28.2271-15.2796L28.2271-55.3986Q28.2271-56.5681 28.9787-57.352Q29.7303-58.1359 30.8997-58.1359L39.5051-58.1359L39.5051-70.279L29.7096-70.279Q23.9496-70.279 20.0168-66.3417Q16.084-62.4044 16.084-56.64L16.084-13.9798Q16.084-8.32949 20.0168-4.38206Q23.9496-0.434627 29.7096-0.434627ZM52.9989 14.9556L57.2423 14.9556Q65.7715 14.9556 70.808 10.0275Q75.8445 5.09946 75.8445-3.26849L75.8445-67.3001Q75.8445-75.6945 70.8411-80.6482Q65.8378-85.6018 57.3481-85.6018L52.5513-85.6018Q44.3523-85.6018 39.5389-80.6482Q34.7255-75.6945 34.7255-67.3001L34.7255-3.26849Q34.7255 5.09946 39.6669 10.0275Q44.6084 14.9556 52.9989 14.9556ZM53.1597 2.11156Q50.566 2.11156 49.0678 0.51297Q47.5697-1.08562 47.5697-3.85256L47.5697-66.716Q47.5697-69.5253 48.9588-71.1416Q50.348-72.7578 52.7121-72.7578L57.1873-72.7578Q59.8802-72.7578 61.4593-71.1416Q63.0384-69.5253 63.0384-66.716L63.0384-3.85256Q63.0384-1.08562 61.4328 0.51297Q59.8273 2.11156 57.0815 2.11156ZM71.2337-39.6295L131.237-39.6295L131.237-52.4738L71.2337-52.4738ZM71.2337-18.2265L131.237-18.2265L131.237-31.0707L71.2337-31.0707ZM145.229 14.9556L149.472 14.9556Q157.863 14.9556 162.804 10.0275Q167.745 5.09946 167.745-3.26849L167.745-67.3001Q167.745-75.6945 162.932-80.6482Q158.119-85.6018 149.92-85.6018L145.123-85.6018Q136.633-85.6018 131.63-80.6482Q126.626-75.6945 126.626-67.3001L126.626-3.26849Q126.626 5.09946 131.663 10.0275Q136.699 14.9556 145.229 14.9556ZM145.389 2.11156Q142.644 2.11156 141.038 0.51297Q139.433-1.08562 139.433-3.85256L139.433-66.716Q139.433-69.5253 141.012-71.1416Q142.591-72.7578 145.284-72.7578L149.759-72.7578Q152.123-72.7578 153.512-71.1416Q154.901-69.5253 154.901-66.716L154.901-3.85256Q154.901-1.08562 153.41 0.51297Q151.918 2.11156 149.311 2.11156ZM163.004-0.434627L172.761-0.434627Q178.564-0.434627 182.475-4.38206Q186.387-8.32949 186.387-13.9798L186.387-56.64Q186.387-62.4044 182.475-66.3417Q178.564-70.279 172.761-70.279L163.004-70.279L163.004-58.1359L171.571-58.1359Q172.779-58.1359 173.511-57.352Q174.244-56.5681 174.244-55.3986L174.244-15.2796Q174.244-14.1101 173.511-13.3584Q172.779-12.6067 171.571-12.6067L163.004-12.6067Z"/>
  </g>
  <g id="Semibold-L" transform="matrix(1 0 0 1 1945.28 1556)">
   <path d="M28.7828-1.5311L37.7204-1.5311L37.7204-12.0557L29.569-12.0557Q28.2837-12.0557 27.437-12.9025Q26.5903-13.7494 26.5903-15.0347L26.5903-55.6223Q26.5903-56.9076 27.437-57.7945Q28.2837-58.6815 29.569-58.6815L37.7204-58.6815L37.7204-69.1878L28.7828-69.1878Q23.3989-69.1878 19.7414-65.5178Q16.084-61.8479 16.084-56.4703L16.084-14.1495Q16.084-8.86459 19.7414-5.19784Q23.3989-1.5311 28.7828-1.5311ZM50.5422 13.2068L54.8601 13.2068Q62.9245 13.2068 67.6247 8.55872Q72.3249 3.91064 72.3249-4.10507L72.3249-66.4529Q72.3249-74.5056 67.671-79.1846Q63.0171-83.8636 55.008-83.8636L50.0042-83.8636Q42.3234-83.8636 37.8864-79.1846Q33.4493-74.5056 33.4493-66.4529L33.4493-4.10507Q33.4493 3.91064 38.041 8.55872Q42.6326 13.2068 50.5422 13.2068ZM50.703 2.06279Q47.8705 2.06279 46.2321 0.315181Q44.5936-1.43242 44.5936-4.47653L44.5936-66.0814Q44.5936-69.1624 46.0992-70.941Q47.6048-72.7196 50.165-72.7196L54.8471-72.7196Q57.7792-72.7196 59.5017-70.941Q61.2241-69.1624 61.2241-66.0814L61.2241-4.47653Q61.2241-1.43242 59.4647 0.315181Q57.7053 2.06279 54.6993 2.06279ZM68.7667-40.1531L127.198-40.1531L127.198-51.2974L68.7667-51.2974ZM68.7667-19.4028L127.198-19.4028L127.198-30.5472L68.7667-30.5472ZM141.105 13.2068L145.423 13.2068Q153.332 13.2068 157.924 8.55872Q162.516 3.91064 162.516-4.10507L162.516-66.4529Q162.516-74.5056 158.079-79.1846Q153.642-83.8636 145.961-83.8636L140.957-83.8636Q132.948-83.8636 128.294-79.1846Q123.64-74.5056 123.64-66.4529L123.64-4.10507Q123.64 3.91064 128.34 8.55872Q133.041 13.2068 141.105 13.2068ZM141.266 2.06279Q138.26 2.06279 136.501 0.315181Q134.741-1.43242 134.741-4.47653L134.741-66.0814Q134.741-69.1624 136.464-70.941Q138.186-72.7196 141.118-72.7196L145.8-72.7196Q148.36-72.7196 149.866-70.941Q151.372-69.1624 151.372-66.0814L151.372-4.47653Q151.372-1.43242 149.742 0.315181Q148.113 2.06279 145.262 2.06279ZM158.288-1.5311L167.182-1.5311Q172.603-1.5311 176.242-5.19784Q179.881-8.86459 179.881-14.1495L179.881-56.4703Q179.881-61.8479 176.242-65.5178Q172.603-69.1878 167.182-69.1878L158.288-69.1878L158.288-58.6815L166.396-58.6815Q167.725-58.6815 168.55-57.7945Q169.375-56.9076 169.375-55.6223L169.375-15.0347Q169.375-13.7494 168.55-12.9025Q167.725-12.0557 166.396-12.0557L158.288-12.0557Z"/>
  </g>
  <g id="Medium-L" transform="matrix(1 0 0 1 1651.04 1556)">
   <path d="M28.0801-2.36249L36.3672-2.36249L36.3672-11.6379L28.56-11.6379Q27.1868-11.6379 26.268-12.5568Q25.3492-13.4758 25.3492-14.849L25.3492-55.7918Q25.3492-57.165 26.268-58.1301Q27.1868-59.0952 28.56-59.0952L36.3672-59.0952L36.3672-68.3604L28.0801-68.3604Q22.9813-68.3604 19.5326-64.8932Q16.084-61.426 16.084-56.3417L16.084-14.2782Q16.084-9.27031 19.5326-5.8164Q22.9813-2.36249 28.0801-2.36249ZM48.6794 11.8808L53.0539 11.8808Q60.7658 11.8808 65.211 7.44503Q69.6561 3.00923 69.6561-4.73939L69.6561-65.8105Q69.6561-73.6041 65.2672-78.0748Q60.8783-82.5456 53.2335-82.5456L48.0729-82.5456Q40.785-82.5456 36.6334-78.0748Q32.4817-73.6041 32.4817-65.8105L32.4817-4.73939Q32.4817 3.00923 36.8081 7.44503Q41.1346 11.8808 48.6794 11.8808ZM48.8402 2.02581Q45.8266 2.02581 44.0819 0.165209Q42.3371-1.69539 42.3371-4.94965L42.3371-65.6003Q42.3371-68.8873 43.9309-70.7889Q45.5247-72.6905 48.2337-72.6905L53.0727-72.6905Q56.1862-72.6905 58.0173-70.7889Q59.8484-68.8873 59.8484-65.6003L59.8484-4.94965Q59.8484-1.69539 57.9724 0.165209Q56.0964 2.02581 52.893 2.02581ZM66.8961-40.55L124.136-40.55L124.136-50.4054L66.8961-50.4054ZM66.8961-20.2948L124.136-20.2948L124.136-30.1502L66.8961-30.1502ZM137.978 11.8808L142.353 11.8808Q149.897 11.8808 154.224 7.44503Q158.55 3.00923 158.55-4.73939L158.55-65.8105Q158.55-73.6041 154.399-78.0748Q150.247-82.5456 142.96-82.5456L137.799-82.5456Q130.154-82.5456 125.765-78.0748Q121.376-73.6041 121.376-65.8105L121.376-4.73939Q121.376 3.00923 125.821 7.44503Q130.266 11.8808 137.978 11.8808ZM138.139 2.02581Q134.936 2.02581 133.06 0.165209Q131.184-1.69539 131.184-4.94965L131.184-65.6003Q131.184-68.8873 133.015-70.7889Q134.846-72.6905 137.959-72.6905L142.799-72.6905Q145.507-72.6905 147.101-70.7889Q148.695-68.8873 148.695-65.6003L148.695-4.94965Q148.695-1.69539 146.962 0.165209Q145.228 2.02581 142.192 2.02581ZM154.712-2.36249L162.952-2.36249Q168.084-2.36249 171.516-5.8164Q174.948-9.27031 174.948-14.2782L174.948-56.3417Q174.948-61.426 171.516-64.8932Q168.084-68.3604 162.952-68.3604L154.712-68.3604L154.712-59.0952L162.472-59.0952Q163.893-59.0952 164.788-58.1301Q165.683-57.165 165.683-55.7918L165.683-14.849Q165.683-13.4758 164.788-12.5568Q163.893-11.6379 162.472-11.6379L154.712-11.6379Z"/>
  </g>
  <g id="Regular-L" transform="matrix(1 0 0 1 1357.55 1556)">
   <path d="M27.1635-3.44692L34.6022-3.44692L34.6022-11.0929L27.2439-11.0929Q25.7561-11.0929 24.7433-12.106Q23.7304-13.119 23.7304-14.6068L23.7304-56.013Q23.7304-57.5008 24.7433-58.5678Q25.7561-59.6348 27.2439-59.6348L34.6022-59.6348L34.6022-67.2812L27.1635-67.2812Q22.4366-67.2812 19.2603-64.0784Q16.084-60.8756 16.084-56.1738L16.084-14.446Q16.084-9.79952 19.2603-6.62322Q22.4366-3.44692 27.1635-3.44692ZM46.2496 10.1513L50.6979 10.1513Q57.9501 10.1513 62.0627 5.99238Q66.1752 1.83348 66.1752-5.56677L66.1752-64.9726Q66.1752-72.4282 62.1319-76.6273Q58.0886-80.8264 50.919-80.8264L45.5537-80.8264Q38.7785-80.8264 34.999-76.6273Q31.2196-72.4282 31.2196-64.9726L31.2196-5.56677Q31.2196 1.83348 35.2001 5.99238Q39.1806 10.1513 46.2496 10.1513ZM46.4105 1.97757Q43.1608 1.97757 41.2773-0.0304069Q39.3938-2.03838 39.3938-5.56677L39.3938-64.9726Q39.3938-68.5284 41.1027-70.5906Q42.8117-72.6527 45.7146-72.6527L50.7582-72.6527Q54.1084-72.6527 56.0812-70.5906Q58.054-68.5284 58.054-64.9726L58.054-5.56677Q58.054-2.03838 56.0259-0.0304069Q53.9978 1.97757 50.537 1.97757ZM64.4562-41.0678L120.141-41.0678L120.141-49.242L64.4562-49.242ZM64.4562-21.4582L120.141-21.4582L120.141-29.6324L64.4562-29.6324ZM133.9 10.1513L138.348 10.1513Q145.417 10.1513 149.398 5.99238Q153.378 1.83348 153.378-5.56677L153.378-64.9726Q153.378-72.4282 149.599-76.6273Q145.819-80.8264 139.044-80.8264L133.679-80.8264Q126.51-80.8264 122.466-76.6273Q118.422-72.4282 118.422-64.9726L118.422-5.56677Q118.422 1.83348 122.535 5.99238Q126.648 10.1513 133.9 10.1513ZM134.061 1.97757Q130.6 1.97757 128.572-0.0304069Q126.544-2.03838 126.544-5.56677L126.544-64.9726Q126.544-68.5284 128.517-70.5906Q130.49-72.6527 133.839-72.6527L138.884-72.6527Q141.786-72.6527 143.495-70.5906Q145.204-68.5284 145.204-64.9726L145.204-5.56677Q145.204-2.03838 143.334-0.0304069Q141.464 1.97757 138.187 1.97757ZM150.049-3.44692L157.434-3.44692Q162.188-3.44692 165.351-6.62322Q168.514-9.79952 168.514-14.446L168.514-56.1738Q168.514-60.8756 165.351-64.0784Q162.188-67.2812 157.434-67.2812L150.049-67.2812L150.049-59.6348L157.354-59.6348Q158.895-59.6348 159.881-58.5678Q160.868-57.5008 160.868-56.013L160.868-14.6068Q160.868-13.119 159.881-12.106Q158.895-11.0929 157.354-11.0929L150.049-11.0929Z"/>
  </g>
  <g id="Light-L" transform="matrix(1 0 0 1 1065.57 1556)">
   <path d="M26.1518-4.57306L32.6747-4.57306L32.6747-10.5584L26.2322-10.5584Q24.4391-10.5584 23.2546-11.7433Q22.0701-12.9282 22.0701-14.7213L22.0701-55.8985Q22.0701-57.6916 23.2546-58.9399Q24.4391-60.1882 26.2322-60.1882L32.6747-60.1882L32.6747-66.1743L26.1518-66.1743Q21.8257-66.1743 18.9549-63.2864Q16.084-60.3985 16.084-56.0594L16.084-14.5605Q16.084-10.3148 18.9549-7.44394Q21.8257-4.57306 26.1518-4.57306ZM43.425 8.58616L47.835 8.58616Q54.2093 8.58616 57.9688 4.94255Q61.7284 1.29895 61.7284-4.937L61.7284-65.6024Q61.7284-71.9318 58.0859-75.6156Q54.4434-79.2994 48.2089-79.2994L42.7483-79.2994Q36.7362-79.2994 33.2622-75.6156Q29.7882-71.9318 29.7882-65.6024L29.7882-4.937Q29.7882 1.29895 33.4633 4.94255Q37.1383 8.58616 43.425 8.58616ZM43.5858 2.26391Q40.2024 2.26391 38.1568 0.313176Q36.1112-1.63756 36.1112-4.937L36.1112-65.6024Q36.1112-68.9482 37.9728-70.9627Q39.8344-72.9772 42.9092-72.9772L48.048-72.9772Q51.3793-72.9772 53.4094-70.9627Q55.4394-68.9482 55.4394-65.6024L55.4394-4.937Q55.4394-1.63756 53.3159 0.313176Q51.1924 2.26391 47.6742 2.26391ZM59.9331-41.8502L115.198-41.8502L115.198-48.1733L59.9331-48.1733ZM59.9331-22.527L115.198-22.527L115.198-28.85L59.9331-28.85ZM127.296 8.58616L131.706 8.58616Q137.993 8.58616 141.668 4.94255Q145.343 1.29895 145.343-4.937L145.343-65.6024Q145.343-71.9318 141.869-75.6156Q138.395-79.2994 132.384-79.2994L126.922-79.2994Q120.689-79.2994 117.046-75.6156Q113.403-71.9318 113.403-65.6024L113.403-4.937Q113.403 1.29895 117.162 4.94255Q120.922 8.58616 127.296 8.58616ZM127.457 2.26391Q123.94 2.26391 121.816 0.313176Q119.692-1.63756 119.692-4.937L119.692-65.6024Q119.692-68.9482 121.722-70.9627Q123.753-72.9772 127.083-72.9772L132.223-72.9772Q135.297-72.9772 137.159-70.9627Q139.021-68.9482 139.021-65.6024L139.021-4.937Q139.021-1.63756 136.998 0.313176Q134.975 2.26391 131.545 2.26391ZM142.491-4.57306L148.979-4.57306Q153.352-4.57306 156.2-7.44394Q159.047-10.3148 159.047-14.5605L159.047-56.0594Q159.047-60.3985 156.2-63.2864Q153.352-66.1743 148.979-66.1743L142.491-66.1743L142.491-60.1882L148.899-60.1882Q150.726-60.1882 151.894-58.9399Q153.062-57.6916 153.062-55.8985L153.062-14.7213Q153.062-12.9282 151.894-11.7433Q150.726-10.5584 148.899-10.5584L142.491-10.5584Z"/>
  </g>
  <g id="Thin-L" transform="matrix(1 0 0 1 775.116 1556)">
   <path d="M24.8138-6.06248L30.1255-6.06248L30.1255-9.85141L24.8942-9.85141Q22.6974-9.85141 21.2858-11.2636Q19.8741-12.6759 19.8741-14.8727L19.8741-55.7471Q19.8741-57.9439 21.2858-59.4321Q22.6974-60.9202 24.8942-60.9202L30.1255-60.9202L30.1255-64.7103L24.8138-64.7103Q21.0178-64.7103 18.5509-62.2389Q16.084-59.7674 16.084-55.908L16.084-14.7119Q16.084-10.9963 18.5509-8.52941Q21.0178-6.06248 24.8138-6.06248ZM39.6891 6.51616L44.0487 6.51616Q49.2619 6.51616 52.5545 3.55407Q55.847 0.591988 55.847-4.10408L55.847-66.4353Q55.847-71.2753 52.7347-74.2776Q49.6223-77.2799 44.6244-77.2799L39.0379-77.2799Q34.0352-77.2799 30.9651-74.2776Q27.895-71.2753 27.895-66.4353L27.895-4.10408Q27.895 0.591988 31.1662 3.55407Q34.4373 6.51616 39.6891 6.51616ZM39.85 2.64263Q36.2897 2.64263 34.0297 0.767591Q31.7698-1.10745 31.7698-4.10408L31.7698-66.4353Q31.7698-69.5033 33.8332-71.4548Q35.8967-73.4064 39.1988-73.4064L44.4636-73.4064Q47.7699-73.4064 49.8756-71.4548Q51.9814-69.5033 51.9814-66.4353L51.9814-4.10408Q51.9814-1.10745 49.7317 0.767591Q47.482 2.64263 43.8879 2.64263ZM53.9508-42.885L108.66-42.885L108.66-46.7598L53.9508-46.7598ZM53.9508-23.9405L108.66-23.9405L108.66-27.8152L53.9508-27.8152ZM118.562 6.51616L122.922 6.51616Q128.174 6.51616 131.445 3.55407Q134.716 0.591988 134.716-4.10408L134.716-66.4353Q134.716-71.2753 131.646-74.2776Q128.576-77.2799 123.574-77.2799L117.987-77.2799Q112.99-77.2799 109.877-74.2776Q106.764-71.2753 106.764-66.4353L106.764-4.10408Q106.764 0.591988 110.057 3.55407Q113.349 6.51616 118.562 6.51616ZM118.723 2.64263Q115.13 2.64263 112.88 0.767591Q110.63-1.10745 110.63-4.10408L110.63-66.4353Q110.63-69.5033 112.736-71.4548Q114.843-73.4064 118.148-73.4064L123.414-73.4064Q126.715-73.4064 128.779-71.4548Q130.843-69.5033 130.843-66.4353L130.843-4.10408Q130.843-1.10745 128.618 0.767591Q126.393 2.64263 122.761 2.64263ZM132.495-6.06248L137.797-6.06248Q141.665-6.06248 144.096-8.52941Q146.527-10.9963 146.527-14.7119L146.527-55.908Q146.527-59.7674 144.096-62.2389Q141.665-64.7103 137.797-64.7103L132.495-64.7103L132.495-60.9202L137.717-60.9202Q139.923-60.9202 141.331-59.4321Q142.738-57.9439 142.738-55.7471L142.738-14.8727Q142.738-12.6759 141.331-11.2636Q139.923-9.85141 137.717-9.85141L132.495-9.85141Z"/>
  </g>
  <g id="Ultralight-L" transform="matrix(1 0 0 1 481.612 1556)">
   <path d="M24.1285-6.82535L28.8198-6.82535L28.8198-9.48931L24.2089-9.48931Q21.8053-9.48931 20.2773-11.018Q18.7494-12.5466 18.7494-14.9503L18.7494-55.6696Q18.7494-58.0732 20.2773-59.6841Q21.8053-61.2951 24.2089-61.2951L28.8198-61.2951L28.8198-63.9605L24.1285-63.9605Q20.604-63.9605 18.344-61.7023Q16.084-59.4442 16.084-55.8304L16.084-14.7894Q16.084-11.3454 18.344-9.08538Q20.604-6.82535 24.1285-6.82535ZM37.7757 5.45592L42.1094 5.45592Q46.7278 5.45592 49.7812 2.8429Q52.8346 0.229885 52.8346-3.67746L52.8346-66.8619Q52.8346-70.9391 49.9938-73.5923Q47.1529-76.2455 42.7885-76.2455L37.1375-76.2455Q32.6517-76.2455 29.7885-73.5923Q26.9254-70.9391 26.9254-66.8619L26.9254-3.67746Q26.9254 0.229885 29.9896 2.8429Q33.0538 5.45592 37.7757 5.45592ZM37.9365 2.8366Q34.2856 2.8366 31.9159 1.00034Q29.5461-0.835923 29.5461-3.67746L29.5461-66.8619Q29.5461-69.7877 31.7129-71.7069Q33.8798-73.6262 37.2983-73.6262L42.6276-73.6262Q45.9211-73.6262 48.0656-71.7069Q50.2102-69.7877 50.2102-66.8619L50.2102-3.67746Q50.2102-0.835923 47.8959 1.00034Q45.5816 2.8366 41.9486 2.8366ZM50.8867-43.415L105.312-43.415L105.312-46.0358L50.8867-46.0358ZM50.8867-24.6645L105.312-24.6645L105.312-27.2852L50.8867-27.2852ZM114.089 5.45592L118.423 5.45592Q123.145 5.45592 126.209 2.8429Q129.273 0.229885 129.273-3.67746L129.273-66.8619Q129.273-70.9391 126.41-73.5923Q123.547-76.2455 119.062-76.2455L113.41-76.2455Q109.047-76.2455 106.205-73.5923Q103.364-70.9391 103.364-66.8619L103.364-3.67746Q103.364 0.229885 106.417 2.8429Q109.471 5.45592 114.089 5.45592ZM114.25 2.8366Q110.618 2.8366 108.303 1.00034Q105.988-0.835923 105.988-3.67746L105.988-66.8619Q105.988-69.7877 108.134-71.7069Q110.279-73.6262 113.571-73.6262L118.902-73.6262Q122.319-73.6262 124.486-71.7069Q126.654-69.7877 126.654-66.8619L126.654-3.67746Q126.654-0.835923 124.325 1.00034Q121.997 2.8366 118.262 2.8366ZM127.375-6.82535L132.07-6.82535Q135.679-6.82535 137.897-9.08538Q140.114-11.3454 140.114-14.7894L140.114-55.8304Q140.114-59.4442 137.897-61.7023Q135.679-63.9605 132.07-63.9605L127.375-63.9605L127.375-61.2951L131.99-61.2951Q134.389-61.2951 135.92-59.6841Q137.451-58.0732 137.451-55.6696L137.451-14.9503Q137.451-12.5466 135.92-11.018Q134.389-9.48931 131.99-9.48931L127.375-9.48931Z"/>
  </g>
  <g id="Black-M" transform="matrix(1 0 0 1 2846.03 1126)">
   <path d="M25.6784-5.10006L35.7376-5.10006L35.7376-19.3076L27.9103-19.3076Q27.2762-19.3076 26.9438-19.64Q26.6113-19.9724 26.6113-20.6065L26.6113-50.0912Q26.6113-50.7254 26.9438-51.0603Q27.2762-51.3951 27.9103-51.3951L35.7376-51.3951L35.7376-65.5456L25.6784-65.5456Q20.1329-65.5456 16.2969-61.7354Q12.4609-57.9252 12.4609-52.3284L12.4609-18.2552Q12.4609-12.8291 16.2969-8.96459Q20.1329-5.10006 25.6784-5.10006ZM48.0659 8.7892L51.0987 8.7892Q58.9151 8.7892 63.7875 4.23871Q68.6599-0.311766 68.6599-7.54075L68.6599-63.0376Q68.6599-70.2661 63.7868-74.8191Q58.9136-79.3722 51.0964-79.3722L48.0187-79.3722Q40.2457-79.3722 35.4-74.8191Q30.5544-70.2661 30.5544-63.0376L30.5544-7.54075Q30.5544-0.311766 35.4131 4.23871Q40.2718 8.7892 48.0659 8.7892ZM48.1905-6.04419Q46.9097-6.04419 46.1487-6.77997Q45.3877-7.51574 45.3877-8.68268L45.3877-61.8957Q45.3877-63.1195 46.1384-63.8291Q46.8891-64.5388 48.1433-64.5388L50.9718-64.5388Q52.2757-64.5388 53.0539-63.8291Q53.832-63.1195 53.832-61.8957L53.832-8.68268Q53.832-7.51574 53.0544-6.77997Q52.2768-6.04419 50.9741-6.04419ZM61.6482-37.2069L113.09-37.2069L113.09-52.0403L61.6482-52.0403ZM61.6482-18.6056L113.09-18.6056L113.09-33.439L61.6482-33.439ZM123.639 8.7892L126.672 8.7892Q134.466 8.7892 139.325 4.23871Q144.184-0.311766 144.184-7.54075L144.184-63.0376Q144.184-70.2661 139.338-74.8191Q134.492-79.3722 126.719-79.3722L123.642-79.3722Q115.824-79.3722 110.951-74.8191Q106.078-70.2661 106.078-63.0376L106.078-7.54075Q106.078-0.311766 110.951 4.23871Q115.823 8.7892 123.639 8.7892ZM123.764-6.04419Q122.461-6.04419 121.684-6.77997Q120.906-7.51574 120.906-8.68268L120.906-61.8957Q120.906-63.1195 121.684-63.8291Q122.462-64.5388 123.766-64.5388L126.595-64.5388Q127.849-64.5388 128.6-63.8291Q129.35-63.1195 129.35-61.8957L129.35-8.68268Q129.35-7.51574 128.589-6.77997Q127.828-6.04419 126.548-6.04419ZM139.006-5.10006L149.06-5.10006Q154.662-5.10006 158.47-8.96459Q162.277-12.8291 162.277-18.2552L162.277-52.3284Q162.277-57.9252 158.47-61.7354Q154.662-65.5456 149.06-65.5456L139.006-65.5456L139.006-51.3951L146.828-51.3951Q147.467-51.3951 147.797-51.0603Q148.127-50.7254 148.127-50.0912L148.127-20.6065Q148.127-19.9724 147.797-19.64Q147.467-19.3076 146.828-19.3076L139.006-19.3076Z"/>
  </g>
  <g id="Heavy-M" transform="matrix(1 0 0 1 2552.43 1126)">
   <path d="M24.7209-6.24806L33.8894-6.24806L33.8894-18.7239L26.4408-18.7239Q25.7253-18.7239 25.3093-19.14Q24.8932-19.5561 24.8932-20.2715L24.8932-50.3993Q24.8932-51.1148 25.3093-51.5413Q25.7253-51.9679 26.4408-51.9679L33.8894-51.9679L33.8894-64.4001L24.7209-64.4001Q19.566-64.4001 16.0134-60.8612Q12.4609-57.3223 12.4609-52.1379L12.4609-18.4457Q12.4609-13.3967 16.0134-9.82238Q19.566-6.24806 24.7209-6.24806ZM45.5584 6.90865L48.694 6.90865Q56.1097 6.90865 60.6317 2.60237Q65.1536-1.7039 65.1536-8.73648L65.1536-61.8284Q65.1536-68.8656 60.6374-73.1812Q56.1211-77.4968 48.7122-77.4968L45.3926-77.4968Q38.1126-77.4968 33.6784-73.1812Q29.2442-68.8656 29.2442-61.8284L29.2442-8.73648Q29.2442-1.7039 33.7251 2.60237Q38.206 6.90865 45.5584 6.90865ZM45.683-6.16752Q44.1283-6.16752 43.2244-7.10449Q42.3204-8.04146 42.3204-9.60892L42.3204-60.956Q42.3204-62.5693 43.1859-63.495Q44.0514-64.4206 45.5172-64.4206L48.5875-64.4206Q50.1988-64.4206 51.1463-63.495Q52.0938-62.5693 52.0938-60.956L52.0938-9.60892Q52.0938-8.04146 51.1418-7.10449Q50.1897-6.16752 48.5694-6.16752ZM59.4926-37.7025L109.032-37.7025L109.032-50.7787L59.4926-50.7787ZM59.4926-19.8672L109.032-19.8672L109.032-32.9434L59.4926-32.9434ZM119.831 6.90865L122.966 6.90865Q130.319 6.90865 134.8 2.60237Q139.28-1.7039 139.28-8.73648L139.28-61.8284Q139.28-68.8656 134.846-73.1812Q130.412-77.4968 123.132-77.4968L119.813-77.4968Q112.404-77.4968 107.887-73.1812Q103.371-68.8656 103.371-61.8284L103.371-8.73648Q103.371-1.7039 107.893 2.60237Q112.415 6.90865 119.831 6.90865ZM119.955-6.16752Q118.335-6.16752 117.383-7.10449Q116.431-8.04146 116.431-9.60892L116.431-60.956Q116.431-62.5693 117.378-63.495Q118.326-64.4206 119.937-64.4206L123.008-64.4206Q124.473-64.4206 125.339-63.495Q126.204-62.5693 126.204-60.956L126.204-9.60892Q126.204-8.04146 125.301-7.10449Q124.399-6.16752 122.842-6.16752ZM134.652-6.24806L143.804-6.24806Q149.005-6.24806 152.534-9.82238Q156.064-13.3967 156.064-18.4457L156.064-52.1379Q156.064-57.3223 152.534-60.8612Q149.005-64.4001 143.804-64.4001L134.652-64.4001L134.652-51.9679L142.084-51.9679Q142.816-51.9679 143.224-51.5413Q143.632-51.1148 143.632-50.3993L143.632-20.2715Q143.632-19.5561 143.224-19.14Q142.816-18.7239 142.084-18.7239L134.652-18.7239Z"/>
  </g>
  <g id="Bold-M" transform="matrix(1 0 0 1 2259.19 1126)">
   <path d="M23.6498-7.53226L31.8219-7.53226L31.8219-18.071L24.7969-18.071Q23.9905-18.071 23.4808-18.5807Q22.9712-19.0903 22.9712-19.8968L22.9712-50.7439Q22.9712-51.5503 23.4808-52.0794Q23.9905-52.6085 24.7969-52.6085L31.8219-52.6085L31.8219-63.1188L23.6498-63.1188Q18.9318-63.1188 15.6964-59.8833Q12.4609-56.6479 12.4609-51.9248L12.4609-18.6588Q12.4609-14.0316 15.6964-10.782Q18.9318-7.53226 23.6498-7.53226ZM42.7535 4.80499L46.0039 4.80499Q52.9716 4.80499 57.1014 0.771891Q61.2313-3.26121 61.2313-10.0741L61.2313-60.4758Q61.2313-67.2989 57.1143-71.3489Q52.9973-75.3988 46.045-75.3988L42.4549-75.3988Q35.7264-75.3988 31.7525-71.3489Q27.7786-67.2989 27.7786-60.4758L27.7786-10.0741Q27.7786-3.26121 31.8369 0.771891Q35.8952 4.80499 42.7535 4.80499ZM42.8781-6.30549Q41.017-6.30549 39.9531-7.46752Q38.8892-8.62955 38.8892-10.645L38.8892-59.9048Q38.8892-61.9539 39.883-63.1211Q40.8769-64.2884 42.5795-64.2884L45.9204-64.2884Q47.8755-64.2884 49.0124-63.1211Q50.1494-61.9539 50.1494-59.9048L50.1494-10.645Q50.1494-8.62955 49.0022-7.46752Q47.8549-6.30549 45.8793-6.30549ZM57.0813-38.2569L104.493-38.2569L104.493-49.3675L57.0813-49.3675ZM57.0813-21.2784L104.493-21.2784L104.493-32.389L57.0813-32.389ZM115.57 4.80499L118.821 4.80499Q125.679 4.80499 129.737 0.771891Q133.795-3.26121 133.795-10.0741L133.795-60.4758Q133.795-67.2989 129.822-71.3489Q125.848-75.3988 119.119-75.3988L115.529-75.3988Q108.577-75.3988 104.46-71.3489Q100.343-67.2989 100.343-60.4758L100.343-10.0741Q100.343-3.26121 104.473 0.771891Q108.602 4.80499 115.57 4.80499ZM115.695-6.30549Q113.719-6.30549 112.572-7.46752Q111.425-8.62955 111.425-10.645L111.425-59.9048Q111.425-61.9539 112.562-63.1211Q113.699-64.2884 115.654-64.2884L118.995-64.2884Q120.697-64.2884 121.691-63.1211Q122.685-61.9539 122.685-59.9048L122.685-10.645Q122.685-8.62955 121.624-7.46752Q120.562-6.30549 118.696-6.30549ZM129.781-7.53226L137.924-7.53226Q142.676-7.53226 145.895-10.782Q149.113-14.0316 149.113-18.6588L149.113-51.9248Q149.113-56.6479 145.895-59.8833Q142.676-63.1188 137.924-63.1188L129.781-63.1188L129.781-52.6085L136.777-52.6085Q137.612-52.6085 138.108-52.0794Q138.603-51.5503 138.603-50.7439L138.603-19.8968Q138.603-19.0903 138.108-18.5807Q137.612-18.071 136.777-18.071L129.781-18.071Z"/>
  </g>
  <g id="Semibold-M" transform="matrix(1 0 0 1 1964.88 1126)">
   <path d="M22.9114-8.41759L30.3965-8.41759L30.3965-17.6209L23.6636-17.6209Q22.7945-17.6209 22.2204-18.1951Q21.6462-18.7693 21.6462-19.6384L21.6462-50.9815Q21.6462-51.8506 22.2204-52.4504Q22.7945-53.0502 23.6636-53.0502L30.3965-53.0502L30.3965-62.2355L22.9114-62.2355Q18.4946-62.2355 15.4778-59.2092Q12.4609-56.1829 12.4609-51.7779L12.4609-18.8057Q12.4609-14.4694 15.4778-11.4435Q18.4946-8.41759 22.9114-8.41759ZM40.8198 3.35474L44.1494 3.35474Q50.8081 3.35474 54.6677-0.490033Q58.5273-4.3348 58.5273-10.9962L58.5273-59.5432Q58.5273-66.2189 54.6855-70.0857Q50.8437-73.9525 44.2062-73.9525L40.4296-73.9525Q34.0814-73.9525 30.4248-70.0857Q26.7682-66.2189 26.7682-59.5432L26.7682-10.9962Q26.7682-4.3348 30.5352-0.490033Q34.3021 3.35474 40.8198 3.35474ZM40.9444-6.40061Q38.872-6.40061 37.6979-7.71779Q36.5237-9.03497 36.5237-11.3593L36.5237-59.1801Q36.5237-61.5297 37.606-62.8634Q38.6884-64.1972 40.5543-64.1972L44.0816-64.1972Q46.2738-64.1972 47.5414-62.8634Q48.809-61.5297 48.809-59.1801L48.809-11.3593Q48.809-9.03497 47.5272-7.71779Q46.2454-6.40061 44.0248-6.40061ZM55.419-38.6391L101.363-38.6391L101.363-48.3945L55.419-48.3945ZM55.419-22.2514L101.363-22.2514L101.363-32.0068L55.419-32.0068ZM112.633 3.35474L115.963 3.35474Q122.48 3.35474 126.247-0.490033Q130.014-4.3348 130.014-10.9962L130.014-59.5432Q130.014-66.2189 126.358-70.0857Q122.701-73.9525 116.353-73.9525L112.576-73.9525Q105.939-73.9525 102.097-70.0857Q98.255-66.2189 98.255-59.5432L98.255-10.9962Q98.255-4.3348 102.115-0.490033Q105.974 3.35474 112.633 3.35474ZM112.758-6.40061Q110.537-6.40061 109.255-7.71779Q107.973-9.03497 107.973-11.3593L107.973-59.1801Q107.973-61.5297 109.241-62.8634Q110.509-64.1972 112.701-64.1972L116.228-64.1972Q118.094-64.1972 119.176-62.8634Q120.259-61.5297 120.259-59.1801L120.259-11.3593Q120.259-9.03497 119.088-7.71779Q117.917-6.40061 115.838-6.40061ZM126.423-8.41759L133.871-8.41759Q138.313-8.41759 141.317-11.4435Q144.321-14.4694 144.321-18.8057L144.321-51.7779Q144.321-56.1829 141.317-59.2092Q138.313-62.2355 133.871-62.2355L126.423-62.2355L126.423-53.0502L133.119-53.0502Q134.025-53.0502 134.581-52.4504Q135.136-51.8506 135.136-50.9815L135.136-19.6384Q135.136-18.7693 134.581-18.1951Q134.025-17.6209 133.119-17.6209L126.423-17.6209Z"/>
  </g>
  <g id="Medium-M" transform="matrix(1 0 0 1 1669.98 1126)">
   <path d="M22.3515-9.08887L29.3158-9.08887L29.3158-17.2796L22.8043-17.2796Q21.8876-17.2796 21.2646-17.9027Q20.6416-18.5258 20.6416-19.4425L20.6416-51.1616Q20.6416-52.0783 21.2646-52.7317Q21.8876-53.3851 22.8043-53.3851L29.3158-53.3851L29.3158-61.5657L22.3515-61.5657Q18.1631-61.5657 15.312-58.698Q12.4609-55.8303 12.4609-51.6665L12.4609-18.9171Q12.4609-14.8013 15.312-11.9451Q18.1631-9.08887 22.3515-9.08887ZM39.3536 2.25509L42.7433 2.25509Q49.1677 2.25509 52.8224-1.44688Q56.477-5.14885 56.477-11.6954L56.477-58.8362Q56.477-65.3999 52.8439-69.1279Q49.2108-72.8559 42.812-72.8559L38.894-72.8559Q32.8341-72.8559 29.4181-69.1279Q26.0021-65.3999 26.0021-58.8362L26.0021-11.6954Q26.0021-5.14885 29.5481-1.44688Q33.0942 2.25509 39.3536 2.25509ZM39.4782-6.47273Q37.2456-6.47273 35.9879-7.90755Q34.7301-9.34238 34.7301-11.901L34.7301-58.6306Q34.7301-61.208 35.8795-62.668Q37.029-64.1281 39.0186-64.1281L42.6874-64.1281Q45.0593-64.1281 46.4259-62.668Q47.7926-61.208 47.7926-58.6306L47.7926-11.901Q47.7926-9.34238 46.4088-7.90755Q45.0249-6.47273 42.6186-6.47273ZM54.1585-38.9289L98.9905-38.9289L98.9905-47.6568L54.1585-47.6568ZM54.1585-22.9891L98.9905-22.9891L98.9905-31.717L54.1585-31.717ZM110.406 2.25509L113.795 2.25509Q120.055 2.25509 123.601-1.44688Q127.147-5.14885 127.147-11.6954L127.147-58.8362Q127.147-65.3999 123.731-69.1279Q120.315-72.8559 114.255-72.8559L110.337-72.8559Q103.938-72.8559 100.305-69.1279Q96.672-65.3999 96.672-58.8362L96.672-11.6954Q96.672-5.14885 100.327-1.44688Q103.981 2.25509 110.406 2.25509ZM110.53-6.47273Q108.124-6.47273 106.74-7.90755Q105.356-9.34238 105.356-11.901L105.356-58.6306Q105.356-61.208 106.723-62.668Q108.09-64.1281 110.462-64.1281L114.131-64.1281Q116.12-64.1281 117.27-62.668Q118.419-61.208 118.419-58.6306L118.419-11.901Q118.419-9.34238 117.166-7.90755Q115.912-6.47273 113.671-6.47273ZM123.877-9.08887L130.798-9.08887Q135.005-9.08887 137.846-11.9451Q140.688-14.8013 140.688-18.9171L140.688-51.6665Q140.688-55.8303 137.846-58.698Q135.005-61.5657 130.798-61.5657L123.877-61.5657L123.877-53.3851L130.345-53.3851Q131.305-53.3851 131.906-52.7317Q132.508-52.0783 132.508-51.1616L132.508-19.4425Q132.508-18.5258 131.906-17.9027Q131.305-17.2796 130.345-17.2796L123.877-17.2796Z"/>
  </g>
  <g id="Regular-M" transform="matrix(1 0 0 1 1375.64 1126)">
   <path d="M21.6212-9.96447L27.9061-9.96447L27.9061-16.8345L21.6835-16.8345Q20.7048-16.8345 20.0179-17.5214Q19.3311-18.2083 19.3311-19.187L19.3311-51.3966Q19.3311-52.3753 20.0179-53.0986Q20.7048-53.8219 21.6835-53.8219L27.9061-53.8219L27.9061-60.6921L21.6212-60.6921Q17.7307-60.6921 15.0958-58.0313Q12.4609-55.3705 12.4609-51.5212L12.4609-19.0624Q12.4609-15.2342 15.0958-12.5993Q17.7307-9.96447 21.6212-9.96447ZM37.4412 0.820779L40.9091 0.820779Q47.0281 0.820779 50.4154-2.69493Q53.8028-6.21065 53.8028-12.6074L53.8028-57.9139Q53.8028-64.3317 50.4418-67.8786Q47.0809-71.4255 40.9935-71.4255L36.8911-71.4255Q31.2071-71.4255 28.105-67.8786Q25.0028-64.3317 25.0028-57.9139L25.0028-12.6074Q25.0028-6.21065 28.2607-2.69493Q31.5186 0.820779 37.4412 0.820779ZM37.5658-6.5668Q35.1243-6.5668 33.7574-8.15507Q32.3906-9.74335 32.3906-12.6074L32.3906-57.9139Q32.3906-60.7884 33.6276-62.4131Q34.8646-64.0379 37.0157-64.0379L40.8689-64.0379Q43.4752-64.0379 44.971-62.4131Q46.4668-60.7884 46.4668-57.9139L46.4668-12.6074Q46.4668-9.74335 44.9499-8.15507Q43.433-6.5668 40.7845-6.5668ZM52.5145-39.3069L95.8955-39.3069L95.8955-46.6946L52.5145-46.6946ZM52.5145-23.9513L95.8955-23.9513L95.8955-31.339L52.5145-31.339ZM107.501 0.820779L110.969 0.820779Q116.891 0.820779 120.149-2.69493Q123.407-6.21065 123.407-12.6074L123.407-57.9139Q123.407-64.3317 120.305-67.8786Q117.203-71.4255 111.519-71.4255L107.416-71.4255Q101.329-71.4255 97.9683-67.8786Q94.6072-64.3317 94.6072-57.9139L94.6072-12.6074Q94.6072-6.21065 97.9946-2.69493Q101.382 0.820779 107.501 0.820779ZM107.625-6.5668Q104.977-6.5668 103.46-8.15507Q101.943-9.74335 101.943-12.6074L101.943-57.9139Q101.943-60.7884 103.439-62.4131Q104.935-64.0379 107.541-64.0379L111.395-64.0379Q113.545-64.0379 114.783-62.4131Q116.02-60.7884 116.02-57.9139L116.02-12.6074Q116.02-9.74335 114.658-8.15507Q113.296-6.5668 110.844-6.5668ZM120.556-9.96447L126.789-9.96447Q130.69-9.96447 133.319-12.5993Q135.949-15.2342 135.949-19.0624L135.949-51.5212Q135.949-55.3705 133.319-58.0313Q130.69-60.6921 126.789-60.6921L120.556-60.6921L120.556-53.8219L126.727-53.8219Q127.757-53.8219 128.418-53.0986Q129.079-52.3753 129.079-51.3966L129.079-19.187Q129.079-18.2083 128.418-17.5214Q127.757-16.8345 126.727-16.8345L120.556-16.8345Z"/>
  </g>
  <g id="Light-M" transform="matrix(1 0 0 1 1083.17 1126)">
   <path d="M20.7142-10.9741L26.178-10.9741L26.178-16.3552L20.7765-16.3552Q19.5241-16.3552 18.6833-17.1962Q17.8425-18.0372 17.8425-19.2896L17.8425-51.2939Q17.8425-52.5464 18.6833-53.4322Q19.5241-54.3181 20.7765-54.3181L26.178-54.3181L26.178-59.6997L20.7142-59.6997Q17.183-59.6997 14.822-57.3212Q12.4609-54.9427 12.4609-51.4186L12.4609-19.165Q12.4609-15.6962 14.822-13.3351Q17.183-10.9741 20.7142-10.9741ZM34.9087-0.582432L38.3425-0.582432Q43.6743-0.582432 46.7451-3.63616Q49.8159-6.68988 49.8159-12.0428L49.8159-58.4785Q49.8159-63.8867 46.8143-66.9716Q43.8128-70.0565 38.5637-70.0565L34.3759-70.0565Q29.3761-70.0565 26.5478-66.9716Q23.7195-63.8867 23.7195-58.4785L23.7195-12.0428Q23.7195-6.68988 26.7036-3.63616Q29.6876-0.582432 34.9087-0.582432ZM35.0333-6.31007Q32.4719-6.31007 30.9598-7.84703Q29.4476-9.384 29.4476-12.0428L29.4476-58.4785Q29.4476-61.1647 30.8214-62.7468Q32.1953-64.3288 34.5005-64.3288L38.4391-64.3288Q41.0285-64.3288 42.5756-62.7468Q44.1227-61.1647 44.1227-58.4785L44.1227-12.0428Q44.1227-9.384 42.5203-7.84703Q40.9178-6.31007 38.2179-6.31007ZM48.4592-40.0083L91.4637-40.0083L91.4637-45.7364L48.4592-45.7364ZM48.4592-24.9095L91.4637-24.9095L91.4637-30.6376L48.4592-30.6376ZM101.58-0.582432L105.014-0.582432Q110.235-0.582432 113.219-3.63616Q116.203-6.68988 116.203-12.0428L116.203-58.4785Q116.203-63.8867 113.375-66.9716Q110.547-70.0565 105.547-70.0565L101.359-70.0565Q96.1106-70.0565 93.1088-66.9716Q90.107-63.8867 90.107-58.4785L90.107-12.0428Q90.107-6.68988 93.1778-3.63616Q96.2486-0.582432 101.58-0.582432ZM101.705-6.31007Q99.0055-6.31007 97.4028-7.84703Q95.8002-9.384 95.8002-12.0428L95.8002-58.4785Q95.8002-61.1647 97.3475-62.7468Q98.8949-64.3288 101.484-64.3288L105.423-64.3288Q107.728-64.3288 109.102-62.7468Q110.476-61.1647 110.476-58.4785L110.476-12.0428Q110.476-9.384 108.977-7.84703Q107.478-6.31007 104.89-6.31007ZM113.78-10.9741L119.209-10.9741Q122.767-10.9741 125.115-13.3351Q127.462-15.6962 127.462-19.165L127.462-51.4186Q127.462-54.9427 125.115-57.3212Q122.767-59.6997 119.209-59.6997L113.78-59.6997L113.78-54.3181L119.146-54.3181Q120.434-54.3181 121.257-53.4322Q122.081-52.5464 122.081-51.2939L122.081-19.2896Q122.081-18.0372 121.257-17.1962Q120.434-16.3552 119.146-16.3552L113.78-16.3552Z"/>
  </g>
  <g id="Thin-M" transform="matrix(1 0 0 1 792.073 1126)">
   <path d="M19.5146-12.3095L23.8925-12.3095L23.8925-15.7214L19.5769-15.7214Q17.9625-15.7214 16.9181-16.7662Q15.8737-17.811 15.8737-19.4254L15.8737-51.1582Q15.8737-52.7726 16.9181-53.8735Q17.9625-54.9743 19.5769-54.9743L23.8925-54.9743L23.8925-58.3871L19.5146-58.3871Q16.4587-58.3871 14.4598-56.3821Q12.4609-54.377 12.4609-51.2828L12.4609-19.3008Q12.4609-16.3072 14.4598-14.3083Q16.4587-12.3095 19.5146-12.3095ZM31.5593-2.43829L34.9479-2.43829Q39.2386-2.43829 41.8908-4.881Q44.543-7.32371 44.543-11.296L44.543-59.2253Q44.543-63.2981 42.0167-65.772Q39.4904-68.2459 35.3501-68.2459L31.0493-68.2459Q26.9545-68.2459 24.4883-65.772Q22.0222-63.2981 22.0222-59.2253L22.0222-11.296Q22.0222-7.32371 24.6441-4.881Q27.266-2.43829 31.5593-2.43829ZM31.684-5.97053Q28.964-5.97053 27.2596-7.43963Q25.5553-8.90872 25.5553-11.296L25.5553-59.2253Q25.5553-61.6624 27.1101-63.188Q28.6649-64.7136 31.1739-64.7136L35.2255-64.7136Q37.7924-64.7136 39.4074-63.188Q41.0224-61.6624 41.0224-59.2253L41.0224-11.296Q41.0224-8.90872 39.3068-7.43963Q37.5913-5.97053 34.8232-5.97053ZM43.0958-40.9361L85.6022-40.9361L85.6022-44.4691L43.0958-44.4691ZM43.0958-26.1768L85.6022-26.1768L85.6022-29.7098L43.0958-29.7098ZM93.7501-2.43829L97.1386-2.43829Q101.432-2.43829 104.054-4.881Q106.676-7.32371 106.676-11.296L106.676-59.2253Q106.676-63.2981 104.21-65.772Q101.743-68.2459 97.6495-68.2459L93.3479-68.2459Q89.2084-68.2459 86.6817-65.772Q84.155-63.2981 84.155-59.2253L84.155-11.296Q84.155-7.32371 86.8072-4.881Q89.4594-2.43829 93.7501-2.43829ZM93.8747-5.97053Q91.1075-5.97053 89.3916-7.43963Q87.6756-8.90872 87.6756-11.296L87.6756-59.2253Q87.6756-61.6624 89.291-63.188Q90.9064-64.7136 93.4725-64.7136L97.5249-64.7136Q100.033-64.7136 101.588-63.188Q103.144-61.6624 103.144-59.2253L103.144-11.296Q103.144-8.90872 101.464-7.43963Q99.7838-5.97053 97.014-5.97053ZM104.818-12.3095L109.183-12.3095Q112.289-12.3095 114.263-14.3083Q116.237-16.3072 116.237-19.3008L116.237-51.2828Q116.237-54.377 114.263-56.3821Q112.289-58.3871 109.183-58.3871L104.818-58.3871L104.818-54.9743L109.121-54.9743Q110.748-54.9743 111.787-53.8735Q112.825-52.7726 112.825-51.1582L112.825-19.4254Q112.825-17.811 111.787-16.7662Q110.748-15.7214 109.121-15.7214L104.818-15.7214Z"/>
  </g>
  <g id="Ultralight-M" transform="matrix(1 0 0 1 498.237 1126)">
   <path d="M18.9001-12.9934L22.7219-12.9934L22.7219-15.3968L18.9624-15.3968Q17.1627-15.3968 16.014-16.5459Q14.8653-17.6951 14.8653-19.4949L14.8653-51.0887Q14.8653-52.8885 16.014-54.0995Q17.1627-55.3105 18.9624-55.3105L22.7219-55.3105L22.7219-57.7149L18.9001-57.7149Q16.0877-57.7149 14.2743-55.901Q12.4609-54.0872 12.4609-51.2133L12.4609-19.3703Q12.4609-16.6202 14.2743-14.8068Q16.0877-12.9934 18.9001-12.9934ZM29.8438-3.38886L33.2091-3.38886Q36.9667-3.38886 39.4045-5.51861Q41.8422-7.64836 41.8422-10.9135L41.8422-59.6077Q41.8422-62.9967 39.5594-65.1576Q37.2765-67.3185 33.7041-67.3185L29.3455-67.3185Q25.7141-67.3185 23.4335-65.1576Q21.1528-62.9967 21.1528-59.6077L21.1528-10.9135Q21.1528-7.64836 23.5892-5.51861Q26.0257-3.38886 29.8438-3.38886ZM29.9684-5.79662Q27.1673-5.79662 25.3645-7.23096Q23.5616-8.66529 23.5616-10.9135L23.5616-59.6077Q23.5616-61.9173 25.2092-63.414Q26.8567-64.9107 29.4701-64.9107L33.5794-64.9107Q36.1349-64.9107 37.7846-63.414Q39.4344-61.9173 39.4344-59.6077L39.4344-10.9135Q39.4344-8.66529 37.6609-7.23096Q35.8874-5.79662 33.0845-5.79662ZM40.3487-41.4112L82.5999-41.4112L82.5999-43.8201L40.3487-43.8201ZM40.3487-26.8258L82.5999-26.8258L82.5999-29.2347L40.3487-29.2347ZM89.7395-3.38886L93.1048-3.38886Q96.923-3.38886 99.3594-5.51861Q101.796-7.64836 101.796-10.9135L101.796-59.6077Q101.796-62.9967 99.5152-65.1576Q97.2345-67.3185 93.6042-67.3185L89.2446-67.3185Q85.6732-67.3185 83.3898-65.1576Q81.1064-62.9967 81.1064-59.6077L81.1064-10.9135Q81.1064-7.64836 83.5442-5.51861Q85.982-3.38886 89.7395-3.38886ZM89.8641-5.79662Q87.0622-5.79662 85.2882-7.23096Q83.5142-8.66529 83.5142-10.9135L83.5142-59.6077Q83.5142-61.9173 85.1645-63.414Q86.8148-64.9107 89.3692-64.9107L93.4796-64.9107Q96.0919-64.9107 97.74-63.414Q99.3881-61.9173 99.3881-59.6077L99.3881-10.9135Q99.3881-8.66529 97.6154-7.23096Q95.8427-5.79662 92.9802-5.79662ZM100.228-12.9934L104.049-12.9934Q106.922-12.9934 108.705-14.8068Q110.488-16.6202 110.488-19.3703L110.488-51.2133Q110.488-54.0872 108.705-55.901Q106.922-57.7149 104.049-57.7149L100.228-57.7149L100.228-55.3105L103.986-55.3105Q105.787-55.3105 106.936-54.0995Q108.084-52.8885 108.084-51.0887L108.084-19.4949Q108.084-17.6951 106.936-16.5459Q105.787-15.3968 103.986-15.3968L100.228-15.3968Z"/>
  </g>
  <g id="Black-S" transform="matrix(1 0 0 1 2864.23 696)">
   <path d="M20.3613-11.3281L28.4668-11.3281L28.4668-22.9004L22.2656-22.9004Q21.7773-22.9004 21.5332-23.1445Q21.2891-23.3887 21.2891-23.877L21.2891-46.7773Q21.2891-47.2656 21.5332-47.5098Q21.7773-47.7539 22.2656-47.7539L28.4668-47.7539L28.4668-59.2773L20.3613-59.2773Q15.918-59.2773 12.8418-56.2256Q9.76562-53.1738 9.76562-48.6816L9.76562-21.875Q9.76562-17.5293 12.8418-14.4287Q15.918-11.3281 20.3613-11.3281ZM38.2812-0.244141L40.625-0.244141Q46.8262-0.244141 50.7324-3.85742Q54.6387-7.4707 54.6387-13.1348L54.6387-57.4219Q54.6387-63.0859 50.7324-66.6992Q46.8262-70.3125 40.625-70.3125L38.2812-70.3125Q32.0801-70.3125 28.1738-66.6992Q24.2676-63.0859 24.2676-57.4219L24.2676-13.1348Q24.2676-7.4707 28.1738-3.85742Q32.0801-0.244141 38.2812-0.244141ZM38.3789-12.3047Q37.4512-12.3047 36.8896-12.8174Q36.3281-13.3301 36.3281-14.1113L36.3281-56.4453Q36.3281-57.2754 36.8896-57.7637Q37.4512-58.252 38.3789-58.252L40.5273-58.252Q41.4551-58.252 42.0166-57.7637Q42.5781-57.2754 42.5781-56.4453L42.5781-14.1113Q42.5781-13.3301 42.0166-12.8174Q41.4551-12.3047 40.5273-12.3047ZM48.7305-36.6699L89.5996-36.6699L89.5996-48.7305L48.7305-48.7305ZM48.7305-21.875L89.5996-21.875L89.5996-33.9355L48.7305-33.9355ZM97.7051-0.244141L100.049-0.244141Q106.25-0.244141 110.156-3.85742Q114.062-7.4707 114.062-13.1348L114.062-57.4219Q114.062-63.0859 110.156-66.6992Q106.25-70.3125 100.049-70.3125L97.7051-70.3125Q91.5039-70.3125 87.5977-66.6992Q83.6914-63.0859 83.6914-57.4219L83.6914-13.1348Q83.6914-7.4707 87.5977-3.85742Q91.5039-0.244141 97.7051-0.244141ZM97.8027-12.3047Q96.875-12.3047 96.3135-12.8174Q95.752-13.3301 95.752-14.1113L95.752-56.4453Q95.752-57.2754 96.3135-57.7637Q96.875-58.252 97.8027-58.252L99.9512-58.252Q100.879-58.252 101.44-57.7637Q102.002-57.2754 102.002-56.4453L102.002-14.1113Q102.002-13.3301 101.44-12.8174Q100.879-12.3047 99.9512-12.3047ZM109.863-11.3281L117.969-11.3281Q122.461-11.3281 125.513-14.4287Q128.564-17.5293 128.564-21.875L128.564-48.6816Q128.564-53.1738 125.513-56.2256Q122.461-59.2773 117.969-59.2773L109.863-59.2773L109.863-47.7539L116.064-47.7539Q116.553-47.7539 116.797-47.5098Q117.041-47.2656 117.041-46.7773L117.041-23.877Q117.041-23.3887 116.797-23.1445Q116.553-22.9004 116.064-22.9004L109.863-22.9004Z"/>
  </g>
  <g id="Heavy-S" transform="matrix(1 0 0 1 2569.64 696)">
   <path d="M19.6583-12.1809L27.1069-12.1809L27.1069-22.4625L21.1247-22.4625Q20.6018-22.4625 20.3058-22.7585Q20.0098-23.0545 20.0098-23.5773L20.0098-47.0539Q20.0098-47.5768 20.3058-47.8785Q20.6018-48.1803 21.1247-48.1803L27.1069-48.1803L27.1069-58.4245L19.6583-58.4245Q15.5031-58.4245 12.6344-55.5687Q9.76562-52.7128 9.76562-48.5318L9.76562-22.0248Q9.76562-17.9557 12.6344-15.0683Q15.5031-12.1809 19.6583-12.1809ZM36.4604-1.67317L38.8963-1.67317Q44.8555-1.67317 48.5024-5.13664Q52.1494-8.6001 52.1494-14.2296L52.1494-56.3155Q52.1494-61.945 48.5024-65.4142Q44.8555-68.8835 38.8963-68.8835L36.3567-68.8835Q30.4897-68.8835 26.9004-65.4142Q23.311-61.945 23.311-56.3155L23.311-14.2296Q23.311-8.6001 26.9292-5.13664Q30.5473-1.67317 36.4604-1.67317ZM36.558-12.443Q35.4113-12.443 34.7461-13.1343Q34.0809-13.8256 34.0809-14.9757L34.0809-55.5695Q34.0809-56.7568 34.723-57.4352Q35.3652-58.1137 36.4543-58.1137L38.7987-58.1137Q39.9915-58.1137 40.6913-57.4352Q41.3911-56.7568 41.3911-55.5695L41.3911-14.9757Q41.3911-13.8256 40.6913-13.1343Q39.9915-12.443 38.7987-12.443ZM47.4052-37.0041L86.6954-37.0041L86.6954-47.7739L47.4052-47.7739ZM47.4052-22.8315L86.6954-22.8315L86.6954-33.6013L47.4052-33.6013ZM95.2043-1.67317L97.6402-1.67317Q103.553-1.67317 107.171-5.13664Q110.79-8.6001 110.79-14.2296L110.79-56.3155Q110.79-61.945 107.2-65.4142Q103.611-68.8835 97.7439-68.8835L95.2043-68.8835Q89.2451-68.8835 85.5982-65.4142Q81.9512-61.945 81.9512-56.3155L81.9512-14.2296Q81.9512-8.6001 85.5982-5.13664Q89.2451-1.67317 95.2043-1.67317ZM95.3019-12.443Q94.1091-12.443 93.4093-13.1343Q92.7095-13.8256 92.7095-14.9757L92.7095-55.5695Q92.7095-56.7568 93.4093-57.4352Q94.1091-58.1137 95.3019-58.1137L97.6463-58.1137Q98.7354-58.1137 99.3776-57.4352Q100.02-56.7568 100.02-55.5695L100.02-14.9757Q100.02-13.8256 99.3545-13.1343Q98.6893-12.443 97.5426-12.443ZM107.005-12.1809L114.442-12.1809Q118.635-12.1809 121.485-15.0683Q124.335-17.9557 124.335-22.0248L124.335-48.5318Q124.335-52.7128 121.485-55.5687Q118.635-58.4245 114.442-58.4245L107.005-58.4245L107.005-48.1803L112.976-48.1803Q113.51-48.1803 113.801-47.8785Q114.091-47.5768 114.091-47.0539L114.091-23.5773Q114.091-23.0545 113.801-22.7585Q113.51-22.4625 112.976-22.4625L107.005-22.4625Z"/>
  </g>
  <g id="Bold-S" transform="matrix(1 0 0 1 2275.29 696)">
   <path d="M18.8721-13.1348L25.5859-13.1348L25.5859-21.9727L19.8486-21.9727Q19.2871-21.9727 18.9331-22.3267Q18.5791-22.6807 18.5791-23.2422L18.5791-47.3633Q18.5791-47.9248 18.9331-48.291Q19.2871-48.6572 19.8486-48.6572L25.5859-48.6572L25.5859-57.4707L18.8721-57.4707Q15.0391-57.4707 12.4023-54.834Q9.76562-52.1973 9.76562-48.3643L9.76562-22.1924Q9.76562-18.4326 12.4023-15.7837Q15.0391-13.1348 18.8721-13.1348ZM34.4238-3.27148L36.9629-3.27148Q42.6514-3.27148 46.0083-6.56738Q49.3652-9.86328 49.3652-15.4541L49.3652-55.0781Q49.3652-60.6689 46.0083-63.9771Q42.6514-67.2852 36.9629-67.2852L34.2041-67.2852Q28.7109-67.2852 25.4761-63.9771Q22.2412-60.6689 22.2412-55.0781L22.2412-15.4541Q22.2412-9.86328 25.5371-6.56738Q28.833-3.27148 34.4238-3.27148ZM34.5215-12.5977Q33.1299-12.5977 32.3486-13.4888Q31.5674-14.3799 31.5674-15.9424L31.5674-54.5898Q31.5674-56.1768 32.2998-57.0679Q33.0322-57.959 34.3018-57.959L36.8652-57.959Q38.3545-57.959 39.209-57.0679Q40.0635-56.1768 40.0635-54.5898L40.0635-15.9424Q40.0635-14.3799 39.209-13.4888Q38.3545-12.5977 36.8652-12.5977ZM45.9229-37.3779L83.4473-37.3779L83.4473-46.7041L45.9229-46.7041ZM45.9229-23.9014L83.4473-23.9014L83.4473-33.2275L45.9229-33.2275ZM92.4072-3.27148L94.9463-3.27148Q100.537-3.27148 103.833-6.56738Q107.129-9.86328 107.129-15.4541L107.129-55.0781Q107.129-60.6689 103.894-63.9771Q100.659-67.2852 95.166-67.2852L92.4072-67.2852Q86.7188-67.2852 83.3618-63.9771Q80.0049-60.6689 80.0049-55.0781L80.0049-15.4541Q80.0049-9.86328 83.3618-6.56738Q86.7188-3.27148 92.4072-3.27148ZM92.5049-12.5977Q91.0156-12.5977 90.1611-13.4888Q89.3066-14.3799 89.3066-15.9424L89.3066-54.5898Q89.3066-56.1768 90.1611-57.0679Q91.0156-57.959 92.5049-57.959L95.0684-57.959Q96.3379-57.959 97.0703-57.0679Q97.8027-56.1768 97.8027-54.5898L97.8027-15.9424Q97.8027-14.3799 97.0215-13.4888Q96.2402-12.5977 94.8486-12.5977ZM103.809-13.1348L110.498-13.1348Q114.355-13.1348 116.98-15.7837Q119.604-18.4326 119.604-22.1924L119.604-48.3643Q119.604-52.1973 116.98-54.834Q114.355-57.4707 110.498-57.4707L103.809-57.4707L103.809-48.6572L109.521-48.6572Q110.107-48.6572 110.449-48.291Q110.791-47.9248 110.791-47.3633L110.791-23.2422Q110.791-22.6807 110.449-22.3267Q110.107-21.9727 109.521-21.9727L103.809-21.9727Z"/>
  </g>
  <g id="Semibold-S" transform="matrix(1 0 0 1 1980.21 696)">
   <path d="M18.33-13.7924L24.5373-13.7924L24.5373-21.635L18.9688-21.635Q18.3807-21.635 17.9867-22.029Q17.5927-22.4229 17.5927-23.0111L17.5927-47.5766Q17.5927-48.1647 17.9867-48.5754Q18.3807-48.986 18.9688-48.986L24.5373-48.986L24.5373-56.8131L18.33-56.8131Q14.7191-56.8131 12.2424-54.3274Q9.76562-51.8418 9.76562-48.2487L9.76562-22.3079Q9.76562-18.7614 12.2424-16.2769Q14.7191-13.7924 18.33-13.7924ZM33.0197-4.37344L35.6299-4.37344Q41.1317-4.37344 44.2887-7.55381Q47.4457-10.7342 47.4457-16.2983L47.4457-54.225Q47.4457-59.7892 44.2887-62.9862Q41.1317-66.1832 35.6299-66.1832L32.72-66.1832Q27.4846-66.1832 24.4941-62.9862Q21.5036-59.7892 21.5036-54.225L21.5036-16.2983Q21.5036-10.7342 24.5773-7.55381Q27.6511-4.37344 33.0197-4.37344ZM33.1174-12.7043Q31.5569-12.7043 30.6957-13.7332Q29.8345-14.762 29.8345-16.6089L29.8345-53.9145Q29.8345-55.7769 30.6291-56.8146Q31.4237-57.8523 32.8177-57.8523L35.5322-57.8523Q37.2259-57.8523 38.187-56.8146Q39.1481-55.7769 39.1481-53.9145L39.1481-16.6089Q39.1481-14.762 38.187-13.7332Q37.2259-12.7043 35.5322-12.7043ZM44.9009-37.6356L81.2078-37.6356L81.2078-45.9665L44.9009-45.9665ZM44.9009-24.639L81.2078-24.639L81.2078-32.9698L44.9009-32.9698ZM90.4788-4.37344L93.089-4.37344Q98.4576-4.37344 101.531-7.55381Q104.605-10.7342 104.605-16.2983L104.605-54.225Q104.605-59.7892 101.615-62.9862Q98.6241-66.1832 93.3887-66.1832L90.4788-66.1832Q84.977-66.1832 81.82-62.9862Q78.663-59.7892 78.663-54.225L78.663-16.2983Q78.663-10.7342 81.82-7.55381Q84.977-4.37344 90.4788-4.37344ZM90.5765-12.7043Q88.8828-12.7043 87.9217-13.7332Q86.9605-14.762 86.9605-16.6089L86.9605-53.9145Q86.9605-55.7769 87.9217-56.8146Q88.8828-57.8523 90.5765-57.8523L93.291-57.8523Q94.685-57.8523 95.4796-56.8146Q96.2742-55.7769 96.2742-53.9145L96.2742-16.6089Q96.2742-14.762 95.413-13.7332Q94.5518-12.7043 92.9913-12.7043ZM101.605-13.7924L107.779-13.7924Q111.405-13.7924 113.874-16.2769Q116.343-18.7614 116.343-22.3079L116.343-48.2487Q116.343-51.8418 113.874-54.3274Q111.405-56.8131 107.779-56.8131L101.605-56.8131L101.605-48.986L107.14-48.986Q107.761-48.986 108.139-48.5754Q108.516-48.1647 108.516-47.5766L108.516-23.0111Q108.516-22.4229 108.139-22.029Q107.761-21.635 107.14-21.635L101.605-21.635Z"/>
  </g>
  <g id="Medium-S" transform="matrix(1 0 0 1 1684.74 696)">
   <path d="M17.9189-14.291L23.7422-14.291L23.7422-21.3789L18.3018-21.3789Q17.6934-21.3789 17.269-21.8032Q16.8447-22.2275 16.8447-22.8359L16.8447-47.7383Q16.8447-48.3467 17.269-48.791Q17.6934-49.2354 18.3018-49.2354L23.7422-49.2354L23.7422-56.3145L17.9189-56.3145Q14.4766-56.3145 12.1211-53.9434Q9.76562-51.5723 9.76562-48.1611L9.76562-22.3955Q9.76562-19.0107 12.1211-16.6509Q14.4766-14.291 17.9189-14.291ZM31.9551-5.20898L34.6191-5.20898Q39.9795-5.20898 42.9849-8.30176Q45.9902-11.3945 45.9902-16.9385L45.9902-53.5781Q45.9902-59.1221 42.9849-62.2349Q39.9795-65.3477 34.6191-65.3477L31.5947-65.3477Q26.5547-65.3477 23.7495-62.2349Q20.9443-59.1221 20.9443-53.5781L20.9443-16.9385Q20.9443-11.3945 23.8496-8.30176Q26.7549-5.20898 31.9551-5.20898ZM32.0527-12.7852Q30.3643-12.7852 29.4424-13.9185Q28.5205-15.0518 28.5205-17.1143L28.5205-53.4023Q28.5205-55.4736 29.3623-56.6226Q30.2041-57.7715 31.6924-57.7715L34.5215-57.7715Q36.3701-57.7715 37.4121-56.6226Q38.4541-55.4736 38.4541-53.4023L38.4541-17.1143Q38.4541-15.0518 37.4121-13.9185Q36.3701-12.7852 34.5215-12.7852ZM44.126-37.8311L79.5098-37.8311L79.5098-45.4072L44.126-45.4072ZM44.126-25.1982L79.5098-25.1982L79.5098-32.7744L44.126-32.7744ZM89.0166-5.20898L91.6807-5.20898Q96.8809-5.20898 99.7861-8.30176Q102.691-11.3945 102.691-16.9385L102.691-53.5781Q102.691-59.1221 99.8862-62.2349Q97.0811-65.3477 92.041-65.3477L89.0166-65.3477Q83.6562-65.3477 80.6509-62.2349Q77.6455-59.1221 77.6455-53.5781L77.6455-16.9385Q77.6455-11.3945 80.6509-8.30176Q83.6562-5.20898 89.0166-5.20898ZM89.1143-12.7852Q87.2656-12.7852 86.2236-13.9185Q85.1816-15.0518 85.1816-17.1143L85.1816-53.4023Q85.1816-55.4736 86.2236-56.6226Q87.2656-57.7715 89.1143-57.7715L91.9434-57.7715Q93.4316-57.7715 94.2734-56.6226Q95.1152-55.4736 95.1152-53.4023L95.1152-17.1143Q95.1152-15.0518 94.1934-13.9185Q93.2715-12.7852 91.583-12.7852ZM99.9336-14.291L105.717-14.291Q109.168-14.291 111.519-16.6509Q113.87-19.0107 113.87-22.3955L113.87-48.1611Q113.87-51.5723 111.519-53.9434Q109.168-56.3145 105.717-56.3145L99.9336-56.3145L99.9336-49.2354L105.334-49.2354Q105.982-49.2354 106.387-48.791Q106.791-48.3467 106.791-47.7383L106.791-22.8359Q106.791-22.2275 106.387-21.8032Q105.982-21.3789 105.334-21.3789L99.9336-21.3789Z"/>
  </g>
  <g id="Regular-S" transform="matrix(1 0 0 1 1389.64 696)">
   <path d="M17.3828-14.9414L22.7051-14.9414L22.7051-21.0449L17.4316-21.0449Q16.7969-21.0449 16.333-21.5088Q15.8691-21.9727 15.8691-22.6074L15.8691-47.9492Q15.8691-48.584 16.333-49.0723Q16.7969-49.5605 17.4316-49.5605L22.7051-49.5605L22.7051-55.6641L17.3828-55.6641Q14.1602-55.6641 11.9629-53.4424Q9.76562-51.2207 9.76562-48.0469L9.76562-22.5098Q9.76562-19.3359 11.9629-17.1387Q14.1602-14.9414 17.3828-14.9414ZM30.5664-6.29883L33.3008-6.29883Q38.4766-6.29883 41.2842-9.27734Q44.0918-12.2559 44.0918-17.7734L44.0918-52.7344Q44.0918-58.252 41.2842-61.2549Q38.4766-64.2578 33.3008-64.2578L30.127-64.2578Q25.3418-64.2578 22.7783-61.2549Q20.2148-58.252 20.2148-52.7344L20.2148-17.7734Q20.2148-12.2559 22.9004-9.27734Q25.5859-6.29883 30.5664-6.29883ZM30.6641-12.8906Q28.8086-12.8906 27.8076-14.1602Q26.8066-15.4297 26.8066-17.7734L26.8066-52.7344Q26.8066-55.0781 27.71-56.3721Q28.6133-57.666 30.2246-57.666L33.2031-57.666Q35.2539-57.666 36.4014-56.3721Q37.5488-55.0781 37.5488-52.7344L37.5488-17.7734Q37.5488-15.4297 36.4014-14.1602Q35.2539-12.8906 33.2031-12.8906ZM43.1152-38.0859L77.2949-38.0859L77.2949-44.6777L43.1152-44.6777ZM43.1152-25.9277L77.2949-25.9277L77.2949-32.5195L43.1152-32.5195ZM87.1094-6.29883L89.8438-6.29883Q94.8242-6.29883 97.5098-9.27734Q100.195-12.2559 100.195-17.7734L100.195-52.7344Q100.195-58.252 97.6318-61.2549Q95.0684-64.2578 90.2832-64.2578L87.1094-64.2578Q81.9336-64.2578 79.126-61.2549Q76.3184-58.252 76.3184-52.7344L76.3184-17.7734Q76.3184-12.2559 79.126-9.27734Q81.9336-6.29883 87.1094-6.29883ZM87.207-12.8906Q85.1562-12.8906 84.0088-14.1602Q82.8613-15.4297 82.8613-17.7734L82.8613-52.7344Q82.8613-55.0781 84.0088-56.3721Q85.1562-57.666 87.207-57.666L90.1855-57.666Q91.7969-57.666 92.7002-56.3721Q93.6035-55.0781 93.6035-52.7344L93.6035-17.7734Q93.6035-15.4297 92.6025-14.1602Q91.6016-12.8906 89.7461-12.8906ZM97.7539-14.9414L103.027-14.9414Q106.25-14.9414 108.447-17.1387Q110.645-19.3359 110.645-22.5098L110.645-48.0469Q110.645-51.2207 108.447-53.4424Q106.25-55.6641 103.027-55.6641L97.7539-55.6641L97.7539-49.5605L102.979-49.5605Q103.662-49.5605 104.102-49.0723Q104.541-48.584 104.541-47.9492L104.541-22.6074Q104.541-21.9727 104.102-21.5088Q103.662-21.0449 102.979-21.0449L97.7539-21.0449Z"/>
  </g>
  <g id="Light-S" transform="matrix(1 0 0 1 1096.68 696)">
   <path d="M16.5805-15.8346L21.1764-15.8346L21.1764-20.621L16.6293-20.621Q15.7524-20.621 15.1524-21.2212Q14.5523-21.8213 14.5523-22.6982L14.5523-47.8584Q14.5523-48.7353 15.1524-49.3674Q15.7524-49.9995 16.6293-49.9995L21.1764-49.9995L21.1764-54.7862L16.5805-54.7862Q13.6757-54.7862 11.7207-52.8142Q9.76562-50.8423 9.76562-47.9561L9.76562-22.6006Q9.76562-19.7446 11.7207-17.7896Q13.6757-15.8346 16.5805-15.8346ZM28.3262-7.54013L31.0303-7.54013Q35.5097-7.54013 38.0374-10.11Q40.565-12.6798 40.565-17.274L40.565-53.2338Q40.565-57.8583 38.0753-60.4525Q35.5855-63.0468 31.1513-63.0468L27.902-63.0468Q23.7221-63.0468 21.4008-60.4525Q19.0796-57.8583 19.0796-53.2338L19.0796-17.274Q19.0796-12.6798 21.5229-10.11Q23.9662-7.54013 28.3262-7.54013ZM28.4238-12.6635Q26.4623-12.6635 25.3328-13.8877Q24.2032-15.1118 24.2032-17.274L24.2032-53.2338Q24.2032-55.411 25.2276-56.6672Q26.252-57.9234 27.9996-57.9234L31.0537-57.9234Q33.0894-57.9234 34.2823-56.6672Q35.4752-55.411 35.4752-53.2338L35.4752-17.274Q35.4752-15.1118 34.252-13.8877Q33.0289-12.6635 30.9326-12.6635ZM39.5279-38.7065L73.3744-38.7065L73.3744-43.8301L39.5279-43.8301ZM39.5279-26.7754L73.3744-26.7754L73.3744-31.899L39.5279-31.899ZM81.872-7.54013L84.5762-7.54013Q88.9361-7.54013 91.3794-10.11Q93.8227-12.6798 93.8227-17.274L93.8227-53.2338Q93.8227-57.8583 91.5015-60.4525Q89.1802-63.0468 85.0006-63.0468L81.751-63.0468Q77.317-63.0468 74.8272-60.4525Q72.3373-57.8583 72.3373-53.2338L72.3373-17.274Q72.3373-12.6798 74.865-10.11Q77.3926-7.54013 81.872-7.54013ZM81.9697-12.6635Q79.8737-12.6635 78.6504-13.8877Q77.4272-15.1118 77.4272-17.274L77.4272-53.2338Q77.4272-55.411 78.6201-56.6672Q79.8131-57.9234 81.8487-57.9234L84.903-57.9234Q86.6503-57.9234 87.6748-56.6672Q88.6993-55.411 88.6993-53.2338L88.6993-17.274Q88.6993-15.1118 87.5772-13.8877Q86.455-12.6635 84.4785-12.6635ZM91.7597-15.8346L96.3219-15.8346Q99.2416-15.8346 101.189-17.7896Q103.137-19.7446 103.137-22.6006L103.137-47.9561Q103.137-50.8423 101.189-52.8142Q99.2416-54.7862 96.3219-54.7862L91.7597-54.7862L91.7597-49.9995L96.273-49.9995Q97.1837-49.9995 97.767-49.3674Q98.3503-48.7353 98.3503-47.8584L98.3503-22.6982Q98.3503-21.8213 97.767-21.2212Q97.1837-20.621 96.273-20.621L91.7597-20.621Z"/>
  </g>
  <g id="Thin-S" transform="matrix(1 0 0 1 804.936 696)">
   <path d="M15.5193-17.0158L19.1546-17.0158L19.1546-20.0603L15.5681-20.0603Q14.371-20.0603 13.5909-20.8407Q12.8107-21.6212 12.8107-22.8183L12.8107-47.7384Q12.8107-48.9354 13.5909-49.7577Q14.371-50.58 15.5681-50.58L19.1546-50.58L19.1546-53.6251L15.5193-53.6251Q13.0349-53.6251 11.4003-51.9834Q9.76562-50.3418 9.76562-47.836L9.76562-22.7206Q9.76562-20.2851 11.4003-18.6505Q13.0349-17.0158 15.5193-17.0158ZM25.3633-9.18185L28.0273-9.18185Q31.5859-9.18185 33.7432-11.2112Q35.9005-13.2405 35.9005-16.6134L35.9005-53.8944Q35.9005-57.3376 33.8312-59.3913Q31.7619-61.4451 28.3085-61.4451L24.9592-61.4451Q21.5799-61.4451 19.579-59.3913Q17.5781-57.3376 17.5781-53.8944L17.5781-16.6134Q17.5781-13.2405 19.7011-11.2112Q21.824-9.18185 25.3633-9.18185ZM25.4609-12.3632Q23.3591-12.3632 22.0596-13.5273Q20.76-14.6914 20.76-16.6134L20.76-53.8944Q20.76-55.8513 21.9445-57.0575Q23.129-58.2638 25.0569-58.2638L28.2108-58.2638Q30.2268-58.2638 31.4797-57.0575Q32.7326-55.8513 32.7326-53.8944L32.7326-16.6134Q32.7326-14.6914 31.4094-13.5273Q30.0862-12.3632 27.9297-12.3632ZM34.7833-39.5272L68.1893-39.5272L68.1893-42.7091L34.7833-42.7091ZM34.7833-27.8964L68.1893-27.8964L68.1893-31.0783L34.7833-31.0783ZM74.9453-9.18185L77.6094-9.18185Q81.1486-9.18185 83.2715-11.2112Q85.3945-13.2405 85.3945-16.6134L85.3945-53.8944Q85.3945-57.3376 83.3936-59.3913Q81.3927-61.4451 78.014-61.4451L74.6641-61.4451Q71.2113-61.4451 69.1417-59.3913Q67.0721-57.3376 67.0721-53.8944L67.0721-16.6134Q67.0721-13.2405 69.2294-11.2112Q71.3867-9.18185 74.9453-9.18185ZM75.0429-12.3632Q72.887-12.3632 71.5635-13.5273Q70.24-14.6914 70.24-16.6134L70.24-53.8944Q70.24-55.8513 71.4932-57.0575Q72.7464-58.2638 74.7618-58.2638L77.9163-58.2638Q79.8436-58.2638 81.0284-57.0575Q82.2132-55.8513 82.2132-53.8944L82.2132-16.6134Q82.2132-14.6914 80.9307-13.5273Q79.6483-12.3632 77.5117-12.3632ZM83.832-17.0158L87.4533-17.0158Q89.9725-17.0158 91.5897-18.6505Q93.207-20.2851 93.207-22.7206L93.207-47.836Q93.207-50.3418 91.5897-51.9834Q89.9725-53.6251 87.4533-53.6251L83.832-53.6251L83.832-50.58L87.4045-50.58Q88.6156-50.58 89.389-49.7577Q90.1625-48.9354 90.1625-47.7384L90.1625-22.8183Q90.1625-21.6212 89.389-20.8407Q88.6156-20.0603 87.4045-20.0603L83.832-20.0603Z"/>
  </g>
  <g id="Ultralight-S" transform="matrix(1 0 0 1 510.768 696)">
   <path d="M14.9757-17.6208L18.119-17.6208L18.119-19.7731L15.0246-19.7731Q13.6635-19.7731 12.7911-20.6459Q11.9186-21.5187 11.9186-22.8798L11.9186-47.6768Q11.9186-49.0379 12.7911-49.9577Q13.6635-50.8774 15.0246-50.8774L18.119-50.8774L18.119-53.0304L14.9757-53.0304Q12.7068-53.0304 11.2362-51.5579Q9.76562-50.0854 9.76562-47.7745L9.76562-22.7821Q9.76562-20.562 11.2362-19.0914Q12.7068-17.6208 14.9757-17.6208ZM23.8457-10.0227L26.4893-10.0227Q29.5761-10.0227 31.5437-11.7752Q33.5114-13.5277 33.5114-16.275L33.5114-54.2328Q33.5114-57.0709 31.6574-58.8478Q29.8035-60.6247 26.8524-60.6247L23.452-60.6247Q20.4826-60.6247 18.6459-58.8478Q16.8091-57.0709 16.8091-54.2328L16.8091-16.275Q16.8091-13.5277 18.7679-11.7752Q20.7268-10.0227 23.8457-10.0227ZM23.9433-12.2093Q21.7697-12.2093 20.3831-13.3427Q18.9964-14.476 18.9964-16.275L18.9964-54.2328Q18.9964-56.0768 20.2629-57.2575Q21.5294-58.4381 23.5497-58.4381L26.7548-58.4381Q28.7605-58.4381 30.0442-57.2575Q31.3278-56.0768 31.3278-54.2328L31.3278-16.275Q31.3278-14.476 29.9534-13.3427Q28.5789-12.2093 26.3916-12.2093ZM32.3532-39.9475L65.5334-39.9475L65.5334-42.1349L32.3532-42.1349ZM32.3532-28.4706L65.5334-28.4706L65.5334-30.658L32.3532-30.658ZM71.3974-10.0227L74.041-10.0227Q77.1599-10.0227 79.1187-11.7752Q81.0776-13.5277 81.0776-16.275L81.0776-54.2328Q81.0776-57.0709 79.2408-58.8478Q77.404-60.6247 74.4354-60.6247L71.0342-60.6247Q68.084-60.6247 66.2296-58.8478Q64.3753-57.0709 64.3753-54.2328L64.3753-16.275Q64.3753-13.5277 66.3429-11.7752Q68.3105-10.0227 71.3974-10.0227ZM71.4951-12.2093Q69.3085-12.2093 67.9337-13.3427Q66.5588-14.476 66.5588-16.275L66.5588-54.2328Q66.5588-56.0768 67.8429-57.2575Q69.1269-58.4381 71.1319-58.4381L74.3378-58.4381Q76.3573-58.4381 77.6241-57.2575Q78.891-56.0768 78.891-54.2328L78.891-16.275Q78.891-14.476 77.5265-13.3427Q76.162-12.2093 73.9433-12.2093ZM79.7714-17.6208L82.9109-17.6208Q85.2249-17.6208 86.673-19.0914Q88.121-20.562 88.121-22.7821L88.121-47.7745Q88.121-50.0854 86.673-51.5579Q85.2249-53.0304 82.9109-53.0304L79.7714-53.0304L79.7714-50.8774L82.8621-50.8774Q84.227-50.8774 85.0979-49.9577Q85.9688-49.0379 85.9688-47.6768L85.9688-22.8798Q85.9688-21.5187 85.0979-20.6459Q84.227-19.7731 82.8621-19.7731L79.7714-19.7731Z"/>
  </g>
 </g>
</svg>
