<?xml version="1.0" encoding="UTF-8"?>
<!--Generator: Apple Native CoreSVG 175.5-->
<!DOCTYPE svg
PUBLIC "-//W3C//DTD SVG 1.1//EN"
       "http://www.w3.org/Graphics/SVG/1.1/DTD/svg11.dtd">
<svg version="1.1" xmlns="http://www.w3.org/2000/svg" xmlns:xlink="http://www.w3.org/1999/xlink" width="3300" height="2200">
 <!--glyph: "uni1014C2.medium", point size: 100.0, font version: "18.0d9e1", template writer version: "84"-->
 <style>.template-0 {fill:#000000}
.template-1 {fill:#000000;-sfsymbols-variable-threshold:0.0}
.template-2 {fill:#000000;-sfsymbols-variable-threshold:0.34}
.template-3 {fill:#000000;-sfsymbols-variable-threshold:0.68}

.multicolor-0:tintColor {fill:#007AFF}
.multicolor-1:tintColor {fill:#007AFF;-sfsymbols-variable-threshold:0.0}
.multicolor-2:tintColor {fill:#007AFF;-sfsymbols-variable-threshold:0.34}
.multicolor-3:tintColor {fill:#007AFF;-sfsymbols-variable-threshold:0.68}

.hierarchical-0:primary {fill:#212121}
.hierarchical-1:secondary {fill:#4D4D4D;-sfsymbols-variable-threshold:0.0}
.hierarchical-2:secondary {fill:#4D4D4D;-sfsymbols-variable-threshold:0.34}
.hierarchical-3:secondary {fill:#4D4D4D;-sfsymbols-variable-threshold:0.68}

.SFSymbolsPreview007AFF {fill:#007AFF;opacity:1.0}
</style>
 <g id="Notes">
  <rect height="2200" id="artboard" style="fill:white;opacity:1" width="3300" x="0" y="0"/>
  <line style="fill:none;stroke:black;opacity:1;stroke-width:0.5;" x1="263" x2="3036" y1="292" y2="292"/>
  <text style="stroke:none;fill:black;font-family:sans-serif;font-size:13;font-weight:bold;" transform="matrix(1 0 0 1 263 322)">Weight/Scale Variations</text>
  <text style="stroke:none;fill:black;font-family:sans-serif;font-size:13;text-anchor:middle;" transform="matrix(1 0 0 1 559.711 322)">Ultralight</text>
  <text style="stroke:none;fill:black;font-family:sans-serif;font-size:13;text-anchor:middle;" transform="matrix(1 0 0 1 856.422 322)">Thin</text>
  <text style="stroke:none;fill:black;font-family:sans-serif;font-size:13;text-anchor:middle;" transform="matrix(1 0 0 1 1153.13 322)">Light</text>
  <text style="stroke:none;fill:black;font-family:sans-serif;font-size:13;text-anchor:middle;" transform="matrix(1 0 0 1 1449.84 322)">Regular</text>
  <text style="stroke:none;fill:black;font-family:sans-serif;font-size:13;text-anchor:middle;" transform="matrix(1 0 0 1 1746.56 322)">Medium</text>
  <text style="stroke:none;fill:black;font-family:sans-serif;font-size:13;text-anchor:middle;" transform="matrix(1 0 0 1 2043.27 322)">Semibold</text>
  <text style="stroke:none;fill:black;font-family:sans-serif;font-size:13;text-anchor:middle;" transform="matrix(1 0 0 1 2339.98 322)">Bold</text>
  <text style="stroke:none;fill:black;font-family:sans-serif;font-size:13;text-anchor:middle;" transform="matrix(1 0 0 1 2636.69 322)">Heavy</text>
  <text style="stroke:none;fill:black;font-family:sans-serif;font-size:13;text-anchor:middle;" transform="matrix(1 0 0 1 2933.4 322)">Black</text>
  <line style="fill:none;stroke:black;opacity:1;stroke-width:0.5;" x1="263" x2="3036" y1="1903" y2="1903"/>
  <g transform="matrix(1 0 0 1 263 1933)">
   <path d="M9.24805 0.830078Q10.8691 0.830078 12.2949 0.214844Q13.7207-0.400391 14.8096-1.49414Q15.8984-2.58789 16.5186-4.01367Q17.1387-5.43945 17.1387-7.05078Q17.1387-8.66211 16.5186-10.0879Q15.8984-11.5137 14.8047-12.6074Q13.7109-13.7012 12.2852-14.3164Q10.8594-14.9316 9.23828-14.9316Q7.62695-14.9316 6.20117-14.3164Q4.77539-13.7012 3.69141-12.6074Q2.60742-11.5137 1.9873-10.0879Q1.36719-8.66211 1.36719-7.05078Q1.36719-5.43945 1.9873-4.01367Q2.60742-2.58789 3.69629-1.49414Q4.78516-0.400391 6.21094 0.214844Q7.63672 0.830078 9.24805 0.830078ZM9.24805-0.654297Q7.91992-0.654297 6.7627-1.14746Q5.60547-1.64062 4.73145-2.51953Q3.85742-3.39844 3.36426-4.56055Q2.87109-5.72266 2.87109-7.05078Q2.87109-8.37891 3.35938-9.54102Q3.84766-10.7031 4.72168-11.582Q5.5957-12.4609 6.75293-12.9541Q7.91016-13.4473 9.23828-13.4473Q10.5762-13.4473 11.7383-12.9541Q12.9004-12.4609 13.7793-11.582Q14.6582-10.7031 15.1514-9.54102Q15.6445-8.37891 15.6445-7.05078Q15.6445-5.72266 15.1514-4.56055Q14.6582-3.39844 13.7793-2.51953Q12.9004-1.64062 11.7432-1.14746Q10.5859-0.654297 9.24805-0.654297ZM5.6543-7.05078Q5.6543-6.72852 5.85938-6.52832Q6.06445-6.32812 6.40625-6.32812L8.51562-6.32812L8.51562-4.20898Q8.51562-3.88672 8.71094-3.67676Q8.90625-3.4668 9.23828-3.4668Q9.56055-3.4668 9.77051-3.67676Q9.98047-3.88672 9.98047-4.20898L9.98047-6.32812L12.0898-6.32812Q12.4219-6.32812 12.627-6.52832Q12.832-6.72852 12.832-7.05078Q12.832-7.38281 12.627-7.58789Q12.4219-7.79297 12.0898-7.79297L9.98047-7.79297L9.98047-9.90234Q9.98047-10.2344 9.77051-10.4443Q9.56055-10.6543 9.23828-10.6543Q8.90625-10.6543 8.71094-10.4443Q8.51562-10.2344 8.51562-9.90234L8.51562-7.79297L6.40625-7.79297Q6.06445-7.79297 5.85938-7.58789Q5.6543-7.38281 5.6543-7.05078Z"/>
  </g>
  <g transform="matrix(1 0 0 1 281.867 1933)">
   <path d="M11.709 2.91016Q13.75 2.91016 15.5518 2.12891Q17.3535 1.34766 18.7305-0.0292969Q20.1074-1.40625 20.8887-3.20801Q21.6699-5.00977 21.6699-7.05078Q21.6699-9.0918 20.8887-10.8936Q20.1074-12.6953 18.7305-14.0723Q17.3535-15.4492 15.5469-16.2305Q13.7402-17.0117 11.6992-17.0117Q9.6582-17.0117 7.85645-16.2305Q6.05469-15.4492 4.68262-14.0723Q3.31055-12.6953 2.5293-10.8936Q1.74805-9.0918 1.74805-7.05078Q1.74805-5.00977 2.5293-3.20801Q3.31055-1.40625 4.6875-0.0292969Q6.06445 1.34766 7.86621 2.12891Q9.66797 2.91016 11.709 2.91016ZM11.709 1.25Q9.98047 1.25 8.47656 0.605469Q6.97266-0.0390625 5.83496-1.17676Q4.69727-2.31445 4.05762-3.81836Q3.41797-5.32227 3.41797-7.05078Q3.41797-8.7793 4.05762-10.2832Q4.69727-11.7871 5.83008-12.9297Q6.96289-14.0723 8.4668-14.7119Q9.9707-15.3516 11.6992-15.3516Q13.4277-15.3516 14.9365-14.7119Q16.4453-14.0723 17.583-12.9297Q18.7207-11.7871 19.3652-10.2832Q20.0098-8.7793 20.0098-7.05078Q20.0098-5.32227 19.3701-3.81836Q18.7305-2.31445 17.5879-1.17676Q16.4453-0.0390625 14.9414 0.605469Q13.4375 1.25 11.709 1.25ZM7.17773-7.05078Q7.17773-6.69922 7.41211-6.47461Q7.64648-6.25 8.01758-6.25L10.8887-6.25L10.8887-3.36914Q10.8887-2.99805 11.1133-2.76855Q11.3379-2.53906 11.6895-2.53906Q12.0605-2.53906 12.29-2.76855Q12.5195-2.99805 12.5195-3.36914L12.5195-6.25L15.4004-6.25Q15.7715-6.25 16.001-6.47461Q16.2305-6.69922 16.2305-7.05078Q16.2305-7.42188 16.001-7.65137Q15.7715-7.88086 15.4004-7.88086L12.5195-7.88086L12.5195-10.752Q12.5195-11.1328 12.29-11.3623Q12.0605-11.5918 11.6895-11.5918Q11.3379-11.5918 11.1133-11.3574Q10.8887-11.123 10.8887-10.752L10.8887-7.88086L8.01758-7.88086Q7.63672-7.88086 7.40723-7.65137Q7.17773-7.42188 7.17773-7.05078Z"/>
  </g>
  <g transform="matrix(1 0 0 1 305.646 1933)">
   <path d="M14.9707 5.66406Q17.0605 5.66406 18.96 5.01465Q20.8594 4.36523 22.4512 3.19336Q24.043 2.02148 25.2197 0.429688Q26.3965-1.16211 27.0459-3.06641Q27.6953-4.9707 27.6953-7.05078Q27.6953-9.14062 27.0459-11.04Q26.3965-12.9395 25.2197-14.5312Q24.043-16.123 22.4512-17.2998Q20.8594-18.4766 18.9551-19.126Q17.0508-19.7754 14.9609-19.7754Q12.8711-19.7754 10.9717-19.126Q9.07227-18.4766 7.48535-17.2998Q5.89844-16.123 4.72168-14.5312Q3.54492-12.9395 2.90039-11.04Q2.25586-9.14062 2.25586-7.05078Q2.25586-4.9707 2.90527-3.06641Q3.55469-1.16211 4.72656 0.429688Q5.89844 2.02148 7.49023 3.19336Q9.08203 4.36523 10.9814 5.01465Q12.8809 5.66406 14.9707 5.66406ZM14.9707 3.84766Q13.1641 3.84766 11.5283 3.2959Q9.89258 2.74414 8.53516 1.74805Q7.17773 0.751953 6.17676-0.610352Q5.17578-1.97266 4.62891-3.6084Q4.08203-5.24414 4.08203-7.05078Q4.08203-8.86719 4.62891-10.5029Q5.17578-12.1387 6.17188-13.501Q7.16797-14.8633 8.52539-15.8594Q9.88281-16.8555 11.5186-17.4023Q13.1543-17.9492 14.9609-17.9492Q16.7773-17.9492 18.4131-17.4023Q20.0488-16.8555 21.4111-15.8594Q22.7734-14.8633 23.7744-13.501Q24.7754-12.1387 25.3223-10.5029Q25.8691-8.86719 25.8691-7.05078Q25.8691-5.24414 25.3223-3.6084Q24.7754-1.97266 23.7793-0.610352Q22.7832 0.751953 21.4209 1.74805Q20.0586 2.74414 18.4229 3.2959Q16.7871 3.84766 14.9707 3.84766ZM9.19922-7.05078Q9.19922-6.66992 9.45801-6.4209Q9.7168-6.17188 10.1172-6.17188L14.0625-6.17188L14.0625-2.2168Q14.0625-1.81641 14.3115-1.55762Q14.5605-1.29883 14.9512-1.29883Q15.3516-1.29883 15.6104-1.55273Q15.8691-1.80664 15.8691-2.2168L15.8691-6.17188L19.8242-6.17188Q20.2246-6.17188 20.4785-6.4209Q20.7324-6.66992 20.7324-7.05078Q20.7324-7.46094 20.4785-7.71484Q20.2246-7.96875 19.8242-7.96875L15.8691-7.96875L15.8691-11.9141Q15.8691-12.3242 15.6104-12.583Q15.3516-12.8418 14.9512-12.8418Q14.5605-12.8418 14.3115-12.583Q14.0625-12.3242 14.0625-11.9141L14.0625-7.96875L10.1172-7.96875Q9.70703-7.96875 9.45312-7.71484Q9.19922-7.46094 9.19922-7.05078Z"/>
  </g>
  <text style="stroke:none;fill:black;font-family:sans-serif;font-size:13;font-weight:bold;" transform="matrix(1 0 0 1 263 1953)">Design Variations</text>
  <text style="stroke:none;fill:black;font-family:sans-serif;font-size:13;" transform="matrix(1 0 0 1 263 1971)">Symbols are supported in up to nine weights and three scales.</text>
  <text style="stroke:none;fill:black;font-family:sans-serif;font-size:13;" transform="matrix(1 0 0 1 263 1989)">For optimal layout with text and other symbols, vertically align</text>
  <text style="stroke:none;fill:black;font-family:sans-serif;font-size:13;" transform="matrix(1 0 0 1 263 2007)">symbols with the adjacent text.</text>
  <line style="fill:none;stroke:#00AEEF;stroke-width:0.5;opacity:1.0;" x1="776" x2="776" y1="1919" y2="1933"/>
  <g transform="matrix(1 0 0 1 776 1933)">
   <path d="M3.31055 0.15625Q3.70117 0.15625 3.91602-0.00976562Q4.13086-0.175781 4.26758-0.585938L5.52734-4.0332L11.2891-4.0332L12.5488-0.585938Q12.6855-0.175781 12.9004-0.00976562Q13.1152 0.15625 13.4961 0.15625Q13.8867 0.15625 14.1162-0.0585938Q14.3457-0.273438 14.3457-0.644531Q14.3457-0.869141 14.2383-1.17188L9.6582-13.3691Q9.48242-13.8184 9.17969-14.043Q8.87695-14.2676 8.4082-14.2676Q7.5-14.2676 7.17773-13.3789L2.59766-1.16211Q2.49023-0.859375 2.49023-0.634766Q2.49023-0.263672 2.70996-0.0537109Q2.92969 0.15625 3.31055 0.15625ZM6.00586-5.51758L8.37891-12.0898L8.42773-12.0898L10.8008-5.51758Z"/>
  </g>
  <line style="fill:none;stroke:#00AEEF;stroke-width:0.5;opacity:1.0;" x1="793.197" x2="793.197" y1="1919" y2="1933"/>
  <text style="stroke:none;fill:black;font-family:sans-serif;font-size:13;font-weight:bold;" transform="matrix(1 0 0 1 776 1953)">Margins</text>
  <text style="stroke:none;fill:black;font-family:sans-serif;font-size:13;" transform="matrix(1 0 0 1 776 1971)">Leading and trailing margins on the left and right side of each symbol</text>
  <text style="stroke:none;fill:black;font-family:sans-serif;font-size:13;" transform="matrix(1 0 0 1 776 1989)">can be adjusted by modifying the x-location of the margin guidelines.</text>
  <text style="stroke:none;fill:black;font-family:sans-serif;font-size:13;" transform="matrix(1 0 0 1 776 2007)">Modifications are automatically applied proportionally to all</text>
  <text style="stroke:none;fill:black;font-family:sans-serif;font-size:13;" transform="matrix(1 0 0 1 776 2025)">scales and weights.</text>
  <g transform="matrix(1 0 0 1 1289 1933)">
   <path d="M2.8418 1.86523L4.54102 3.57422Q5.18555 4.22852 5.90332 4.17969Q6.62109 4.13086 7.31445 3.35938L18.0078-8.42773L17.041-9.4043L6.42578 2.27539Q6.16211 2.57812 5.89355 2.61719Q5.625 2.65625 5.27344 2.30469L4.10156 1.14258Q3.75 0.791016 3.79395 0.522461Q3.83789 0.253906 4.14062-0.0195312L15.6152-10.8203L14.6387-11.7871L3.04688-0.898438Q2.30469-0.214844 2.25098 0.498047Q2.19727 1.21094 2.8418 1.86523ZM9.25781-16.3281Q8.94531-16.0254 8.90625-15.6348Q8.86719-15.2441 9.04297-14.9512Q9.21875-14.6777 9.55566-14.541Q9.89258-14.4043 10.3809-14.5215Q11.4746-14.7754 12.5977-14.7314Q13.7207-14.6875 14.7949-13.9844L14.209-12.5293Q13.9551-11.9043 14.0674-11.4404Q14.1797-10.9766 14.5801-10.5664L16.875-8.25195Q17.2363-7.88086 17.5781-7.82227Q17.9199-7.76367 18.3398-7.8418L19.4043-8.03711L20.0684-7.36328L20.0293-6.80664Q20-6.43555 20.1221-6.12305Q20.2441-5.81055 20.6055-5.44922L21.3672-4.70703Q21.7285-4.3457 22.1533-4.33105Q22.5781-4.31641 22.9297-4.66797L25.8398-7.58789Q26.1914-7.93945 26.1816-8.35449Q26.1719-8.76953 25.8105-9.13086L25.0391-9.89258Q24.6875-10.2539 24.3799-10.3857Q24.0723-10.5176 23.7109-10.4883L23.1348-10.4395L22.4902-11.0742L22.7344-12.1973Q22.832-12.6172 22.6953-12.9834Q22.5586-13.3496 22.1191-13.7891L19.9219-15.9766Q18.6719-17.2168 17.2607-17.8369Q15.8496-18.457 14.4189-18.4814Q12.9883-18.5059 11.665-17.959Q10.3418-17.4121 9.25781-16.3281ZM10.752-15.957Q11.6602-16.6211 12.7002-16.9043Q13.7402-17.1875 14.8047-17.085Q15.8691-16.9824 16.8701-16.5137Q17.8711-16.0449 18.7012-15.2051L21.1328-12.793Q21.3086-12.6172 21.3525-12.4512Q21.3965-12.2852 21.3379-12.0312L21.0156-10.5469L22.5195-9.0625L23.5059-9.12109Q23.6914-9.13086 23.7891-9.09668Q23.8867-9.0625 24.0332-8.91602L24.6094-8.33984L22.168-5.89844L21.5918-6.47461Q21.4453-6.62109 21.4062-6.71875Q21.3672-6.81641 21.377-7.01172L21.4453-7.98828L19.9512-9.47266L18.4277-9.21875Q18.1836-9.16992 18.042-9.2041Q17.9004-9.23828 17.7148-9.41406L15.7129-11.416Q15.5176-11.5918 15.4932-11.7529Q15.4688-11.9141 15.5859-12.1875L16.4648-14.2773Q15.293-15.3711 13.8281-15.791Q12.3633-16.2109 10.8398-15.7617Q10.7227-15.7324 10.6885-15.8057Q10.6543-15.8789 10.752-15.957Z"/>
  </g>
  <text style="stroke:none;fill:black;font-family:sans-serif;font-size:13;font-weight:bold;" transform="matrix(1 0 0 1 1289 1953)">Exporting</text>
  <text style="stroke:none;fill:black;font-family:sans-serif;font-size:13;" transform="matrix(1 0 0 1 1289 1971)">Symbols should be outlined when exporting to ensure the</text>
  <text style="stroke:none;fill:black;font-family:sans-serif;font-size:13;" transform="matrix(1 0 0 1 1289 1989)">design is preserved when submitting to Xcode.</text>
  <text id="template-version" style="stroke:none;fill:black;font-family:sans-serif;font-size:13;text-anchor:end;" transform="matrix(1 0 0 1 3036 1933)">Template v.4.0</text>
  <text style="stroke:none;fill:black;font-family:sans-serif;font-size:13;text-anchor:end;" transform="matrix(1 0 0 1 3036 1951)">Requires Xcode 14 or greater</text>
  <text id="descriptive-name" style="stroke:none;fill:black;font-family:sans-serif;font-size:13;text-anchor:end;" transform="matrix(1 0 0 1 3036 1969)">Generated from shower</text>
  <text style="stroke:none;fill:black;font-family:sans-serif;font-size:13;text-anchor:end;" transform="matrix(1 0 0 1 3036 1987)">Typeset at 100 points</text>
  <text style="stroke:none;fill:black;font-family:sans-serif;font-size:13;" transform="matrix(1 0 0 1 263 726)">Small</text>
  <text style="stroke:none;fill:black;font-family:sans-serif;font-size:13;" transform="matrix(1 0 0 1 263 1156)">Medium</text>
  <text style="stroke:none;fill:black;font-family:sans-serif;font-size:13;" transform="matrix(1 0 0 1 263 1586)">Large</text>
 </g>
 <g id="Guides">
  <g id="H-reference" style="fill:#27AAE1;stroke:none;" transform="matrix(1 0 0 1 339 696)">
   <path d="M0.993347 0L3.6377 0L29.3282-67.1326L30.0301-67.1326L30.0301-70.459L28.1227-70.459ZM11.6882-24.4797L46.9818-24.4797L46.2311-26.7288L12.4382-26.7288ZM55.1193 0L57.7637 0L30.6381-70.459L29.4327-70.459L29.4327-67.1326Z"/>
  </g>
  <line id="Baseline-S" style="fill:none;stroke:#27AAE1;opacity:1;stroke-width:0.5;" x1="263" x2="3036" y1="696" y2="696"/>
  <line id="Capline-S" style="fill:none;stroke:#27AAE1;opacity:1;stroke-width:0.5;" x1="263" x2="3036" y1="625.541" y2="625.541"/>
  <g id="H-reference" style="fill:#27AAE1;stroke:none;" transform="matrix(1 0 0 1 339 1126)">
   <path d="M0.993347 0L3.6377 0L29.3282-67.1326L30.0301-67.1326L30.0301-70.459L28.1227-70.459ZM11.6882-24.4797L46.9818-24.4797L46.2311-26.7288L12.4382-26.7288ZM55.1193 0L57.7637 0L30.6381-70.459L29.4327-70.459L29.4327-67.1326Z"/>
  </g>
  <line id="Baseline-M" style="fill:none;stroke:#27AAE1;opacity:1;stroke-width:0.5;" x1="263" x2="3036" y1="1126" y2="1126"/>
  <line id="Capline-M" style="fill:none;stroke:#27AAE1;opacity:1;stroke-width:0.5;" x1="263" x2="3036" y1="1055.54" y2="1055.54"/>
  <g id="H-reference" style="fill:#27AAE1;stroke:none;" transform="matrix(1 0 0 1 339 1556)">
   <path d="M0.993347 0L3.6377 0L29.3282-67.1326L30.0301-67.1326L30.0301-70.459L28.1227-70.459ZM11.6882-24.4797L46.9818-24.4797L46.2311-26.7288L12.4382-26.7288ZM55.1193 0L57.7637 0L30.6381-70.459L29.4327-70.459L29.4327-67.1326Z"/>
  </g>
  <line id="Baseline-L" style="fill:none;stroke:#27AAE1;opacity:1;stroke-width:0.5;" x1="263" x2="3036" y1="1556" y2="1556"/>
  <line id="Capline-L" style="fill:none;stroke:#27AAE1;opacity:1;stroke-width:0.5;" x1="263" x2="3036" y1="1485.54" y2="1485.54"/>
  <line id="left-margin-Ultralight-S" style="fill:none;stroke:#00AEEF;stroke-width:0.5;opacity:1.0;" x1="524.26" x2="524.26" y1="600.785" y2="720.121"/>
  <line id="right-margin-Ultralight-S" style="fill:none;stroke:#00AEEF;stroke-width:0.5;opacity:1.0;" x1="595.163" x2="595.163" y1="600.785" y2="720.121"/>
  <line id="left-margin-Regular-S" style="fill:none;stroke:#00AEEF;stroke-width:0.5;opacity:1.0;" x1="1407.88" x2="1407.88" y1="600.785" y2="720.121"/>
  <line id="right-margin-Regular-S" style="fill:none;stroke:#00AEEF;stroke-width:0.5;opacity:1.0;" x1="1491.81" x2="1491.81" y1="600.785" y2="720.121"/>
  <line id="left-margin-Black-S" style="fill:none;stroke:#00AEEF;stroke-width:0.5;opacity:1.0;" x1="2886.5" x2="2886.5" y1="600.785" y2="720.121"/>
  <line id="right-margin-Black-S" style="fill:none;stroke:#00AEEF;stroke-width:0.5;opacity:1.0;" x1="2980.3" x2="2980.3" y1="600.785" y2="720.121"/>
 </g>
 <g id="Symbols">
  <g id="Black-S" transform="matrix(1 0 0 1 2886.5 696)">
   <path class="template-0 multicolor-0:tintColor hierarchical-0:primary SFSymbolsPreview007AFF" d="M60.4004-82.0801L47.5586-82.0801Q41.1133-82.0801 37.2803-78.2959Q33.4473-74.5117 33.4473-68.2129L33.4473-59.0332L44.5312-59.0332L44.5312-68.2129Q44.5312-69.7754 45.1904-70.3857Q45.8496-70.9961 47.5586-70.9961L60.4004-70.9961Q66.4551-70.9961 69.7021-67.4561Q72.9492-63.916 72.9492-57.3242L72.9492 5.95703Q72.9492 8.34961 74.5361 9.96094Q76.123 11.5723 78.5156 11.5723Q80.957 11.5723 82.4951 9.93652Q84.0332 8.30078 84.0332 5.95703L84.0332-57.3242Q84.0332-64.8438 81.1279-70.4102Q78.2227-75.9766 72.9248-79.0283Q67.627-82.0801 60.4004-82.0801ZM38.9648-57.5684Q39.9414-57.5684 40.5762-56.958Q41.2109-56.3477 41.2109-55.3711L41.2109-46.3867Q47.9004-45.1172 51.3672-40.8936Q54.834-36.6699 54.834-29.248L64.9902-29.248Q64.9902-37.207 61.377-43.6768Q57.7637-50.1465 51.2695-53.6133L51.2695-55.3711Q51.2695-60.6445 47.8027-64.1357Q44.3359-67.627 38.9648-67.627Q33.5938-67.627 30.127-64.1357Q26.6602-60.6445 26.6602-55.3711L26.6602-53.6133Q20.166-50.1465 16.5527-43.6768Q12.9395-37.207 12.9395-29.248L23.0957-29.248Q23.0957-36.6699 26.5869-40.8936Q30.0781-45.1172 36.7188-46.3867L36.7188-55.3711Q36.7188-56.3477 37.3535-56.958Q37.9883-57.5684 38.9648-57.5684ZM14.7949-33.9844Q12.6953-33.9844 11.2305-32.5195Q9.76562-31.0547 9.76562-28.9551Q9.76562-26.8555 11.2305-25.3906Q12.6953-23.9258 14.7949-23.9258L63.1836-23.9258Q65.2344-23.9258 66.7236-25.3906Q68.2129-26.8555 68.2129-28.9551Q68.2129-31.0547 66.7236-32.5195Q65.2344-33.9844 63.1836-33.9844Z"/>
   <path class="template-1 multicolor-1:tintColor hierarchical-1:secondary SFSymbolsPreview007AFF" d="M52.832-11.9629Q54.6875-11.9629 56.0303-13.3057Q57.373-14.6484 57.373-16.5527Q57.373-18.4082 56.0303-19.751Q54.6875-21.0938 52.832-21.0938Q50.9277-21.0938 49.585-19.751Q48.2422-18.4082 48.2422-16.5527Q48.2422-14.6484 49.585-13.3057Q50.9277-11.9629 52.832-11.9629ZM38.9648-11.9629Q40.8691-11.9629 42.2119-13.3057Q43.5547-14.6484 43.5547-16.5527Q43.5547-18.4082 42.2119-19.751Q40.8691-21.0938 38.9648-21.0938Q37.1094-21.0938 35.7666-19.751Q34.4238-18.4082 34.4238-16.5527Q34.4238-14.6484 35.7666-13.3057Q37.1094-11.9629 38.9648-11.9629ZM25.0977-11.9629Q27.002-11.9629 28.3447-13.3057Q29.6875-14.6484 29.6875-16.5527Q29.6875-18.4082 28.3447-19.751Q27.002-21.0938 25.0977-21.0938Q23.2422-21.0938 21.8994-19.751Q20.5566-18.4082 20.5566-16.5527Q20.5566-14.6484 21.8994-13.3057Q23.2422-11.9629 25.0977-11.9629Z"/>
   <path class="template-2 multicolor-2:tintColor hierarchical-2:secondary SFSymbolsPreview007AFF" d="M52.832-0.439453Q54.7363-0.439453 56.0791-1.78223Q57.4219-3.125 57.4219-5.0293Q57.4219-6.88477 56.0791-8.22754Q54.7363-9.57031 52.832-9.57031Q50.9766-9.57031 49.6338-8.22754Q48.291-6.88477 48.291-5.0293Q48.291-3.125 49.6338-1.78223Q50.9766-0.439453 52.832-0.439453ZM39.0137-0.439453Q40.8691-0.439453 42.2119-1.78223Q43.5547-3.125 43.5547-5.0293Q43.5547-6.88477 42.2119-8.22754Q40.8691-9.57031 39.0137-9.57031Q37.1094-9.57031 35.7666-8.22754Q34.4238-6.88477 34.4238-5.0293Q34.4238-3.125 35.7666-1.78223Q37.1094-0.439453 39.0137-0.439453ZM25.0977-0.439453Q26.9531-0.439453 28.2959-1.78223Q29.6387-3.125 29.6387-5.0293Q29.6387-6.88477 28.2959-8.22754Q26.9531-9.57031 25.0977-9.57031Q23.1934-9.57031 21.8506-8.22754Q20.5078-6.88477 20.5078-5.0293Q20.5078-3.125 21.8506-1.78223Q23.1934-0.439453 25.0977-0.439453Z"/>
   <path class="template-3 multicolor-3:tintColor hierarchical-3:secondary SFSymbolsPreview007AFF" d="M52.832 11.084Q54.7363 11.084 56.0791 9.74121Q57.4219 8.39844 57.4219 6.49414Q57.4219 4.63867 56.0791 3.2959Q54.7363 1.95312 52.832 1.95312Q50.9766 1.95312 49.6338 3.2959Q48.291 4.63867 48.291 6.49414Q48.291 8.39844 49.6338 9.74121Q50.9766 11.084 52.832 11.084ZM39.0137 11.084Q40.8691 11.084 42.2119 9.74121Q43.5547 8.39844 43.5547 6.49414Q43.5547 4.63867 42.2119 3.2959Q40.8691 1.95312 39.0137 1.95312Q37.1094 1.95312 35.7666 3.2959Q34.4238 4.63867 34.4238 6.49414Q34.4238 8.39844 35.7666 9.74121Q37.1094 11.084 39.0137 11.084ZM25.0977 11.084Q26.9531 11.084 28.2959 9.74121Q29.6387 8.39844 29.6387 6.49414Q29.6387 4.63867 28.2959 3.2959Q26.9531 1.95312 25.0977 1.95312Q23.1934 1.95312 21.8506 3.2959Q20.5078 4.63867 20.5078 6.49414Q20.5078 8.39844 21.8506 9.74121Q23.1934 11.084 25.0977 11.084Z"/>
  </g>
  <g id="Regular-S" transform="matrix(1 0 0 1 1407.88 696)">
   <path class="template-0 multicolor-0:tintColor hierarchical-0:primary SFSymbolsPreview007AFF" d="M53.8574-77.6367L43.457-77.6367Q38.2324-77.6367 35.1807-74.6582Q32.1289-71.6797 32.1289-66.5527L32.1289-59.7168L38.7207-59.7168L38.7207-66.5527Q38.7207-68.6523 39.9902-69.8486Q41.2598-71.0449 43.457-71.0449L53.8574-71.0449Q60.2051-71.0449 63.916-67.041Q67.627-63.0371 67.627-56.25L67.627 3.80859Q67.627 5.22461 68.5303 6.17676Q69.4336 7.12891 70.8984 7.12891Q72.3633 7.12891 73.2666 6.17676Q74.1699 5.22461 74.1699 3.80859L74.1699-56.25Q74.1699-62.793 71.7041-67.6025Q69.2383-72.4121 64.6729-75.0244Q60.1074-77.6367 53.8574-77.6367ZM35.4004-58.3008Q37.207-58.3008 38.3301-57.2021Q39.4531-56.1035 39.4531-54.2969L39.4531-47.4121Q45.1172-45.9473 48.7793-41.8701Q52.4414-37.793 52.4414-31.4941L58.2031-31.4941Q58.2031-38.0859 54.5166-43.4082Q50.8301-48.7305 45.1172-51.4648L45.1172-54.2969Q45.1172-58.5449 42.4072-61.2549Q39.6973-63.9648 35.4004-63.9648Q31.1523-63.9648 28.4424-61.2549Q25.7324-58.5449 25.7324-54.2969L25.7324-51.4648Q20.0195-48.7305 16.333-43.4082Q12.6465-38.0859 12.6465-31.4941L18.3594-31.4941Q18.3594-37.793 22.0459-41.8701Q25.7324-45.9473 31.3477-47.4121L31.3477-54.2969Q31.3477-56.1035 32.4707-57.2021Q33.5938-58.3008 35.4004-58.3008ZM12.5977-32.2266Q11.4258-32.2266 10.5957-31.3965Q9.76562-30.5664 9.76562-29.3945Q9.76562-28.2227 10.5957-27.3926Q11.4258-26.5625 12.5977-26.5625L58.252-26.5625Q59.4238-26.5625 60.2539-27.3926Q61.084-28.2227 61.084-29.3945Q61.084-30.5664 60.2539-31.3965Q59.4238-32.2266 58.252-32.2266Z"/>
   <path class="template-1 multicolor-1:tintColor hierarchical-1:secondary SFSymbolsPreview007AFF" d="M48.4375-15.8203Q49.707-15.8203 50.5615-16.7236Q51.416-17.627 51.416-18.8477Q51.416-20.1172 50.5615-20.9717Q49.707-21.8262 48.4375-21.8262Q47.2168-21.8262 46.3135-20.9717Q45.4102-20.1172 45.4102-18.8477Q45.4102-17.627 46.3135-16.7236Q47.2168-15.8203 48.4375-15.8203ZM35.3516-15.8203Q36.6211-15.8203 37.4756-16.7236Q38.3301-17.627 38.3301-18.8477Q38.3301-20.1172 37.4756-20.9717Q36.6211-21.8262 35.3516-21.8262Q34.1309-21.8262 33.252-20.9717Q32.373-20.1172 32.373-18.8477Q32.373-17.627 33.252-16.7236Q34.1309-15.8203 35.3516-15.8203ZM22.2656-15.8203Q23.5352-15.8203 24.3896-16.7236Q25.2441-17.627 25.2441-18.8477Q25.2441-20.1172 24.3896-20.9717Q23.5352-21.8262 22.2656-21.8262Q21.0449-21.8262 20.166-20.9717Q19.2871-20.1172 19.2871-18.8477Q19.2871-17.627 20.166-16.7236Q21.0449-15.8203 22.2656-15.8203Z"/>
   <path class="template-2 multicolor-2:tintColor hierarchical-2:secondary SFSymbolsPreview007AFF" d="M48.4375-5.37109Q49.707-5.37109 50.5615-6.25Q51.416-7.12891 51.416-8.34961Q51.416-9.61914 50.5615-10.4736Q49.707-11.3281 48.4375-11.3281Q47.2168-11.3281 46.3135-10.4736Q45.4102-9.61914 45.4102-8.34961Q45.4102-7.12891 46.3135-6.25Q47.2168-5.37109 48.4375-5.37109ZM35.3516-5.37109Q36.6211-5.37109 37.4756-6.25Q38.3301-7.12891 38.3301-8.34961Q38.3301-9.61914 37.4756-10.4736Q36.6211-11.3281 35.3516-11.3281Q34.1309-11.3281 33.252-10.4736Q32.373-9.61914 32.373-8.34961Q32.373-7.12891 33.252-6.25Q34.1309-5.37109 35.3516-5.37109ZM22.2656-5.37109Q23.5352-5.37109 24.3896-6.25Q25.2441-7.12891 25.2441-8.34961Q25.2441-9.61914 24.3896-10.4736Q23.5352-11.3281 22.2656-11.3281Q21.0449-11.3281 20.166-10.4736Q19.2871-9.61914 19.2871-8.34961Q19.2871-7.12891 20.166-6.25Q21.0449-5.37109 22.2656-5.37109Z"/>
   <path class="template-3 multicolor-3:tintColor hierarchical-3:secondary SFSymbolsPreview007AFF" d="M48.4375 5.12695Q49.707 5.12695 50.5615 4.24805Q51.416 3.36914 51.416 2.09961Q51.416 0.878906 50.5615 0.0244141Q49.707-0.830078 48.4375-0.830078Q47.2168-0.830078 46.3135 0.0244141Q45.4102 0.878906 45.4102 2.09961Q45.4102 3.36914 46.3135 4.24805Q47.2168 5.12695 48.4375 5.12695ZM35.3516 5.12695Q36.6211 5.12695 37.4756 4.24805Q38.3301 3.36914 38.3301 2.09961Q38.3301 0.878906 37.4756 0.0244141Q36.6211-0.830078 35.3516-0.830078Q34.1309-0.830078 33.252 0.0244141Q32.373 0.878906 32.373 2.09961Q32.373 3.36914 33.252 4.24805Q34.1309 5.12695 35.3516 5.12695ZM22.2656 5.12695Q23.5352 5.12695 24.3896 4.24805Q25.2441 3.36914 25.2441 2.09961Q25.2441 0.878906 24.3896 0.0244141Q23.5352-0.830078 22.2656-0.830078Q21.0449-0.830078 20.166 0.0244141Q19.2871 0.878906 19.2871 2.09961Q19.2871 3.36914 20.166 4.24805Q21.0449 5.12695 22.2656 5.12695Z"/>
  </g>
  <g id="Ultralight-S" transform="matrix(1 0 0 1 524.26 696)">
   <path class="template-0 multicolor-0:tintColor hierarchical-0:primary SFSymbolsPreview007AFF" d="M46.2288-72.0062L35.8734-72.0062Q32.6019-72.0062 30.6854-70.1401Q28.7689-68.2739 28.7689-65.0993L28.7689-59.0355L30.9555-59.0355L30.9555-65.0993Q30.9555-67.2897 32.2933-68.5314Q33.6311-69.7731 35.8734-69.7731L46.2288-69.7731Q51.8494-69.7731 55.4016-65.9737Q58.9539-62.1742 58.9539-56.1592L58.9539 0.357819Q58.9539 0.82016 59.2667 1.1364Q59.5795 1.45264 60.0456 1.45264Q60.511 1.45264 60.8242 1.1364Q61.1374 0.82016 61.1374 0.357819L61.1374-56.1592Q61.1374-60.8406 59.2392-64.4012Q57.341-67.9619 53.9787-69.9841Q50.6165-72.0062 46.2288-72.0062ZM29.8607-57.8468Q31.9397-57.8468 33.3805-56.4304Q34.8213-55.014 34.8213-52.9343L34.8213-48.0026Q39.8041-46.5378 42.944-42.3016Q46.0838-38.0653 46.0838-32.811L48.2582-32.811Q48.2582-38.2225 45.0939-42.9089Q41.9296-47.5952 36.9431-49.5575L36.9431-52.9343Q36.9431-55.8655 34.8919-57.917Q32.8407-59.9686 29.8607-59.9686Q26.9295-59.9686 24.8779-57.917Q22.8264-55.8655 22.8264-52.9343L22.8264-49.5575Q17.8398-47.5952 14.6526-42.9089Q11.4655-38.2225 11.4655-32.811L13.6818-32.811Q13.6818-38.0653 16.8465-42.3241Q20.0111-46.5828 24.9451-48.0026L24.9451-52.9343Q24.9451-55.014 26.3634-56.4304Q27.7817-57.8468 29.8607-57.8468ZM10.8269-33.1802Q10.4271-33.1802 10.0964-32.8495Q9.76562-32.5188 9.76562-32.119Q9.76562-31.6734 10.0964-31.3656Q10.4271-31.0577 10.8269-31.0577L48.9426-31.0577Q49.3431-31.0577 49.6735-31.3656Q50.0038-31.6734 50.0038-32.119Q50.0038-32.5188 49.6735-32.8495Q49.3431-33.1802 48.9426-33.1802Z"/>
   <path class="template-1 multicolor-1:tintColor hierarchical-1:secondary SFSymbolsPreview007AFF" d="M41.172-22.0871Q41.9876-22.0871 42.5694-22.6723Q43.1511-23.2574 43.1511-24.115Q43.1511-24.9306 42.5694-25.5127Q41.9876-26.0948 41.172-26.0948Q40.3145-26.0948 39.7289-25.5127Q39.1434-24.9306 39.1434-24.115Q39.1434-23.2574 39.7289-22.6723Q40.3145-22.0871 41.172-22.0871ZM29.8119-22.0871Q30.6725-22.0871 31.2546-22.6723Q31.8367-23.2574 31.8367-24.115Q31.8367-24.9306 31.2546-25.5127Q30.6725-26.0948 29.8119-26.0948Q28.9993-26.0948 28.4157-25.5127Q27.832-24.9306 27.832-24.115Q27.832-23.2574 28.4157-22.6723Q28.9993-22.0871 29.8119-22.0871ZM18.4967-22.0871Q19.3123-22.0871 19.9169-22.6723Q20.5215-23.2574 20.5215-24.115Q20.5215-24.9306 19.9169-25.5127Q19.3123-26.0948 18.4967-26.0948Q17.6849-26.0948 17.1009-25.5127Q16.5169-24.9306 16.5169-24.115Q16.5169-23.2574 17.1009-22.6723Q17.6849-22.0871 18.4967-22.0871Z"/>
   <path class="template-2 multicolor-2:tintColor hierarchical-2:secondary SFSymbolsPreview007AFF" d="M41.172-11.7287Q41.9876-11.7287 42.5694-12.3123Q43.1511-12.896 43.1511-13.7535Q43.1511-14.5691 42.5694-15.1508Q41.9876-15.7326 41.172-15.7326Q40.3145-15.7326 39.7289-15.1508Q39.1434-14.5691 39.1434-13.7535Q39.1434-12.896 39.7289-12.3123Q40.3145-11.7287 41.172-11.7287ZM29.8119-11.7287Q30.6725-11.7287 31.2546-12.3123Q31.8367-12.896 31.8367-13.7535Q31.8367-14.5691 31.2546-15.1508Q30.6725-15.7326 29.8119-15.7326Q28.9993-15.7326 28.4157-15.1508Q27.832-14.5691 27.832-13.7535Q27.832-12.896 28.4157-12.3123Q28.9993-11.7287 29.8119-11.7287ZM18.4967-11.7287Q19.3123-11.7287 19.9169-12.3123Q20.5215-12.896 20.5215-13.7535Q20.5215-14.5691 19.9169-15.1508Q19.3123-15.7326 18.4967-15.7326Q17.6849-15.7326 17.1009-15.1508Q16.5169-14.5691 16.5169-13.7535Q16.5169-12.896 17.1009-12.3123Q17.6849-11.7287 18.4967-11.7287Z"/>
   <path class="template-3 multicolor-3:tintColor hierarchical-3:secondary SFSymbolsPreview007AFF" d="M41.172-1.36642Q41.9876-1.36642 42.5694-1.95045Q43.1511-2.53448 43.1511-3.39508Q43.1511-4.20685 42.5694-4.78897Q41.9876-5.37109 41.172-5.37109Q40.3145-5.37109 39.7289-4.78897Q39.1434-4.20685 39.1434-3.39508Q39.1434-2.53448 39.7289-1.95045Q40.3145-1.36642 41.172-1.36642ZM29.8119-1.36642Q30.6725-1.36642 31.2546-1.95045Q31.8367-2.53448 31.8367-3.39508Q31.8367-4.20685 31.2546-4.78897Q30.6725-5.37109 29.8119-5.37109Q28.9993-5.37109 28.4157-4.78897Q27.832-4.20685 27.832-3.39508Q27.832-2.53448 28.4157-1.95045Q28.9993-1.36642 29.8119-1.36642ZM18.4967-1.36642Q19.3123-1.36642 19.9169-1.95045Q20.5215-2.53448 20.5215-3.39508Q20.5215-4.20685 19.9169-4.78897Q19.3123-5.37109 18.4967-5.37109Q17.6849-5.37109 17.1009-4.78897Q16.5169-4.20685 16.5169-3.39508Q16.5169-2.53448 17.1009-1.95045Q17.6849-1.36642 18.4967-1.36642Z"/>
  </g>
 </g>
</svg>
