<?xml version="1.0" encoding="UTF-8"?>
<!--Generator: Apple Native CoreSVG 175.5-->
<!DOCTYPE svg
PUBLIC "-//W3C//DTD SVG 1.1//EN"
       "http://www.w3.org/Graphics/SVG/1.1/DTD/svg11.dtd">
<svg version="1.1" xmlns="http://www.w3.org/2000/svg" xmlns:xlink="http://www.w3.org/1999/xlink" width="3300" height="2200">
 <!--glyph: "uni100433.medium", point size: 100.0, font version: "18.0d9e1", template writer version: "84"-->
 <g id="Notes">
  <rect height="2200" id="artboard" style="fill:white;opacity:1" width="3300" x="0" y="0"/>
  <line style="fill:none;stroke:black;opacity:1;stroke-width:0.5;" x1="263" x2="3036" y1="292" y2="292"/>
  <text style="stroke:none;fill:black;font-family:sans-serif;font-size:13;font-weight:bold;" transform="matrix(1 0 0 1 263 322)">Weight/Scale Variations</text>
  <text style="stroke:none;fill:black;font-family:sans-serif;font-size:13;text-anchor:middle;" transform="matrix(1 0 0 1 559.711 322)">Ultralight</text>
  <text style="stroke:none;fill:black;font-family:sans-serif;font-size:13;text-anchor:middle;" transform="matrix(1 0 0 1 856.422 322)">Thin</text>
  <text style="stroke:none;fill:black;font-family:sans-serif;font-size:13;text-anchor:middle;" transform="matrix(1 0 0 1 1153.13 322)">Light</text>
  <text style="stroke:none;fill:black;font-family:sans-serif;font-size:13;text-anchor:middle;" transform="matrix(1 0 0 1 1449.84 322)">Regular</text>
  <text style="stroke:none;fill:black;font-family:sans-serif;font-size:13;text-anchor:middle;" transform="matrix(1 0 0 1 1746.56 322)">Medium</text>
  <text style="stroke:none;fill:black;font-family:sans-serif;font-size:13;text-anchor:middle;" transform="matrix(1 0 0 1 2043.27 322)">Semibold</text>
  <text style="stroke:none;fill:black;font-family:sans-serif;font-size:13;text-anchor:middle;" transform="matrix(1 0 0 1 2339.98 322)">Bold</text>
  <text style="stroke:none;fill:black;font-family:sans-serif;font-size:13;text-anchor:middle;" transform="matrix(1 0 0 1 2636.69 322)">Heavy</text>
  <text style="stroke:none;fill:black;font-family:sans-serif;font-size:13;text-anchor:middle;" transform="matrix(1 0 0 1 2933.4 322)">Black</text>
  <line style="fill:none;stroke:black;opacity:1;stroke-width:0.5;" x1="263" x2="3036" y1="1903" y2="1903"/>
  <g transform="matrix(1 0 0 1 263 1933)">
   <path d="M9.24805 0.830078Q10.8691 0.830078 12.2949 0.214844Q13.7207-0.400391 14.8096-1.49414Q15.8984-2.58789 16.5186-4.01367Q17.1387-5.43945 17.1387-7.05078Q17.1387-8.66211 16.5186-10.0879Q15.8984-11.5137 14.8047-12.6074Q13.7109-13.7012 12.2852-14.3164Q10.8594-14.9316 9.23828-14.9316Q7.62695-14.9316 6.20117-14.3164Q4.77539-13.7012 3.69141-12.6074Q2.60742-11.5137 1.9873-10.0879Q1.36719-8.66211 1.36719-7.05078Q1.36719-5.43945 1.9873-4.01367Q2.60742-2.58789 3.69629-1.49414Q4.78516-0.400391 6.21094 0.214844Q7.63672 0.830078 9.24805 0.830078ZM9.24805-0.654297Q7.91992-0.654297 6.7627-1.14746Q5.60547-1.64062 4.73145-2.51953Q3.85742-3.39844 3.36426-4.56055Q2.87109-5.72266 2.87109-7.05078Q2.87109-8.37891 3.35938-9.54102Q3.84766-10.7031 4.72168-11.582Q5.5957-12.4609 6.75293-12.9541Q7.91016-13.4473 9.23828-13.4473Q10.5762-13.4473 11.7383-12.9541Q12.9004-12.4609 13.7793-11.582Q14.6582-10.7031 15.1514-9.54102Q15.6445-8.37891 15.6445-7.05078Q15.6445-5.72266 15.1514-4.56055Q14.6582-3.39844 13.7793-2.51953Q12.9004-1.64062 11.7432-1.14746Q10.5859-0.654297 9.24805-0.654297ZM5.6543-7.05078Q5.6543-6.72852 5.85938-6.52832Q6.06445-6.32812 6.40625-6.32812L8.51562-6.32812L8.51562-4.20898Q8.51562-3.88672 8.71094-3.67676Q8.90625-3.4668 9.23828-3.4668Q9.56055-3.4668 9.77051-3.67676Q9.98047-3.88672 9.98047-4.20898L9.98047-6.32812L12.0898-6.32812Q12.4219-6.32812 12.627-6.52832Q12.832-6.72852 12.832-7.05078Q12.832-7.38281 12.627-7.58789Q12.4219-7.79297 12.0898-7.79297L9.98047-7.79297L9.98047-9.90234Q9.98047-10.2344 9.77051-10.4443Q9.56055-10.6543 9.23828-10.6543Q8.90625-10.6543 8.71094-10.4443Q8.51562-10.2344 8.51562-9.90234L8.51562-7.79297L6.40625-7.79297Q6.06445-7.79297 5.85938-7.58789Q5.6543-7.38281 5.6543-7.05078Z"/>
  </g>
  <g transform="matrix(1 0 0 1 281.867 1933)">
   <path d="M11.709 2.91016Q13.75 2.91016 15.5518 2.12891Q17.3535 1.34766 18.7305-0.0292969Q20.1074-1.40625 20.8887-3.20801Q21.6699-5.00977 21.6699-7.05078Q21.6699-9.0918 20.8887-10.8936Q20.1074-12.6953 18.7305-14.0723Q17.3535-15.4492 15.5469-16.2305Q13.7402-17.0117 11.6992-17.0117Q9.6582-17.0117 7.85645-16.2305Q6.05469-15.4492 4.68262-14.0723Q3.31055-12.6953 2.5293-10.8936Q1.74805-9.0918 1.74805-7.05078Q1.74805-5.00977 2.5293-3.20801Q3.31055-1.40625 4.6875-0.0292969Q6.06445 1.34766 7.86621 2.12891Q9.66797 2.91016 11.709 2.91016ZM11.709 1.25Q9.98047 1.25 8.47656 0.605469Q6.97266-0.0390625 5.83496-1.17676Q4.69727-2.31445 4.05762-3.81836Q3.41797-5.32227 3.41797-7.05078Q3.41797-8.7793 4.05762-10.2832Q4.69727-11.7871 5.83008-12.9297Q6.96289-14.0723 8.4668-14.7119Q9.9707-15.3516 11.6992-15.3516Q13.4277-15.3516 14.9365-14.7119Q16.4453-14.0723 17.583-12.9297Q18.7207-11.7871 19.3652-10.2832Q20.0098-8.7793 20.0098-7.05078Q20.0098-5.32227 19.3701-3.81836Q18.7305-2.31445 17.5879-1.17676Q16.4453-0.0390625 14.9414 0.605469Q13.4375 1.25 11.709 1.25ZM7.17773-7.05078Q7.17773-6.69922 7.41211-6.47461Q7.64648-6.25 8.01758-6.25L10.8887-6.25L10.8887-3.36914Q10.8887-2.99805 11.1133-2.76855Q11.3379-2.53906 11.6895-2.53906Q12.0605-2.53906 12.29-2.76855Q12.5195-2.99805 12.5195-3.36914L12.5195-6.25L15.4004-6.25Q15.7715-6.25 16.001-6.47461Q16.2305-6.69922 16.2305-7.05078Q16.2305-7.42188 16.001-7.65137Q15.7715-7.88086 15.4004-7.88086L12.5195-7.88086L12.5195-10.752Q12.5195-11.1328 12.29-11.3623Q12.0605-11.5918 11.6895-11.5918Q11.3379-11.5918 11.1133-11.3574Q10.8887-11.123 10.8887-10.752L10.8887-7.88086L8.01758-7.88086Q7.63672-7.88086 7.40723-7.65137Q7.17773-7.42188 7.17773-7.05078Z"/>
  </g>
  <g transform="matrix(1 0 0 1 305.646 1933)">
   <path d="M14.9707 5.66406Q17.0605 5.66406 18.96 5.01465Q20.8594 4.36523 22.4512 3.19336Q24.043 2.02148 25.2197 0.429688Q26.3965-1.16211 27.0459-3.06641Q27.6953-4.9707 27.6953-7.05078Q27.6953-9.14062 27.0459-11.04Q26.3965-12.9395 25.2197-14.5312Q24.043-16.123 22.4512-17.2998Q20.8594-18.4766 18.9551-19.126Q17.0508-19.7754 14.9609-19.7754Q12.8711-19.7754 10.9717-19.126Q9.07227-18.4766 7.48535-17.2998Q5.89844-16.123 4.72168-14.5312Q3.54492-12.9395 2.90039-11.04Q2.25586-9.14062 2.25586-7.05078Q2.25586-4.9707 2.90527-3.06641Q3.55469-1.16211 4.72656 0.429688Q5.89844 2.02148 7.49023 3.19336Q9.08203 4.36523 10.9814 5.01465Q12.8809 5.66406 14.9707 5.66406ZM14.9707 3.84766Q13.1641 3.84766 11.5283 3.2959Q9.89258 2.74414 8.53516 1.74805Q7.17773 0.751953 6.17676-0.610352Q5.17578-1.97266 4.62891-3.6084Q4.08203-5.24414 4.08203-7.05078Q4.08203-8.86719 4.62891-10.5029Q5.17578-12.1387 6.17188-13.501Q7.16797-14.8633 8.52539-15.8594Q9.88281-16.8555 11.5186-17.4023Q13.1543-17.9492 14.9609-17.9492Q16.7773-17.9492 18.4131-17.4023Q20.0488-16.8555 21.4111-15.8594Q22.7734-14.8633 23.7744-13.501Q24.7754-12.1387 25.3223-10.5029Q25.8691-8.86719 25.8691-7.05078Q25.8691-5.24414 25.3223-3.6084Q24.7754-1.97266 23.7793-0.610352Q22.7832 0.751953 21.4209 1.74805Q20.0586 2.74414 18.4229 3.2959Q16.7871 3.84766 14.9707 3.84766ZM9.19922-7.05078Q9.19922-6.66992 9.45801-6.4209Q9.7168-6.17188 10.1172-6.17188L14.0625-6.17188L14.0625-2.2168Q14.0625-1.81641 14.3115-1.55762Q14.5605-1.29883 14.9512-1.29883Q15.3516-1.29883 15.6104-1.55273Q15.8691-1.80664 15.8691-2.2168L15.8691-6.17188L19.8242-6.17188Q20.2246-6.17188 20.4785-6.4209Q20.7324-6.66992 20.7324-7.05078Q20.7324-7.46094 20.4785-7.71484Q20.2246-7.96875 19.8242-7.96875L15.8691-7.96875L15.8691-11.9141Q15.8691-12.3242 15.6104-12.583Q15.3516-12.8418 14.9512-12.8418Q14.5605-12.8418 14.3115-12.583Q14.0625-12.3242 14.0625-11.9141L14.0625-7.96875L10.1172-7.96875Q9.70703-7.96875 9.45312-7.71484Q9.19922-7.46094 9.19922-7.05078Z"/>
  </g>
  <text style="stroke:none;fill:black;font-family:sans-serif;font-size:13;font-weight:bold;" transform="matrix(1 0 0 1 263 1953)">Design Variations</text>
  <text style="stroke:none;fill:black;font-family:sans-serif;font-size:13;" transform="matrix(1 0 0 1 263 1971)">Symbols are supported in up to nine weights and three scales.</text>
  <text style="stroke:none;fill:black;font-family:sans-serif;font-size:13;" transform="matrix(1 0 0 1 263 1989)">For optimal layout with text and other symbols, vertically align</text>
  <text style="stroke:none;fill:black;font-family:sans-serif;font-size:13;" transform="matrix(1 0 0 1 263 2007)">symbols with the adjacent text.</text>
  <line style="fill:none;stroke:#00AEEF;stroke-width:0.5;opacity:1.0;" x1="776" x2="776" y1="1919" y2="1933"/>
  <g transform="matrix(1 0 0 1 776 1933)">
   <path d="M3.31055 0.15625Q3.70117 0.15625 3.91602-0.00976562Q4.13086-0.175781 4.26758-0.585938L5.52734-4.0332L11.2891-4.0332L12.5488-0.585938Q12.6855-0.175781 12.9004-0.00976562Q13.1152 0.15625 13.4961 0.15625Q13.8867 0.15625 14.1162-0.0585938Q14.3457-0.273438 14.3457-0.644531Q14.3457-0.869141 14.2383-1.17188L9.6582-13.3691Q9.48242-13.8184 9.17969-14.043Q8.87695-14.2676 8.4082-14.2676Q7.5-14.2676 7.17773-13.3789L2.59766-1.16211Q2.49023-0.859375 2.49023-0.634766Q2.49023-0.263672 2.70996-0.0537109Q2.92969 0.15625 3.31055 0.15625ZM6.00586-5.51758L8.37891-12.0898L8.42773-12.0898L10.8008-5.51758Z"/>
  </g>
  <line style="fill:none;stroke:#00AEEF;stroke-width:0.5;opacity:1.0;" x1="793.197" x2="793.197" y1="1919" y2="1933"/>
  <text style="stroke:none;fill:black;font-family:sans-serif;font-size:13;font-weight:bold;" transform="matrix(1 0 0 1 776 1953)">Margins</text>
  <text style="stroke:none;fill:black;font-family:sans-serif;font-size:13;" transform="matrix(1 0 0 1 776 1971)">Leading and trailing margins on the left and right side of each symbol</text>
  <text style="stroke:none;fill:black;font-family:sans-serif;font-size:13;" transform="matrix(1 0 0 1 776 1989)">can be adjusted by modifying the x-location of the margin guidelines.</text>
  <text style="stroke:none;fill:black;font-family:sans-serif;font-size:13;" transform="matrix(1 0 0 1 776 2007)">Modifications are automatically applied proportionally to all</text>
  <text style="stroke:none;fill:black;font-family:sans-serif;font-size:13;" transform="matrix(1 0 0 1 776 2025)">scales and weights.</text>
  <g transform="matrix(1 0 0 1 1289 1933)">
   <path d="M2.8418 1.86523L4.54102 3.57422Q5.18555 4.22852 5.90332 4.17969Q6.62109 4.13086 7.31445 3.35938L18.0078-8.42773L17.041-9.4043L6.42578 2.27539Q6.16211 2.57812 5.89355 2.61719Q5.625 2.65625 5.27344 2.30469L4.10156 1.14258Q3.75 0.791016 3.79395 0.522461Q3.83789 0.253906 4.14062-0.0195312L15.6152-10.8203L14.6387-11.7871L3.04688-0.898438Q2.30469-0.214844 2.25098 0.498047Q2.19727 1.21094 2.8418 1.86523ZM9.25781-16.3281Q8.94531-16.0254 8.90625-15.6348Q8.86719-15.2441 9.04297-14.9512Q9.21875-14.6777 9.55566-14.541Q9.89258-14.4043 10.3809-14.5215Q11.4746-14.7754 12.5977-14.7314Q13.7207-14.6875 14.7949-13.9844L14.209-12.5293Q13.9551-11.9043 14.0674-11.4404Q14.1797-10.9766 14.5801-10.5664L16.875-8.25195Q17.2363-7.88086 17.5781-7.82227Q17.9199-7.76367 18.3398-7.8418L19.4043-8.03711L20.0684-7.36328L20.0293-6.80664Q20-6.43555 20.1221-6.12305Q20.2441-5.81055 20.6055-5.44922L21.3672-4.70703Q21.7285-4.3457 22.1533-4.33105Q22.5781-4.31641 22.9297-4.66797L25.8398-7.58789Q26.1914-7.93945 26.1816-8.35449Q26.1719-8.76953 25.8105-9.13086L25.0391-9.89258Q24.6875-10.2539 24.3799-10.3857Q24.0723-10.5176 23.7109-10.4883L23.1348-10.4395L22.4902-11.0742L22.7344-12.1973Q22.832-12.6172 22.6953-12.9834Q22.5586-13.3496 22.1191-13.7891L19.9219-15.9766Q18.6719-17.2168 17.2607-17.8369Q15.8496-18.457 14.4189-18.4814Q12.9883-18.5059 11.665-17.959Q10.3418-17.4121 9.25781-16.3281ZM10.752-15.957Q11.6602-16.6211 12.7002-16.9043Q13.7402-17.1875 14.8047-17.085Q15.8691-16.9824 16.8701-16.5137Q17.8711-16.0449 18.7012-15.2051L21.1328-12.793Q21.3086-12.6172 21.3525-12.4512Q21.3965-12.2852 21.3379-12.0312L21.0156-10.5469L22.5195-9.0625L23.5059-9.12109Q23.6914-9.13086 23.7891-9.09668Q23.8867-9.0625 24.0332-8.91602L24.6094-8.33984L22.168-5.89844L21.5918-6.47461Q21.4453-6.62109 21.4062-6.71875Q21.3672-6.81641 21.377-7.01172L21.4453-7.98828L19.9512-9.47266L18.4277-9.21875Q18.1836-9.16992 18.042-9.2041Q17.9004-9.23828 17.7148-9.41406L15.7129-11.416Q15.5176-11.5918 15.4932-11.7529Q15.4688-11.9141 15.5859-12.1875L16.4648-14.2773Q15.293-15.3711 13.8281-15.791Q12.3633-16.2109 10.8398-15.7617Q10.7227-15.7324 10.6885-15.8057Q10.6543-15.8789 10.752-15.957Z"/>
  </g>
  <text style="stroke:none;fill:black;font-family:sans-serif;font-size:13;font-weight:bold;" transform="matrix(1 0 0 1 1289 1953)">Exporting</text>
  <text style="stroke:none;fill:black;font-family:sans-serif;font-size:13;" transform="matrix(1 0 0 1 1289 1971)">Symbols should be outlined when exporting to ensure the</text>
  <text style="stroke:none;fill:black;font-family:sans-serif;font-size:13;" transform="matrix(1 0 0 1 1289 1989)">design is preserved when submitting to Xcode.</text>
  <text id="template-version" style="stroke:none;fill:black;font-family:sans-serif;font-size:13;text-anchor:end;" transform="matrix(1 0 0 1 3036 1933)">Template v.2.0</text>
  <text style="stroke:none;fill:black;font-family:sans-serif;font-size:13;text-anchor:end;" transform="matrix(1 0 0 1 3036 1951)">Requires Xcode 12 or greater</text>
  <text id="descriptive-name" style="stroke:none;fill:black;font-family:sans-serif;font-size:13;text-anchor:end;" transform="matrix(1 0 0 1 3036 1969)">Generated from figure.run</text>
  <text style="stroke:none;fill:black;font-family:sans-serif;font-size:13;text-anchor:end;" transform="matrix(1 0 0 1 3036 1987)">Typeset at 100 points</text>
  <text style="stroke:none;fill:black;font-family:sans-serif;font-size:13;" transform="matrix(1 0 0 1 263 726)">Small</text>
  <text style="stroke:none;fill:black;font-family:sans-serif;font-size:13;" transform="matrix(1 0 0 1 263 1156)">Medium</text>
  <text style="stroke:none;fill:black;font-family:sans-serif;font-size:13;" transform="matrix(1 0 0 1 263 1586)">Large</text>
 </g>
 <g id="Guides">
  <g id="H-reference" style="fill:#27AAE1;stroke:none;" transform="matrix(1 0 0 1 339 696)">
   <path d="M0.993347 0L3.6377 0L29.3282-67.1326L30.0301-67.1326L30.0301-70.459L28.1227-70.459ZM11.6882-24.4797L46.9818-24.4797L46.2311-26.7288L12.4382-26.7288ZM55.1193 0L57.7637 0L30.6381-70.459L29.4327-70.459L29.4327-67.1326Z"/>
  </g>
  <line id="Baseline-S" style="fill:none;stroke:#27AAE1;opacity:1;stroke-width:0.5;" x1="263" x2="3036" y1="696" y2="696"/>
  <line id="Capline-S" style="fill:none;stroke:#27AAE1;opacity:1;stroke-width:0.5;" x1="263" x2="3036" y1="625.541" y2="625.541"/>
  <g id="H-reference" style="fill:#27AAE1;stroke:none;" transform="matrix(1 0 0 1 339 1126)">
   <path d="M0.993347 0L3.6377 0L29.3282-67.1326L30.0301-67.1326L30.0301-70.459L28.1227-70.459ZM11.6882-24.4797L46.9818-24.4797L46.2311-26.7288L12.4382-26.7288ZM55.1193 0L57.7637 0L30.6381-70.459L29.4327-70.459L29.4327-67.1326Z"/>
  </g>
  <line id="Baseline-M" style="fill:none;stroke:#27AAE1;opacity:1;stroke-width:0.5;" x1="263" x2="3036" y1="1126" y2="1126"/>
  <line id="Capline-M" style="fill:none;stroke:#27AAE1;opacity:1;stroke-width:0.5;" x1="263" x2="3036" y1="1055.54" y2="1055.54"/>
  <g id="H-reference" style="fill:#27AAE1;stroke:none;" transform="matrix(1 0 0 1 339 1556)">
   <path d="M0.993347 0L3.6377 0L29.3282-67.1326L30.0301-67.1326L30.0301-70.459L28.1227-70.459ZM11.6882-24.4797L46.9818-24.4797L46.2311-26.7288L12.4382-26.7288ZM55.1193 0L57.7637 0L30.6381-70.459L29.4327-70.459L29.4327-67.1326Z"/>
  </g>
  <line id="Baseline-L" style="fill:none;stroke:#27AAE1;opacity:1;stroke-width:0.5;" x1="263" x2="3036" y1="1556" y2="1556"/>
  <line id="Capline-L" style="fill:none;stroke:#27AAE1;opacity:1;stroke-width:0.5;" x1="263" x2="3036" y1="1485.54" y2="1485.54"/>
  <line id="left-margin" style="fill:none;stroke:#00AEEF;stroke-width:0.5;opacity:1.0;" x1="1396.53" x2="1396.53" y1="1030.79" y2="1150.12"/>
  <line id="right-margin" style="fill:none;stroke:#00AEEF;stroke-width:0.5;opacity:1.0;" x1="1503.16" x2="1503.16" y1="1030.79" y2="1150.12"/>
 </g>
 <g id="Symbols">
  <g id="Black-L" transform="matrix(1 0 0 1 2860.76 1556)">
   <path d="M87.0433-78.9642Q93.4301-78.9642 97.9811-83.5257Q102.532-88.0872 102.532-94.4519Q102.532-100.897 97.9811-105.419Q93.4301-109.941 87.0433-109.941Q80.6202-109.941 76.0879-105.419Q71.5556-100.897 71.5556-94.4519Q71.5556-88.0872 76.0879-83.5257Q80.6202-78.9642 87.0433-78.9642ZM63.3932-20.7011L87.5601-7.08163L72.1638 6.1041Q69.4235 8.4059 69.0772 11.4406Q68.731 14.4753 70.7834 16.7482Q72.8371 19.0431 75.9126 19.1038Q78.9881 19.1644 81.8881 16.725L104.829-2.82743Q107.564-5.16278 107.155-9.08809Q106.747-13.0134 103.53-15.1491L79.2046-31.0479L83.9237-47.5744Q84.2906-48.8776 85.4032-49.0203Q86.5157-49.1629 87.2691-47.9854L94.6077-37.2375Q96.0673-35.0994 98.5518-34.4396Q101.036-33.7799 103.415-34.8009L124.471-44.206Q127.608-45.6424 128.746-48.286Q129.883-50.9296 128.446-53.8267Q127.068-56.6433 124.453-57.4711Q121.838-58.2989 118.722-56.9198L102.713-49.85L91.6488-65.1131Q86.9033-71.5826 80.6938-74.2175Q74.4843-76.8523 65.2448-76.2102L41.8226-74.5458Q38.7659-74.3265 36.7082-72.3785Q34.6506-70.4304 34.2133-67.2336L31.0453-43.5494Q30.5848-40.0542 32.2403-37.7486Q33.8959-35.4431 37.1279-35.0642Q43.737-34.4649 44.7945-41.8134L47.4679-60.3701L56.0965-61.0122Q57.3153-61.1146 58.0889-60.3814Q58.8626-59.6482 58.476-58.3266L53.1015-39.3139Q51.3799-33.2917 52.89-29.8109Q54.4002-26.33 57.4432-24.3373Q60.4861-22.3447 63.3932-20.7011ZM18.7178 36.5187Q21.0127 38.5711 24.0474 38.3643Q27.0821 38.1575 29.6836 35.6353L51.2001 14.338Q52.6816 12.8188 53.2622 11.9398Q53.8427 11.0608 54.7041 8.93592L62.8978-12.3367L59.6835-14.1223Q52.0613-18.2965 48.2868-22.8812L40.9657 3.02852L18.7618 25.0364Q16.0215 27.7171 16.0944 31.0398Q16.1673 34.3626 18.7178 36.5187Z"/>
  </g>
  <g id="Heavy-L" transform="matrix(1 0 0 1 2565.04 1556)">
   <path d="M85.7069-78.4952Q91.9343-78.4952 96.3439-82.92Q100.754-87.3447 100.754-93.5363Q100.754-99.8082 96.3439-104.196Q91.9343-108.583 85.7069-108.583Q79.4707-108.583 75.0683-104.196Q70.6659-99.8082 70.6659-93.5363Q70.6659-87.3447 75.0683-82.92Q79.4707-78.4952 85.7069-78.4952ZM62.6122-21.14L86.7277-7.55042L71.3061 5.65066Q68.638 7.90781 68.3428 10.8102Q68.0476 13.7125 69.9715 15.8476Q71.9011 18.0184 74.8465 18.1005Q77.7919 18.1827 80.6151 15.8061L103.229-3.47435Q105.846-5.7 105.46-9.46783Q105.074-13.2357 101.981-15.2804L77.8627-31.0622L82.5548-47.5087Q82.9536-48.9266 84.1856-49.083Q85.4175-49.2394 86.2399-47.9792L93.4648-37.3902Q94.8742-35.3342 97.2399-34.6949Q99.6057-34.0556 101.897-35.054L122.659-44.3229Q125.677-45.6909 126.765-48.209Q127.853-50.7272 126.479-53.51Q125.156-56.2125 122.657-56.9993Q120.158-57.786 117.17-56.457L101.209-49.4138L90.2032-64.615Q85.5762-70.934 79.5057-73.5189Q73.4352-76.1038 64.3496-75.466L41.2584-73.8243Q38.3202-73.6189 36.3448-71.7461Q34.3693-69.8733 33.9639-66.8045L30.8412-43.4418Q30.3944-40.0927 31.9679-37.8922Q33.5413-35.6917 36.6133-35.3311Q42.9396-34.7593 43.9468-41.788L46.6253-60.2695L55.3007-60.9072Q56.5922-61.0235 57.4419-60.2285Q58.2917-59.4336 57.8682-57.9967L52.5709-39.2378Q50.89-33.3981 52.3547-30.022Q53.8194-26.646 56.7873-24.6988Q59.7553-22.7517 62.6122-21.14ZM18.5899 35.3279Q20.7607 37.2519 23.6631 37.0844Q26.5654 36.917 29.1084 34.4489L50.3165 13.4462Q51.7617 11.9866 52.3263 11.1418Q52.8908 10.297 53.734 8.20845L62.0153-13.2588L59.0801-14.8889Q51.577-19.008 47.9431-23.4741L40.5846 2.57013L18.6615 24.3292Q15.9935 26.947 16.0991 30.1145Q16.2047 33.2821 18.5899 35.3279Z"/>
  </g>
  <g id="Bold-L" transform="matrix(1 0 0 1 2269.62 1556)">
   <path d="M83.9952-77.8368Q90.0228-77.8368 94.2595-82.0925Q98.4961-86.3482 98.4961-92.3247Q98.4961-98.3813 94.2595-102.603Q90.0228-106.826 83.9952-106.826Q77.9895-106.826 73.7484-102.603Q69.5073-98.3813 69.5073-92.3247Q69.5073-86.3482 73.7484-82.0925Q77.9895-77.8368 83.9952-77.8368ZM61.5993-21.6631L85.6011-8.14176L70.186 5.05241Q67.6175 7.2409 67.3726 9.98184Q67.1278 12.7228 68.9052 14.7036Q70.6961 16.7357 73.4839 16.8298Q76.2717 16.9238 78.9878 14.6391L101.172-4.28098Q103.643-6.37592 103.284-9.95152Q102.925-13.5271 99.9854-15.4568L76.1582-31.0701L80.812-47.3871Q81.2492-48.9358 82.6161-49.1077Q83.9829-49.2795 84.8824-47.9268L91.9614-37.545Q93.3093-35.5889 95.5328-34.9764Q97.7563-34.364 99.9403-35.3317L120.311-44.4241Q123.183-45.7076 124.209-48.072Q125.236-50.4365 123.939-53.0808Q122.685-55.6449 120.328-56.3817Q117.972-57.1185 115.137-55.8511L99.2678-48.8535L88.3533-63.9481Q83.8722-70.0826 77.9746-72.6023Q72.077-75.122 63.1984-74.4917L40.5443-72.8808Q37.752-72.6908 35.8766-70.9102Q34.0011-69.1297 33.6341-66.2147L30.5727-43.2812Q30.1414-40.1091 31.6149-38.0354Q33.0883-35.9618 35.968-35.6242Q41.9485-35.0833 42.8942-41.7274L45.5729-60.0795L54.2872-60.7095Q55.6709-60.8412 56.6017-59.9731Q57.5326-59.1051 57.0704-57.5448L51.873-39.1231Q50.2457-33.5064 51.6529-30.2609Q53.06-27.0155 55.9319-25.1259Q58.8039-23.2364 61.5993-21.6631ZM18.436 33.8004Q20.4681 35.5781 23.209 35.4493Q25.95 35.3205 28.4087 32.9291L49.2104 12.3175Q50.6095 10.9271 51.1548 10.1246Q51.7002 9.32206 52.5203 7.2796L60.8943-14.3813L58.29-15.8268Q50.9255-19.8842 47.4757-24.2042L40.0859 1.97169L18.5385 23.3937Q15.9701 25.9197 16.103 28.8988Q16.2359 31.8779 18.436 33.8004Z"/>
  </g>
  <g id="Semibold-L" transform="matrix(1 0 0 1 1973.8 1556)">
   <path d="M82.8151-77.3829Q88.7051-77.3829 92.8225-81.5221Q96.9399-85.6612 96.9399-91.4894Q96.9399-97.3977 92.8225-101.506Q88.7051-105.614 82.8151-105.614Q76.9684-105.614 72.8385-101.506Q68.7086-97.3977 68.7086-91.4894Q68.7086-85.6612 72.8385-81.5221Q76.9684-77.3829 82.8151-77.3829ZM60.901-22.0237L84.8244-8.54942L69.4139 4.63998Q66.9139 6.78114 66.7038 9.41079Q66.4937 12.0404 68.1702 13.915Q69.8653 15.8514 72.5445 15.9537Q75.2237 16.056 77.8659 13.8345L99.7544-4.83707Q102.124-6.84189 101.784-10.285Q101.444-13.728 98.6097-15.5783L74.9832-31.0756L79.6105-47.3032Q80.0742-48.9422 81.5341-49.1247Q82.9939-49.3072 83.9465-47.8906L90.925-37.6517Q92.2305-35.7644 94.3559-35.1705Q96.4813-34.5766 98.5912-35.5232L118.692-44.4938Q121.464-45.7192 122.448-47.9776Q123.431-50.2361 122.188-52.7849Q120.981-55.2536 118.723-55.956Q116.464-56.6584 113.736-55.4333L97.9293-48.4672L87.0779-63.4883Q82.6975-69.4957 76.919-71.9704Q71.1406-74.4451 62.4047-73.8201L40.052-72.2304Q37.3604-72.051 35.5538-70.334Q33.7473-68.617 33.4068-65.808L30.3876-43.1705Q29.9669-40.1204 31.3715-38.1342Q32.7761-36.1479 35.5231-35.8263Q41.2652-35.3067 42.1686-41.6857L44.8474-59.9485L53.5886-60.5732Q55.0357-60.7155 56.0225-59.7971Q57.0093-58.8787 56.5204-57.2332L51.3918-39.044Q49.8015-33.5811 51.169-30.4256Q52.5365-27.2702 55.3422-25.4204Q58.148-23.5706 60.901-22.0237ZM18.33 32.7473Q20.2664 34.4242 22.8961 34.322Q25.5257 34.2199 27.9264 31.8814L48.4478 11.5393Q49.8151 10.1966 50.3473 9.4233Q50.8794 8.64995 51.6836 6.63926L60.1215-15.1552L57.7454-16.4733Q50.4764-20.4882 47.1535-24.7075L39.7422 1.55913L18.4537 22.7487Q15.954 25.2115 16.1057 28.0607Q16.2575 30.9099 18.33 32.7473Z"/>
  </g>
  <g id="Medium-L" transform="matrix(1 0 0 1 1677.76 1556)">
   <path d="M81.9203-77.0388Q87.7059-77.0388 91.7329-81.0895Q95.7599-85.1403 95.7599-90.856Q95.7599-96.6518 91.7329-100.674Q87.7059-104.696 81.9203-104.696Q76.1941-104.696 72.1485-100.674Q68.103-96.6518 68.103-90.856Q68.103-85.1403 72.1485-81.0895Q76.1941-77.0388 81.9203-77.0388ZM60.3716-22.2972L84.2355-8.85853L68.8284 4.32726Q66.3804 6.43253 66.1967 8.97779Q66.0129 11.5231 67.6128 13.317Q69.2354 15.1809 71.8322 15.2894Q74.429 15.398 77.0152 13.2245L98.6792-5.25872Q100.972-7.19521 100.646-10.5378Q100.32-13.8804 97.5667-15.6705L74.0922-31.0797L78.6995-47.2397Q79.1833-48.9471 80.7137-49.1376Q82.244-49.3281 83.2369-47.8632L90.1392-37.7326Q91.4125-35.8975 93.4636-35.3176Q95.5146-34.7378 97.5683-35.6684L117.465-44.5467Q120.16-45.7279 121.112-47.906Q122.063-50.0841 120.86-52.5606Q119.69-54.9569 117.505-55.6332Q115.321-56.3094 112.673-55.1165L96.9144-48.1743L86.1109-63.1397Q81.8067-69.0507 76.1187-71.4913Q70.4306-73.9319 61.8029-73.3108L39.6787-71.7372Q37.0634-71.5658 35.3091-69.8971Q33.5549-68.2283 33.2344-65.4997L30.2473-43.0866Q29.8346-40.1289 31.187-38.209Q32.5393-36.2891 35.1858-35.9796Q40.7471-35.476 41.6184-41.6541L44.2972-59.8491L53.0588-60.4698Q54.5541-60.6202 55.5834-59.6636Q56.6126-58.707 56.1034-56.9969L51.027-38.9841Q49.4647-33.6377 50.8021-30.5505Q52.1395-27.4633 54.8951-25.6436Q57.6507-23.8239 60.3716-22.2972ZM18.2496 31.9489Q20.1135 33.5492 22.6587 33.4673Q25.204 33.3854 27.5607 31.0869L47.8696 10.9493Q49.2129 9.64281 49.735 8.89158Q50.2571 8.14034 51.0491 6.15373L59.5356-15.742L57.3324-16.9636Q50.1358-20.9462 46.9091-25.0892L39.4815 1.2463L18.3894 22.2596Q15.9418 24.6744 16.1078 27.4252Q16.2738 30.176 18.2496 31.9489Z"/>
  </g>
  <g id="Regular-L" transform="matrix(1 0 0 1 1381.93 1556)">
   <path d="M80.7532-76.5898Q86.4027-76.5898 90.3117-80.5254Q94.2207-84.4609 94.2207-90.03Q94.2207-95.679 90.3117-99.5882Q86.4027-103.497 80.7532-103.497Q75.1842-103.497 71.2486-99.5882Q67.3131-95.679 67.3131-90.03Q67.3131-84.4609 71.2486-80.5254Q75.1842-76.5898 80.7532-76.5898ZM59.681-22.6539L83.4674-9.26171L68.0648 3.91936Q65.6846 5.97781 65.5352 8.41301Q65.3858 10.8482 66.8859 12.537Q68.4138 14.3063 70.9032 14.423Q73.3925 14.5397 75.9056 12.4287L97.2767-5.8087Q99.4704-7.65607 99.1627-10.8676Q98.8549-14.0791 96.2061-15.7908L72.9301-31.0851L77.5113-47.1567Q78.0212-48.9534 79.6436-49.1544Q81.2659-49.3555 82.3114-47.8275L89.1141-37.8381Q90.3455-36.0711 92.2996-35.5096Q94.2537-34.948 96.234-35.8578L115.864-44.6157Q118.459-45.7393 119.369-47.8126Q120.279-49.8859 119.128-52.2679Q118.005-54.5699 115.918-55.2121Q113.83-55.8543 111.287-54.7033L95.5906-47.7923L84.8496-62.685Q80.6449-68.4702 75.0747-70.8663Q69.5045-73.2624 61.018-72.6465L39.1918-71.0939Q36.676-70.933 34.9899-69.3272Q33.3038-67.7213 33.0096-65.0976L30.0642-42.9772Q29.6621-40.1401 30.9463-38.3067Q32.2305-36.4732 34.7459-36.1794Q40.0714-35.6969 40.9007-41.6128L43.5797-59.7195L52.3678-60.335Q53.926-60.4959 55.0105-59.4895Q56.095-58.4831 55.5595-56.6887L50.5511-38.9059Q49.0254-33.7116 50.3235-30.7134Q51.6217-27.7153 54.3119-25.9349Q57.002-24.1544 59.681-22.6539ZM18.1447 30.9074Q19.914 32.408 22.3492 32.3525Q24.7844 32.2969 27.0836 30.0507L47.1154 10.1797Q48.4273 8.92042 48.9363 8.19802Q49.4453 7.47562 50.2216 5.52042L58.7713-16.5073L56.7937-17.603Q49.6916-21.5436 46.5904-25.587L39.1416 0.838274L18.3056 21.6217Q15.9259 23.974 16.1105 26.5963Q16.2951 29.2186 18.1447 30.9074Z"/>
  </g>
  <g id="Light-L" transform="matrix(1 0 0 1 1086.44 1556)">
   <path d="M79.2073-75.6356Q84.7042-75.6356 88.5082-79.4566Q92.3122-83.2777 92.3122-88.6941Q92.3122-94.1902 88.5082-97.9946Q84.7042-101.799 79.2073-101.799Q73.7909-101.799 69.9698-97.9946Q66.1488-94.1902 66.1488-88.6941Q66.1488-83.2777 69.9698-79.4566Q73.7909-75.6356 79.2073-75.6356ZM58.6886-22.8828L82.0742-9.73885L66.9197 3.27035Q64.6729 5.19541 64.4759 7.53522Q64.2789 9.87502 65.7597 11.5638Q67.2877 13.3331 69.6913 13.3639Q72.0949 13.3947 74.4553 11.4363L95.3682-6.40031Q97.4663-8.1906 97.1682-11.2875Q96.8701-14.3844 94.3357-16.0008L71.4798-31.0277L76.0036-46.8133Q76.5324-48.6289 78.1644-48.8299Q79.7963-49.031 80.8418-47.503L87.5108-37.7236Q88.7041-36.0137 90.5915-35.4809Q92.4788-34.948 94.3828-35.8196L113.574-44.4057Q116.074-45.4722 116.945-47.4501Q117.817-49.428 116.704-51.7334Q115.638-53.9591 113.637-54.5727Q111.635-55.1864 109.169-54.0736L93.7395-47.277L83.1892-61.9026Q79.0798-67.5733 73.6337-69.9026Q68.1876-72.2319 59.9492-71.6348L38.6002-70.1207Q36.1796-69.9598 34.5509-68.4112Q32.9223-66.8626 32.6469-64.3152L29.7779-42.6908Q29.3758-39.9493 30.6027-38.1826Q31.8297-36.4158 34.2495-36.1413Q39.3653-35.6588 40.1565-41.3838L42.7973-59.1661L51.4899-59.7623Q53.1243-59.9232 54.1803-58.8882Q55.2363-57.8533 54.7197-56.0971L49.8069-38.6959Q48.3382-33.6352 49.5888-30.7325Q50.8393-27.8297 53.4435-26.0971Q56.0477-24.3645 58.6886-22.8828ZM18.0684 29.5142Q19.8377 30.9958 22.1775 30.902Q24.5173 30.8081 26.6828 28.6767L46.2756 9.2447Q47.5493 8.00431 48.0489 7.31061Q48.5484 6.61691 49.3055 4.69986L57.817-17.1563L55.9731-18.1757Q48.9092-22.1163 45.9988-26.0641L38.6263 0.227425L18.2293 20.5911Q15.9833 22.7908 16.101 25.3081Q16.2188 27.8254 18.0684 29.5142Z"/>
  </g>
  <g id="Thin-L" transform="matrix(1 0 0 1 791.345 1556)">
   <path d="M77.1628-74.3735Q82.4577-74.3735 86.1229-78.0431Q89.788-81.7128 89.788-86.9273Q89.788-92.2211 86.1229-95.8868Q82.4577-99.5525 77.1628-99.5525Q71.9482-99.5525 68.2786-95.8868Q64.6089-92.2211 64.6089-86.9273Q64.6089-81.7128 68.2786-78.0431Q71.9482-74.3735 77.1628-74.3735ZM57.376-23.1856L80.2315-10.3699L65.4053 2.41198Q63.3349 4.16063 63.0749 6.37426Q62.8149 8.5879 64.2703 10.2767Q65.7983 12.046 68.0884 11.9631Q70.3785 11.8802 72.5371 10.1237L92.8439-7.18276Q94.8157-8.89756 94.5303-11.8428Q94.2449-14.7881 91.862-16.2786L69.5616-30.9518L74.0095-46.3591Q74.5634-48.1997 76.208-48.4007Q77.8527-48.6018 78.8982-47.0738L85.3904-37.5722Q86.5332-35.9378 88.3323-35.4429Q90.1315-34.948 91.9346-35.7691L110.545-44.1279Q112.919-45.1189 113.74-46.9707Q114.561-48.8224 113.498-51.0264Q112.509-53.1512 110.621-53.7271Q108.733-54.303 106.367-53.2407L91.2912-46.5955L80.9933-60.8678Q77.0098-66.3871 71.7278-68.628Q66.4458-70.8688 58.5357-70.2968L37.8178-68.8336Q35.5231-68.6727 33.9703-67.1998Q32.4176-65.7268 32.1673-63.2804L29.3991-42.3121Q28.997-39.697 30.1483-38.0185Q31.2996-36.3399 33.593-36.0908Q38.4315-35.6083 39.1721-41.081L41.7625-58.4341L50.3287-59.0049Q52.0641-59.1657 53.0824-58.0931Q54.1006-57.0204 53.609-55.3147L48.8225-38.4181Q47.4294-33.5343 48.617-30.7577Q49.8045-27.9812 52.2951-26.3117Q54.7856-24.6422 57.376-23.1856ZM17.9675 27.6715Q19.7367 29.1281 21.9504 28.9836Q24.164 28.8391 26.1527 26.8594L45.1649 8.00804Q46.3881 6.79268 46.8752 6.13693Q47.3622 5.48118 48.0939 3.61461L56.5549-18.0147L54.8879-18.9331Q47.8744-22.8737 45.2164-26.6951L37.9448-0.580472L18.1283 19.2281Q16.0592 21.2259 16.0885 23.6043Q16.1178 25.9827 17.9675 27.6715Z"/>
  </g>
  <g id="Ultralight-L" transform="matrix(1 0 0 1 495.462 1556)">
   <path d="M76.1156-73.727Q81.3071-73.727 84.9011-77.3191Q88.4951-80.9112 88.4951-86.0224Q88.4951-91.2125 84.9011-94.8072Q81.3071-98.4019 76.1156-98.4019Q71.0044-98.4019 67.4123-94.8072Q63.8202-91.2125 63.8202-86.0224Q63.8202-80.9112 67.4123-77.3191Q71.0044-73.727 76.1156-73.727ZM56.7037-23.3407L79.2877-10.6931L64.6296 1.97233Q62.6496 3.63061 62.3573 5.77963Q62.0651 7.92864 63.5074 9.61746Q65.0354 11.3867 67.2674 11.2456Q69.4995 11.1045 71.5547 9.45144L91.5511-7.58353Q93.4581-9.25967 93.1792-12.1273Q92.9003-14.9949 90.595-16.4208L68.5791-30.9129L72.9881-46.1264Q73.5548-47.9799 75.206-48.1809Q76.8572-48.382 77.9027-46.854L84.3043-37.4947Q85.4212-35.899 87.1752-35.4235Q88.9292-34.948 90.6806-35.7433L108.993-43.9856Q111.302-44.938 112.098-46.7251Q112.893-48.5123 111.856-50.6643Q110.906-52.7374 109.076-53.294Q107.246-53.8506 104.931-52.814L90.0372-46.2464L79.8685-60.3378Q75.9495-65.7796 70.7516-67.9751Q65.5537-70.1707 57.8117-69.6115L37.417-68.1743Q35.1868-68.0135 33.673-66.5793Q32.1591-65.1451 31.9216-62.7504L29.2052-42.1181Q28.8031-39.5677 29.9156-37.9344Q31.028-36.3011 33.2568-36.065Q37.9531-35.5825 38.668-40.9259L41.2325-58.0592L49.734-58.617Q51.5211-58.7778 52.52-57.6858Q53.5189-56.5938 53.0401-54.9139L48.3184-38.2758Q46.9639-33.4826 48.1192-30.7707Q49.2745-28.0587 51.7068-26.4216Q54.1392-24.7845 56.7037-23.3407ZM17.9158 26.7277Q19.685 28.1715 21.834 28.001Q23.9831 27.8305 25.8812 25.9287L44.596 7.37463Q45.7934 6.17208 46.274 5.53578Q46.7547 4.89947 47.4733 3.05874L55.9084-18.4543L54.332-19.3211Q47.3444-23.2617 44.8156-27.0184L37.5957-0.994273L18.0766 18.53Q16.0981 20.4243 16.0821 22.7316Q16.0661 25.0389 17.9158 26.7277Z"/>
  </g>
  <g id="Black-M" transform="matrix(1 0 0 1 2876.43 1126)">
   <path d="M68.3752-69.3863Q73.4396-69.3863 77.0728-73.0223Q80.7061-76.6583 80.7061-81.7175Q80.7061-86.839 77.0728-90.4437Q73.4396-94.0484 68.3752-94.0484Q63.2589-94.0484 59.6515-90.4437Q56.044-86.839 56.044-81.7175Q56.044-76.6583 59.6515-73.0223Q63.2589-69.3863 68.3752-69.3863ZM49.6501-23.6275L68.3631-13.0839L56.4903-2.90486Q54.3233-1.10125 54.0047 1.35068Q53.6862 3.80262 55.3842 5.68198Q57.0818 7.56655 59.5648 7.58345Q62.0477 7.60035 64.3396 5.67706L82.3314-9.65044Q84.5394-11.5463 84.2044-14.7072Q83.8693-17.8681 81.2873-19.588L62.3198-31.9698L65.9914-44.8036Q66.2508-45.7172 67.0114-45.8159Q67.7721-45.9145 68.2965-45.0733L74.0616-36.6384Q75.2303-34.9191 77.2483-34.3943Q79.2663-33.8695 81.1728-34.6748L97.6795-42.0552Q100.199-43.219 101.118-45.362Q102.038-47.505 100.874-49.8373Q99.7677-52.1072 97.6534-52.78Q95.5391-53.4527 93.0251-52.3463L80.6173-46.8618L72.0216-58.7036Q68.2561-63.8297 63.3427-65.9049Q58.4293-67.9801 51.1724-67.4814L32.8065-66.1776Q30.3494-65.9959 28.6923-64.4297Q27.0353-62.8635 26.6716-60.2873L24.1887-41.729Q23.8201-38.9084 25.1656-37.041Q26.5111-35.1735 29.1395-34.8669Q34.4746-34.3789 35.3318-40.3211L37.3936-54.7183L44.0254-55.2171Q44.9174-55.2846 45.4475-54.7657Q45.9776-54.2469 45.7125-53.3272L41.4952-38.4309Q40.134-33.6264 41.3366-30.8525Q42.5393-28.0787 44.9496-26.5022Q47.3599-24.9258 49.6501-23.6275ZM14.6011 21.1915Q16.4856 22.8894 18.9376 22.6901Q21.3895 22.4909 23.4371 20.5058L40.3124 3.81227Q41.4863 2.58673 41.9485 1.88022Q42.4108 1.17371 43.0912-0.49867L49.3587-16.789L46.6467-18.2956Q40.6443-21.577 37.625-25.2179L31.9956-5.27821L14.6115 11.9291Q12.4445 14.0393 12.4637 16.7328Q12.4829 19.4263 14.6011 21.1915Z"/>
  </g>
  <g id="Heavy-M" transform="matrix(1 0 0 1 2580.58 1126)">
   <path d="M67.2114-69.0159Q72.1341-69.0159 75.6387-72.5288Q79.1434-76.0417 79.1434-80.9456Q79.1434-85.9119 75.6387-89.3948Q72.1341-92.8776 67.2114-92.8776Q62.2638-92.8776 58.7727-89.3948Q55.2817-85.9119 55.2817-80.9456Q55.2817-76.0417 58.7727-72.5288Q62.2638-69.0159 67.2114-69.0159ZM48.9782-24.0355L67.6779-13.4982L55.7575-3.28825Q53.6488-1.51599 53.3845 0.815367Q53.1202 3.14672 54.6943 4.89134Q56.2707 6.65464 58.6343 6.70045Q60.998 6.74626 63.229 4.87036L80.9439-10.2283Q83.0447-12.0221 82.7312-15.0397Q82.4177-18.0572 79.9453-19.697L61.1419-31.989L64.7923-44.771Q65.0812-45.795 65.9576-45.9072Q66.8341-46.0193 67.4259-45.0972L73.0922-36.7983Q74.2154-35.154 76.1234-34.6465Q78.0314-34.139 79.8603-34.9257L96.1195-42.1887Q98.5318-43.291 99.4058-45.3202Q100.28-47.3493 99.1753-49.577Q98.1167-51.7424 96.1082-52.3776Q94.0997-53.0129 91.7037-51.952L79.3183-46.4828L70.7616-58.2889Q67.1032-63.2784 62.3142-65.3109Q57.5252-67.3435 50.3959-66.8473L32.3095-65.5621Q29.9595-65.3939 28.3775-63.896Q26.7955-62.3982 26.4613-59.9399L24.0156-41.6502Q23.6604-38.9637 24.9309-37.1928Q26.2014-35.4219 28.6823-35.1313Q33.7602-34.6703 34.5718-40.3174L36.642-54.6711L43.3284-55.1673Q44.2844-55.2483 44.8916-54.6717Q45.4987-54.0951 45.1957-53.0593L41.0451-38.3758Q39.7186-33.7375 40.8811-31.0572Q42.0437-28.377 44.3886-26.8406Q46.7335-25.3042 48.9782-24.0355ZM14.483 20.1559Q16.2463 21.73 18.5777 21.5728Q20.9091 21.4156 22.9118 19.4728L39.5261 3.02674Q40.668 1.85764 41.1155 1.18192Q41.563 0.5062 42.2273-1.13411L48.5841-17.6305L46.1326-18.9922Q40.243-22.2196 37.3436-25.7534L31.6705-5.66997L14.5204 11.3329Q12.4117 13.3957 12.4692 15.9471Q12.5266 18.4985 14.483 20.1559Z"/>
  </g>
  <g id="Bold-M" transform="matrix(1 0 0 1 2284.83 1126)">
   <path d="M65.9095-68.6016Q70.6736-68.6016 74.0344-71.9767Q77.3952-75.3519 77.3952-80.0822Q77.3952-84.8748 74.0344-88.2214Q70.6736-91.5679 65.9095-91.5679Q61.1506-91.5679 57.7897-88.2214Q54.4289-84.8748 54.4289-80.0822Q54.4289-75.3519 57.7897-71.9767Q61.1506-68.6016 65.9095-68.6016ZM48.2265-24.4918L66.9114-13.9616L54.9377-3.71713Q52.8942-1.97993 52.6906 0.21654Q52.487 2.41301 53.9226 4.00689Q55.3633 5.63453 57.5935 5.71268Q59.8237 5.79084 61.9867 3.96796L79.3917-10.8746Q81.3726-12.5544 81.0832-15.4116Q80.7937-18.2688 78.444-19.8189L59.8241-32.0106L63.4509-44.7346Q63.7727-45.882 64.7788-46.0093Q65.7848-46.1365 66.452-45.124L72.0078-36.9771Q73.0801-35.4167 74.865-34.9286Q76.65-34.4405 78.3921-35.2064L94.3745-42.3381Q96.667-43.3715 97.49-45.2734Q98.313-47.1752 97.2745-49.2859Q96.2698-51.3343 94.3796-51.9276Q92.4895-52.5209 90.2256-51.5109L77.8651-46.0589L69.3522-57.8249Q65.8135-62.6616 61.1637-64.6465Q56.5139-66.6313 49.5273-66.1379L31.7536-64.8737Q29.5233-64.7205 28.0253-63.299Q26.5273-61.8776 26.2261-59.5513L23.8219-41.562Q23.4819-39.0255 24.6684-37.3626Q25.8549-35.6997 28.1707-35.4271Q32.961-34.9961 33.7217-40.3132L35.8013-54.6183L42.5486-55.1116Q43.5764-55.2077 44.2697-54.5665Q44.963-53.9254 44.6176-52.7596L40.5417-38.3142Q39.2538-33.8617 40.3716-31.2862Q41.4893-28.7107 43.761-27.2192Q46.0328-25.7276 48.2265-24.4918ZM14.351 18.9975Q15.9787 20.4331 18.1751 20.3229Q20.3716 20.2127 22.3242 18.3173L38.6466 2.14802Q39.7526 1.04204 40.1836 0.400769Q40.6146-0.240502 41.261-1.84495L47.7175-18.5719L45.5574-19.7714Q39.7942-22.9385 37.0288-26.3525L31.3069-6.1082L14.4185 10.666Q12.3751 12.6758 12.4753 15.0682Q12.5754 17.4607 14.351 18.9975Z"/>
  </g>
  <g id="Semibold-M" transform="matrix(1 0 0 1 1988.79 1126)">
   <path d="M65.012-68.316Q69.6668-68.316 72.9284-71.5961Q76.1901-74.8763 76.1901-79.487Q76.1901-84.1598 72.9284-87.4124Q69.6668-90.665 65.012-90.665Q60.3832-90.665 57.1121-87.4124Q53.841-84.1598 53.841-79.487Q53.841-74.8763 57.1121-71.5961Q60.3832-68.316 65.012-68.316ZM47.7083-24.8064L66.3829-14.2811L54.3726-4.0128Q52.374-2.29977 52.2123-0.196287Q52.0505 1.9072 53.3906 3.39716Q54.7378 4.93128 56.876 5.03172Q59.0142 5.13217 61.1302 3.34585L78.3216-11.3202Q80.22-12.9214 79.9471-15.668Q79.6742-18.4146 77.4091-19.9029L58.9157-32.0254L62.5262-44.7095Q62.8707-45.942 63.9661-46.0796Q65.0614-46.2173 65.7806-45.1424L71.2603-37.1003Q72.2974-35.5978 73.9975-35.123Q75.6976-34.6483 77.3799-35.3999L93.1715-42.4411Q95.3813-43.4271 96.1693-45.2411Q96.9572-47.0551 95.9642-49.0852Q94.9965-51.053 93.188-51.6173Q91.3794-52.1817 89.2065-51.2069L76.8633-45.7667L68.3805-57.5051Q64.9244-62.2364 60.3705-64.1884Q55.8167-66.1403 48.9285-65.6489L31.3703-64.399Q29.2226-64.2563 27.7825-62.8875Q26.3424-61.5187 26.0639-59.2835L23.6884-41.5013Q23.3588-39.0682 24.4874-37.4797Q25.6161-35.8912 27.8181-35.631Q32.41-35.2208 33.1356-40.3104L35.2216-54.5819L42.0111-55.0732Q43.0884-55.1797 43.8411-54.494Q44.5938-53.8084 44.2191-52.553L40.1946-38.2717Q38.9334-33.9473 40.0203-31.444Q41.1071-28.9407 43.3284-27.4801Q45.5497-26.0195 47.7083-24.8064ZM14.26 18.1989Q15.7941 19.539 17.8976 19.4612Q20.0011 19.3834 21.9191 17.5207L38.0403 1.54223Q39.1216 0.479772 39.5412-0.137751Q39.9608-0.755274 40.5948-2.335L47.1201-19.2209L45.1609-20.3086Q39.4847-23.4341 36.8118-26.7655L31.0562-6.41032L14.3483 10.2062Q12.3499 12.1794 12.4795 14.4623Q12.6091 16.7452 14.26 18.1989Z"/>
  </g>
  <g id="Medium-M" transform="matrix(1 0 0 1 1692.58 1126)">
   <path d="M64.3315-68.0994Q68.9034-68.0994 72.0898-71.3075Q75.2763-74.5157 75.2763-79.0356Q75.2763-83.6177 72.0898-86.7991Q68.9034-89.9804 64.3315-89.9804Q59.8013-89.9804 56.5982-86.7991Q53.3952-83.6177 53.3952-79.0356Q53.3952-74.5157 56.5982-71.3075Q59.8013-68.0994 64.3315-68.0994ZM47.3154-25.045L65.9823-14.5233L53.9441-4.23698Q51.9796-2.54229 51.8496-0.50931Q51.7196 1.52367 52.9872 2.93484Q54.2635 4.39804 56.3319 4.51539Q58.4004 4.63275 60.4808 2.87414L77.5102-11.6581Q79.3459-13.1997 79.0856-15.8624Q78.8253-18.5252 76.6243-19.9667L58.2269-32.0367L61.825-44.6905Q62.1868-45.9875 63.3499-46.133Q64.5129-46.2785 65.2715-45.1564L70.6934-37.1938Q71.7039-35.7351 73.3397-35.2705Q74.9755-34.8059 76.6124-35.5466L92.2593-42.5192Q94.4065-43.4692 95.1678-45.2167Q95.9291-46.9641 94.9706-48.933Q94.0311-50.8397 92.2844-51.3821Q90.5378-51.9245 88.4339-50.9763L76.1037-45.5451L67.6437-57.2626Q64.2502-61.914 59.7691-63.8411Q55.2881-65.7681 48.4744-65.2782L31.0797-64.0391Q28.9946-63.9042 27.5984-62.5754Q26.2022-61.2465 25.9409-59.0803L23.5872-41.4552Q23.2654-39.1005 24.3502-37.5684Q25.435-36.0364 27.5507-35.7856Q31.9923-35.3912 32.6912-40.3082L34.7821-54.5543L41.6035-55.0441Q42.7183-55.1584 43.516-54.439Q44.3137-53.7196 43.917-52.3963L39.9314-38.2395Q38.6905-34.0123 39.7539-31.5637Q40.8173-29.1152 43.0004-27.678Q45.1834-26.2408 47.3154-25.045ZM14.191 17.5933Q15.6542 18.8611 17.6872 18.8078Q19.7201 18.7546 21.6119 16.9166L37.5805 1.0829Q38.6431 0.0534368 39.0541-0.546079Q39.4651-1.1456 40.0897-2.70657L46.6672-19.7129L44.8602-20.7159Q39.2501-23.8099 36.6473-27.0787L30.8662-6.63939L14.295 9.85755Q12.3307 11.8031 12.4827 14.0029Q12.6347 16.2027 14.191 17.5933Z"/>
  </g>
  <g id="Regular-M" transform="matrix(1 0 0 1 1396.53 1126)">
   <path d="M63.4438-67.8169Q67.9077-67.8169 70.996-70.9311Q74.0843-74.0454 74.0843-78.4469Q74.0843-82.9106 70.996-85.999Q67.9077-89.0875 63.4438-89.0875Q59.0423-89.0875 55.928-85.999Q52.8138-82.9106 52.8138-78.4469Q52.8138-74.0454 55.928-70.9311Q59.0423-67.8169 63.4438-67.8169ZM46.8029-25.3562L65.4596-14.8393L53.3851-4.5294Q51.4651-2.85861 51.3765-0.917601Q51.2879 1.02341 52.461 2.33181Q53.6448 3.70251 55.6223 3.84192Q57.5998 3.98132 59.6338 2.25887L76.4519-12.0988Q78.2059-13.5626 77.962-16.116Q77.7181-18.6694 75.6007-20.0498L57.3285-32.0514L60.9104-44.6657Q61.2947-46.0469 62.5461-46.2026Q63.7975-46.3584 64.6075-45.1746L69.9541-37.3157Q70.9299-35.9143 72.4818-35.4628Q74.0337-35.0114 75.6114-35.738L91.0695-42.6211Q93.135-43.5241 93.8616-45.1848Q94.5881-46.8454 93.6747-48.7345Q92.7718-50.5614 91.1059-51.0752Q89.4399-51.589 87.426-50.6756L75.1129-45.256L66.6827-56.9463Q63.3709-61.4935 58.9847-63.388Q54.5985-65.2825 47.8822-64.7945L30.7007-63.5697Q28.6973-63.4451 27.3583-62.1683Q26.0193-60.8916 25.7806-58.8154L23.4552-41.3951Q23.1437-39.1427 24.1712-37.6842Q25.1987-36.2258 27.202-35.9872Q31.4473-35.6134 32.1116-40.3054L34.2089-54.5183L41.0719-55.0061Q42.2355-55.1308 43.092-54.3673Q43.9485-53.6039 43.5228-52.192L39.5882-38.1975Q38.3736-34.097 39.4065-31.7198Q40.4393-29.3427 42.5725-27.9361Q44.7056-26.5295 46.8029-25.3562ZM14.101 16.8035Q15.4717 17.9768 17.4127 17.9556Q19.3537 17.9345 21.2112 16.1288L36.9808 0.483764Q38.0189-0.502652 38.4187-1.07868Q38.8184-1.65471 39.4308-3.19123L46.0764-20.3548L44.468-21.2472Q38.944-24.3001 36.4327-27.4871L30.6183-6.93819L14.2256 9.40281Q12.3058 11.3122 12.4869 13.4036Q12.668 15.4951 14.101 16.8035Z"/>
  </g>
  <g id="Light-M" transform="matrix(1 0 0 1 1100.92 1126)">
   <path d="M62.0579-66.9613Q66.3849-66.9613 69.3791-69.9729Q72.3732-72.9846 72.3732-77.2493Q72.3732-81.5758 69.3791-84.5702Q66.3849-87.5647 62.0579-87.5647Q57.7931-87.5647 54.7815-84.5702Q51.7699-81.5758 51.7699-77.2493Q51.7699-72.9846 54.7815-69.9729Q57.7931-66.9613 62.0579-66.9613ZM45.9131-25.5614L64.2105-15.267L52.3585-5.11127Q50.5581-3.56008 50.4268-1.70459Q50.2955 0.150896 51.4514 1.45929Q52.6352 2.83 54.5357 2.89236Q56.4363 2.95472 58.3335 1.3691L74.7408-12.6292Q76.4092-14.0418 76.1739-16.4925Q75.9386-18.9431 73.9239-20.2381L56.0282-31.9999L59.5587-44.3578Q59.9599-45.7559 61.22-45.9117Q62.48-46.0675 63.29-44.8837L68.5167-37.2131Q69.4582-35.8628 70.9503-35.4371Q72.4424-35.0114 73.9517-35.7038L89.0163-42.4328Q90.9961-43.2846 91.6885-44.8598Q92.3808-46.4349 91.5016-48.2552Q90.6502-50.0138 89.0611-50.502Q87.4721-50.9902 85.5266-50.111L73.4533-44.7941L65.1941-56.2448Q61.9677-60.6894 57.6927-62.524Q53.4178-64.3585 46.924-63.8875L30.1703-62.6972Q28.2522-62.5726 26.9647-61.3471Q25.6772-60.1217 25.4554-58.1139L23.1985-41.1384Q22.8869-38.9716 23.8631-37.573Q24.8394-36.1743 26.7569-35.953Q30.8143-35.5792 31.4444-40.1001L33.5074-54.0221L40.2847-54.4927Q41.5168-54.6173 42.3477-53.8283Q43.1786-53.0393 42.7699-51.6616L38.9209-38.0092Q37.7575-34.0285 38.7477-31.7369Q39.7379-29.4453 41.794-28.0816Q43.8501-26.7178 45.9131-25.5614ZM14.0326 15.5544Q15.4033 16.7107 17.2587 16.6552Q19.1142 16.5997 20.8519 14.8969L36.2279-0.354541Q37.2318-1.324 37.6231-1.87429Q38.0143-2.42459 38.6095-3.9269L45.2208-20.9367L43.7324-21.7606Q38.2426-24.8135 35.9023-27.9149L30.1563-7.48585L14.1572 8.47884Q12.3572 10.2514 12.4784 12.2487Q12.5995 14.246 14.0326 15.5544Z"/>
  </g>
  <g id="Thin-M" transform="matrix(1 0 0 1 805.654 1126)">
   <path d="M60.2248-65.8298Q64.3708-65.8298 67.2405-68.7057Q70.1102-71.5816 70.1102-75.6653Q70.1102-79.8105 67.2405-82.6805Q64.3708-85.5506 60.2248-85.5506Q56.1411-85.5506 53.2652-82.6805Q50.3893-79.8105 50.3893-75.6653Q50.3893-71.5816 53.2652-68.7057Q56.1411-65.8298 60.2248-65.8298ZM44.7364-25.8329L62.5585-15.8328L51.0008-5.88084Q49.3585-4.48782 49.1707-2.74545Q48.9829-1.00308 50.116 0.305322Q51.2998 1.67603 53.0987 1.63649Q54.8976 1.59695 56.6137 0.192319L72.4777-13.3308Q74.0328-14.6757 73.8089-16.9904Q73.585-19.3051 71.706-20.4872L54.3084-31.9319L57.7709-43.9506Q58.1946-45.3712 59.466-45.5269Q60.7374-45.6827 61.5474-44.4989L66.6155-37.0773Q67.5119-35.7947 68.9249-35.4031Q70.3379-35.0114 71.7567-35.6585L86.3007-42.1837Q88.1673-42.9679 88.8144-44.4299Q89.4615-45.8919 88.6275-47.6214Q87.8442-49.2894 86.3568-49.7438Q84.8695-50.1982 83.0145-49.3642L71.2583-44.183L63.2253-55.3171Q60.1118-59.626 55.984-61.3812Q51.8562-63.1365 45.6567-62.6879L29.4688-61.5432Q27.6637-61.4186 26.4442-60.261Q25.2248-59.1035 25.0254-57.1862L22.8589-40.7989Q22.5474-38.7454 23.4557-37.4258Q24.3641-36.1063 26.1683-35.9077Q29.9771-35.5339 30.5619-39.8286L32.5797-53.3659L39.2437-53.8136Q40.5663-53.9382 41.3633-53.1154Q42.1604-52.2925 41.7741-50.9601L38.0384-37.7601Q36.9427-33.9381 37.8764-31.7596Q38.8101-29.5811 40.7643-28.2739Q42.7186-26.9668 44.7364-25.8329ZM13.9421 13.9023Q15.3128 15.0362 17.0551 14.9353Q18.7975 14.8343 20.3766 13.2677L35.2321-1.46327Q36.1908-2.41029 36.5708-2.92656Q36.9509-3.44283 37.5232-4.89989L44.0893-21.7062L42.7594-22.4397Q37.3148-25.4926 35.2008-28.4807L29.5452-8.21017L14.0667 7.25681Q12.4253 8.84835 12.4672 10.7211Q12.5091 12.5939 13.9421 13.9023Z"/>
  </g>
  <g id="Ultralight-M" transform="matrix(1 0 0 1 509.685 1126)">
   <path d="M59.2859-65.2502Q63.3393-65.2502 66.1451-68.0566Q68.951-70.8629 68.951-74.854Q68.951-78.9063 66.1451-81.7127Q63.3393-84.519 59.2859-84.519Q55.2949-84.519 52.4885-81.7127Q49.6822-78.9063 49.6822-74.854Q49.6822-70.8629 52.4885-68.0566Q55.2949-65.2502 59.2859-65.2502ZM44.1336-25.972L61.7123-16.1226L50.3053-6.27501Q48.7441-4.963 48.5274-3.27857Q48.3107-1.59413 49.4321-0.285737Q50.6159 1.08497 52.3627 0.993235Q54.1094 0.901503 55.7329-0.410425L71.3186-13.6901Q72.8156-15.0003 72.5976-17.2454Q72.3795-19.4905 70.5701-20.6147L53.4276-31.897L56.8552-43.742Q57.2903-45.1741 58.5676-45.3298Q59.8449-45.4856 60.6549-44.3018L65.6418-37.0078Q66.515-35.7599 67.8875-35.3857Q69.26-35.0114 70.6324-35.6354L84.9098-42.0562Q86.7184-42.8057 87.3423-44.2097Q87.9662-45.6138 87.1554-47.2968Q86.4069-48.9184 84.9717-49.3555Q83.5364-49.7926 81.7278-48.9817L70.134-43.8701L62.2169-54.8419Q59.1612-59.0812 55.1088-60.7959Q51.0564-62.5106 45.0076-62.0735L29.1094-60.9522Q27.3622-60.8275 26.1776-59.7047Q24.993-58.5819 24.8051-56.711L22.685-40.6249Q22.3735-38.6295 23.2471-37.3505Q24.1207-36.0714 25.8669-35.8846Q29.5482-35.5107 30.1098-39.6896L32.1045-53.0298L38.7105-53.4658Q40.0794-53.5904 40.8591-52.7502Q41.6389-51.91 41.2641-50.6008L37.5864-37.6326Q36.5254-33.8917 37.4302-31.7711Q38.3349-29.6506 40.237-28.3725Q42.139-27.0944 44.1336-25.972ZM13.8957 13.0561Q15.2664 14.1786 16.9508 14.0543Q18.6353 13.9301 20.1332 12.4332L34.7221-2.03115Q35.6575-2.96668 36.0318-3.46552Q36.4062-3.96436 36.9668-5.39825L43.5097-22.1004L42.261-22.7875Q36.8396-25.8404 34.8415-28.7704L29.2323-8.58116L14.0203 6.63089Q12.4601 8.12973 12.4614 9.93873Q12.4627 11.7477 13.8957 13.0561Z"/>
  </g>
  <g id="Black-S" transform="matrix(1 0 0 1 2888.55 696)">
   <path d="M53.8574-62.0605Q57.8613-62.0605 60.7422-64.9414Q63.623-67.8223 63.623-71.8262Q63.623-75.8789 60.7422-78.7354Q57.8613-81.5918 53.8574-81.5918Q49.8047-81.5918 46.9482-78.7354Q44.0918-75.8789 44.0918-71.8262Q44.0918-67.8223 46.9482-64.9414Q49.8047-62.0605 53.8574-62.0605ZM39.0625-26.0254L53.7109-17.7734L44.4336-9.81445Q42.7246-8.39844 42.4561-6.44531Q42.1875-4.49219 43.5547-2.97852Q44.9219-1.46484 46.8994-1.46484Q48.877-1.46484 50.6836-2.97852L64.8438-15.0391Q66.6016-16.5527 66.333-19.0674Q66.0645-21.582 64.0137-22.9492L49.1211-32.666L52.002-42.7246Q52.1973-43.4082 52.7588-43.4814Q53.3203-43.5547 53.7109-42.9199L58.252-36.2793Q59.1797-34.9121 60.791-34.4971Q62.4023-34.082 63.916-34.7168L76.9043-40.5273Q78.9062-41.4551 79.6387-43.1641Q80.3711-44.873 79.4434-46.7285Q78.5645-48.5352 76.8799-49.0723Q75.1953-49.6094 73.1934-48.7305L63.4766-44.4336L56.7383-53.7109Q53.7598-57.7637 49.8779-59.3994Q45.9961-61.0352 40.2832-60.6445L25.8301-59.6191Q23.877-59.4727 22.5586-58.2275Q21.2402-56.9824 20.9473-54.9316L18.9941-40.332Q18.7012-38.0859 19.7754-36.5967Q20.8496-35.1074 22.9492-34.8633Q27.1973-34.4727 27.8809-39.209L29.4922-50.4883L34.668-50.8789Q35.3516-50.9277 35.7422-50.5371Q36.1328-50.1465 35.9375-49.4629L32.6172-37.7441Q31.543-33.9355 32.4951-31.7383Q33.4473-29.541 35.3516-28.2959Q37.2559-27.0508 39.0625-26.0254ZM11.4746 9.22852Q12.9883 10.5957 14.9414 10.4248Q16.8945 10.2539 18.5059 8.69141L31.7871-4.44336Q32.7148-5.41992 33.0811-5.98145Q33.4473-6.54297 33.9844-7.86133L38.8672-20.5566L36.6699-21.7773Q31.9336-24.3652 29.541-27.2461L25.1465-11.6699L11.4746 1.85547Q9.76562 3.51562 9.76562 5.66406Q9.76562 7.8125 11.4746 9.22852Z"/>
  </g>
  <g id="Heavy-S" transform="matrix(1 0 0 1 2592.44 696)">
   <path d="M53.0392-61.8531Q56.9394-61.8531 59.7223-64.6418Q62.5052-67.4304 62.5052-71.3191Q62.5052-75.2566 59.7223-78.0208Q56.9394-80.7851 53.0392-80.7851Q49.1132-80.7851 46.3432-78.0208Q43.5732-75.2566 43.5732-71.3191Q43.5732-67.4304 46.3432-64.6418Q49.1132-61.8531 53.0392-61.8531ZM38.6015-26.3481L53.2845-18.0731L43.938-10.068Q42.2636-8.6635 42.0469-6.80257Q41.8302-4.94164 43.0937-3.54321Q44.3572-2.13326 46.2425-2.09869Q48.1279-2.06412 49.8999-3.55474L63.8757-15.4655Q65.5528-16.8985 65.3016-19.3036Q65.0503-21.7088 63.0802-23.0184L48.2798-32.6891L51.1491-42.7361Q51.3675-43.5119 52.027-43.5967Q52.6865-43.6815 53.1347-42.9775L57.6066-36.4291Q58.4997-35.1195 60.0246-34.716Q61.5495-34.3125 63.0056-34.9358L75.8325-40.6656Q77.7538-41.5473 78.4517-43.1698Q79.1495-44.7924 78.2679-46.5672Q77.4235-48.2931 75.8196-48.8014Q74.2157-49.3097 72.306-48.4654L62.5777-44.1685L55.8509-53.4459Q52.9531-57.3949 49.1634-59.0018Q45.3738-60.6088 39.7416-60.2181L25.4728-59.2043Q23.6004-59.0693 22.3396-57.876Q21.0789-56.6828 20.809-54.7242L18.8789-40.2975Q18.5975-38.1551 19.614-36.7407Q20.6306-35.3264 22.615-35.0938Q26.6671-34.7262 27.3162-39.232L28.939-50.5113L34.1724-50.902Q34.9021-50.9623 35.3619-50.5256Q35.8217-50.0889 35.5918-49.3015L32.3176-37.7211Q31.2664-34.0393 32.1897-31.9111Q33.1131-29.783 34.9713-28.5667Q36.8295-27.3504 38.6015-26.3481ZM11.3824 8.50247Q12.7924 9.76594 14.6533 9.63538Q16.5142 9.50482 18.1025 7.96536L31.2109-5.00806Q32.1156-5.93852 32.4703-6.477Q32.8249-7.01547 33.3505-8.31078L38.314-21.202L36.3242-22.3075Q31.6801-24.8493 29.3681-27.6495L24.9275-11.935L11.4055 1.46364Q9.73105 3.10074 9.77139 5.1397Q9.81172 7.17865 11.3824 8.50247Z"/>
  </g>
  <g id="Bold-S" transform="matrix(1 0 0 1 2296.4 696)">
   <path d="M52.124-61.6211Q55.9082-61.6211 58.5815-64.3066Q61.2549-66.9922 61.2549-70.752Q61.2549-74.5605 58.5815-77.2217Q55.9082-79.8828 52.124-79.8828Q48.3398-79.8828 45.6665-77.2217Q42.9932-74.5605 42.9932-70.752Q42.9932-66.9922 45.6665-64.3066Q48.3398-61.6211 52.124-61.6211ZM38.0859-26.709L52.8076-18.4082L43.3838-10.3516Q41.748-8.95996 41.5894-7.20215Q41.4307-5.44434 42.5781-4.1748Q43.7256-2.88086 45.5078-2.80762Q47.29-2.73438 49.0234-4.19922L62.793-15.9424Q64.3799-17.2852 64.1479-19.5679Q63.916-21.8506 62.0361-23.0957L47.3389-32.7148L50.1953-42.749Q50.4395-43.6279 51.2085-43.7256Q51.9775-43.8232 52.4902-43.042L56.8848-36.5967Q57.7393-35.3516 59.1675-34.9609Q60.5957-34.5703 61.9873-35.1807L74.6338-40.8203Q76.4648-41.6504 77.124-43.1763Q77.7832-44.7021 76.9531-46.3867Q76.1475-48.0225 74.6338-48.4985Q73.1201-48.9746 71.3135-48.1689L61.5723-43.8721L54.8584-53.1494Q52.0508-56.9824 48.3643-58.5571Q44.6777-60.1318 39.1357-59.7412L25.0732-58.7402Q23.291-58.6182 22.0947-57.4829Q20.8984-56.3477 20.6543-54.4922L18.75-40.2588Q18.4814-38.2324 19.4336-36.9019Q20.3857-35.5713 22.2412-35.3516Q26.0742-35.0098 26.6846-39.2578L28.3203-50.5371L33.6182-50.9277Q34.3994-51.001 34.9365-50.5127Q35.4736-50.0244 35.2051-49.1211L31.9824-37.6953Q30.957-34.1553 31.8481-32.1045Q32.7393-30.0537 34.5459-28.8696Q36.3525-27.6855 38.0859-26.709ZM11.2793 7.69043Q12.5732 8.83789 14.3311 8.75244Q16.0889 8.66699 17.6514 7.15332L30.5664-5.63965Q31.4453-6.51855 31.7871-7.03125Q32.1289-7.54395 32.6416-8.81348L37.6953-21.9238L35.9375-22.9004Q31.3965-25.3906 29.1748-28.1006L24.6826-12.2314L11.3281 1.02539Q9.69238 2.63672 9.77783 4.55322Q9.86328 6.46973 11.2793 7.69043Z"/>
  </g>
  <g id="Semibold-S" transform="matrix(1 0 0 1 2000.15 696)">
   <path d="M51.4931-61.4611Q55.1973-61.4611 57.7951-64.0756Q60.3929-66.69 60.3929-70.3609Q60.3929-74.0807 57.7951-76.6707Q55.1973-79.2607 51.4931-79.2607Q47.8066-79.2607 45.2-76.6707Q42.5933-74.0807 42.5933-70.3609Q42.5933-66.69 45.2-64.0756Q47.8066-61.4611 51.4931-61.4611ZM37.7305-26.9578L52.4788-18.6393L43.0017-10.5471Q41.3926-9.16436 41.2739-7.47764Q41.1552-5.79092 42.2227-4.61025Q43.2901-3.39629 45.0013-3.29639Q46.7124-3.19648 48.4191-4.64355L62.0465-16.2712Q63.5712-17.5518 63.3526-19.75Q63.134-21.9483 61.3163-23.149L46.6901-32.7326L49.5377-42.7579Q49.7996-43.7079 50.6442-43.8145Q51.4888-43.921 52.0459-43.0864L56.3871-36.7122Q57.2149-35.5115 58.5765-35.1298Q59.9381-34.748 61.2853-35.3495L73.8073-40.927Q75.5762-41.7215 76.2087-43.1807Q76.8412-44.6399 76.0467-46.2623Q75.2677-47.8358 73.8162-48.2897Q72.3647-48.7436 70.6292-47.9646L60.8791-43.6677L54.1741-52.945Q51.4287-56.698 47.8133-58.2505Q44.1979-59.803 38.7181-59.4124L24.7978-58.4203Q23.0777-58.3071 21.9259-57.2119Q20.774-56.1166 20.5477-54.3322L18.6611-40.2321Q18.4015-38.2857 19.3092-37.0129Q20.2169-35.7401 21.9835-35.5293Q25.6654-35.2053 26.2491-39.2756L27.8938-50.5549L33.236-50.9455Q34.0528-51.0276 34.6433-50.5038Q35.2337-49.98 34.9385-48.9967L31.7514-37.6775Q30.7437-34.2353 31.6126-32.2378Q32.4815-30.2403 34.2526-29.0785Q36.0237-27.9166 37.7305-26.9578ZM11.2082 7.13057Q12.4222 8.19805 14.1089 8.1437Q15.7956 8.08936 17.3403 6.59346L30.1221-6.0751Q30.9832-6.91846 31.3161-7.41338Q31.649-7.9083 32.1528-9.16006L37.2687-22.4215L35.6709-23.3092Q31.201-25.7639 29.0415-28.4116L24.5138-12.4358L11.2748 0.723242Q9.66572 2.3168 9.78228 4.14888Q9.89883 5.98096 11.2082 7.13057Z"/>
  </g>
  <g id="Medium-S" transform="matrix(1 0 0 1 1703.79 696)">
   <path d="M51.0146-61.3398Q54.6582-61.3398 57.1987-63.9004Q59.7393-66.4609 59.7393-70.0645Q59.7393-73.7168 57.1987-76.2529Q54.6582-78.7891 51.0146-78.7891Q47.4023-78.7891 44.8462-76.2529Q42.29-73.7168 42.29-70.0645Q42.29-66.4609 44.8462-63.9004Q47.4023-61.3398 51.0146-61.3398ZM37.4609-27.1465L52.2295-18.8145L42.7119-10.6953Q41.123-9.31934 41.0347-7.68652Q40.9463-6.05371 41.9531-4.94043Q42.96-3.78711 44.6172-3.66699Q46.2744-3.54688 47.9609-4.98047L61.4805-16.5205Q62.958-17.7539 62.7495-19.8882Q62.541-22.0225 60.7705-23.1895L46.1982-32.7461L49.0391-42.7646Q49.3145-43.7686 50.2163-43.8818Q51.1182-43.9951 51.709-43.1201L56.0098-36.7998Q56.8174-35.6328 58.1284-35.2578Q59.4395-34.8828 60.7529-35.4775L73.1807-41.0078Q74.9023-41.7754 75.5146-43.1841Q76.127-44.5928 75.3594-46.168Q74.6006-47.6943 73.1963-48.1313Q71.792-48.5684 70.1104-47.8096L60.3535-43.5127L53.6553-52.79Q50.957-56.4824 47.3955-58.0181Q43.834-59.5537 38.4014-59.1631L24.5889-58.1777Q22.916-58.0713 21.7979-57.0063Q20.6797-55.9414 20.4668-54.2109L18.5938-40.2119Q18.3408-38.3262 19.2148-37.0972Q20.0889-35.8682 21.7881-35.6641Q25.3555-35.3535 25.9189-39.2891L27.5703-50.5684L32.9463-50.959Q33.79-51.0479 34.4209-50.4971Q35.0518-49.9463 34.7363-48.9023L31.5762-37.6641Q30.582-34.2959 31.4341-32.3389Q32.2861-30.3818 34.0303-29.2368Q35.7744-28.0918 37.4609-27.1465ZM11.1543 6.70605Q12.3076 7.71289 13.9404 7.68213Q15.5732 7.65137 17.1045 6.16895L29.7852-6.40527Q30.6328-7.22168 30.959-7.70312Q31.2852-8.18457 31.7822-9.42285L36.9453-22.7988L35.4688-23.6191Q31.0527-26.0469 28.9404-28.6475L24.3857-12.5908L11.2344 0.494141Q9.64551 2.07422 9.78564 3.84229Q9.92578 5.61035 11.1543 6.70605Z"/>
  </g>
  <g id="Regular-S" transform="matrix(1 0 0 1 1407.53 696)">
   <path d="M50.3906-61.1816Q53.9551-61.1816 56.4209-63.6719Q58.8867-66.1621 58.8867-69.6777Q58.8867-73.2422 56.4209-75.708Q53.9551-78.1738 50.3906-78.1738Q46.875-78.1738 44.3848-75.708Q41.8945-73.2422 41.8945-69.6777Q41.8945-66.1621 44.3848-63.6719Q46.875-61.1816 50.3906-61.1816ZM37.1094-27.3926L51.9043-19.043L42.334-10.8887Q40.7715-9.52148 40.7227-7.95898Q40.6738-6.39648 41.6016-5.37109Q42.5293-4.29688 44.1162-4.15039Q45.7031-4.00391 47.3633-5.41992L60.7422-16.8457Q62.1582-18.0176 61.9629-20.0684Q61.7676-22.1191 60.0586-23.2422L45.5566-32.7637L48.3887-42.7734Q48.6816-43.8477 49.6582-43.9697Q50.6348-44.0918 51.2695-43.1641L55.5176-36.9141Q56.2988-35.791 57.5439-35.4248Q58.7891-35.0586 60.0586-35.6445L72.3633-41.1133Q74.0234-41.8457 74.6094-43.1885Q75.1953-44.5312 74.4629-46.0449Q73.7305-47.5098 72.3877-47.9248Q71.0449-48.3398 69.4336-47.6074L59.668-43.3105L52.9785-52.5879Q50.3418-56.2012 46.8506-57.7148Q43.3594-59.2285 37.9883-58.8379L24.3164-57.8613Q22.7051-57.7637 21.6309-56.7383Q20.5566-55.7129 20.3613-54.0527L18.5059-40.1855Q18.2617-38.3789 19.0918-37.207Q19.9219-36.0352 21.5332-35.8398Q24.9512-35.5469 25.4883-39.3066L27.1484-50.5859L32.5684-50.9766Q33.4473-51.0742 34.1309-50.4883Q34.8145-49.9023 34.4727-48.7793L31.3477-37.6465Q30.3711-34.375 31.2012-32.4707Q32.0312-30.5664 33.7402-29.4434Q35.4492-28.3203 37.1094-27.3926ZM11.084 6.15234Q12.1582 7.08008 13.7207 7.08008Q15.2832 7.08008 16.7969 5.61523L29.3457-6.83594Q30.1758-7.61719 30.4932-8.08105Q30.8105-8.54492 31.2988-9.76562L36.5234-23.291L35.2051-24.0234Q30.8594-26.416 28.8086-28.9551L24.2188-12.793L11.1816 0.195312Q9.61914 1.75781 9.79004 3.44238Q9.96094 5.12695 11.084 6.15234Z"/>
  </g>
  <g id="Light-S" transform="matrix(1 0 0 1 1111.79 696)">
   <path d="M49.1646-60.4248Q52.608-60.4248 54.9905-62.8242Q57.373-65.2237 57.373-68.6183Q57.373-72.0614 54.9905-74.4441Q52.608-76.8267 49.1646-76.8267Q45.77-76.8267 43.3706-74.4441Q40.9711-72.0614 40.9711-68.6183Q40.9711-65.2237 43.3706-62.8242Q45.77-60.4248 49.1646-60.4248ZM36.3223-27.5742L50.7993-19.4214L41.4258-11.4034Q39.9691-10.142 39.8825-8.65517Q39.7959-7.16832 40.7084-6.14293Q41.6361-5.06872 43.155-4.99039Q44.6739-4.91206 46.213-6.20702L59.2285-17.3149Q60.5687-18.4415 60.3811-20.4014Q60.1934-22.3612 58.5752-23.4088L44.4064-32.7181L47.1929-42.5011Q47.5009-43.5903 48.4851-43.7124Q49.4692-43.8344 50.104-42.9067L54.246-36.8233Q54.997-35.7455 56.1892-35.402Q57.3814-35.0586 58.5904-35.6143L70.547-40.9467Q72.1313-41.6339 72.687-42.901Q73.2427-44.1681 72.5405-45.621Q71.8536-47.0253 70.5789-47.4177Q69.3041-47.8101 67.7533-47.108L58.1998-42.9019L51.6617-51.9674Q49.1005-55.4899 45.7077-56.9505Q42.3149-58.4112 37.1407-58.0355L23.8472-57.0895Q22.3114-56.9918 21.2827-56.0118Q20.254-55.0318 20.0737-53.4322L18.2788-39.9584Q18.0346-38.2276 18.8193-37.1086Q19.604-35.9896 21.1395-35.8096Q24.3912-35.5166 24.898-39.1251L26.5279-50.147L31.872-50.5224Q32.8115-50.62 33.4724-50.0114Q34.1334-49.4029 33.8066-48.3101L30.7574-37.4799Q29.8261-34.3145 30.6184-32.4858Q31.4107-30.6572 33.0516-29.572Q34.6924-28.4869 36.3223-27.5742ZM11.0235 5.04735Q12.0977 5.96008 13.5845 5.92969Q15.0714 5.8993 16.479 4.5255L28.6797-7.57751Q29.4795-8.34376 29.7894-8.78487Q30.0992-9.22597 30.5723-10.4164L35.7666-23.8057L34.5543-24.4776Q30.2389-26.8702 28.3394-29.3335L23.8101-13.2774L11.1211-0.62205Q9.66466 0.819397 9.78254 2.42068Q9.90041 4.02196 11.0235 5.04735Z"/>
  </g>
  <g id="Thin-S" transform="matrix(1 0 0 1 816.363 696)">
   <path d="M47.543-59.4238Q50.8263-59.4238 53.0987-61.7032Q55.3711-63.9826 55.3711-67.217Q55.3711-70.4997 53.0987-72.7724Q50.8263-75.0451 47.543-75.0451Q44.3086-75.0451 42.0292-72.7724Q39.7498-70.4997 39.7498-67.217Q39.7498-63.9826 42.0292-61.7032Q44.3086-59.4238 47.543-59.4238ZM35.2813-27.8143L49.3379-19.9219L40.2247-12.0842Q38.9079-10.9627 38.7714-9.57592Q38.6349-8.18915 39.5272-7.16376Q40.4549-6.08954 41.8838-6.10135Q43.3127-6.11316 44.6917-7.24802L57.2266-17.9355Q58.4666-19.0022 58.289-20.8418Q58.1114-22.6815 56.6133-23.6291L42.8851-32.6579L45.6114-42.1408Q45.9392-43.2499 46.9335-43.372Q47.9278-43.494 48.5625-42.5663L52.5643-36.7032Q53.2752-35.6853 54.3975-35.3719Q55.5197-35.0586 56.6487-35.5742L68.1448-40.7264Q69.6289-41.3537 70.1446-42.5207Q70.6602-43.6878 69.9981-45.0603Q69.3714-46.3846 68.1866-46.747Q67.0018-47.1095 65.5311-46.4474L56.2581-42.3614L49.9201-51.1467Q47.4588-54.5491 44.1961-55.9396Q40.9335-57.3301 36.0196-56.9743L23.2266-56.0687Q21.7907-55.971 20.8222-55.0511Q19.8538-54.1311 19.6933-52.6115L17.9784-39.6581Q17.7343-38.0275 18.4589-36.9784Q19.1835-35.9294 20.6189-35.7696Q23.6505-35.4766 24.1174-38.8849L25.7072-49.5665L30.9511-49.9216Q31.9706-50.0193 32.6016-49.3808Q33.2327-48.7423 32.9257-47.6895L29.9767-37.2596Q29.1053-34.2344 29.8477-32.5058Q30.59-30.7773 32.1407-29.7422Q33.6914-28.7072 35.2813-27.8143ZM10.9434 3.58591Q12.0176 4.4788 13.4044 4.40821Q14.7912 4.33763 16.0585 3.08424L27.7988-8.55831Q28.5585-9.30471 28.8585-9.71571Q29.1585-10.1267 29.6113-11.2771L34.7656-24.4865L33.6936-25.0784Q29.4182-27.4709 27.7188-29.834L23.2696-13.9182L11.0411-1.70308Q9.72487-0.421733 9.77261 1.0694Q9.82036 2.56052 10.9434 3.58591Z"/>
  </g>
  <g id="Ultralight-S" transform="matrix(1 0 0 1 520.308 696)">
   <path d="M46.7125-58.9111Q49.9138-58.9111 52.1297-61.129Q54.3457-63.3469 54.3457-66.4993Q54.3457-69.6999 52.1297-71.9162Q49.9138-74.1325 46.7125-74.1325Q43.56-74.1325 41.3422-71.9162Q39.1243-69.6999 39.1243-66.4993Q39.1243-63.3469 41.3422-61.129Q43.56-58.9111 46.7125-58.9111ZM34.7481-27.9373L48.5893-20.1782L39.6095-12.4329Q38.3644-11.3831 38.2023-10.0475Q38.0402-8.71201 38.9221-7.68661Q39.8499-6.6124 41.2327-6.67038Q42.6155-6.72836 43.9125-7.78122L56.2012-18.2533Q57.3898-19.2894 57.2174-21.0674Q57.045-22.8455 55.6084-23.7419L42.1059-32.6271L44.8013-41.9563Q45.1393-43.0756 46.1388-43.1976Q47.1382-43.3197 47.773-42.392L51.7029-36.6417Q52.3933-35.6544 53.4798-35.3565Q54.5662-35.0586 55.6541-35.5537L66.9144-40.6136Q68.3472-41.2102 68.8423-42.326Q69.3375-43.4418 68.6958-44.7731Q68.1-46.0564 66.9613-46.4035Q65.8226-46.7506 64.3929-46.109L55.2635-42.0845L49.028-50.7263Q46.6179-54.0672 43.4219-55.4218Q40.226-56.7764 35.4454-56.4308L22.9088-55.5458Q21.524-55.4482 20.5864-54.5589Q19.6487-53.6697 19.4984-52.1912L17.8246-39.5042Q17.5804-37.925 18.2743-36.9118Q18.9682-35.8986 20.3522-35.7491Q23.2712-35.4561 23.7175-38.7619L25.2869-49.2691L30.4794-49.614Q31.5399-49.7116 32.1556-49.0578Q32.7713-48.4039 32.4745-47.3717L29.5769-37.1468Q28.7361-34.1934 29.4529-32.5161Q30.1697-30.8388 31.6742-29.8294Q33.1787-28.82 34.7481-27.9373ZM10.9024 2.83737Q11.9766 3.72009 13.3121 3.62892Q14.6477 3.53775 15.8432 2.34604L27.3476-9.06067Q28.0869-9.79691 28.3817-10.1925Q28.6766-10.5881 29.1191-11.718L34.2529-24.8352L33.2527-25.386Q28.9978-27.7786 27.401-30.0903L22.9927-14.2464L11.0001-2.25677Q9.75571-1.05743 9.76753 0.377274Q9.77936 1.81198 10.9024 2.83737Z"/>
  </g>
 </g>
</svg>
