<?xml version="1.0" encoding="UTF-8"?>
<!--Generator: Apple Native CoreSVG 175.5-->
<!DOCTYPE svg
PUBLIC "-//W3C//DTD SVG 1.1//EN"
       "http://www.w3.org/Graphics/SVG/1.1/DTD/svg11.dtd">
<svg version="1.1" xmlns="http://www.w3.org/2000/svg" xmlns:xlink="http://www.w3.org/1999/xlink" width="3300" height="2200">
 <!--glyph: "uni10143E.medium", point size: 100.0, font version: "18.0d9e1", template writer version: "84"-->
 <style>.template-0 {fill:#000000}

.SFSymbolsPreview000000 {fill:#000000;opacity:1.0}
</style>
 <g id="Notes">
  <rect height="2200" id="artboard" style="fill:white;opacity:1" width="3300" x="0" y="0"/>
  <line style="fill:none;stroke:black;opacity:1;stroke-width:0.5;" x1="263" x2="3036" y1="292" y2="292"/>
  <text style="stroke:none;fill:black;font-family:sans-serif;font-size:13;font-weight:bold;" transform="matrix(1 0 0 1 263 322)">Weight/Scale Variations</text>
  <text style="stroke:none;fill:black;font-family:sans-serif;font-size:13;text-anchor:middle;" transform="matrix(1 0 0 1 559.711 322)">Ultralight</text>
  <text style="stroke:none;fill:black;font-family:sans-serif;font-size:13;text-anchor:middle;" transform="matrix(1 0 0 1 856.422 322)">Thin</text>
  <text style="stroke:none;fill:black;font-family:sans-serif;font-size:13;text-anchor:middle;" transform="matrix(1 0 0 1 1153.13 322)">Light</text>
  <text style="stroke:none;fill:black;font-family:sans-serif;font-size:13;text-anchor:middle;" transform="matrix(1 0 0 1 1449.84 322)">Regular</text>
  <text style="stroke:none;fill:black;font-family:sans-serif;font-size:13;text-anchor:middle;" transform="matrix(1 0 0 1 1746.56 322)">Medium</text>
  <text style="stroke:none;fill:black;font-family:sans-serif;font-size:13;text-anchor:middle;" transform="matrix(1 0 0 1 2043.27 322)">Semibold</text>
  <text style="stroke:none;fill:black;font-family:sans-serif;font-size:13;text-anchor:middle;" transform="matrix(1 0 0 1 2339.98 322)">Bold</text>
  <text style="stroke:none;fill:black;font-family:sans-serif;font-size:13;text-anchor:middle;" transform="matrix(1 0 0 1 2636.69 322)">Heavy</text>
  <text style="stroke:none;fill:black;font-family:sans-serif;font-size:13;text-anchor:middle;" transform="matrix(1 0 0 1 2933.4 322)">Black</text>
  <line style="fill:none;stroke:black;opacity:1;stroke-width:0.5;" x1="263" x2="3036" y1="1903" y2="1903"/>
  <g transform="matrix(1 0 0 1 263 1933)">
   <path d="M9.24805 0.830078Q10.8691 0.830078 12.2949 0.214844Q13.7207-0.400391 14.8096-1.49414Q15.8984-2.58789 16.5186-4.01367Q17.1387-5.43945 17.1387-7.05078Q17.1387-8.66211 16.5186-10.0879Q15.8984-11.5137 14.8047-12.6074Q13.7109-13.7012 12.2852-14.3164Q10.8594-14.9316 9.23828-14.9316Q7.62695-14.9316 6.20117-14.3164Q4.77539-13.7012 3.69141-12.6074Q2.60742-11.5137 1.9873-10.0879Q1.36719-8.66211 1.36719-7.05078Q1.36719-5.43945 1.9873-4.01367Q2.60742-2.58789 3.69629-1.49414Q4.78516-0.400391 6.21094 0.214844Q7.63672 0.830078 9.24805 0.830078ZM9.24805-0.654297Q7.91992-0.654297 6.7627-1.14746Q5.60547-1.64062 4.73145-2.51953Q3.85742-3.39844 3.36426-4.56055Q2.87109-5.72266 2.87109-7.05078Q2.87109-8.37891 3.35938-9.54102Q3.84766-10.7031 4.72168-11.582Q5.5957-12.4609 6.75293-12.9541Q7.91016-13.4473 9.23828-13.4473Q10.5762-13.4473 11.7383-12.9541Q12.9004-12.4609 13.7793-11.582Q14.6582-10.7031 15.1514-9.54102Q15.6445-8.37891 15.6445-7.05078Q15.6445-5.72266 15.1514-4.56055Q14.6582-3.39844 13.7793-2.51953Q12.9004-1.64062 11.7432-1.14746Q10.5859-0.654297 9.24805-0.654297ZM5.6543-7.05078Q5.6543-6.72852 5.85938-6.52832Q6.06445-6.32812 6.40625-6.32812L8.51562-6.32812L8.51562-4.20898Q8.51562-3.88672 8.71094-3.67676Q8.90625-3.4668 9.23828-3.4668Q9.56055-3.4668 9.77051-3.67676Q9.98047-3.88672 9.98047-4.20898L9.98047-6.32812L12.0898-6.32812Q12.4219-6.32812 12.627-6.52832Q12.832-6.72852 12.832-7.05078Q12.832-7.38281 12.627-7.58789Q12.4219-7.79297 12.0898-7.79297L9.98047-7.79297L9.98047-9.90234Q9.98047-10.2344 9.77051-10.4443Q9.56055-10.6543 9.23828-10.6543Q8.90625-10.6543 8.71094-10.4443Q8.51562-10.2344 8.51562-9.90234L8.51562-7.79297L6.40625-7.79297Q6.06445-7.79297 5.85938-7.58789Q5.6543-7.38281 5.6543-7.05078Z"/>
  </g>
  <g transform="matrix(1 0 0 1 281.867 1933)">
   <path d="M11.709 2.91016Q13.75 2.91016 15.5518 2.12891Q17.3535 1.34766 18.7305-0.0292969Q20.1074-1.40625 20.8887-3.20801Q21.6699-5.00977 21.6699-7.05078Q21.6699-9.0918 20.8887-10.8936Q20.1074-12.6953 18.7305-14.0723Q17.3535-15.4492 15.5469-16.2305Q13.7402-17.0117 11.6992-17.0117Q9.6582-17.0117 7.85645-16.2305Q6.05469-15.4492 4.68262-14.0723Q3.31055-12.6953 2.5293-10.8936Q1.74805-9.0918 1.74805-7.05078Q1.74805-5.00977 2.5293-3.20801Q3.31055-1.40625 4.6875-0.0292969Q6.06445 1.34766 7.86621 2.12891Q9.66797 2.91016 11.709 2.91016ZM11.709 1.25Q9.98047 1.25 8.47656 0.605469Q6.97266-0.0390625 5.83496-1.17676Q4.69727-2.31445 4.05762-3.81836Q3.41797-5.32227 3.41797-7.05078Q3.41797-8.7793 4.05762-10.2832Q4.69727-11.7871 5.83008-12.9297Q6.96289-14.0723 8.4668-14.7119Q9.9707-15.3516 11.6992-15.3516Q13.4277-15.3516 14.9365-14.7119Q16.4453-14.0723 17.583-12.9297Q18.7207-11.7871 19.3652-10.2832Q20.0098-8.7793 20.0098-7.05078Q20.0098-5.32227 19.3701-3.81836Q18.7305-2.31445 17.5879-1.17676Q16.4453-0.0390625 14.9414 0.605469Q13.4375 1.25 11.709 1.25ZM7.17773-7.05078Q7.17773-6.69922 7.41211-6.47461Q7.64648-6.25 8.01758-6.25L10.8887-6.25L10.8887-3.36914Q10.8887-2.99805 11.1133-2.76855Q11.3379-2.53906 11.6895-2.53906Q12.0605-2.53906 12.29-2.76855Q12.5195-2.99805 12.5195-3.36914L12.5195-6.25L15.4004-6.25Q15.7715-6.25 16.001-6.47461Q16.2305-6.69922 16.2305-7.05078Q16.2305-7.42188 16.001-7.65137Q15.7715-7.88086 15.4004-7.88086L12.5195-7.88086L12.5195-10.752Q12.5195-11.1328 12.29-11.3623Q12.0605-11.5918 11.6895-11.5918Q11.3379-11.5918 11.1133-11.3574Q10.8887-11.123 10.8887-10.752L10.8887-7.88086L8.01758-7.88086Q7.63672-7.88086 7.40723-7.65137Q7.17773-7.42188 7.17773-7.05078Z"/>
  </g>
  <g transform="matrix(1 0 0 1 305.646 1933)">
   <path d="M14.9707 5.66406Q17.0605 5.66406 18.96 5.01465Q20.8594 4.36523 22.4512 3.19336Q24.043 2.02148 25.2197 0.429688Q26.3965-1.16211 27.0459-3.06641Q27.6953-4.9707 27.6953-7.05078Q27.6953-9.14062 27.0459-11.04Q26.3965-12.9395 25.2197-14.5312Q24.043-16.123 22.4512-17.2998Q20.8594-18.4766 18.9551-19.126Q17.0508-19.7754 14.9609-19.7754Q12.8711-19.7754 10.9717-19.126Q9.07227-18.4766 7.48535-17.2998Q5.89844-16.123 4.72168-14.5312Q3.54492-12.9395 2.90039-11.04Q2.25586-9.14062 2.25586-7.05078Q2.25586-4.9707 2.90527-3.06641Q3.55469-1.16211 4.72656 0.429688Q5.89844 2.02148 7.49023 3.19336Q9.08203 4.36523 10.9814 5.01465Q12.8809 5.66406 14.9707 5.66406ZM14.9707 3.84766Q13.1641 3.84766 11.5283 3.2959Q9.89258 2.74414 8.53516 1.74805Q7.17773 0.751953 6.17676-0.610352Q5.17578-1.97266 4.62891-3.6084Q4.08203-5.24414 4.08203-7.05078Q4.08203-8.86719 4.62891-10.5029Q5.17578-12.1387 6.17188-13.501Q7.16797-14.8633 8.52539-15.8594Q9.88281-16.8555 11.5186-17.4023Q13.1543-17.9492 14.9609-17.9492Q16.7773-17.9492 18.4131-17.4023Q20.0488-16.8555 21.4111-15.8594Q22.7734-14.8633 23.7744-13.501Q24.7754-12.1387 25.3223-10.5029Q25.8691-8.86719 25.8691-7.05078Q25.8691-5.24414 25.3223-3.6084Q24.7754-1.97266 23.7793-0.610352Q22.7832 0.751953 21.4209 1.74805Q20.0586 2.74414 18.4229 3.2959Q16.7871 3.84766 14.9707 3.84766ZM9.19922-7.05078Q9.19922-6.66992 9.45801-6.4209Q9.7168-6.17188 10.1172-6.17188L14.0625-6.17188L14.0625-2.2168Q14.0625-1.81641 14.3115-1.55762Q14.5605-1.29883 14.9512-1.29883Q15.3516-1.29883 15.6104-1.55273Q15.8691-1.80664 15.8691-2.2168L15.8691-6.17188L19.8242-6.17188Q20.2246-6.17188 20.4785-6.4209Q20.7324-6.66992 20.7324-7.05078Q20.7324-7.46094 20.4785-7.71484Q20.2246-7.96875 19.8242-7.96875L15.8691-7.96875L15.8691-11.9141Q15.8691-12.3242 15.6104-12.583Q15.3516-12.8418 14.9512-12.8418Q14.5605-12.8418 14.3115-12.583Q14.0625-12.3242 14.0625-11.9141L14.0625-7.96875L10.1172-7.96875Q9.70703-7.96875 9.45312-7.71484Q9.19922-7.46094 9.19922-7.05078Z"/>
  </g>
  <text style="stroke:none;fill:black;font-family:sans-serif;font-size:13;font-weight:bold;" transform="matrix(1 0 0 1 263 1953)">Design Variations</text>
  <text style="stroke:none;fill:black;font-family:sans-serif;font-size:13;" transform="matrix(1 0 0 1 263 1971)">Symbols are supported in up to nine weights and three scales.</text>
  <text style="stroke:none;fill:black;font-family:sans-serif;font-size:13;" transform="matrix(1 0 0 1 263 1989)">For optimal layout with text and other symbols, vertically align</text>
  <text style="stroke:none;fill:black;font-family:sans-serif;font-size:13;" transform="matrix(1 0 0 1 263 2007)">symbols with the adjacent text.</text>
  <line style="fill:none;stroke:#00AEEF;stroke-width:0.5;opacity:1.0;" x1="776" x2="776" y1="1919" y2="1933"/>
  <g transform="matrix(1 0 0 1 776 1933)">
   <path d="M3.31055 0.15625Q3.70117 0.15625 3.91602-0.00976562Q4.13086-0.175781 4.26758-0.585938L5.52734-4.0332L11.2891-4.0332L12.5488-0.585938Q12.6855-0.175781 12.9004-0.00976562Q13.1152 0.15625 13.4961 0.15625Q13.8867 0.15625 14.1162-0.0585938Q14.3457-0.273438 14.3457-0.644531Q14.3457-0.869141 14.2383-1.17188L9.6582-13.3691Q9.48242-13.8184 9.17969-14.043Q8.87695-14.2676 8.4082-14.2676Q7.5-14.2676 7.17773-13.3789L2.59766-1.16211Q2.49023-0.859375 2.49023-0.634766Q2.49023-0.263672 2.70996-0.0537109Q2.92969 0.15625 3.31055 0.15625ZM6.00586-5.51758L8.37891-12.0898L8.42773-12.0898L10.8008-5.51758Z"/>
  </g>
  <line style="fill:none;stroke:#00AEEF;stroke-width:0.5;opacity:1.0;" x1="793.197" x2="793.197" y1="1919" y2="1933"/>
  <text style="stroke:none;fill:black;font-family:sans-serif;font-size:13;font-weight:bold;" transform="matrix(1 0 0 1 776 1953)">Margins</text>
  <text style="stroke:none;fill:black;font-family:sans-serif;font-size:13;" transform="matrix(1 0 0 1 776 1971)">Leading and trailing margins on the left and right side of each symbol</text>
  <text style="stroke:none;fill:black;font-family:sans-serif;font-size:13;" transform="matrix(1 0 0 1 776 1989)">can be adjusted by modifying the x-location of the margin guidelines.</text>
  <text style="stroke:none;fill:black;font-family:sans-serif;font-size:13;" transform="matrix(1 0 0 1 776 2007)">Modifications are automatically applied proportionally to all</text>
  <text style="stroke:none;fill:black;font-family:sans-serif;font-size:13;" transform="matrix(1 0 0 1 776 2025)">scales and weights.</text>
  <g transform="matrix(1 0 0 1 1289 1933)">
   <path d="M2.8418 1.86523L4.54102 3.57422Q5.18555 4.22852 5.90332 4.17969Q6.62109 4.13086 7.31445 3.35938L18.0078-8.42773L17.041-9.4043L6.42578 2.27539Q6.16211 2.57812 5.89355 2.61719Q5.625 2.65625 5.27344 2.30469L4.10156 1.14258Q3.75 0.791016 3.79395 0.522461Q3.83789 0.253906 4.14062-0.0195312L15.6152-10.8203L14.6387-11.7871L3.04688-0.898438Q2.30469-0.214844 2.25098 0.498047Q2.19727 1.21094 2.8418 1.86523ZM9.25781-16.3281Q8.94531-16.0254 8.90625-15.6348Q8.86719-15.2441 9.04297-14.9512Q9.21875-14.6777 9.55566-14.541Q9.89258-14.4043 10.3809-14.5215Q11.4746-14.7754 12.5977-14.7314Q13.7207-14.6875 14.7949-13.9844L14.209-12.5293Q13.9551-11.9043 14.0674-11.4404Q14.1797-10.9766 14.5801-10.5664L16.875-8.25195Q17.2363-7.88086 17.5781-7.82227Q17.9199-7.76367 18.3398-7.8418L19.4043-8.03711L20.0684-7.36328L20.0293-6.80664Q20-6.43555 20.1221-6.12305Q20.2441-5.81055 20.6055-5.44922L21.3672-4.70703Q21.7285-4.3457 22.1533-4.33105Q22.5781-4.31641 22.9297-4.66797L25.8398-7.58789Q26.1914-7.93945 26.1816-8.35449Q26.1719-8.76953 25.8105-9.13086L25.0391-9.89258Q24.6875-10.2539 24.3799-10.3857Q24.0723-10.5176 23.7109-10.4883L23.1348-10.4395L22.4902-11.0742L22.7344-12.1973Q22.832-12.6172 22.6953-12.9834Q22.5586-13.3496 22.1191-13.7891L19.9219-15.9766Q18.6719-17.2168 17.2607-17.8369Q15.8496-18.457 14.4189-18.4814Q12.9883-18.5059 11.665-17.959Q10.3418-17.4121 9.25781-16.3281ZM10.752-15.957Q11.6602-16.6211 12.7002-16.9043Q13.7402-17.1875 14.8047-17.085Q15.8691-16.9824 16.8701-16.5137Q17.8711-16.0449 18.7012-15.2051L21.1328-12.793Q21.3086-12.6172 21.3525-12.4512Q21.3965-12.2852 21.3379-12.0312L21.0156-10.5469L22.5195-9.0625L23.5059-9.12109Q23.6914-9.13086 23.7891-9.09668Q23.8867-9.0625 24.0332-8.91602L24.6094-8.33984L22.168-5.89844L21.5918-6.47461Q21.4453-6.62109 21.4062-6.71875Q21.3672-6.81641 21.377-7.01172L21.4453-7.98828L19.9512-9.47266L18.4277-9.21875Q18.1836-9.16992 18.042-9.2041Q17.9004-9.23828 17.7148-9.41406L15.7129-11.416Q15.5176-11.5918 15.4932-11.7529Q15.4688-11.9141 15.5859-12.1875L16.4648-14.2773Q15.293-15.3711 13.8281-15.791Q12.3633-16.2109 10.8398-15.7617Q10.7227-15.7324 10.6885-15.8057Q10.6543-15.8789 10.752-15.957Z"/>
  </g>
  <text style="stroke:none;fill:black;font-family:sans-serif;font-size:13;font-weight:bold;" transform="matrix(1 0 0 1 1289 1953)">Exporting</text>
  <text style="stroke:none;fill:black;font-family:sans-serif;font-size:13;" transform="matrix(1 0 0 1 1289 1971)">Symbols should be outlined when exporting to ensure the</text>
  <text style="stroke:none;fill:black;font-family:sans-serif;font-size:13;" transform="matrix(1 0 0 1 1289 1989)">design is preserved when submitting to Xcode.</text>
  <text id="template-version" style="stroke:none;fill:black;font-family:sans-serif;font-size:13;text-anchor:end;" transform="matrix(1 0 0 1 3036 1933)">Template v.4.0</text>
  <text style="stroke:none;fill:black;font-family:sans-serif;font-size:13;text-anchor:end;" transform="matrix(1 0 0 1 3036 1951)">Requires Xcode 14 or greater</text>
  <text id="descriptive-name" style="stroke:none;fill:black;font-family:sans-serif;font-size:13;text-anchor:end;" transform="matrix(1 0 0 1 3036 1969)">Generated from toilet</text>
  <text style="stroke:none;fill:black;font-family:sans-serif;font-size:13;text-anchor:end;" transform="matrix(1 0 0 1 3036 1987)">Typeset at 100 points</text>
  <text style="stroke:none;fill:black;font-family:sans-serif;font-size:13;" transform="matrix(1 0 0 1 263 726)">Small</text>
  <text style="stroke:none;fill:black;font-family:sans-serif;font-size:13;" transform="matrix(1 0 0 1 263 1156)">Medium</text>
  <text style="stroke:none;fill:black;font-family:sans-serif;font-size:13;" transform="matrix(1 0 0 1 263 1586)">Large</text>
 </g>
 <g id="Guides">
  <g id="H-reference" style="fill:#27AAE1;stroke:none;" transform="matrix(1 0 0 1 339 696)">
   <path d="M0.993347 0L3.6377 0L29.3282-67.1326L30.0301-67.1326L30.0301-70.459L28.1227-70.459ZM11.6882-24.4797L46.9818-24.4797L46.2311-26.7288L12.4382-26.7288ZM55.1193 0L57.7637 0L30.6381-70.459L29.4327-70.459L29.4327-67.1326Z"/>
  </g>
  <line id="Baseline-S" style="fill:none;stroke:#27AAE1;opacity:1;stroke-width:0.5;" x1="263" x2="3036" y1="696" y2="696"/>
  <line id="Capline-S" style="fill:none;stroke:#27AAE1;opacity:1;stroke-width:0.5;" x1="263" x2="3036" y1="625.541" y2="625.541"/>
  <g id="H-reference" style="fill:#27AAE1;stroke:none;" transform="matrix(1 0 0 1 339 1126)">
   <path d="M0.993347 0L3.6377 0L29.3282-67.1326L30.0301-67.1326L30.0301-70.459L28.1227-70.459ZM11.6882-24.4797L46.9818-24.4797L46.2311-26.7288L12.4382-26.7288ZM55.1193 0L57.7637 0L30.6381-70.459L29.4327-70.459L29.4327-67.1326Z"/>
  </g>
  <line id="Baseline-M" style="fill:none;stroke:#27AAE1;opacity:1;stroke-width:0.5;" x1="263" x2="3036" y1="1126" y2="1126"/>
  <line id="Capline-M" style="fill:none;stroke:#27AAE1;opacity:1;stroke-width:0.5;" x1="263" x2="3036" y1="1055.54" y2="1055.54"/>
  <g id="H-reference" style="fill:#27AAE1;stroke:none;" transform="matrix(1 0 0 1 339 1556)">
   <path d="M0.993347 0L3.6377 0L29.3282-67.1326L30.0301-67.1326L30.0301-70.459L28.1227-70.459ZM11.6882-24.4797L46.9818-24.4797L46.2311-26.7288L12.4382-26.7288ZM55.1193 0L57.7637 0L30.6381-70.459L29.4327-70.459L29.4327-67.1326Z"/>
  </g>
  <line id="Baseline-L" style="fill:none;stroke:#27AAE1;opacity:1;stroke-width:0.5;" x1="263" x2="3036" y1="1556" y2="1556"/>
  <line id="Capline-L" style="fill:none;stroke:#27AAE1;opacity:1;stroke-width:0.5;" x1="263" x2="3036" y1="1485.54" y2="1485.54"/>
  <line id="left-margin-Ultralight-S" style="fill:none;stroke:#00AEEF;stroke-width:0.5;opacity:1.0;" x1="524.357" x2="524.357" y1="600.785" y2="720.121"/>
  <line id="right-margin-Ultralight-S" style="fill:none;stroke:#00AEEF;stroke-width:0.5;opacity:1.0;" x1="595.065" x2="595.065" y1="600.785" y2="720.121"/>
  <line id="left-margin-Regular-S" style="fill:none;stroke:#00AEEF;stroke-width:0.5;opacity:1.0;" x1="1410.56" x2="1410.56" y1="600.785" y2="720.121"/>
  <line id="right-margin-Regular-S" style="fill:none;stroke:#00AEEF;stroke-width:0.5;opacity:1.0;" x1="1489.13" x2="1489.13" y1="600.785" y2="720.121"/>
  <line id="left-margin-Black-S" style="fill:none;stroke:#00AEEF;stroke-width:0.5;opacity:1.0;" x1="2891.7" x2="2891.7" y1="600.785" y2="720.121"/>
  <line id="right-margin-Black-S" style="fill:none;stroke:#00AEEF;stroke-width:0.5;opacity:1.0;" x1="2975.1" x2="2975.1" y1="600.785" y2="720.121"/>
 </g>
 <g id="Symbols">
  <g id="Black-S" transform="matrix(1 0 0 1 2891.7 696)">
   <path class="template-0 SFSymbolsPreview000000" d="M41.6992-23.0957Q50.9277-23.0957 58.1299-25.0244Q65.332-26.9531 69.4824-30.5908Q73.6328-34.2285 73.6328-39.3555Q73.6328-44.5312 69.5068-48.1445Q65.3809-51.7578 58.1787-53.6865Q50.9766-55.6152 41.6992-55.6152Q32.4707-55.6152 25.2441-53.6865Q18.0176-51.7578 13.8916-48.1445Q9.76562-44.5312 9.76562-39.3555Q9.76562-34.2285 13.916-30.5908Q18.0664-26.9531 25.293-25.0244Q32.5195-23.0957 41.6992-23.0957ZM41.6992-34.8145Q35.3027-34.8145 30.7861-35.5225Q26.2695-36.2305 23.9014-37.2803Q21.5332-38.3301 21.5332-39.3555Q21.5332-40.4297 23.9014-41.4551Q26.2695-42.4805 30.7861-43.1885Q35.3027-43.8965 41.6992-43.8965Q48.0957-43.8965 52.6123-43.1885Q57.1289-42.4805 59.4971-41.4551Q61.8652-40.4297 61.8652-39.3555Q61.8652-38.3301 59.4971-37.2803Q57.1289-36.2305 52.6123-35.5225Q48.0957-34.8145 41.6992-34.8145ZM41.0645-6.20117L42.334-6.20117Q51.7578-6.20117 58.7891-10.3516Q65.8203-14.502 69.7266-21.9727Q73.6328-29.4434 73.6328-39.3555L61.8652-39.3555Q61.8652-32.4219 59.6436-27.6367Q57.4219-22.8516 53.0762-20.3857Q48.7305-17.9199 42.334-17.9199L41.0645-17.9199Q34.7168-17.9199 30.3467-20.3857Q25.9766-22.8516 23.7549-27.6367Q21.5332-32.4219 21.5332-39.3555L9.76562-39.3555Q9.76562-29.4434 13.6719-21.9727Q17.5781-14.502 24.6094-10.3516Q31.6406-6.20117 41.0645-6.20117ZM41.6992 15.625Q45.8984 15.625 50.1953 14.9902Q54.4922 14.3555 58.1787 12.9395Q61.8652 11.5234 64.1602 9.17969Q65.1855 8.05664 65.5029 6.49414Q65.8203 4.93164 65.2832 3.27148L57.666-21.2402L47.2656-15.2344L55.3711 10.8398L58.4473-1.46484Q54.248 1.85547 50.293 2.88086Q46.3379 3.90625 41.6992 3.90625Q37.0605 3.90625 33.1055 2.88086Q29.1504 1.85547 24.9512-1.46484L28.0273 10.8398L36.1328-15.2344L25.7324-21.2402L18.1152 3.27148Q17.627 4.93164 17.9199 6.49414Q18.2129 8.05664 19.2383 9.17969Q21.5332 11.5234 25.2197 12.9395Q28.9062 14.3555 33.2275 14.9902Q37.5488 15.625 41.6992 15.625ZM15.918-74.4141L67.4805-74.4141Q69.9219-74.4141 71.6309-76.1475Q73.3398-77.8809 73.3398-80.2734Q73.3398-82.7148 71.6309-84.4238Q69.9219-86.1328 67.4805-86.1328L15.918-86.1328Q13.5254-86.1328 11.792-84.4238Q10.0586-82.7148 10.0586-80.2734Q10.0586-77.8809 11.792-76.1475Q13.5254-74.4141 15.918-74.4141ZM16.4062-43.8477L28.125-44.6289L25.7812-80.7617L14.0625-79.9805ZM55.2734-44.6289L66.9922-43.8477L69.3359-79.9805L57.6172-80.7617Z"/>
  </g>
  <g id="Regular-S" transform="matrix(1 0 0 1 1410.56 696)">
   <path class="template-0 SFSymbolsPreview000000" d="M39.2578-25.5859Q48.0469-25.5859 54.6875-27.2949Q61.3281-29.0039 65.0635-32.1045Q68.7988-35.2051 68.7988-39.4531Q68.7988-43.6523 65.0635-46.7773Q61.3281-49.9023 54.6875-51.5869Q48.0469-53.2715 39.2578-53.2715Q30.5176-53.2715 23.877-51.5869Q17.2363-49.9023 13.501-46.7773Q9.76562-43.6523 9.76562-39.4531Q9.76562-35.2051 13.501-32.1045Q17.2363-29.0039 23.9014-27.2949Q30.5664-25.5859 39.2578-25.5859ZM39.2578-32.666Q32.7148-32.666 27.6611-33.5693Q22.6074-34.4727 19.7266-36.0107Q16.8457-37.5488 16.8457-39.4531Q16.8457-41.3086 19.7266-42.8711Q22.6074-44.4336 27.6611-45.3369Q32.7148-46.2402 39.2578-46.2402Q45.8496-46.2402 50.9033-45.3369Q55.957-44.4336 58.8135-42.8711Q61.6699-41.3086 61.6699-39.4531Q61.6699-37.5488 58.8135-36.0107Q55.957-34.4727 50.9033-33.5693Q45.8496-32.666 39.2578-32.666ZM37.7441-10.6934L40.8203-10.6934Q49.1211-10.6934 55.4688-14.4287Q61.8164-18.1641 65.3809-24.6582Q68.9453-31.1523 68.7988-39.4531L61.6699-39.4531Q61.8164-33.0566 59.2285-28.1494Q56.6406-23.2422 51.9043-20.4834Q47.168-17.7246 40.8203-17.7246L37.7441-17.7246Q31.3477-17.7246 26.6113-20.4834Q21.875-23.2422 19.3115-28.125Q16.748-33.0078 16.8457-39.4531L9.76562-39.4531Q9.61914-31.1523 13.1836-24.6582Q16.748-18.1641 23.0957-14.4287Q29.4434-10.6934 37.7441-10.6934ZM39.3555 12.0605Q42.9199 12.0605 46.7041 11.4502Q50.4883 10.8398 53.7842 9.59473Q57.0801 8.34961 58.9844 6.39648Q59.7168 5.61523 59.8145 4.63867Q59.9121 3.66211 59.6191 2.63672L52.9785-18.9941L46.7285-15.3809L53.3203 6.05469L53.6621 1.66016Q51.8066 3.27148 47.8027 4.12598Q43.7988 4.98047 39.3555 4.98047Q34.9609 4.98047 30.9326 4.12598Q26.9043 3.27148 25.0977 1.66016L25.4395 6.05469L32.0312-15.3809L25.7812-18.9941L19.0918 2.63672Q18.7988 3.66211 18.9209 4.63867Q19.043 5.61523 19.7266 6.39648Q21.6797 8.34961 24.9756 9.59473Q28.2715 10.8398 32.0557 11.4502Q35.8398 12.0605 39.3555 12.0605ZM13.623-75.5859L64.9414-75.5859Q66.4062-75.5859 67.4316-76.6357Q68.457-77.6855 68.457-79.1016Q68.457-80.5664 67.4316-81.6162Q66.4062-82.666 64.9414-82.666L13.623-82.666Q12.1582-82.666 11.1328-81.6162Q10.1074-80.5664 10.1074-79.1016Q10.1074-77.6855 11.1328-76.6357Q12.1582-75.5859 13.623-75.5859ZM16.2598-46.2402L23.3398-46.7773L21.2891-77.3438L14.209-76.9043ZM55.2246-46.7773L62.2559-46.2402L64.3555-76.9043L57.2754-77.3438Z"/>
  </g>
  <g id="Ultralight-S" transform="matrix(1 0 0 1 524.357 696)">
   <path class="template-0 SFSymbolsPreview000000" d="M35.3981-29.9904Q43.0519-29.9904 48.7843-31.2908Q54.5166-32.5912 57.7072-34.8518Q60.8978-37.1124 60.8978-40.0887Q60.8978-43.0618 57.6164-45.3243Q54.335-47.5868 48.5573-48.8853Q42.7795-50.1839 35.3981-50.1839Q28.0197-50.1839 22.242-48.8853Q16.4642-47.5868 13.1378-45.3243Q9.8114-43.0618 9.8114-40.0887Q9.8114-37.1124 13.1378-34.8518Q16.4642-32.5912 22.2439-31.2908Q28.0235-29.9904 35.3981-29.9904ZM35.3523-32.2571Q28.6736-32.2571 23.3929-33.2512Q18.1122-34.2453 15.0948-36.0332Q12.0773-37.8212 12.0773-40.0887Q12.0773-42.3981 15.0948-44.165Q18.1122-45.932 23.3929-46.949Q28.6736-47.966 35.3523-47.966Q42.0807-47.966 47.3389-46.949Q52.597-45.932 55.6351-44.165Q58.6731-42.3981 58.6731-40.0887Q58.6731-37.8212 55.7259-36.0332Q52.7786-34.2453 47.543-33.2512Q42.3073-32.2571 35.3523-32.2571ZM34.7923-15.7791L35.9612-15.7791Q43.2175-15.7791 48.8613-18.7199Q54.5052-21.6606 57.7293-27.1103Q60.9535-32.56 60.9428-40.0887L58.6731-40.0887Q58.638-33.284 55.6866-28.3314Q52.7351-23.3788 47.6128-20.6879Q42.4904-17.997 35.9612-17.997L34.7923-17.997Q28.26-17.997 23.1148-20.6879Q17.9695-23.3788 15.02-28.3295Q12.0705-33.2802 12.0773-40.0887L9.76562-40.0887Q9.75571-32.56 12.9795-27.1103Q16.2033-21.6606 21.8697-18.7199Q27.536-15.7791 34.7923-15.7791ZM35.3592 5.93033Q38.6971 5.93033 41.7774 5.43327Q44.8578 4.93622 47.2225 4.07715Q49.5872 3.21808 50.856 2.12784Q51.6792 1.43738 51.7315 0.665283Q51.7838-0.106812 51.445-1.31378L46.5759-18.631L44.5946-17.5606L49.9146 1.51367L50.029-0.110626Q48.0827 1.63651 44.1471 2.67258Q40.2115 3.70865 35.3592 3.70865Q30.5107 3.70865 26.5732 2.67258Q22.6357 1.63651 20.6932-0.110626L20.8076 1.51367L26.1276-17.5606L24.1463-18.631L19.2734-1.31378Q18.9354-0.106812 18.9892 0.665283Q19.043 1.43738 19.8631 2.12784Q21.1349 3.21808 23.5226 4.07715Q25.9102 4.93622 28.9677 5.43327Q32.0251 5.93033 35.3592 5.93033ZM11.7157-74.2233L58.9928-74.2233Q59.4589-74.2233 59.7801-74.5468Q60.1013-74.8703 60.1013-75.3326Q60.1013-75.798 59.7801-76.1215Q59.4589-76.445 58.9928-76.445L11.7157-76.445Q11.2503-76.445 10.9287-76.1215Q10.6071-75.798 10.6071-75.3326Q10.6071-74.8703 10.9287-74.5468Q11.2503-74.2233 11.7157-74.2233ZM16.5321-45.9679L18.708-47.2313L16.703-74.4377L14.3456-75.3601ZM52.0004-47.2313L54.1733-45.9679L56.3637-75.3601L54.0062-74.4377Z"/>
  </g>
 </g>
</svg>
