<?xml version="1.0" encoding="UTF-8"?>
<!--Generator: Apple Native CoreSVG 175.5-->
<!DOCTYPE svg
PUBLIC "-//W3C//DTD SVG 1.1//EN"
       "http://www.w3.org/Graphics/SVG/1.1/DTD/svg11.dtd">
<svg version="1.1" xmlns="http://www.w3.org/2000/svg" xmlns:xlink="http://www.w3.org/1999/xlink" width="3300" height="2200">
 <!--glyph: "uni10107E.medium", point size: 100.0, font version: "18.0d9e1", template writer version: "84"-->
 <style>.template-0 {fill:#000000}

.SFSymbolsPreview000000 {fill:#000000;opacity:1.0}
</style>
 <g id="Notes">
  <rect height="2200" id="artboard" style="fill:white;opacity:1" width="3300" x="0" y="0"/>
  <line style="fill:none;stroke:black;opacity:1;stroke-width:0.5;" x1="263" x2="3036" y1="292" y2="292"/>
  <text style="stroke:none;fill:black;font-family:sans-serif;font-size:13;font-weight:bold;" transform="matrix(1 0 0 1 263 322)">Weight/Scale Variations</text>
  <text style="stroke:none;fill:black;font-family:sans-serif;font-size:13;text-anchor:middle;" transform="matrix(1 0 0 1 559.711 322)">Ultralight</text>
  <text style="stroke:none;fill:black;font-family:sans-serif;font-size:13;text-anchor:middle;" transform="matrix(1 0 0 1 856.422 322)">Thin</text>
  <text style="stroke:none;fill:black;font-family:sans-serif;font-size:13;text-anchor:middle;" transform="matrix(1 0 0 1 1153.13 322)">Light</text>
  <text style="stroke:none;fill:black;font-family:sans-serif;font-size:13;text-anchor:middle;" transform="matrix(1 0 0 1 1449.84 322)">Regular</text>
  <text style="stroke:none;fill:black;font-family:sans-serif;font-size:13;text-anchor:middle;" transform="matrix(1 0 0 1 1746.56 322)">Medium</text>
  <text style="stroke:none;fill:black;font-family:sans-serif;font-size:13;text-anchor:middle;" transform="matrix(1 0 0 1 2043.27 322)">Semibold</text>
  <text style="stroke:none;fill:black;font-family:sans-serif;font-size:13;text-anchor:middle;" transform="matrix(1 0 0 1 2339.98 322)">Bold</text>
  <text style="stroke:none;fill:black;font-family:sans-serif;font-size:13;text-anchor:middle;" transform="matrix(1 0 0 1 2636.69 322)">Heavy</text>
  <text style="stroke:none;fill:black;font-family:sans-serif;font-size:13;text-anchor:middle;" transform="matrix(1 0 0 1 2933.4 322)">Black</text>
  <line style="fill:none;stroke:black;opacity:1;stroke-width:0.5;" x1="263" x2="3036" y1="1903" y2="1903"/>
  <g transform="matrix(1 0 0 1 263 1933)">
   <path d="M9.24805 0.830078Q10.8691 0.830078 12.2949 0.214844Q13.7207-0.400391 14.8096-1.49414Q15.8984-2.58789 16.5186-4.01367Q17.1387-5.43945 17.1387-7.05078Q17.1387-8.66211 16.5186-10.0879Q15.8984-11.5137 14.8047-12.6074Q13.7109-13.7012 12.2852-14.3164Q10.8594-14.9316 9.23828-14.9316Q7.62695-14.9316 6.20117-14.3164Q4.77539-13.7012 3.69141-12.6074Q2.60742-11.5137 1.9873-10.0879Q1.36719-8.66211 1.36719-7.05078Q1.36719-5.43945 1.9873-4.01367Q2.60742-2.58789 3.69629-1.49414Q4.78516-0.400391 6.21094 0.214844Q7.63672 0.830078 9.24805 0.830078ZM9.24805-0.654297Q7.91992-0.654297 6.7627-1.14746Q5.60547-1.64062 4.73145-2.51953Q3.85742-3.39844 3.36426-4.56055Q2.87109-5.72266 2.87109-7.05078Q2.87109-8.37891 3.35938-9.54102Q3.84766-10.7031 4.72168-11.582Q5.5957-12.4609 6.75293-12.9541Q7.91016-13.4473 9.23828-13.4473Q10.5762-13.4473 11.7383-12.9541Q12.9004-12.4609 13.7793-11.582Q14.6582-10.7031 15.1514-9.54102Q15.6445-8.37891 15.6445-7.05078Q15.6445-5.72266 15.1514-4.56055Q14.6582-3.39844 13.7793-2.51953Q12.9004-1.64062 11.7432-1.14746Q10.5859-0.654297 9.24805-0.654297ZM5.6543-7.05078Q5.6543-6.72852 5.85938-6.52832Q6.06445-6.32812 6.40625-6.32812L8.51562-6.32812L8.51562-4.20898Q8.51562-3.88672 8.71094-3.67676Q8.90625-3.4668 9.23828-3.4668Q9.56055-3.4668 9.77051-3.67676Q9.98047-3.88672 9.98047-4.20898L9.98047-6.32812L12.0898-6.32812Q12.4219-6.32812 12.627-6.52832Q12.832-6.72852 12.832-7.05078Q12.832-7.38281 12.627-7.58789Q12.4219-7.79297 12.0898-7.79297L9.98047-7.79297L9.98047-9.90234Q9.98047-10.2344 9.77051-10.4443Q9.56055-10.6543 9.23828-10.6543Q8.90625-10.6543 8.71094-10.4443Q8.51562-10.2344 8.51562-9.90234L8.51562-7.79297L6.40625-7.79297Q6.06445-7.79297 5.85938-7.58789Q5.6543-7.38281 5.6543-7.05078Z"/>
  </g>
  <g transform="matrix(1 0 0 1 281.867 1933)">
   <path d="M11.709 2.91016Q13.75 2.91016 15.5518 2.12891Q17.3535 1.34766 18.7305-0.0292969Q20.1074-1.40625 20.8887-3.20801Q21.6699-5.00977 21.6699-7.05078Q21.6699-9.0918 20.8887-10.8936Q20.1074-12.6953 18.7305-14.0723Q17.3535-15.4492 15.5469-16.2305Q13.7402-17.0117 11.6992-17.0117Q9.6582-17.0117 7.85645-16.2305Q6.05469-15.4492 4.68262-14.0723Q3.31055-12.6953 2.5293-10.8936Q1.74805-9.0918 1.74805-7.05078Q1.74805-5.00977 2.5293-3.20801Q3.31055-1.40625 4.6875-0.0292969Q6.06445 1.34766 7.86621 2.12891Q9.66797 2.91016 11.709 2.91016ZM11.709 1.25Q9.98047 1.25 8.47656 0.605469Q6.97266-0.0390625 5.83496-1.17676Q4.69727-2.31445 4.05762-3.81836Q3.41797-5.32227 3.41797-7.05078Q3.41797-8.7793 4.05762-10.2832Q4.69727-11.7871 5.83008-12.9297Q6.96289-14.0723 8.4668-14.7119Q9.9707-15.3516 11.6992-15.3516Q13.4277-15.3516 14.9365-14.7119Q16.4453-14.0723 17.583-12.9297Q18.7207-11.7871 19.3652-10.2832Q20.0098-8.7793 20.0098-7.05078Q20.0098-5.32227 19.3701-3.81836Q18.7305-2.31445 17.5879-1.17676Q16.4453-0.0390625 14.9414 0.605469Q13.4375 1.25 11.709 1.25ZM7.17773-7.05078Q7.17773-6.69922 7.41211-6.47461Q7.64648-6.25 8.01758-6.25L10.8887-6.25L10.8887-3.36914Q10.8887-2.99805 11.1133-2.76855Q11.3379-2.53906 11.6895-2.53906Q12.0605-2.53906 12.29-2.76855Q12.5195-2.99805 12.5195-3.36914L12.5195-6.25L15.4004-6.25Q15.7715-6.25 16.001-6.47461Q16.2305-6.69922 16.2305-7.05078Q16.2305-7.42188 16.001-7.65137Q15.7715-7.88086 15.4004-7.88086L12.5195-7.88086L12.5195-10.752Q12.5195-11.1328 12.29-11.3623Q12.0605-11.5918 11.6895-11.5918Q11.3379-11.5918 11.1133-11.3574Q10.8887-11.123 10.8887-10.752L10.8887-7.88086L8.01758-7.88086Q7.63672-7.88086 7.40723-7.65137Q7.17773-7.42188 7.17773-7.05078Z"/>
  </g>
  <g transform="matrix(1 0 0 1 305.646 1933)">
   <path d="M14.9707 5.66406Q17.0605 5.66406 18.96 5.01465Q20.8594 4.36523 22.4512 3.19336Q24.043 2.02148 25.2197 0.429688Q26.3965-1.16211 27.0459-3.06641Q27.6953-4.9707 27.6953-7.05078Q27.6953-9.14062 27.0459-11.04Q26.3965-12.9395 25.2197-14.5312Q24.043-16.123 22.4512-17.2998Q20.8594-18.4766 18.9551-19.126Q17.0508-19.7754 14.9609-19.7754Q12.8711-19.7754 10.9717-19.126Q9.07227-18.4766 7.48535-17.2998Q5.89844-16.123 4.72168-14.5312Q3.54492-12.9395 2.90039-11.04Q2.25586-9.14062 2.25586-7.05078Q2.25586-4.9707 2.90527-3.06641Q3.55469-1.16211 4.72656 0.429688Q5.89844 2.02148 7.49023 3.19336Q9.08203 4.36523 10.9814 5.01465Q12.8809 5.66406 14.9707 5.66406ZM14.9707 3.84766Q13.1641 3.84766 11.5283 3.2959Q9.89258 2.74414 8.53516 1.74805Q7.17773 0.751953 6.17676-0.610352Q5.17578-1.97266 4.62891-3.6084Q4.08203-5.24414 4.08203-7.05078Q4.08203-8.86719 4.62891-10.5029Q5.17578-12.1387 6.17188-13.501Q7.16797-14.8633 8.52539-15.8594Q9.88281-16.8555 11.5186-17.4023Q13.1543-17.9492 14.9609-17.9492Q16.7773-17.9492 18.4131-17.4023Q20.0488-16.8555 21.4111-15.8594Q22.7734-14.8633 23.7744-13.501Q24.7754-12.1387 25.3223-10.5029Q25.8691-8.86719 25.8691-7.05078Q25.8691-5.24414 25.3223-3.6084Q24.7754-1.97266 23.7793-0.610352Q22.7832 0.751953 21.4209 1.74805Q20.0586 2.74414 18.4229 3.2959Q16.7871 3.84766 14.9707 3.84766ZM9.19922-7.05078Q9.19922-6.66992 9.45801-6.4209Q9.7168-6.17188 10.1172-6.17188L14.0625-6.17188L14.0625-2.2168Q14.0625-1.81641 14.3115-1.55762Q14.5605-1.29883 14.9512-1.29883Q15.3516-1.29883 15.6104-1.55273Q15.8691-1.80664 15.8691-2.2168L15.8691-6.17188L19.8242-6.17188Q20.2246-6.17188 20.4785-6.4209Q20.7324-6.66992 20.7324-7.05078Q20.7324-7.46094 20.4785-7.71484Q20.2246-7.96875 19.8242-7.96875L15.8691-7.96875L15.8691-11.9141Q15.8691-12.3242 15.6104-12.583Q15.3516-12.8418 14.9512-12.8418Q14.5605-12.8418 14.3115-12.583Q14.0625-12.3242 14.0625-11.9141L14.0625-7.96875L10.1172-7.96875Q9.70703-7.96875 9.45312-7.71484Q9.19922-7.46094 9.19922-7.05078Z"/>
  </g>
  <text style="stroke:none;fill:black;font-family:sans-serif;font-size:13;font-weight:bold;" transform="matrix(1 0 0 1 263 1953)">Design Variations</text>
  <text style="stroke:none;fill:black;font-family:sans-serif;font-size:13;" transform="matrix(1 0 0 1 263 1971)">Symbols are supported in up to nine weights and three scales.</text>
  <text style="stroke:none;fill:black;font-family:sans-serif;font-size:13;" transform="matrix(1 0 0 1 263 1989)">For optimal layout with text and other symbols, vertically align</text>
  <text style="stroke:none;fill:black;font-family:sans-serif;font-size:13;" transform="matrix(1 0 0 1 263 2007)">symbols with the adjacent text.</text>
  <line style="fill:none;stroke:#00AEEF;stroke-width:0.5;opacity:1.0;" x1="776" x2="776" y1="1919" y2="1933"/>
  <g transform="matrix(1 0 0 1 776 1933)">
   <path d="M3.31055 0.15625Q3.70117 0.15625 3.91602-0.00976562Q4.13086-0.175781 4.26758-0.585938L5.52734-4.0332L11.2891-4.0332L12.5488-0.585938Q12.6855-0.175781 12.9004-0.00976562Q13.1152 0.15625 13.4961 0.15625Q13.8867 0.15625 14.1162-0.0585938Q14.3457-0.273438 14.3457-0.644531Q14.3457-0.869141 14.2383-1.17188L9.6582-13.3691Q9.48242-13.8184 9.17969-14.043Q8.87695-14.2676 8.4082-14.2676Q7.5-14.2676 7.17773-13.3789L2.59766-1.16211Q2.49023-0.859375 2.49023-0.634766Q2.49023-0.263672 2.70996-0.0537109Q2.92969 0.15625 3.31055 0.15625ZM6.00586-5.51758L8.37891-12.0898L8.42773-12.0898L10.8008-5.51758Z"/>
  </g>
  <line style="fill:none;stroke:#00AEEF;stroke-width:0.5;opacity:1.0;" x1="793.197" x2="793.197" y1="1919" y2="1933"/>
  <text style="stroke:none;fill:black;font-family:sans-serif;font-size:13;font-weight:bold;" transform="matrix(1 0 0 1 776 1953)">Margins</text>
  <text style="stroke:none;fill:black;font-family:sans-serif;font-size:13;" transform="matrix(1 0 0 1 776 1971)">Leading and trailing margins on the left and right side of each symbol</text>
  <text style="stroke:none;fill:black;font-family:sans-serif;font-size:13;" transform="matrix(1 0 0 1 776 1989)">can be adjusted by modifying the x-location of the margin guidelines.</text>
  <text style="stroke:none;fill:black;font-family:sans-serif;font-size:13;" transform="matrix(1 0 0 1 776 2007)">Modifications are automatically applied proportionally to all</text>
  <text style="stroke:none;fill:black;font-family:sans-serif;font-size:13;" transform="matrix(1 0 0 1 776 2025)">scales and weights.</text>
  <g transform="matrix(1 0 0 1 1289 1933)">
   <path d="M2.8418 1.86523L4.54102 3.57422Q5.18555 4.22852 5.90332 4.17969Q6.62109 4.13086 7.31445 3.35938L18.0078-8.42773L17.041-9.4043L6.42578 2.27539Q6.16211 2.57812 5.89355 2.61719Q5.625 2.65625 5.27344 2.30469L4.10156 1.14258Q3.75 0.791016 3.79395 0.522461Q3.83789 0.253906 4.14062-0.0195312L15.6152-10.8203L14.6387-11.7871L3.04688-0.898438Q2.30469-0.214844 2.25098 0.498047Q2.19727 1.21094 2.8418 1.86523ZM9.25781-16.3281Q8.94531-16.0254 8.90625-15.6348Q8.86719-15.2441 9.04297-14.9512Q9.21875-14.6777 9.55566-14.541Q9.89258-14.4043 10.3809-14.5215Q11.4746-14.7754 12.5977-14.7314Q13.7207-14.6875 14.7949-13.9844L14.209-12.5293Q13.9551-11.9043 14.0674-11.4404Q14.1797-10.9766 14.5801-10.5664L16.875-8.25195Q17.2363-7.88086 17.5781-7.82227Q17.9199-7.76367 18.3398-7.8418L19.4043-8.03711L20.0684-7.36328L20.0293-6.80664Q20-6.43555 20.1221-6.12305Q20.2441-5.81055 20.6055-5.44922L21.3672-4.70703Q21.7285-4.3457 22.1533-4.33105Q22.5781-4.31641 22.9297-4.66797L25.8398-7.58789Q26.1914-7.93945 26.1816-8.35449Q26.1719-8.76953 25.8105-9.13086L25.0391-9.89258Q24.6875-10.2539 24.3799-10.3857Q24.0723-10.5176 23.7109-10.4883L23.1348-10.4395L22.4902-11.0742L22.7344-12.1973Q22.832-12.6172 22.6953-12.9834Q22.5586-13.3496 22.1191-13.7891L19.9219-15.9766Q18.6719-17.2168 17.2607-17.8369Q15.8496-18.457 14.4189-18.4814Q12.9883-18.5059 11.665-17.959Q10.3418-17.4121 9.25781-16.3281ZM10.752-15.957Q11.6602-16.6211 12.7002-16.9043Q13.7402-17.1875 14.8047-17.085Q15.8691-16.9824 16.8701-16.5137Q17.8711-16.0449 18.7012-15.2051L21.1328-12.793Q21.3086-12.6172 21.3525-12.4512Q21.3965-12.2852 21.3379-12.0312L21.0156-10.5469L22.5195-9.0625L23.5059-9.12109Q23.6914-9.13086 23.7891-9.09668Q23.8867-9.0625 24.0332-8.91602L24.6094-8.33984L22.168-5.89844L21.5918-6.47461Q21.4453-6.62109 21.4062-6.71875Q21.3672-6.81641 21.377-7.01172L21.4453-7.98828L19.9512-9.47266L18.4277-9.21875Q18.1836-9.16992 18.042-9.2041Q17.9004-9.23828 17.7148-9.41406L15.7129-11.416Q15.5176-11.5918 15.4932-11.7529Q15.4688-11.9141 15.5859-12.1875L16.4648-14.2773Q15.293-15.3711 13.8281-15.791Q12.3633-16.2109 10.8398-15.7617Q10.7227-15.7324 10.6885-15.8057Q10.6543-15.8789 10.752-15.957Z"/>
  </g>
  <text style="stroke:none;fill:black;font-family:sans-serif;font-size:13;font-weight:bold;" transform="matrix(1 0 0 1 1289 1953)">Exporting</text>
  <text style="stroke:none;fill:black;font-family:sans-serif;font-size:13;" transform="matrix(1 0 0 1 1289 1971)">Symbols should be outlined when exporting to ensure the</text>
  <text style="stroke:none;fill:black;font-family:sans-serif;font-size:13;" transform="matrix(1 0 0 1 1289 1989)">design is preserved when submitting to Xcode.</text>
  <text id="template-version" style="stroke:none;fill:black;font-family:sans-serif;font-size:13;text-anchor:end;" transform="matrix(1 0 0 1 3036 1933)">Template v.4.0</text>
  <text style="stroke:none;fill:black;font-family:sans-serif;font-size:13;text-anchor:end;" transform="matrix(1 0 0 1 3036 1951)">Requires Xcode 14 or greater</text>
  <text id="descriptive-name" style="stroke:none;fill:black;font-family:sans-serif;font-size:13;text-anchor:end;" transform="matrix(1 0 0 1 3036 1969)">Generated from box.truck</text>
  <text style="stroke:none;fill:black;font-family:sans-serif;font-size:13;text-anchor:end;" transform="matrix(1 0 0 1 3036 1987)">Typeset at 100 points</text>
  <text style="stroke:none;fill:black;font-family:sans-serif;font-size:13;" transform="matrix(1 0 0 1 263 726)">Small</text>
  <text style="stroke:none;fill:black;font-family:sans-serif;font-size:13;" transform="matrix(1 0 0 1 263 1156)">Medium</text>
  <text style="stroke:none;fill:black;font-family:sans-serif;font-size:13;" transform="matrix(1 0 0 1 263 1586)">Large</text>
 </g>
 <g id="Guides">
  <g id="H-reference" style="fill:#27AAE1;stroke:none;" transform="matrix(1 0 0 1 339 696)">
   <path d="M0.993347 0L3.6377 0L29.3282-67.1326L30.0301-67.1326L30.0301-70.459L28.1227-70.459ZM11.6882-24.4797L46.9818-24.4797L46.2311-26.7288L12.4382-26.7288ZM55.1193 0L57.7637 0L30.6381-70.459L29.4327-70.459L29.4327-67.1326Z"/>
  </g>
  <line id="Baseline-S" style="fill:none;stroke:#27AAE1;opacity:1;stroke-width:0.5;" x1="263" x2="3036" y1="696" y2="696"/>
  <line id="Capline-S" style="fill:none;stroke:#27AAE1;opacity:1;stroke-width:0.5;" x1="263" x2="3036" y1="625.541" y2="625.541"/>
  <g id="H-reference" style="fill:#27AAE1;stroke:none;" transform="matrix(1 0 0 1 339 1126)">
   <path d="M0.993347 0L3.6377 0L29.3282-67.1326L30.0301-67.1326L30.0301-70.459L28.1227-70.459ZM11.6882-24.4797L46.9818-24.4797L46.2311-26.7288L12.4382-26.7288ZM55.1193 0L57.7637 0L30.6381-70.459L29.4327-70.459L29.4327-67.1326Z"/>
  </g>
  <line id="Baseline-M" style="fill:none;stroke:#27AAE1;opacity:1;stroke-width:0.5;" x1="263" x2="3036" y1="1126" y2="1126"/>
  <line id="Capline-M" style="fill:none;stroke:#27AAE1;opacity:1;stroke-width:0.5;" x1="263" x2="3036" y1="1055.54" y2="1055.54"/>
  <g id="H-reference" style="fill:#27AAE1;stroke:none;" transform="matrix(1 0 0 1 339 1556)">
   <path d="M0.993347 0L3.6377 0L29.3282-67.1326L30.0301-67.1326L30.0301-70.459L28.1227-70.459ZM11.6882-24.4797L46.9818-24.4797L46.2311-26.7288L12.4382-26.7288ZM55.1193 0L57.7637 0L30.6381-70.459L29.4327-70.459L29.4327-67.1326Z"/>
  </g>
  <line id="Baseline-L" style="fill:none;stroke:#27AAE1;opacity:1;stroke-width:0.5;" x1="263" x2="3036" y1="1556" y2="1556"/>
  <line id="Capline-L" style="fill:none;stroke:#27AAE1;opacity:1;stroke-width:0.5;" x1="263" x2="3036" y1="1485.54" y2="1485.54"/>
  <line id="left-margin-Ultralight-S" style="fill:none;stroke:#00AEEF;stroke-width:0.5;opacity:1.0;" x1="496.224" x2="496.224" y1="600.785" y2="720.121"/>
  <line id="right-margin-Ultralight-S" style="fill:none;stroke:#00AEEF;stroke-width:0.5;opacity:1.0;" x1="623.198" x2="623.198" y1="600.785" y2="720.121"/>
  <line id="left-margin-Regular-S" style="fill:none;stroke:#00AEEF;stroke-width:0.5;opacity:1.0;" x1="1383.95" x2="1383.95" y1="600.785" y2="720.121"/>
  <line id="right-margin-Regular-S" style="fill:none;stroke:#00AEEF;stroke-width:0.5;opacity:1.0;" x1="1515.74" x2="1515.74" y1="600.785" y2="720.121"/>
  <line id="left-margin-Black-S" style="fill:none;stroke:#00AEEF;stroke-width:0.5;opacity:1.0;" x1="2857.69" x2="2857.69" y1="600.785" y2="720.121"/>
  <line id="right-margin-Black-S" style="fill:none;stroke:#00AEEF;stroke-width:0.5;opacity:1.0;" x1="3009.11" x2="3009.11" y1="600.785" y2="720.121"/>
 </g>
 <g id="Symbols">
  <g id="Black-S" transform="matrix(1 0 0 1 2857.69 696)">
   <path class="template-0 SFSymbolsPreview000000" d="M25.6348 1.12305L31.6406 1.12305L31.6406-12.8906L27.2949-12.8906Q25.5371-12.8906 24.6826-13.6719Q23.8281-14.4531 23.8281-16.3574L23.8281-65.4785Q23.8281-67.3828 24.6826-68.1641Q25.5371-68.9453 27.2949-68.9453L83.8379-68.9453Q85.5957-68.9453 86.4502-68.1641Q87.3047-67.3828 87.3047-65.4785L87.3047-11.7676L101.367-11.7676L101.367-67.0898Q101.367-74.5605 97.1924-78.7598Q93.0176-82.959 85.5469-82.959L25.6348-82.959Q18.1641-82.959 13.9648-78.7598Q9.76562-74.5605 9.76562-67.0898L9.76562-14.7461Q9.76562-7.27539 13.9648-3.07617Q18.1641 1.12305 25.6348 1.12305ZM44.1406 12.5Q48.9746 12.5 52.9541 10.1318Q56.9336 7.76367 59.2773 3.75977Q61.6211-0.244141 61.6211-5.0293Q61.6211-9.86328 59.2773-13.8428Q56.9336-17.8223 52.9541-20.166Q48.9746-22.5098 44.1406-22.5098Q39.3555-22.5098 35.3516-20.166Q31.3477-17.8223 28.9795-13.8428Q26.6113-9.86328 26.6113-5.0293Q26.6113-0.244141 28.9795 3.75977Q31.3477 7.76367 35.3516 10.1318Q39.3555 12.5 44.1406 12.5ZM106.055 12.5Q110.889 12.5 114.844 10.1318Q118.799 7.76367 121.167 3.75977Q123.535-0.244141 123.535-5.0293Q123.535-9.86328 121.167-13.8428Q118.799-17.8223 114.844-20.166Q110.889-22.5098 106.055-22.5098Q101.221-22.5098 97.2412-20.166Q93.2617-17.8223 90.8936-13.8428Q88.5254-9.86328 88.5254-5.0293Q88.5254-0.244141 90.8936 3.75977Q93.2617 7.76367 97.2412 10.1318Q101.221 12.5 106.055 12.5ZM94.0918-47.6562L109.814-47.6562Q111.377-47.6562 112.573-47.1436Q113.77-46.6309 114.697-45.6055L125.781-33.1543Q126.709-32.0801 127.148-30.8838Q127.588-29.6875 127.588-27.832L127.588-16.3574Q127.588-14.4531 126.733-13.6719Q125.879-12.8906 124.121-12.8906L119.775-12.8906L119.775 1.12305L125.781 1.12305Q133.252 1.12305 137.451-3.07617Q141.65-7.27539 141.65-14.7461L141.65-29.7852Q141.65-33.6914 140.845-36.0352Q140.039-38.3789 137.842-40.8203L123.73-56.7871Q121.387-59.4238 118.555-60.5713Q115.723-61.7188 111.768-61.7188L94.0918-61.7188ZM109.131-29.3457L122.852-29.3457Q122.852-29.9805 122.632-30.3467Q122.412-30.7129 122.021-31.1523L112.793-41.6016Q111.963-42.5781 111.182-42.9443Q110.4-43.3105 109.033-43.3105L104.834-43.3105L104.834-33.6914Q104.834-31.7383 106.006-30.542Q107.178-29.3457 109.131-29.3457ZM56.7383 1.12305L93.0176 1.12305L93.0176-12.8906L56.7383-12.8906ZM44.1406 1.07422Q41.6504 1.07422 39.8438-0.732422Q38.0371-2.53906 38.0371-5.0293Q38.0371-7.56836 39.8438-9.35059Q41.6504-11.1328 44.1406-11.1328Q46.6797-11.1328 48.4375-9.35059Q50.1953-7.56836 50.1953-5.0293Q50.1953-2.53906 48.4375-0.732422Q46.6797 1.07422 44.1406 1.07422ZM106.055 1.07422Q103.516 1.07422 101.733-0.732422Q99.9512-2.53906 99.9512-5.0293Q99.9512-7.56836 101.733-9.35059Q103.516-11.1328 106.055-11.1328Q108.594-11.1328 110.352-9.35059Q112.109-7.56836 112.109-5.0293Q112.109-2.53906 110.352-0.732422Q108.594 1.07422 106.055 1.07422Z"/>
  </g>
  <g id="Regular-S" transform="matrix(1 0 0 1 1383.95 696)">
   <path class="template-0 SFSymbolsPreview000000" d="M20.2637-3.07617L29.2969-3.07617L29.2969-10.1074L20.3613-10.1074Q18.6035-10.1074 17.7002-11.0107Q16.7969-11.9141 16.7969-13.6719L16.7969-64.2578Q16.7969-66.0156 17.7002-66.9189Q18.6035-67.8223 20.3613-67.8223L77.002-67.8223Q78.7598-67.8223 79.6631-66.9189Q80.5664-66.0156 80.5664-64.2578L80.5664-8.34961L87.5977-11.0352L87.5977-64.3555Q87.5977-69.5312 84.9365-72.1924Q82.2754-74.8535 77.0996-74.8535L20.2637-74.8535Q15.0879-74.8535 12.4268-72.1924Q9.76562-69.5312 9.76562-64.3555L9.76562-13.5742Q9.76562-8.39844 12.4268-5.7373Q15.0879-3.07617 20.2637-3.07617ZM38.5742 7.4707Q42.2363 7.4707 45.2637 5.66406Q48.291 3.85742 50.0732 0.830078Q51.8555-2.19727 51.8555-5.85938Q51.8555-9.52148 50.0732-12.5244Q48.291-15.5273 45.2637-17.3096Q42.2363-19.0918 38.5742-19.0918Q34.9121-19.0918 31.8848-17.3096Q28.8574-15.5273 27.0752-12.5244Q25.293-9.52148 25.293-5.85938Q25.293-2.19727 27.0752 0.830078Q28.8574 3.85742 31.8848 5.66406Q34.9121 7.4707 38.5742 7.4707ZM93.4082 7.4707Q97.0703 7.4707 100.098 5.66406Q103.125 3.85742 104.907 0.830078Q106.689-2.19727 106.689-5.85938Q106.689-9.52148 104.907-12.5244Q103.125-15.5273 100.098-17.3096Q97.0703-19.0918 93.4082-19.0918Q89.7461-19.0918 86.7188-17.3096Q83.6914-15.5273 81.9092-12.5244Q80.127-9.52148 80.127-5.85938Q80.127-2.19727 81.9092 0.830078Q83.6914 3.85742 86.7188 5.66406Q89.7461 7.4707 93.4082 7.4707ZM83.8379-46.7773L96.9727-46.7773Q98.3398-46.7773 99.3896-46.4111Q100.439-46.0449 101.66-44.6777L113.477-31.3965Q114.258-30.5664 114.624-29.4678Q114.99-28.3691 114.99-27.3926L114.99-13.6719Q114.99-11.9141 114.087-11.0107Q113.184-10.1074 111.426-10.1074L104.736-10.1074L104.736-3.07617L111.523-3.07617Q116.699-3.07617 119.36-5.7373Q122.021-8.39844 122.021-13.5742L122.021-27.2949Q122.021-30.3223 121.46-31.9824Q120.898-33.6426 119.238-35.5469L106.201-50.2441Q104.395-52.2461 102.344-53.0273Q100.293-53.8086 97.3633-53.8086L83.8379-53.8086ZM94.9219-26.6602L110.645-26.6602Q110.645-27.3438 110.4-27.8076Q110.156-28.2715 109.717-28.7598L98.3398-41.5527Q97.7051-42.2363 96.9727-42.627Q96.2402-43.0176 95.5566-43.0176L91.4062-43.0176L91.4062-30.1758Q91.4062-28.5156 92.334-27.5879Q93.2617-26.6602 94.9219-26.6602ZM48.584-3.07617L83.3496-3.07617L83.3496-10.1074L48.584-10.1074ZM38.5742 1.5625Q35.498 1.5625 33.3252-0.610352Q31.1523-2.7832 31.1523-5.85938Q31.1523-8.88672 33.3252-11.084Q35.498-13.2812 38.5742-13.2812Q41.6504-13.2812 43.7988-11.084Q45.9473-8.88672 45.9473-5.85938Q45.9473-2.7832 43.7988-0.610352Q41.6504 1.5625 38.5742 1.5625ZM93.4082 1.5625Q90.332 1.5625 88.1592-0.610352Q85.9863-2.7832 85.9863-5.85938Q85.9863-8.88672 88.1592-11.084Q90.332-13.2812 93.4082-13.2812Q96.3867-13.2812 98.584-11.084Q100.781-8.88672 100.781-5.85938Q100.781-2.7832 98.6328-0.610352Q96.4844 1.5625 93.4082 1.5625Z"/>
  </g>
  <g id="Ultralight-S" transform="matrix(1 0 0 1 496.224 696)">
   <path class="template-0 SFSymbolsPreview000000" d="M19.6732-7.20825L25.2098-7.20825L25.2098-9.42612L19.7708-9.42612Q15.9241-9.42612 13.9538-11.3968Q11.9835-13.3675 11.9835-17.2142L11.9835-64.4394Q11.9835-68.2861 13.9538-70.2564Q15.9241-72.2267 19.7708-72.2267L72.7791-72.2267Q76.4893-72.2267 78.5278-70.2564Q80.5664-68.2861 80.5664-64.4394L80.5664-7.48672L82.7843-7.58438L82.7843-64.537Q82.7843-69.3039 80.2593-71.8742Q77.7344-74.4446 72.8767-74.4446L19.6732-74.4446Q14.8155-74.4446 12.2906-71.9196Q9.76562-69.3947 9.76562-64.537L9.76562-17.1165Q9.76562-12.2581 12.2906-9.7332Q14.8155-7.20825 19.6732-7.20825ZM36.1671 4.06494Q39.5119 4.06494 42.2668 2.43988Q45.0218 0.814819 46.645-1.94016Q48.2681-4.69513 48.2681-8.03909Q48.2681-11.3831 46.645-14.1365Q45.0218-16.89 42.2668-18.5356Q39.5119-20.1813 36.1671-20.1813Q32.8232-20.1813 30.0682-18.5356Q27.3132-16.89 25.6672-14.1365Q24.0211-11.3831 24.0211-8.03909Q24.0211-4.69513 25.6672-1.94016Q27.3132 0.814819 30.0682 2.43988Q32.8232 4.06494 36.1671 4.06494ZM92.6819 4.06494Q95.9808 4.06494 98.7354 2.43988Q101.49 0.814819 103.136-1.94016Q104.782-4.69513 104.782-8.03909Q104.782-11.3831 103.136-14.1365Q101.49-16.89 98.7354-18.5356Q95.9808-20.1813 92.6819-20.1813Q89.3372-20.1813 86.5826-18.5356Q83.828-16.89 82.1819-14.1365Q80.5359-11.3831 80.5359-8.03909Q80.5359-4.69513 82.1819-1.94016Q83.828 0.814819 86.5826 2.43988Q89.3372 4.06494 92.6819 4.06494ZM81.2042-50.9094L94.5656-50.9094Q96.5233-50.9094 97.9137-50.3845Q99.3042-49.8596 100.207-48.9006L113.249-34.3025Q114.121-33.3817 114.556-32.2151Q114.99-31.0486 114.99-29.7539L114.99-17.2142Q114.99-13.3675 113.02-11.3968Q111.05-9.42612 107.203-9.42612L103.238-9.42612L103.238-7.20825L107.301-7.20825Q112.158-7.20825 114.683-9.7332Q117.208-12.2581 117.208-17.1165L117.208-29.6562Q117.208-31.4575 116.647-32.9586Q116.085-34.4597 115.015-35.6834L101.978-50.3349Q100.716-51.7014 98.9609-52.4143Q97.2054-53.1273 94.9562-53.1273L81.2042-53.1273ZM89.2006-30.5656L110.281-30.5656Q110.281-31.2035 110.014-31.6448Q109.747-32.0862 109.354-32.5745L97.9309-45.3674Q97.3419-46.0052 96.5412-46.3959Q95.7405-46.7865 94.3756-46.7865L87.0926-46.7865L87.0926-32.6736Q87.0926-31.7398 87.6797-31.1527Q88.2668-30.5656 89.2006-30.5656ZM47.1764-7.20825L82.5775-7.20825L82.5775-9.42612L47.1764-9.42612ZM36.1671 1.92566Q32.0473 1.92566 29.1248-0.996399Q26.2024-3.91846 26.2024-8.03909Q26.2024-12.1559 29.1248-15.0799Q32.0473-18.0038 36.1671-18.0038Q40.2878-18.0038 43.2083-15.0799Q46.1288-12.1559 46.1288-8.03909Q46.1288-3.91846 43.2083-0.996399Q40.2878 1.92566 36.1671 1.92566ZM92.6819 1.92566Q88.5612 1.92566 85.6163-0.996399Q82.6714-3.91846 82.6714-8.03909Q82.6714-12.1559 85.6163-15.0799Q88.5612-18.0038 92.6819-18.0038Q96.7957-18.0038 99.7192-15.0799Q102.643-12.1559 102.643-8.03909Q102.643-3.91846 99.7227-0.996399Q96.8025 1.92566 92.6819 1.92566Z"/>
  </g>
 </g>
</svg>
