<?xml version="1.0" encoding="UTF-8"?>
<!--Generator: Apple Native CoreSVG 175.5-->
<!DOCTYPE svg
PUBLIC "-//W3C//DTD SVG 1.1//EN"
       "http://www.w3.org/Graphics/SVG/1.1/DTD/svg11.dtd">
<svg version="1.1" xmlns="http://www.w3.org/2000/svg" xmlns:xlink="http://www.w3.org/1999/xlink" width="3300" height="2200">
 <!--glyph: "uni10107E.medium", point size: 100.0, font version: "18.0d9e1", template writer version: "84"-->
 <g id="Notes">
  <rect height="2200" id="artboard" style="fill:white;opacity:1" width="3300" x="0" y="0"/>
  <line style="fill:none;stroke:black;opacity:1;stroke-width:0.5;" x1="263" x2="3036" y1="292" y2="292"/>
  <text style="stroke:none;fill:black;font-family:sans-serif;font-size:13;font-weight:bold;" transform="matrix(1 0 0 1 263 322)">Weight/Scale Variations</text>
  <text style="stroke:none;fill:black;font-family:sans-serif;font-size:13;text-anchor:middle;" transform="matrix(1 0 0 1 559.711 322)">Ultralight</text>
  <text style="stroke:none;fill:black;font-family:sans-serif;font-size:13;text-anchor:middle;" transform="matrix(1 0 0 1 856.422 322)">Thin</text>
  <text style="stroke:none;fill:black;font-family:sans-serif;font-size:13;text-anchor:middle;" transform="matrix(1 0 0 1 1153.13 322)">Light</text>
  <text style="stroke:none;fill:black;font-family:sans-serif;font-size:13;text-anchor:middle;" transform="matrix(1 0 0 1 1449.84 322)">Regular</text>
  <text style="stroke:none;fill:black;font-family:sans-serif;font-size:13;text-anchor:middle;" transform="matrix(1 0 0 1 1746.56 322)">Medium</text>
  <text style="stroke:none;fill:black;font-family:sans-serif;font-size:13;text-anchor:middle;" transform="matrix(1 0 0 1 2043.27 322)">Semibold</text>
  <text style="stroke:none;fill:black;font-family:sans-serif;font-size:13;text-anchor:middle;" transform="matrix(1 0 0 1 2339.98 322)">Bold</text>
  <text style="stroke:none;fill:black;font-family:sans-serif;font-size:13;text-anchor:middle;" transform="matrix(1 0 0 1 2636.69 322)">Heavy</text>
  <text style="stroke:none;fill:black;font-family:sans-serif;font-size:13;text-anchor:middle;" transform="matrix(1 0 0 1 2933.4 322)">Black</text>
  <line style="fill:none;stroke:black;opacity:1;stroke-width:0.5;" x1="263" x2="3036" y1="1903" y2="1903"/>
  <g transform="matrix(1 0 0 1 263 1933)">
   <path d="M9.24805 0.830078Q10.8691 0.830078 12.2949 0.214844Q13.7207-0.400391 14.8096-1.49414Q15.8984-2.58789 16.5186-4.01367Q17.1387-5.43945 17.1387-7.05078Q17.1387-8.66211 16.5186-10.0879Q15.8984-11.5137 14.8047-12.6074Q13.7109-13.7012 12.2852-14.3164Q10.8594-14.9316 9.23828-14.9316Q7.62695-14.9316 6.20117-14.3164Q4.77539-13.7012 3.69141-12.6074Q2.60742-11.5137 1.9873-10.0879Q1.36719-8.66211 1.36719-7.05078Q1.36719-5.43945 1.9873-4.01367Q2.60742-2.58789 3.69629-1.49414Q4.78516-0.400391 6.21094 0.214844Q7.63672 0.830078 9.24805 0.830078ZM9.24805-0.654297Q7.91992-0.654297 6.7627-1.14746Q5.60547-1.64062 4.73145-2.51953Q3.85742-3.39844 3.36426-4.56055Q2.87109-5.72266 2.87109-7.05078Q2.87109-8.37891 3.35938-9.54102Q3.84766-10.7031 4.72168-11.582Q5.5957-12.4609 6.75293-12.9541Q7.91016-13.4473 9.23828-13.4473Q10.5762-13.4473 11.7383-12.9541Q12.9004-12.4609 13.7793-11.582Q14.6582-10.7031 15.1514-9.54102Q15.6445-8.37891 15.6445-7.05078Q15.6445-5.72266 15.1514-4.56055Q14.6582-3.39844 13.7793-2.51953Q12.9004-1.64062 11.7432-1.14746Q10.5859-0.654297 9.24805-0.654297ZM5.6543-7.05078Q5.6543-6.72852 5.85938-6.52832Q6.06445-6.32812 6.40625-6.32812L8.51562-6.32812L8.51562-4.20898Q8.51562-3.88672 8.71094-3.67676Q8.90625-3.4668 9.23828-3.4668Q9.56055-3.4668 9.77051-3.67676Q9.98047-3.88672 9.98047-4.20898L9.98047-6.32812L12.0898-6.32812Q12.4219-6.32812 12.627-6.52832Q12.832-6.72852 12.832-7.05078Q12.832-7.38281 12.627-7.58789Q12.4219-7.79297 12.0898-7.79297L9.98047-7.79297L9.98047-9.90234Q9.98047-10.2344 9.77051-10.4443Q9.56055-10.6543 9.23828-10.6543Q8.90625-10.6543 8.71094-10.4443Q8.51562-10.2344 8.51562-9.90234L8.51562-7.79297L6.40625-7.79297Q6.06445-7.79297 5.85938-7.58789Q5.6543-7.38281 5.6543-7.05078Z"/>
  </g>
  <g transform="matrix(1 0 0 1 281.867 1933)">
   <path d="M11.709 2.91016Q13.75 2.91016 15.5518 2.12891Q17.3535 1.34766 18.7305-0.0292969Q20.1074-1.40625 20.8887-3.20801Q21.6699-5.00977 21.6699-7.05078Q21.6699-9.0918 20.8887-10.8936Q20.1074-12.6953 18.7305-14.0723Q17.3535-15.4492 15.5469-16.2305Q13.7402-17.0117 11.6992-17.0117Q9.6582-17.0117 7.85645-16.2305Q6.05469-15.4492 4.68262-14.0723Q3.31055-12.6953 2.5293-10.8936Q1.74805-9.0918 1.74805-7.05078Q1.74805-5.00977 2.5293-3.20801Q3.31055-1.40625 4.6875-0.0292969Q6.06445 1.34766 7.86621 2.12891Q9.66797 2.91016 11.709 2.91016ZM11.709 1.25Q9.98047 1.25 8.47656 0.605469Q6.97266-0.0390625 5.83496-1.17676Q4.69727-2.31445 4.05762-3.81836Q3.41797-5.32227 3.41797-7.05078Q3.41797-8.7793 4.05762-10.2832Q4.69727-11.7871 5.83008-12.9297Q6.96289-14.0723 8.4668-14.7119Q9.9707-15.3516 11.6992-15.3516Q13.4277-15.3516 14.9365-14.7119Q16.4453-14.0723 17.583-12.9297Q18.7207-11.7871 19.3652-10.2832Q20.0098-8.7793 20.0098-7.05078Q20.0098-5.32227 19.3701-3.81836Q18.7305-2.31445 17.5879-1.17676Q16.4453-0.0390625 14.9414 0.605469Q13.4375 1.25 11.709 1.25ZM7.17773-7.05078Q7.17773-6.69922 7.41211-6.47461Q7.64648-6.25 8.01758-6.25L10.8887-6.25L10.8887-3.36914Q10.8887-2.99805 11.1133-2.76855Q11.3379-2.53906 11.6895-2.53906Q12.0605-2.53906 12.29-2.76855Q12.5195-2.99805 12.5195-3.36914L12.5195-6.25L15.4004-6.25Q15.7715-6.25 16.001-6.47461Q16.2305-6.69922 16.2305-7.05078Q16.2305-7.42188 16.001-7.65137Q15.7715-7.88086 15.4004-7.88086L12.5195-7.88086L12.5195-10.752Q12.5195-11.1328 12.29-11.3623Q12.0605-11.5918 11.6895-11.5918Q11.3379-11.5918 11.1133-11.3574Q10.8887-11.123 10.8887-10.752L10.8887-7.88086L8.01758-7.88086Q7.63672-7.88086 7.40723-7.65137Q7.17773-7.42188 7.17773-7.05078Z"/>
  </g>
  <g transform="matrix(1 0 0 1 305.646 1933)">
   <path d="M14.9707 5.66406Q17.0605 5.66406 18.96 5.01465Q20.8594 4.36523 22.4512 3.19336Q24.043 2.02148 25.2197 0.429688Q26.3965-1.16211 27.0459-3.06641Q27.6953-4.9707 27.6953-7.05078Q27.6953-9.14062 27.0459-11.04Q26.3965-12.9395 25.2197-14.5312Q24.043-16.123 22.4512-17.2998Q20.8594-18.4766 18.9551-19.126Q17.0508-19.7754 14.9609-19.7754Q12.8711-19.7754 10.9717-19.126Q9.07227-18.4766 7.48535-17.2998Q5.89844-16.123 4.72168-14.5312Q3.54492-12.9395 2.90039-11.04Q2.25586-9.14062 2.25586-7.05078Q2.25586-4.9707 2.90527-3.06641Q3.55469-1.16211 4.72656 0.429688Q5.89844 2.02148 7.49023 3.19336Q9.08203 4.36523 10.9814 5.01465Q12.8809 5.66406 14.9707 5.66406ZM14.9707 3.84766Q13.1641 3.84766 11.5283 3.2959Q9.89258 2.74414 8.53516 1.74805Q7.17773 0.751953 6.17676-0.610352Q5.17578-1.97266 4.62891-3.6084Q4.08203-5.24414 4.08203-7.05078Q4.08203-8.86719 4.62891-10.5029Q5.17578-12.1387 6.17188-13.501Q7.16797-14.8633 8.52539-15.8594Q9.88281-16.8555 11.5186-17.4023Q13.1543-17.9492 14.9609-17.9492Q16.7773-17.9492 18.4131-17.4023Q20.0488-16.8555 21.4111-15.8594Q22.7734-14.8633 23.7744-13.501Q24.7754-12.1387 25.3223-10.5029Q25.8691-8.86719 25.8691-7.05078Q25.8691-5.24414 25.3223-3.6084Q24.7754-1.97266 23.7793-0.610352Q22.7832 0.751953 21.4209 1.74805Q20.0586 2.74414 18.4229 3.2959Q16.7871 3.84766 14.9707 3.84766ZM9.19922-7.05078Q9.19922-6.66992 9.45801-6.4209Q9.7168-6.17188 10.1172-6.17188L14.0625-6.17188L14.0625-2.2168Q14.0625-1.81641 14.3115-1.55762Q14.5605-1.29883 14.9512-1.29883Q15.3516-1.29883 15.6104-1.55273Q15.8691-1.80664 15.8691-2.2168L15.8691-6.17188L19.8242-6.17188Q20.2246-6.17188 20.4785-6.4209Q20.7324-6.66992 20.7324-7.05078Q20.7324-7.46094 20.4785-7.71484Q20.2246-7.96875 19.8242-7.96875L15.8691-7.96875L15.8691-11.9141Q15.8691-12.3242 15.6104-12.583Q15.3516-12.8418 14.9512-12.8418Q14.5605-12.8418 14.3115-12.583Q14.0625-12.3242 14.0625-11.9141L14.0625-7.96875L10.1172-7.96875Q9.70703-7.96875 9.45312-7.71484Q9.19922-7.46094 9.19922-7.05078Z"/>
  </g>
  <text style="stroke:none;fill:black;font-family:sans-serif;font-size:13;font-weight:bold;" transform="matrix(1 0 0 1 263 1953)">Design Variations</text>
  <text style="stroke:none;fill:black;font-family:sans-serif;font-size:13;" transform="matrix(1 0 0 1 263 1971)">Symbols are supported in up to nine weights and three scales.</text>
  <text style="stroke:none;fill:black;font-family:sans-serif;font-size:13;" transform="matrix(1 0 0 1 263 1989)">For optimal layout with text and other symbols, vertically align</text>
  <text style="stroke:none;fill:black;font-family:sans-serif;font-size:13;" transform="matrix(1 0 0 1 263 2007)">symbols with the adjacent text.</text>
  <line style="fill:none;stroke:#00AEEF;stroke-width:0.5;opacity:1.0;" x1="776" x2="776" y1="1919" y2="1933"/>
  <g transform="matrix(1 0 0 1 776 1933)">
   <path d="M3.31055 0.15625Q3.70117 0.15625 3.91602-0.00976562Q4.13086-0.175781 4.26758-0.585938L5.52734-4.0332L11.2891-4.0332L12.5488-0.585938Q12.6855-0.175781 12.9004-0.00976562Q13.1152 0.15625 13.4961 0.15625Q13.8867 0.15625 14.1162-0.0585938Q14.3457-0.273438 14.3457-0.644531Q14.3457-0.869141 14.2383-1.17188L9.6582-13.3691Q9.48242-13.8184 9.17969-14.043Q8.87695-14.2676 8.4082-14.2676Q7.5-14.2676 7.17773-13.3789L2.59766-1.16211Q2.49023-0.859375 2.49023-0.634766Q2.49023-0.263672 2.70996-0.0537109Q2.92969 0.15625 3.31055 0.15625ZM6.00586-5.51758L8.37891-12.0898L8.42773-12.0898L10.8008-5.51758Z"/>
  </g>
  <line style="fill:none;stroke:#00AEEF;stroke-width:0.5;opacity:1.0;" x1="793.197" x2="793.197" y1="1919" y2="1933"/>
  <text style="stroke:none;fill:black;font-family:sans-serif;font-size:13;font-weight:bold;" transform="matrix(1 0 0 1 776 1953)">Margins</text>
  <text style="stroke:none;fill:black;font-family:sans-serif;font-size:13;" transform="matrix(1 0 0 1 776 1971)">Leading and trailing margins on the left and right side of each symbol</text>
  <text style="stroke:none;fill:black;font-family:sans-serif;font-size:13;" transform="matrix(1 0 0 1 776 1989)">can be adjusted by modifying the x-location of the margin guidelines.</text>
  <text style="stroke:none;fill:black;font-family:sans-serif;font-size:13;" transform="matrix(1 0 0 1 776 2007)">Modifications are automatically applied proportionally to all</text>
  <text style="stroke:none;fill:black;font-family:sans-serif;font-size:13;" transform="matrix(1 0 0 1 776 2025)">scales and weights.</text>
  <g transform="matrix(1 0 0 1 1289 1933)">
   <path d="M2.8418 1.86523L4.54102 3.57422Q5.18555 4.22852 5.90332 4.17969Q6.62109 4.13086 7.31445 3.35938L18.0078-8.42773L17.041-9.4043L6.42578 2.27539Q6.16211 2.57812 5.89355 2.61719Q5.625 2.65625 5.27344 2.30469L4.10156 1.14258Q3.75 0.791016 3.79395 0.522461Q3.83789 0.253906 4.14062-0.0195312L15.6152-10.8203L14.6387-11.7871L3.04688-0.898438Q2.30469-0.214844 2.25098 0.498047Q2.19727 1.21094 2.8418 1.86523ZM9.25781-16.3281Q8.94531-16.0254 8.90625-15.6348Q8.86719-15.2441 9.04297-14.9512Q9.21875-14.6777 9.55566-14.541Q9.89258-14.4043 10.3809-14.5215Q11.4746-14.7754 12.5977-14.7314Q13.7207-14.6875 14.7949-13.9844L14.209-12.5293Q13.9551-11.9043 14.0674-11.4404Q14.1797-10.9766 14.5801-10.5664L16.875-8.25195Q17.2363-7.88086 17.5781-7.82227Q17.9199-7.76367 18.3398-7.8418L19.4043-8.03711L20.0684-7.36328L20.0293-6.80664Q20-6.43555 20.1221-6.12305Q20.2441-5.81055 20.6055-5.44922L21.3672-4.70703Q21.7285-4.3457 22.1533-4.33105Q22.5781-4.31641 22.9297-4.66797L25.8398-7.58789Q26.1914-7.93945 26.1816-8.35449Q26.1719-8.76953 25.8105-9.13086L25.0391-9.89258Q24.6875-10.2539 24.3799-10.3857Q24.0723-10.5176 23.7109-10.4883L23.1348-10.4395L22.4902-11.0742L22.7344-12.1973Q22.832-12.6172 22.6953-12.9834Q22.5586-13.3496 22.1191-13.7891L19.9219-15.9766Q18.6719-17.2168 17.2607-17.8369Q15.8496-18.457 14.4189-18.4814Q12.9883-18.5059 11.665-17.959Q10.3418-17.4121 9.25781-16.3281ZM10.752-15.957Q11.6602-16.6211 12.7002-16.9043Q13.7402-17.1875 14.8047-17.085Q15.8691-16.9824 16.8701-16.5137Q17.8711-16.0449 18.7012-15.2051L21.1328-12.793Q21.3086-12.6172 21.3525-12.4512Q21.3965-12.2852 21.3379-12.0312L21.0156-10.5469L22.5195-9.0625L23.5059-9.12109Q23.6914-9.13086 23.7891-9.09668Q23.8867-9.0625 24.0332-8.91602L24.6094-8.33984L22.168-5.89844L21.5918-6.47461Q21.4453-6.62109 21.4062-6.71875Q21.3672-6.81641 21.377-7.01172L21.4453-7.98828L19.9512-9.47266L18.4277-9.21875Q18.1836-9.16992 18.042-9.2041Q17.9004-9.23828 17.7148-9.41406L15.7129-11.416Q15.5176-11.5918 15.4932-11.7529Q15.4688-11.9141 15.5859-12.1875L16.4648-14.2773Q15.293-15.3711 13.8281-15.791Q12.3633-16.2109 10.8398-15.7617Q10.7227-15.7324 10.6885-15.8057Q10.6543-15.8789 10.752-15.957Z"/>
  </g>
  <text style="stroke:none;fill:black;font-family:sans-serif;font-size:13;font-weight:bold;" transform="matrix(1 0 0 1 1289 1953)">Exporting</text>
  <text style="stroke:none;fill:black;font-family:sans-serif;font-size:13;" transform="matrix(1 0 0 1 1289 1971)">Symbols should be outlined when exporting to ensure the</text>
  <text style="stroke:none;fill:black;font-family:sans-serif;font-size:13;" transform="matrix(1 0 0 1 1289 1989)">design is preserved when submitting to Xcode.</text>
  <text id="template-version" style="stroke:none;fill:black;font-family:sans-serif;font-size:13;text-anchor:end;" transform="matrix(1 0 0 1 3036 1933)">Template v.2.0</text>
  <text style="stroke:none;fill:black;font-family:sans-serif;font-size:13;text-anchor:end;" transform="matrix(1 0 0 1 3036 1951)">Requires Xcode 12 or greater</text>
  <text id="descriptive-name" style="stroke:none;fill:black;font-family:sans-serif;font-size:13;text-anchor:end;" transform="matrix(1 0 0 1 3036 1969)">Generated from box.truck</text>
  <text style="stroke:none;fill:black;font-family:sans-serif;font-size:13;text-anchor:end;" transform="matrix(1 0 0 1 3036 1987)">Typeset at 100 points</text>
  <text style="stroke:none;fill:black;font-family:sans-serif;font-size:13;" transform="matrix(1 0 0 1 263 726)">Small</text>
  <text style="stroke:none;fill:black;font-family:sans-serif;font-size:13;" transform="matrix(1 0 0 1 263 1156)">Medium</text>
  <text style="stroke:none;fill:black;font-family:sans-serif;font-size:13;" transform="matrix(1 0 0 1 263 1586)">Large</text>
 </g>
 <g id="Guides">
  <g id="H-reference" style="fill:#27AAE1;stroke:none;" transform="matrix(1 0 0 1 339 696)">
   <path d="M0.993347 0L3.6377 0L29.3282-67.1326L30.0301-67.1326L30.0301-70.459L28.1227-70.459ZM11.6882-24.4797L46.9818-24.4797L46.2311-26.7288L12.4382-26.7288ZM55.1193 0L57.7637 0L30.6381-70.459L29.4327-70.459L29.4327-67.1326Z"/>
  </g>
  <line id="Baseline-S" style="fill:none;stroke:#27AAE1;opacity:1;stroke-width:0.5;" x1="263" x2="3036" y1="696" y2="696"/>
  <line id="Capline-S" style="fill:none;stroke:#27AAE1;opacity:1;stroke-width:0.5;" x1="263" x2="3036" y1="625.541" y2="625.541"/>
  <g id="H-reference" style="fill:#27AAE1;stroke:none;" transform="matrix(1 0 0 1 339 1126)">
   <path d="M0.993347 0L3.6377 0L29.3282-67.1326L30.0301-67.1326L30.0301-70.459L28.1227-70.459ZM11.6882-24.4797L46.9818-24.4797L46.2311-26.7288L12.4382-26.7288ZM55.1193 0L57.7637 0L30.6381-70.459L29.4327-70.459L29.4327-67.1326Z"/>
  </g>
  <line id="Baseline-M" style="fill:none;stroke:#27AAE1;opacity:1;stroke-width:0.5;" x1="263" x2="3036" y1="1126" y2="1126"/>
  <line id="Capline-M" style="fill:none;stroke:#27AAE1;opacity:1;stroke-width:0.5;" x1="263" x2="3036" y1="1055.54" y2="1055.54"/>
  <g id="H-reference" style="fill:#27AAE1;stroke:none;" transform="matrix(1 0 0 1 339 1556)">
   <path d="M0.993347 0L3.6377 0L29.3282-67.1326L30.0301-67.1326L30.0301-70.459L28.1227-70.459ZM11.6882-24.4797L46.9818-24.4797L46.2311-26.7288L12.4382-26.7288ZM55.1193 0L57.7637 0L30.6381-70.459L29.4327-70.459L29.4327-67.1326Z"/>
  </g>
  <line id="Baseline-L" style="fill:none;stroke:#27AAE1;opacity:1;stroke-width:0.5;" x1="263" x2="3036" y1="1556" y2="1556"/>
  <line id="Capline-L" style="fill:none;stroke:#27AAE1;opacity:1;stroke-width:0.5;" x1="263" x2="3036" y1="1485.54" y2="1485.54"/>
  <line id="left-margin" style="fill:none;stroke:#00AEEF;stroke-width:0.5;opacity:1.0;" x1="1366.32" x2="1366.32" y1="1030.79" y2="1150.12"/>
  <line id="right-margin" style="fill:none;stroke:#00AEEF;stroke-width:0.5;opacity:1.0;" x1="1533.37" x2="1533.37" y1="1030.79" y2="1150.12"/>
 </g>
 <g id="Symbols">
  <g id="Black-L" transform="matrix(1 0 0 1 2813.2 1556)">
   <path d="M39.7834 22.6411L50.9478 22.6411L50.9478 2.83533L41.8133 2.83533Q38.8631 2.83533 37.4057 1.46546Q35.9482 0.0955873 35.9482-3.02978L35.9482-84.5041Q35.9482-87.6295 37.4057-88.9993Q38.8631-90.3692 41.8133-90.3692L134.888-90.3692Q137.834-90.3692 139.294-88.9993Q140.753-87.6295 140.753-84.5041L140.753 4.97595L160.617 3.83339L160.617-86.4755Q160.617-97.7344 154.427-103.955Q148.237-110.175 136.976-110.175L39.7834-110.175Q28.5222-110.175 22.3031-103.956Q16.084-97.7368 16.084-86.4755L16.084-1.05834Q16.084 10.2029 22.3031 16.422Q28.5222 22.6411 39.7834 22.6411ZM89.7346 22.6411L148.821 22.6411L148.821 2.83533L89.7346 2.83533ZM150.277-55.409L175.011-55.409Q177.512-55.409 179.426-54.6264Q181.339-53.8439 182.991-52.0117L201.608-31.0957Q203.073-29.4342 203.765-27.5061Q204.458-25.5781 204.458-22.91L204.458-3.02978Q204.458 0.0955873 203 1.46546Q201.543 2.83533 198.593 2.83533L190.45 2.83533L190.45 22.6411L200.623 22.6411Q211.884 22.6411 218.103 16.422Q224.322 10.2029 224.322-1.05834L224.322-25.2022Q224.322-31.2073 223.105-34.755Q221.888-38.3028 218.527-42.0637L195.77-67.7875Q192.166-71.8272 187.862-73.5502Q183.558-75.2732 177.524-75.2732L150.277-75.2732ZM173.182-24.4311L196.824-24.4311Q196.824-25.4973 196.45-26.1439Q196.077-26.7905 195.412-27.5363L179.243-45.8028Q177.965-47.2779 176.699-47.892Q175.432-48.5062 173.471-48.5062L166.494-48.5062L166.494-31.1771Q166.494-28.1115 168.305-26.2713Q170.116-24.4311 173.182-24.4311ZM70.1267 41.0239Q77.5516 41.0239 83.6693 37.3814Q89.7871 33.739 93.3899 27.592Q96.9928 21.445 96.9928 14.0786Q96.9928 6.65371 93.3899 0.546322Q89.7871-5.56106 83.6693-9.16447Q77.5516-12.7679 70.1267-12.7679Q62.7602-12.7679 56.6132-9.16447Q50.4662-5.56106 46.8336 0.546322Q43.201 6.65371 43.201 14.0786Q43.201 21.445 46.8336 27.592Q50.4662 33.739 56.6132 37.3814Q62.7602 41.0239 70.1267 41.0239ZM70.1267 24.7924Q65.7336 24.7924 62.5732 21.632Q59.4128 18.4717 59.4128 14.0786Q59.4128 9.6479 62.5732 6.50632Q65.7336 3.36473 70.1267 3.36473Q74.5782 3.36473 77.6697 6.50632Q80.7613 9.6479 80.7613 14.0786Q80.7613 18.4717 77.6697 21.632Q74.5782 24.7924 70.1267 24.7924ZM168.951 41.0239Q176.375 41.0239 182.464 37.3814Q188.552 33.739 192.185 27.592Q195.818 21.445 195.818 14.0786Q195.818 6.65371 192.185 0.546322Q188.552-5.56106 182.464-9.16447Q176.375-12.7679 168.951-12.7679Q161.527-12.7679 155.409-9.16447Q149.291-5.56106 145.658 0.546322Q142.026 6.65371 142.026 14.0786Q142.026 21.445 145.658 27.592Q149.291 33.739 155.409 37.3814Q161.527 41.0239 168.951 41.0239ZM168.951 24.7924Q164.5 24.7924 161.368 21.632Q158.236 18.4717 158.236 14.0786Q158.236 9.6479 161.368 6.50632Q164.5 3.36473 168.951 3.36473Q173.361 3.36473 176.474 6.50632Q179.586 9.6479 179.586 14.0786Q179.586 18.4717 176.495 21.632Q173.403 24.7924 168.951 24.7924Z"/>
  </g>
  <g id="Heavy-L" transform="matrix(1 0 0 1 2519.49 1556)">
   <path d="M38.2098 21.0538L49.8887 21.0538L49.8887 3.68728L39.7985 3.68728Q36.6452 3.68728 35.0702 2.17914Q33.4951 0.670994 33.4951-2.6162L33.4951-84.1771Q33.4951-87.4643 35.0702-88.9724Q36.6452-90.4805 39.7985-90.4805L132.547-90.4805Q135.684-90.4805 137.267-88.9724Q138.851-87.4643 138.851-84.1771L138.851 6.02475L156.262 4.37578L156.262-85.7213Q156.262-96.2925 150.513-102.07Q144.763-107.847 134.181-107.847L38.2098-107.847Q27.6273-107.847 21.8556-102.075Q16.084-96.3037 16.084-85.7213L16.084-1.07205Q16.084 9.51049 21.8556 15.2822Q27.6273 21.0538 38.2098 21.0538ZM87.2958 21.0538L146.017 21.0538L146.017 3.68728L87.2958 3.68728ZM147.126-55.5628L171.152-55.5628Q173.655-55.5628 175.56-54.8061Q177.465-54.0495 179.169-52.1606L198.113-30.8821Q199.545-29.2807 200.223-27.3736Q200.902-25.4665 200.902-23.0156L200.902-2.6162Q200.902 0.670994 199.327 2.17914Q197.751 3.68728 194.598 3.68728L186.059 3.68728L186.059 21.0538L196.187 21.0538Q206.769 21.0538 212.541 15.2822Q218.313 9.51049 218.313-1.07205L218.313-24.7289Q218.313-30.3666 217.165-33.7059Q216.017-37.0452 212.865-40.5883L190.411-65.9493Q187.012-69.748 182.957-71.361Q178.902-72.9739 173.223-72.9739L147.126-72.9739ZM168.614-24.0528L193.342-24.0528Q193.342-25.1284 192.96-25.8003Q192.577-26.4723 191.904-27.2319L175.123-46.16Q173.905-47.548 172.646-48.169Q171.386-48.7901 169.552-48.7901L162.284-48.7901L162.284-30.4276Q162.284-27.5154 163.993-25.7841Q165.702-24.0528 168.614-24.0528ZM68.3212 39.2729Q75.3844 39.2729 81.2069 35.8066Q87.0294 32.3404 90.4582 26.4956Q93.8871 20.6507 93.8871 13.6322Q93.8871 6.56914 90.4582 0.761696Q87.0294-5.04574 81.2069-8.47735Q75.3844-11.909 68.3212-11.909Q61.3027-11.909 55.4579-8.47735Q49.6131-5.04574 46.1591 0.761696Q42.7051 6.56914 42.7051 13.6322Q42.7051 20.6507 46.1591 26.4956Q49.6131 32.3404 55.4579 35.8066Q61.3027 39.2729 68.3212 39.2729ZM68.3212 24.9656Q63.6612 24.9656 60.3245 21.629Q56.9879 18.2923 56.9879 13.6322Q56.9879 8.95777 60.3245 5.62834Q63.6612 2.29891 68.3212 2.29891Q73.0259 2.29891 76.3028 5.62834Q79.5798 8.95777 79.5798 13.6322Q79.5798 18.2923 76.3028 21.629Q73.0259 24.9656 68.3212 24.9656ZM165.311 39.2729Q172.368 39.2729 178.168 35.8066Q183.969 32.3404 187.423 26.4956Q190.877 20.6507 190.877 13.6322Q190.877 6.56914 187.423 0.761696Q183.969-5.04574 178.168-8.47735Q172.368-11.909 165.311-11.909Q158.248-11.909 152.425-8.47735Q146.603-5.04574 143.149 0.761696Q139.695 6.56914 139.695 13.6322Q139.695 20.6507 143.149 26.4956Q146.603 32.3404 152.425 35.8066Q158.248 39.2729 165.311 39.2729ZM165.311 24.9656Q160.606 24.9656 157.289 21.629Q153.972 18.2923 153.972 13.6322Q153.972 8.95777 157.289 5.62834Q160.606 2.29891 165.311 2.29891Q169.955 2.29891 173.262 5.62834Q176.569 8.95777 176.569 13.6322Q176.569 18.2923 173.292 21.629Q170.016 24.9656 165.311 24.9656Z"/>
  </g>
  <g id="Bold-L" transform="matrix(1 0 0 1 2226.28 1556)">
   <path d="M36.4146 19.0346L48.4629 19.0346L48.4629 4.68047L37.5099 4.68047Q34.0062 4.68047 32.2368 2.95473Q30.4673 1.229 30.4673-2.36234L30.4673-83.8221Q30.4673-87.4135 32.2368-89.1391Q34.0062-90.8647 37.5099-90.8647L129.68-90.8647Q133.144-90.8647 134.934-89.1391Q136.723-87.4135 136.723-83.8221L136.723 7.24885L151.106 5.18591L151.106-84.8883Q151.106-94.6662 145.858-99.9425Q140.609-105.219 130.805-105.219L36.4146-105.219Q26.6102-105.219 21.3471-99.9557Q16.084-94.6926 16.084-84.8883L16.084-1.29619Q16.084 8.5084 21.3471 13.7715Q26.6102 19.0346 36.4146 19.0346ZM84.4847 19.0346L142.834 19.0346L142.834 4.68047L84.4847 4.68047ZM143.446-55.9783L166.693-55.9783Q169.234-55.9783 171.15-55.2414Q173.066-54.5044 174.808-52.5759L194.189-30.8145Q195.59-29.2749 196.257-27.3873Q196.923-25.4996 196.923-23.2729L196.923-2.36234Q196.923 1.229 195.154 2.95473Q193.385 4.68047 189.881 4.68047L181.059 4.68047L181.059 19.0346L190.976 19.0346Q200.781 19.0346 206.044 13.7715Q211.307 8.5084 211.307-1.29619L211.307-24.3386Q211.307-29.4931 210.236-32.5899Q209.165-35.6866 206.282-38.946L184.167-63.8983Q181.029-67.39 177.27-68.8759Q173.511-70.3617 168.271-70.3617L143.446-70.3617ZM163.168-23.8598L189.427-23.8598Q189.427-24.9432 189.032-25.6422Q188.638-26.3412 187.957-27.1162L170.491-46.7845Q169.342-48.0722 168.086-48.701Q166.831-49.3298 165.098-49.3298L157.32-49.3298L157.32-29.7364Q157.32-27.0385 158.895-25.4492Q160.47-23.8598 163.168-23.8598ZM66.1596 37.1134Q72.7995 37.1134 78.2757 33.8549Q83.7518 30.5965 86.9766 25.1057Q90.2014 19.615 90.2014 13.0045Q90.2014 6.3648 86.9766 0.9076Q83.7518-4.5496 78.2757-7.78098Q72.7995-11.0124 66.1596-11.0124Q59.5491-11.0124 54.0584-7.78098Q48.5676-4.5496 45.3216 0.9076Q42.0755 6.3648 42.0755 13.0045Q42.0755 19.615 45.3216 25.1057Q48.5676 30.5965 54.0584 33.8549Q59.5491 37.1134 66.1596 37.1134ZM66.1596 25.1807Q61.1395 25.1807 57.5615 21.6027Q53.9834 18.0248 53.9834 13.0045Q53.9834 7.99306 57.5615 4.41067Q61.1395 0.828279 66.1596 0.828279Q71.2091 0.828279 74.7389 4.41067Q78.2687 7.99306 78.2687 13.0045Q78.2687 18.0248 74.7389 21.6027Q71.2091 25.1807 66.1596 25.1807ZM161.195 37.1134Q167.822 37.1134 173.283 33.8549Q178.745 30.5965 181.991 25.1057Q185.237 19.615 185.237 13.0045Q185.237 6.3648 181.991 0.9076Q178.745-4.5496 173.283-7.78098Q167.822-11.0124 161.195-11.0124Q154.555-11.0124 149.079-7.78098Q143.603-4.5496 140.357 0.9076Q137.111 6.3648 137.111 13.0045Q137.111 19.615 140.357 25.1057Q143.603 30.5965 149.079 33.8549Q154.555 37.1134 161.195 37.1134ZM161.195 25.1807Q156.146 25.1807 152.576 21.6027Q149.006 18.0248 149.006 13.0045Q149.006 7.99306 152.576 4.41067Q156.146 0.828279 161.195 0.828279Q166.169 0.828279 169.737 4.41067Q173.304 7.99306 173.304 13.0045Q173.304 18.0248 169.775 21.6027Q166.245 25.1807 161.195 25.1807Z"/>
  </g>
  <g id="Semibold-L" transform="matrix(1 0 0 1 1931.99 1556)">
   <path d="M35.177 17.6426L47.4801 17.6426L47.4801 5.36517L35.9322 5.36517Q32.1869 5.36517 30.2834 3.48943Q28.38 1.61369 28.38-2.18733L28.38-83.5774Q28.38-87.3784 30.2834-89.254Q32.1869-91.1295 35.9322-91.1295L127.704-91.1295Q131.394-91.1295 133.325-89.254Q135.256-87.3784 135.256-83.5774L135.256 8.09273L147.552 5.74442L147.552-84.314Q147.552-93.545 142.649-98.476Q137.746-103.407 128.478-103.407L35.177-103.407Q25.909-103.407 20.9965-98.4945Q16.084-93.582 16.084-84.314L16.084-1.45071Q16.084 7.81757 20.9965 12.7301Q25.909 17.6426 35.177 17.6426ZM82.5467 17.6426L140.64 17.6426L140.64 5.36517L82.5467 5.36517ZM140.91-56.2648L163.619-56.2648Q166.185-56.2648 168.109-55.5414Q170.032-54.8179 171.802-52.8623L191.484-30.7679Q192.863-29.2709 193.522-27.3967Q194.181-25.5225 194.181-23.4503L194.181-2.18733Q194.181 1.61369 192.277 3.48943Q190.374 5.36517 186.629 5.36517L177.611 5.36517L177.611 17.6426L187.384 17.6426Q196.652 17.6426 201.564 12.7301Q206.477 7.81757 206.477-1.45071L206.477-24.0695Q206.477-28.8909 205.459-31.8204Q204.441-34.75 201.743-37.8137L179.862-62.4844Q176.904-65.7644 173.35-67.1626Q169.795-68.5609 164.857-68.5609L140.91-68.5609ZM159.413-23.7268L186.727-23.7268Q186.727-24.8155 186.325-25.5332Q185.923-26.2509 185.236-27.0365L167.297-47.215Q166.196-48.4337 164.943-49.0678Q163.691-49.7018 162.027-49.7018L153.898-49.7018L153.898-29.2599Q153.898-26.7098 155.38-25.2183Q156.863-23.7268 159.413-23.7268ZM64.6694 35.6247Q71.0175 35.6247 76.2549 32.5094Q81.4922 29.3942 84.5764 24.1476Q87.6606 18.9009 87.6606 12.5717Q87.6606 6.22394 84.5764 1.00819Q81.4922-4.20757 76.2549-7.30091Q71.0175-10.3942 64.6694-10.3942Q58.3402-10.3942 53.0936-7.30091Q47.8469-4.20757 44.7442 1.00819Q41.6414 6.22394 41.6414 12.5717Q41.6414 18.9009 44.7442 24.1476Q47.8469 29.3942 53.0936 32.5094Q58.3402 35.6247 64.6694 35.6247ZM64.6694 25.329Q59.4011 25.329 55.6566 21.5847Q51.9122 17.8404 51.9122 12.5717Q51.9122 7.328 55.6566 3.57122Q59.4011-0.185569 64.6694-0.185569Q69.9567-0.185569 73.6608 3.57122Q77.3649 7.328 77.3649 12.5717Q77.3649 17.8404 73.6608 21.5847Q69.9567 25.329 64.6694 25.329ZM158.358 35.6247Q164.688 35.6247 169.916 32.5094Q175.143 29.3942 178.246 24.1476Q181.349 18.9009 181.349 12.5717Q181.349 6.22394 178.246 1.00819Q175.143-4.20757 169.916-7.30091Q164.688-10.3942 158.358-10.3942Q152.01-10.3942 146.773-7.30091Q141.536-4.20757 138.433 1.00819Q135.33 6.22394 135.33 12.5717Q135.33 18.9009 138.433 24.1476Q141.536 29.3942 146.773 32.5094Q152.01 35.6247 158.358 35.6247ZM158.358 25.329Q153.071 25.329 149.327 21.5847Q145.582 17.8404 145.582 12.5717Q145.582 7.328 149.327 3.57122Q153.071-0.185569 158.358-0.185569Q163.559-0.185569 167.306 3.57122Q171.053 7.328 171.053 12.5717Q171.053 17.8404 167.349 21.5847Q163.645 25.329 158.358 25.329Z"/>
  </g>
  <g id="Medium-L" transform="matrix(1 0 0 1 1637.11 1556)">
   <path d="M34.2386 16.5871L46.7348 16.5871L46.7348 5.88433L34.7359 5.88433Q30.8074 5.88433 28.8023 3.89485Q26.7973 1.90537 26.7973-2.05463L26.7973-83.3918Q26.7973-87.3518 28.8023-89.3411Q30.8074-91.3304 34.7359-91.3304L126.205-91.3304Q130.066-91.3304 132.105-89.3411Q134.144-87.3518 134.144-83.3918L134.144 8.7326L144.857 6.1679L144.857-83.8785Q144.857-92.6949 140.216-97.364Q135.574-102.033 126.713-102.033L34.2386-102.033Q25.3774-102.033 20.7307-97.3865Q16.084-92.7398 16.084-83.8785L16.084-1.56788Q16.084 7.29375 20.7307 11.9404Q25.3774 16.5871 34.2386 16.5871ZM81.0772 16.5871L138.976 16.5871L138.976 5.88433L81.0772 5.88433ZM138.986-56.4821L161.288-56.4821Q163.874-56.4821 165.803-55.7689Q167.732-55.0557 169.522-53.0794L189.433-30.7325Q190.796-29.2679 191.449-27.4039Q192.101-25.5398 192.101-23.5848L192.101-2.05463Q192.101 1.90537 190.096 3.89485Q188.091 5.88433 184.163 5.88433L174.998 5.88433L174.998 16.5871L184.66 16.5871Q193.521 16.5871 198.168 11.9404Q202.815 7.29375 202.815-1.56788L202.815-23.8655Q202.815-28.4343 201.837-31.2371Q200.86-34.0398 198.302-36.9552L176.599-61.4123Q173.777-64.5318 170.377-65.8636Q166.977-67.1954 162.268-67.1954L138.986-67.1954ZM156.565-23.626L184.68-23.626Q184.68-24.7187 184.272-25.4505Q183.864-26.1824 183.173-26.976L164.875-47.5414Q163.81-48.7077 162.56-49.3458Q161.309-49.9839 159.699-49.9839L151.303-49.9839L151.303-28.8986Q151.303-26.4605 152.715-25.0433Q154.127-23.626 156.565-23.626ZM63.5395 34.4958Q69.6663 34.4958 74.7226 31.4892Q79.7789 28.4826 82.7565 23.421Q85.734 18.3595 85.734 12.2436Q85.734 6.11713 82.7565 1.08445Q79.7789-3.94822 74.7226-6.9369Q69.6663-9.92557 63.5395-9.92557Q57.4236-9.92557 52.362-6.9369Q47.3005-3.94822 44.3064 1.08445Q41.3122 6.11713 41.3122 12.2436Q41.3122 18.3595 44.3064 23.421Q47.3005 28.4826 52.362 31.4892Q57.4236 34.4958 63.5395 34.4958ZM63.5395 25.4414Q58.0829 25.4414 54.2123 21.571Q50.3416 17.7005 50.3416 12.2436Q50.3416 6.82372 54.2123 2.93471Q58.0829-0.95431 63.5395-0.95431Q69.007-0.95431 72.8433 2.93471Q76.6796 6.82372 76.6796 12.2436Q76.6796 17.7005 72.8433 21.571Q69.007 25.4414 63.5395 25.4414ZM156.207 34.4958Q162.311 34.4958 167.362 31.4892Q172.413 28.4826 175.407 23.421Q178.401 18.3595 178.401 12.2436Q178.401 6.11713 175.407 1.08445Q172.413-3.94822 167.362-6.9369Q162.311-9.92557 156.207-9.92557Q150.08-9.92557 145.024-6.9369Q139.968-3.94822 136.974 1.08445Q133.98 6.11713 133.98 12.2436Q133.98 18.3595 136.974 23.421Q139.968 28.4826 145.024 31.4892Q150.08 34.4958 156.207 34.4958ZM156.207 25.4414Q150.739 25.4414 146.863 21.571Q142.986 17.7005 142.986 12.2436Q142.986 6.82372 146.863 2.93471Q150.739-0.95431 156.207-0.95431Q161.58-0.95431 165.463 2.93471Q169.347 6.82372 169.347 12.2436Q169.347 17.7005 165.511 21.571Q161.674 25.4414 156.207 25.4414Z"/>
  </g>
  <g id="Regular-L" transform="matrix(1 0 0 1 1342.78 1556)">
   <path d="M33.0146 15.2104L45.7627 15.2104L45.7627 6.5615L33.1755 6.5615Q29.0081 6.5615 26.8705 4.42367Q24.7329 2.28583 24.7329-1.88154L24.7329-83.1497Q24.7329-87.3171 26.8705-89.4547Q29.0081-91.5923 33.1755-91.5923L124.25-91.5923Q128.334-91.5923 130.514-89.4547Q132.693-87.3171 132.693-83.1497L132.693 9.56721L141.342 6.72026L141.342-83.3106Q141.342-91.586 137.042-95.9136Q132.742-100.241 124.411-100.241L33.0146-100.241Q24.6839-100.241 20.3839-95.9413Q16.084-91.6413 16.084-83.3106L16.084-1.7207Q16.084 6.61051 20.3839 10.9105Q24.6839 15.2104 33.0146 15.2104ZM79.1605 15.2104L136.807 15.2104L136.807 6.5615L79.1605 6.5615ZM136.477-56.7654L158.248-56.7654Q160.859-56.7654 162.796-56.0656Q164.732-55.3658 166.549-53.3627L186.757-30.6864Q188.099-29.264 188.744-27.4132Q189.389-25.5624 189.389-23.7602L189.389-1.88154Q189.389 2.28583 187.251 4.42367Q185.114 6.5615 180.946 6.5615L171.588 6.5615L171.588 15.2104L181.107 15.2104Q189.438 15.2104 193.738 10.9105Q198.038 6.61051 198.038-1.7207L198.038-23.5994Q198.038-27.8387 197.113-30.4761Q196.188-33.1135 193.814-35.8354L172.341-60.0139Q169.698-62.9241 166.5-64.1692Q163.302-65.4143 158.891-65.4143L136.477-65.4143ZM152.852-23.4944L182.01-23.4944Q182.01-24.5924 181.594-25.3427Q181.178-26.093 180.482-26.8972L161.717-47.9672Q160.699-49.0652 159.451-49.7086Q158.203-50.3519 156.662-50.3519L147.919-50.3519L147.919-28.4273Q147.919-26.1354 149.239-24.8149Q150.56-23.4944 152.852-23.4944ZM62.0657 33.0235Q67.9039 33.0235 72.7241 30.1585Q77.5442 27.2936 80.3827 22.4734Q83.2211 17.6533 83.2211 11.8155Q83.2211 5.97781 80.3827 1.18393Q77.5442-3.60995 72.7241-6.4621Q67.9039-9.31425 62.0657-9.31425Q56.228-9.31425 51.4078-6.4621Q46.5877-3.60995 43.7353 1.18393Q40.8829 5.97781 40.8829 11.8155Q40.8829 17.6533 43.7353 22.4734Q46.5877 27.2936 51.4078 30.1585Q56.228 33.0235 62.0657 33.0235ZM62.0657 25.5881Q56.3636 25.5881 52.3284 21.5531Q48.2932 17.5181 48.2932 11.8155Q48.2932 6.16596 52.3284 2.10447Q56.3636-1.95702 62.0657-1.95702Q67.7683-1.95702 71.777 2.10447Q75.7857 6.16596 75.7857 11.8155Q75.7857 17.5181 71.777 21.5531Q67.7683 25.5881 62.0657 25.5881ZM153.401 33.0235Q159.211 33.0235 164.031 30.1585Q168.851 27.2936 171.703 22.4734Q174.556 17.6533 174.556 11.8155Q174.556 5.97781 171.703 1.18393Q168.851-3.60995 164.031-6.4621Q159.211-9.31425 153.401-9.31425Q147.563-9.31425 142.743-6.4621Q137.923-3.60995 135.071 1.18393Q132.218 5.97781 132.218 11.8155Q132.218 17.6533 135.071 22.4734Q137.923 27.2936 142.743 30.1585Q147.563 33.0235 153.401 33.0235ZM153.401 25.5881Q147.698 25.5881 143.649 21.5531Q139.601 17.5181 139.601 11.8155Q139.601 6.16596 143.649 2.10447Q147.698-1.95702 153.401-1.95702Q158.998-1.95702 163.059 2.10447Q167.121 6.16596 167.121 11.8155Q167.121 17.5181 163.112 21.5531Q159.104 25.5881 153.401 25.5881Z"/>
  </g>
  <g id="Light-L" transform="matrix(1 0 0 1 1047.08 1556)">
   <path d="M32.7664 13.4737L44.045 13.4737L44.045 6.84785L32.9273 6.84785Q27.8819 6.84785 25.2959 4.26142Q22.7099 1.67498 22.7099-3.37034L22.7099-83.226Q22.7099-88.2714 25.2959-90.8574Q27.8819-93.4434 32.9273-93.4434L122.475-93.4434Q127.38-93.4434 130.037-90.8574Q132.693-88.2714 132.693-83.226L132.693 9.92987L139.319 8.17059L139.319-83.3869Q139.319-91.4905 135.076-95.7799Q130.833-100.069 122.636-100.069L32.7664-100.069Q24.5694-100.069 20.3267-95.8266Q16.084-91.5839 16.084-83.3869L16.084-3.2095Q16.084 4.98832 20.3267 9.23102Q24.5694 13.4737 32.7664 13.4737ZM78.5689 13.4737L136.482 13.4737L136.482 6.84785L78.5689 6.84785ZM135.37-58.5021L157.236-58.5021Q160.096-58.5021 162.176-57.7356Q164.255-56.9691 165.938-55.1375L186.662-31.9078Q188.042-30.4472 188.715-28.5679Q189.389-26.6885 189.389-24.7527L189.389-3.37034Q189.389 1.67498 186.803 4.26142Q184.217 6.84785 179.172 6.84785L170.958 6.84785L170.958 13.4737L179.332 13.4737Q187.529 13.4737 191.772 9.23102Q196.015 4.98832 196.015-3.2095L196.015-24.5918Q196.015-28.3158 195.09-30.8864Q194.165-33.4569 192.039-35.8928L170.567-60.0521Q168.152-62.6951 165.078-63.9115Q162.004-65.128 157.88-65.128L135.37-65.128ZM150.447-25.1359L181.858-25.1359Q181.858-26.2146 181.432-26.9554Q181.006-27.6963 180.33-28.5005L161.545-49.5705Q160.546-50.6492 159.27-51.2926Q157.993-51.936 156.166-51.936L146.106-51.936L146.106-29.4772Q146.106-27.4905 147.283-26.3132Q148.461-25.1359 150.447-25.1359ZM61.0541 31.5921Q66.7589 31.5921 71.4645 28.8034Q76.1702 26.0148 78.9418 21.3091Q81.7134 16.6034 81.7134 10.8994Q81.7134 5.19541 78.9418 0.506388Q76.1702-4.18264 71.4645-6.97739Q66.7589-9.77215 61.0541-9.77215Q55.35-9.77215 50.6444-6.97739Q45.9387-4.18264 43.1435 0.506388Q40.3484 5.19541 40.3484 10.8994Q40.3484 16.6034 43.1435 21.3091Q45.9387 26.0148 50.6444 28.8034Q55.35 31.5921 61.0541 31.5921ZM61.0541 25.7407Q54.9133 25.7407 50.563 21.3909Q46.2127 17.041 46.2127 10.8994Q46.2127 4.79195 50.563 0.42504Q54.9133-3.94188 61.0541-3.94188Q67.1956-3.94188 71.5288 0.42504Q75.8621 4.79195 75.8621 10.8994Q75.8621 17.041 71.5288 21.3909Q67.1956 25.7407 61.0541 25.7407ZM153.096 31.5921Q158.753 31.5921 163.459 28.8034Q168.164 26.0148 170.959 21.3091Q173.754 16.6034 173.754 10.8994Q173.754 5.19541 170.959 0.506388Q168.164-4.18264 163.459-6.97739Q158.753-9.77215 153.096-9.77215Q147.391-9.77215 142.686-6.97739Q137.98-4.18264 135.185 0.506388Q132.39 5.19541 132.39 10.8994Q132.39 16.6034 135.185 21.3091Q137.98 26.0148 142.686 28.8034Q147.391 31.5921 153.096 31.5921ZM153.096 25.7407Q146.954 25.7407 142.581 21.3909Q138.207 17.041 138.207 10.8994Q138.207 4.79195 142.581 0.42504Q146.954-3.94188 153.096-3.94188Q159.17-3.94188 163.536 0.42504Q167.903 4.79195 167.903 10.8994Q167.903 17.041 163.57 21.3909Q159.237 25.7407 153.096 25.7407Z"/>
  </g>
  <g id="Thin-L" transform="matrix(1 0 0 1 751.711 1556)">
   <path d="M32.4382 11.1768L41.7731 11.1768L41.7731 7.22656L32.599 7.22656Q26.3925 7.22656 23.2134 4.04683Q20.0343 0.867086 20.0343-5.33941L20.0343-83.327Q20.0343-89.5335 23.2134-92.7126Q26.3925-95.8917 32.599-95.8917L120.128-95.8917Q126.118-95.8917 129.405-92.7126Q132.693-89.5335 132.693-83.327L132.693 10.4095L136.643 10.0888L136.643-83.4878Q136.643-91.3641 132.476-95.603Q128.309-99.842 120.289-99.842L32.4382-99.842Q24.418-99.842 20.251-95.675Q16.084-91.508 16.084-83.4878L16.084-5.17857Q16.084 2.84283 20.251 7.00983Q24.418 11.1768 32.4382 11.1768ZM77.7865 11.1768L136.053 11.1768L136.053 7.22656L77.7865 7.22656ZM133.906-60.799L155.898-60.799Q159.086-60.799 161.355-59.9443Q163.624-59.0896 165.13-57.4849L186.535-33.5232Q187.966-32.0121 188.678-30.095Q189.389-28.178 189.389-26.0652L189.389-5.33941Q189.389 0.867086 186.21 4.04683Q183.031 7.22656 176.824 7.22656L170.125 7.22656L170.125 11.1768L176.985 11.1768Q185.005 11.1768 189.172 7.00983Q193.339 2.84283 193.339-5.17857L193.339-25.9044Q193.339-28.9469 192.414-31.429Q191.49-33.9111 189.691-35.9687L168.219-60.1025Q166.107-62.3923 163.198-63.5708Q160.288-64.7493 156.542-64.7493L133.906-64.7493ZM147.267-27.3068L181.656-27.3068Q181.656-28.3601 181.217-29.0884Q180.779-29.8167 180.128-30.6209L161.317-51.6909Q160.345-52.7443 159.03-53.3876Q157.715-54.031 155.51-54.031L143.708-54.031L143.708-30.8657Q143.708-29.2827 144.696-28.2948Q145.684-27.3068 147.267-27.3068ZM59.716 29.6989Q65.2444 29.6989 69.7987 27.0112Q74.353 24.3235 77.0361 19.7692Q79.7193 15.215 79.7193 9.68779Q79.7193 4.16063 77.0361-0.389721Q74.353-4.94007 69.7987-7.65891Q65.2444-10.3778 59.716-10.3778Q54.1889-10.3778 49.6346-7.65891Q45.0803-4.94007 42.3609-0.389721Q39.6414 4.16063 39.6414 9.68779Q39.6414 15.215 42.3609 19.7692Q45.0803 24.3235 49.6346 27.0112Q54.1889 29.6989 59.716 29.6989ZM59.716 25.9426Q52.9951 25.9426 48.2282 21.1763Q43.4612 16.4099 43.4612 9.68779Q43.4612 2.97472 48.2282-1.79615Q52.9951-6.56701 59.716-6.56701Q66.4382-6.56701 71.2006-1.79615Q75.963 2.97472 75.963 9.68779Q75.963 16.4099 71.2006 21.1763Q66.4382 25.9426 59.716 25.9426ZM152.692 29.6989Q158.148 29.6989 162.701 27.0112Q167.255 24.3235 169.975 19.7692Q172.694 15.215 172.694 9.68779Q172.694 4.16063 169.975-0.389721Q167.255-4.94007 162.701-7.65891Q158.148-10.3778 152.692-10.3778Q147.164-10.3778 142.61-7.65891Q138.056-4.94007 135.337-0.389721Q132.617 4.16063 132.617 9.68779Q132.617 15.215 135.337 19.7692Q138.056 24.3235 142.61 27.0112Q147.164 29.6989 152.692 29.6989ZM152.692 25.9426Q145.97 25.9426 141.167 21.1763Q136.365 16.4099 136.365 9.68779Q136.365 2.97472 141.167-1.79615Q145.97-6.56701 152.692-6.56701Q159.397-6.56701 164.167-1.79615Q168.938 2.97472 168.938 9.68779Q168.938 16.4099 164.176 21.1763Q159.414 25.9426 152.692 25.9426Z"/>
  </g>
  <g id="Ultralight-L" transform="matrix(1 0 0 1 455.685 1556)">
   <path d="M32.2701 10.0004L40.6095 10.0004L40.6095 7.42054L32.4309 7.42054Q25.6297 7.42054 22.1467 3.93691Q18.6638 0.453285 18.6638-6.34795L18.6638-83.3787Q18.6638-90.1799 22.1467-93.6628Q25.6297-97.1457 32.4309-97.1457L118.926-97.1457Q125.472-97.1457 129.082-93.6628Q132.693-90.1799 132.693-83.3787L132.693 10.6552L135.273 11.0712L135.273-83.5395Q135.273-91.2994 131.144-95.5125Q127.016-99.7256 119.087-99.7256L32.2701-99.7256Q24.3404-99.7256 20.2122-95.5974Q16.084-91.4691 16.084-83.5395L16.084-6.18711Q16.084 1.74392 20.2122 5.87215Q24.3404 10.0004 32.2701 10.0004ZM77.3857 10.0004L135.833 10.0004L135.833 7.42054L77.3857 7.42054ZM133.156-61.9754L155.213-61.9754Q158.569-61.9754 160.935-61.0756Q163.301-60.1757 164.717-58.6872L186.471-34.3506Q187.927-32.8137 188.658-30.8772Q189.389-28.9408 189.389-26.7375L189.389-6.34795Q189.389 0.453285 185.906 3.93691Q182.423 7.42054 175.622 7.42054L169.699 7.42054L169.699 10.0004L175.783 10.0004Q183.712 10.0004 187.841 5.87215Q191.969 1.74392 191.969-6.18711L191.969-26.5767Q191.969-29.2701 191.044-31.7069Q190.119-34.1438 188.489-36.0076L167.017-60.1284Q165.06-62.2372 162.234-63.3963Q159.409-64.5553 155.856-64.5553L133.156-64.5553ZM145.638-28.4187L181.552-28.4187Q181.552-29.459 181.108-30.1809Q180.663-30.9028 180.024-31.707L161.201-52.777Q160.241-53.8173 158.907-54.4607Q157.573-55.104 155.173-55.104L142.48-55.104L142.48-31.5768Q142.48-30.2007 143.371-29.3097Q144.262-28.4187 145.638-28.4187ZM59.0307 28.7292Q64.4687 28.7292 68.9455 26.0932Q73.4222 23.4572 76.0601 18.9805Q78.6979 14.5038 78.6979 9.0672Q78.6979 3.63061 76.0601-0.848703Q73.4222-5.32802 68.9455-8.00798Q64.4687-10.6879 59.0307-10.6879Q53.5941-10.6879 49.1174-8.00798Q44.6407-5.32802 41.96-0.848703Q39.2793 3.63061 39.2793 9.0672Q39.2793 14.5038 41.96 18.9805Q44.6407 23.4572 49.1174 26.0932Q53.5941 28.7292 59.0307 28.7292ZM59.0307 26.046Q52.0126 26.046 47.0323 21.0664Q42.0519 16.0867 42.0519 9.0672Q42.0519 2.04394 47.0323-2.93383Q52.0126-7.91159 59.0307-7.91159Q66.0502-7.91159 71.0325-2.93383Q76.0147 2.04394 76.0147 9.0672Q76.0147 16.0867 71.0325 21.0664Q66.0502 26.046 59.0307 26.046ZM152.485 28.7292Q157.838 28.7292 162.314 26.0932Q166.79 23.4572 169.47 18.9805Q172.151 14.5038 172.151 9.0672Q172.151 3.63061 169.47-0.848703Q166.79-5.32802 162.314-8.00798Q157.838-10.6879 152.485-10.6879Q147.047-10.6879 142.571-8.00798Q138.095-5.32802 135.414-0.848703Q132.734 3.63061 132.734 9.0672Q132.734 14.5038 135.414 18.9805Q138.095 23.4572 142.571 26.0932Q147.047 28.7292 152.485 28.7292ZM152.485 26.046Q145.466 26.046 140.443 21.0664Q135.421 16.0867 135.421 9.0672Q135.421 2.04394 140.443-2.93383Q145.466-7.91159 152.485-7.91159Q159.514-7.91159 164.491-2.93383Q169.468 2.04394 169.468 9.0672Q169.468 16.0867 164.486 21.0664Q159.505 26.046 152.485 26.046Z"/>
  </g>
  <g id="Black-M" transform="matrix(1 0 0 1 2837.83 1126)">
   <path d="M32.1407 10.7342L40.1489 10.7342L40.1489-6.43247L34.0924-6.43247Q31.8625-6.43247 30.7736-7.43571Q29.6847-8.43895 29.6847-10.8402L29.6847-73.6959Q29.6847-76.0971 30.7736-77.1004Q31.8625-78.1036 34.0924-78.1036L106.274-78.1036Q108.505-78.1036 109.594-77.1004Q110.682-76.0971 110.682-73.6959L110.682-4.93289L127.906-5.23548L127.906-75.5905Q127.906-84.8809 122.739-90.0756Q117.573-95.2703 108.283-95.2703L32.1407-95.2703Q22.8509-95.2703 17.6559-90.0753Q12.4609-84.8803 12.4609-75.5905L12.4609-8.94559Q12.4609 0.344209 17.6559 5.5392Q22.8509 10.7342 32.1407 10.7342ZM71.537 10.7342L117.664 10.7342L117.664-6.43247L71.537-6.43247ZM118.984-50.9665L138.768-50.9665Q140.738-50.9665 142.246-50.3289Q143.755-49.6914 144.972-48.344L159.186-32.3759Q160.353-31.0318 160.906-29.5162Q161.458-28.0006 161.458-25.7287L161.458-10.8402Q161.458-8.43895 160.37-7.43571Q159.281-6.43247 157.051-6.43247L151.239-6.43247L151.239 10.7342L159.002 10.7342Q168.292 10.7342 173.487 5.5392Q178.682 0.344209 178.682-8.94559L178.682-28.0022Q178.682-32.9004 177.68-35.8191Q176.678-38.7378 173.928-41.8L156.037-62.0385Q153.1-65.3392 149.568-66.7648Q146.036-68.1903 141.094-68.1903L118.984-68.1903ZM137.771-27.411L155.459-27.411Q155.459-28.2264 155.176-28.7043Q154.893-29.1821 154.389-29.7481L142.385-43.3313Q141.346-44.5464 140.355-45.0163Q139.364-45.4862 137.696-45.4862L132.363-45.4862L132.363-32.8763Q132.363-30.4109 133.834-28.9109Q135.306-27.411 137.771-27.411ZM55.7447 25.1581Q61.7898 25.1581 66.7678 22.1951Q71.7458 19.2321 74.6775 14.2256Q77.6092 9.21905 77.6092 3.231Q77.6092-2.81414 74.6775-7.78937Q71.7458-12.7646 66.7678-15.6962Q61.7898-18.6277 55.7447-18.6277Q49.7566-18.6277 44.7501-15.6962Q39.7436-12.7646 36.7835-7.78937Q33.8234-2.81414 33.8234 3.231Q33.8234 9.21905 36.7835 14.2256Q39.7436 19.2321 44.7501 22.1951Q49.7566 25.1581 55.7447 25.1581ZM55.7447 11.1439Q52.5112 11.1439 50.1715 8.8042Q47.8318 6.46453 47.8318 3.231Q47.8318-0.0541334 50.1715-2.368Q52.5112-4.68186 55.7447-4.68186Q59.0353-4.68186 61.3151-2.368Q63.595-0.0541334 63.595 3.231Q63.595 6.46453 61.3151 8.8042Q59.0353 11.1439 55.7447 11.1439ZM133.981 25.1581Q140.027 25.1581 144.976 22.1951Q149.926 19.2321 152.886 14.2256Q155.846 9.21905 155.846 3.231Q155.846-2.81414 152.886-7.78937Q149.926-12.7646 144.976-15.6962Q140.027-18.6277 133.981-18.6277Q127.936-18.6277 122.958-15.6962Q117.98-12.7646 115.02-7.78937Q112.06-2.81414 112.06 3.231Q112.06 9.21905 115.02 14.2256Q117.98 19.2321 122.958 22.1951Q127.936 25.1581 133.981 25.1581ZM133.981 11.1439Q130.691 11.1439 128.38 8.8042Q126.069 6.46453 126.069 3.231Q126.069-0.0541334 128.38-2.368Q130.691-4.68186 133.981-4.68186Q137.261-4.68186 139.546-2.368Q141.832-0.0541334 141.832 3.231Q141.832 6.46453 139.552 8.8042Q137.272 11.1439 133.981 11.1439Z"/>
  </g>
  <g id="Heavy-M" transform="matrix(1 0 0 1 2543.96 1126)">
   <path d="M30.6253 9.3427L39.272 9.3427L39.272-5.62605L32.1458-5.62605Q29.7982-5.62605 28.6357-6.72308Q27.4733-7.8201 27.4733-10.2985L27.4733-73.3693Q27.4733-75.8477 28.6357-76.9447Q29.7982-78.0417 32.1458-78.0417L104.15-78.0417Q106.491-78.0417 107.657-76.9447Q108.823-75.8477 108.823-73.3693L108.823-3.94107L123.835-4.83905L123.835-74.8461Q123.835-83.4802 119.094-88.2453Q114.353-93.0105 105.714-93.0105L30.6253-93.0105Q21.9867-93.0105 17.2238-88.2476Q12.4609-83.4847 12.4609-74.8461L12.4609-8.82166Q12.4609-0.183035 17.2238 4.57983Q21.9867 9.3427 30.6253 9.3427ZM69.2075 9.3427L114.953 9.3427L114.953-5.62605L69.2075-5.62605ZM116.006-50.9566L135.089-50.9566Q137.038-50.9566 138.525-50.3505Q140.013-49.7445 141.293-48.3257L155.777-32.0545Q156.91-30.7726 157.446-29.2801Q157.982-27.7876 157.982-25.7404L157.982-10.2985Q157.982-7.8201 156.819-6.72308Q155.657-5.62605 153.309-5.62605L147.004-5.62605L147.004 9.3427L154.83 9.3427Q163.469 9.3427 168.231 4.57983Q172.994-0.183035 172.994-8.82166L172.994-27.4479Q172.994-32.0346 172.06-34.7557Q171.125-37.4768 168.556-40.3524L150.961-60.238Q148.204-63.3278 144.904-64.6484Q141.604-65.969 136.983-65.969L116.006-65.969ZM133.528-26.8898L152.07-26.8898Q152.07-27.7161 151.779-28.2196Q151.488-28.7232 150.973-29.3026L138.373-43.5326Q137.391-44.6643 136.409-45.1409Q135.428-45.6175 133.911-45.6175L128.414-45.6175L128.414-32.0468Q128.414-29.7031 129.799-28.2964Q131.184-26.8898 133.528-26.8898ZM54.073 23.5784Q59.7769 23.5784 64.4768 20.7806Q69.1767 17.9828 71.9445 13.2611Q74.7123 8.53942 74.7123 2.8792Q74.7123-2.82464 71.9445-7.51632Q69.1767-12.208 64.4768-14.9769Q59.7769-17.7459 54.073-17.7459Q48.4128-17.7459 43.6911-14.9769Q38.9695-12.208 36.1787-7.51632Q33.3879-2.82464 33.3879 2.8792Q33.3879 8.53942 36.1787 13.2611Q38.9695 17.9828 43.6911 20.7806Q48.4128 23.5784 54.073 23.5784ZM54.073 11.2991Q50.619 11.2991 48.1361 8.81615Q45.6532 6.33324 45.6532 2.8792Q45.6532-0.602027 48.1361-3.07134Q50.619-5.54066 54.073-5.54066Q57.5707-5.54066 60.0018-3.07134Q62.4329-0.602027 62.4329 2.8792Q62.4329 6.33324 60.0018 8.81615Q57.5707 11.2991 54.073 11.2991ZM130.45 23.5784Q136.152 23.5784 140.83 20.7806Q145.508 17.9828 148.299 13.2611Q151.09 8.53942 151.09 2.8792Q151.09-2.82464 148.299-7.51632Q145.508-12.208 140.83-14.9769Q136.152-17.7459 130.45-17.7459Q124.747-17.7459 120.047-14.9769Q115.347-12.208 112.556-7.51632Q109.765-2.82464 109.765 2.8792Q109.765 8.53942 112.556 13.2611Q115.347 17.9828 120.047 20.7806Q124.747 23.5784 130.45 23.5784ZM130.45 11.2991Q126.953 11.2991 124.491 8.81615Q122.028 6.33324 122.028 2.8792Q122.028-0.602027 124.491-3.07134Q126.953-5.54066 130.45-5.54066Q133.915-5.54066 136.363-3.07134Q138.81-0.602027 138.81 2.8792Q138.81 6.33324 136.379 8.81615Q133.948 11.2991 130.45 11.2991Z"/>
  </g>
  <g id="Bold-M" transform="matrix(1 0 0 1 2250.43 1126)">
   <path d="M28.93 7.78612L38.291 7.78612L38.291-4.72395L29.9681-4.72395Q27.489-4.72395 26.2443-5.92589Q24.9996-7.12783 24.9996-9.69261L24.9996-73.0039Q24.9996-75.5686 26.2443-76.7705Q27.489-77.9724 29.9681-77.9724L101.774-77.9724Q104.238-77.9724 105.49-76.7705Q106.742-75.5686 106.742-73.0039L106.742-2.83158L119.281-4.3956L119.281-74.0135Q119.281-81.9133 115.016-86.1979Q110.751-90.4825 102.841-90.4825L28.93-90.4825Q21.0199-90.4825 16.7404-86.203Q12.4609-81.9236 12.4609-74.0135L12.4609-8.68301Q12.4609-0.772834 16.7404 3.50664Q21.0199 7.78612 28.93 7.78612ZM66.6016 7.78612L111.919 7.78612L111.919-4.72395L66.6016-4.72395ZM112.675-50.9456L130.973-50.9456Q132.899-50.9456 134.362-50.3747Q135.826-49.8038 137.176-48.3053L151.965-31.6949Q153.057-30.4827 153.575-29.016Q154.093-27.5494 154.093-25.7535L154.093-9.69261Q154.093-7.12783 152.848-5.92589Q151.604-4.72395 149.124-4.72395L142.267-4.72395L142.267 7.78612L150.163 7.78612Q158.073 7.78612 162.352 3.50664Q166.632-0.772834 166.632-8.68301L166.632-26.8279Q166.632-31.066 165.772-33.5661Q164.913-36.0661 162.547-38.7331L145.284-58.2239Q142.726-61.0777 139.686-62.2809Q136.646-63.4842 132.385-63.4842L112.675-63.4842ZM128.781-26.3067L148.278-26.3067Q148.278-27.1453 147.979-27.6775Q147.679-28.2098 147.152-28.8043L133.886-43.7578Q132.967-44.7962 131.996-45.2803Q131.025-45.7645 129.676-45.7645L123.997-45.7645L123.997-31.1188Q123.997-28.9113 125.285-27.609Q126.573-26.3067 128.781-26.3067ZM52.2031 21.8114Q57.5252 21.8114 61.914 19.1983Q66.3028 16.5853 68.8872 12.1822Q71.4716 7.77915 71.4716 2.48566Q71.4716-2.83638 68.8872-7.21087Q66.3028-11.5854 61.914-14.1724Q57.5252-16.7593 52.2031-16.7593Q46.9096-16.7593 42.5065-14.1724Q38.1034-11.5854 35.5021-7.21087Q32.9008-2.83638 32.9008 2.48566Q32.9008 7.77915 35.5021 12.1822Q38.1034 16.5853 42.5065 19.1983Q46.9096 21.8114 52.2031 21.8114ZM52.2031 11.4727Q48.5024 11.4727 45.8592 8.82951Q43.216 6.18636 43.216 2.48566Q43.216-1.21492 45.8592-3.85814Q48.5024-6.50135 52.2031-6.50135Q55.9323-6.50135 58.5326-3.85814Q61.1329-1.21492 61.1329 2.48566Q61.1329 6.18636 58.5326 8.82951Q55.9323 11.4727 52.2031 11.4727ZM126.501 21.8114Q131.818 21.8114 136.192 19.1983Q140.567 16.5853 143.168 12.1822Q145.769 7.77915 145.769 2.48566Q145.769-2.83638 143.168-7.21087Q140.567-11.5854 136.192-14.1724Q131.818-16.7593 126.501-16.7593Q121.179-16.7593 116.79-14.1724Q112.401-11.5854 109.8-7.21087Q107.199-2.83638 107.199 2.48566Q107.199 7.77915 109.8 12.1822Q112.401 16.5853 116.79 19.1983Q121.179 21.8114 126.501 21.8114ZM126.501 11.4727Q122.771 11.4727 120.14 8.82951Q117.509 6.18636 117.509 2.48566Q117.509-1.21492 120.14-3.85814Q122.771-6.50135 126.501-6.50135Q130.173-6.50135 132.802-3.85814Q135.431-1.21492 135.431 2.48566Q135.431 6.18636 132.83 8.82951Q130.23 11.4727 126.501 11.4727Z"/>
  </g>
  <g id="Semibold-M" transform="matrix(1 0 0 1 1955.91 1126)">
   <path d="M27.7613 6.71302L37.6148 6.71302L37.6148-4.10205L28.4669-4.10205Q25.897-4.10205 24.5956-5.37631Q23.2942-6.65058 23.2942-9.2749L23.2942-72.752Q23.2942-75.3763 24.5956-76.6505Q25.897-77.9247 28.4669-77.9247L100.136-77.9247Q102.684-77.9247 103.996-76.6505Q105.308-75.3763 105.308-72.752L105.308-2.0667L116.142-4.08989L116.142-73.4394Q116.142-80.8331 112.204-84.7864Q108.267-88.7398 100.859-88.7398L27.7613-88.7398Q20.3534-88.7398 16.4072-84.7935Q12.4609-80.8473 12.4609-73.4394L12.4609-8.58743Q12.4609-1.17944 16.4072 2.76679Q20.3534 6.71302 27.7613 6.71302ZM64.8051 6.71302L109.828 6.71302L109.828-4.10205L64.8051-4.10205ZM110.378-50.938L128.136-50.938Q130.045-50.938 131.493-50.3914Q132.94-49.8448 134.339-48.2912L149.336-31.447Q150.402-30.2828 150.907-28.834Q151.412-27.3852 151.412-25.7625L151.412-9.2749Q151.412-6.65058 150.111-5.37631Q148.809-4.10205 146.239-4.10205L139.001-4.10205L139.001 6.71302L146.945 6.71302Q154.353 6.71302 158.299 2.76679Q162.245-1.17944 162.245-8.58743L162.245-26.4005Q162.245-30.3983 161.438-32.746Q160.631-35.0936 158.405-37.6168L141.37-56.8354Q138.95-59.5265 136.089-60.6488Q133.228-61.7712 129.215-61.7712L110.378-61.7712ZM125.509-25.9048L145.665-25.9048Q145.665-26.7517 145.359-27.3038Q145.053-27.8558 144.517-28.4607L130.792-43.913Q129.917-44.8871 128.953-45.3764Q127.99-45.8658 126.757-45.8658L120.952-45.8658L120.952-30.4791Q120.952-28.3655 122.174-27.1351Q123.395-25.9048 125.509-25.9048ZM50.9139 20.5932Q55.9728 20.5932 60.1472 18.1075Q64.3215 15.6218 66.7795 11.4384Q69.2376 7.25502 69.2376 2.21435Q69.2376-2.84447 66.7795-7.0003Q64.3215-11.1561 60.1472-13.6177Q55.9728-16.0792 50.9139-16.0792Q45.8732-16.0792 41.6898-13.6177Q37.5064-11.1561 35.0357-7.0003Q32.565-2.84447 32.565 2.21435Q32.565 7.25502 35.0357 11.4384Q37.5064 15.6218 41.6898 18.1075Q45.8732 20.5932 50.9139 20.5932ZM50.9139 11.5924Q47.0433 11.5924 44.2896 8.83873Q41.5359 6.08511 41.5359 2.21435Q41.5359-1.63745 44.2896-4.40055Q47.0433-7.16364 50.9139-7.16364Q54.8028-7.16364 57.5198-4.40055Q60.2368-1.63745 60.2368 2.21435Q60.2368 6.08511 57.5198 8.83873Q54.8028 11.5924 50.9139 11.5924ZM123.778 20.5932Q128.83 20.5932 132.995 18.1075Q137.16 15.6218 139.631 11.4384Q142.101 7.25502 142.101 2.21435Q142.101-2.84447 139.631-7.0003Q137.16-11.1561 132.995-13.6177Q128.83-16.0792 123.778-16.0792Q118.719-16.0792 114.545-13.6177Q110.37-11.1561 107.9-7.0003Q105.429-2.84447 105.429 2.21435Q105.429 7.25502 107.9 11.4384Q110.37 15.6218 114.545 18.1075Q118.719 20.5932 123.778 20.5932ZM123.778 11.5924Q119.889 11.5924 117.141 8.83873Q114.393 6.08511 114.393 2.21435Q114.393-1.63745 117.141-4.40055Q119.889-7.16364 123.778-7.16364Q127.593-7.16364 130.347-4.40055Q133.101-1.63745 133.101 2.21435Q133.101 6.08511 130.384 8.83873Q127.667 11.5924 123.778 11.5924Z"/>
  </g>
  <g id="Medium-M" transform="matrix(1 0 0 1 1660.87 1126)">
   <path d="M26.8751 5.89935L37.102 5.89935L37.102-3.6305L27.3286-3.6305Q24.69-3.6305 23.3455-4.9596Q22.0011-6.28871 22.0011-8.95817L22.0011-72.561Q22.0011-75.2304 23.3455-76.5594Q24.69-77.8885 27.3286-77.8885L98.8935-77.8885Q101.506-77.8885 102.864-76.5594Q104.221-75.2304 104.221-72.561L104.221-1.48674L113.761-3.85808L113.761-73.0042Q113.761-80.014 110.073-83.7162Q106.384-87.4183 99.3572-87.4183L26.8751-87.4183Q19.848-87.4183 16.1545-83.7248Q12.4609-80.0312 12.4609-73.0042L12.4609-8.51496Q12.4609-1.48774 16.1545 2.20581Q19.848 5.89935 26.8751 5.89935ZM63.4429 5.89935L108.243 5.89935L108.243-3.6305L63.4429-3.6305ZM108.637-50.9322L125.984-50.9322Q127.882-50.9322 129.317-50.404Q130.751-49.8758 132.187-48.2806L147.343-31.259Q148.388-30.1312 148.883-28.6959Q149.379-27.2607 149.379-25.7693L149.379-8.95817Q149.379-6.28871 148.035-4.9596Q146.69-3.6305 144.052-3.6305L136.525-3.6305L136.525 5.89935L144.505 5.89935Q151.532 5.89935 155.226 2.20581Q158.919-1.48774 158.919-8.51496L158.919-26.0764Q158.919-29.892 158.151-32.1241Q157.383-34.3563 155.264-36.7703L138.402-55.7825Q136.087-58.3503 133.362-59.4113Q130.637-60.4723 126.811-60.4723L108.637-60.4723ZM123.027-25.6L143.683-25.6Q143.683-26.4533 143.372-27.0204Q143.062-27.5875 142.52-28.2002L128.446-44.0308Q127.604-44.956 126.646-45.4493Q125.688-45.9426 124.543-45.9426L118.644-45.9426L118.644-29.994Q118.644-27.9516 119.814-26.7758Q120.985-25.6 123.027-25.6ZM49.9364 19.6695Q54.7958 19.6695 58.8075 17.2804Q62.8192 14.8913 65.1814 10.8745Q67.5436 6.85761 67.5436 2.00864Q67.5436-2.85061 65.1814-6.84064Q62.8192-10.8307 58.8075-13.1971Q54.7958-15.5636 49.9364-15.5636Q45.0874-15.5636 41.0706-13.1971Q37.0537-10.8307 34.6821-6.84064Q32.3104-2.85061 32.3104 2.00864Q32.3104 6.85761 34.6821 10.8745Q37.0537 14.8913 41.0706 17.2804Q45.0874 19.6695 49.9364 19.6695ZM49.9364 11.6831Q45.9369 11.6831 43.0994 8.84572Q40.2619 6.00834 40.2619 2.00864Q40.2619-1.95783 43.0994-4.81183Q45.9369-7.66582 49.9364-7.66582Q53.9464-7.66582 56.7518-4.81183Q59.5572-1.95783 59.5572 2.00864Q59.5572 6.00834 56.7518 8.84572Q53.9464 11.6831 49.9364 11.6831ZM121.713 19.6695Q126.564 19.6695 130.57 17.2804Q134.577 14.8913 136.949 10.8745Q139.32 6.85761 139.32 2.00864Q139.32-2.85061 136.949-6.84064Q134.577-10.8307 130.57-13.1971Q126.564-15.5636 121.713-15.5636Q116.854-15.5636 112.842-13.1971Q108.83-10.8307 106.459-6.84064Q104.087-2.85061 104.087 2.00864Q104.087 6.85761 106.459 10.8745Q108.83 14.8913 112.842 17.2804Q116.854 19.6695 121.713 19.6695ZM121.713 11.6831Q117.703 11.6831 114.867 8.84572Q112.03 6.00834 112.03 2.00864Q112.03-1.95783 114.867-4.81183Q117.703-7.66582 121.713-7.66582Q125.636-7.66582 128.485-4.81183Q131.334-1.95783 131.334 2.00864Q131.334 6.00834 128.528 8.84572Q125.723 11.6831 121.713 11.6831Z"/>
  </g>
  <g id="Regular-M" transform="matrix(1 0 0 1 1366.32 1126)">
   <path d="M25.7192 4.83805L36.4332 4.83805L36.4332-3.01543L25.8438-3.01543Q23.1155-3.01543 21.715-4.41607Q20.3144-5.8167 20.3144-8.54504L20.3144-72.3118Q20.3144-75.0402 21.715-76.4407Q23.1155-77.8413 25.8438-77.8413L97.2733-77.8413Q99.9699-77.8413 101.386-76.4407Q102.803-75.0402 102.803-72.3118L102.803-0.730269L110.656-3.55573L110.656-72.4364Q110.656-78.9457 107.292-82.3202Q103.928-85.6947 97.3979-85.6947L25.7192-85.6947Q19.1889-85.6947 15.8249-82.3308Q12.4609-78.9668 12.4609-72.4364L12.4609-8.42043Q12.4609-1.88988 15.8249 1.47409Q19.1889 4.83805 25.7192 4.83805ZM61.6661 4.83805L106.175 4.83805L106.175-3.01543L61.6661-3.01543ZM106.365-50.9246L123.178-50.9246Q125.06-50.9246 126.478-50.4205Q127.897-49.9163 129.381-48.2666L144.743-31.0138Q145.761-29.9335 146.244-28.5159Q146.728-27.0983 146.728-25.7782L146.728-8.54504Q146.728-5.8167 145.327-4.41607Q143.926-3.01543 141.198-3.01543L133.295-3.01543L133.295 4.83805L141.323 4.83805Q147.853 4.83805 151.217 1.47409Q154.581-1.88988 154.581-8.42043L154.581-25.6536Q154.581-29.2316 153.865-31.313Q153.148-33.3944 151.167-35.6662L134.532-54.4093Q132.353-56.8161 129.805-57.7971Q127.256-58.7781 123.676-58.7781L106.365-58.7781ZM119.791-25.2025L141.098-25.2025Q141.098-26.0641 140.781-26.6508Q140.464-27.2374 139.914-27.8605L125.387-44.1843Q124.587-45.0459 123.637-45.5444Q122.686-46.0428 121.656-46.0428L115.632-46.0428L115.632-29.3613Q115.632-27.4117 116.737-26.3071Q117.841-25.2025 119.791-25.2025ZM48.6614 18.4646Q53.2605 18.4646 57.0601 16.2015Q60.8597 13.9385 63.0969 10.1389Q65.3341 6.33925 65.3341 1.74032Q65.3341-2.85861 63.0969-6.63238Q60.8597-10.4062 57.0601-12.6485Q53.2605-14.8909 48.6614-14.8909Q44.0625-14.8909 40.2629-12.6485Q36.4633-10.4062 34.2208-6.63238Q31.9783-2.85861 31.9783 1.74032Q31.9783 6.33925 34.2208 10.1389Q36.4633 13.9385 40.2629 16.2015Q44.0625 18.4646 48.6614 18.4646ZM48.6614 11.8015Q44.4937 11.8015 41.547 8.85483Q38.6003 5.90819 38.6003 1.74032Q38.6003-2.37572 41.547-5.34828Q44.4937-8.32084 48.6614-8.32084Q52.8293-8.32084 55.7501-5.34828Q58.6709-2.37572 58.6709 1.74032Q58.6709 5.90819 55.7501 8.85483Q52.8293 11.8015 48.6614 11.8015ZM119.02 18.4646Q123.609 18.4646 127.408 16.2015Q131.208 13.9385 133.45 10.1389Q135.693 6.33925 135.693 1.74032Q135.693-2.85861 133.45-6.63238Q131.208-10.4062 127.408-12.6485Q123.609-14.8909 119.02-14.8909Q114.421-14.8909 110.621-12.6485Q106.822-10.4062 104.579-6.63238Q102.337-2.85861 102.337 1.74032Q102.337 6.33925 104.579 10.1389Q106.822 13.9385 110.621 16.2015Q114.421 18.4646 119.02 18.4646ZM119.02 11.8015Q114.852 11.8015 111.9 8.85483Q108.948 5.90819 108.948 1.74032Q108.948-2.37572 111.9-5.34828Q114.852-8.32084 119.02-8.32084Q123.084-8.32084 126.057-5.34828Q129.029-2.37572 129.029 1.74032Q129.029 5.90819 126.109 8.85483Q123.188 11.8015 119.02 11.8015Z"/>
  </g>
  <g id="Light-M" transform="matrix(1 0 0 1 1070.52 1126)">
   <path d="M25.4967 3.28103L34.8931 3.28103L34.8931-2.7587L25.6213-2.7587Q22.1059-2.7587 20.3033-4.56153Q18.5007-6.36436 18.5007-9.87983L18.5007-72.3802Q18.5007-75.8957 20.3033-77.6983Q22.1059-79.5009 25.6213-79.5009L95.6821-79.5009Q99.1144-79.5009 100.959-77.6983Q102.803-75.8957 102.803-72.3802L102.803-0.405124L108.842-2.25543L108.842-72.5048Q108.842-78.86 105.53-82.2003Q102.217-85.5406 95.8067-85.5406L25.4967-85.5406Q19.0862-85.5406 15.7736-82.228Q12.4609-78.9153 12.4609-72.5048L12.4609-9.75522Q12.4609-3.34426 15.7736-0.0316132Q19.0862 3.28103 25.4967 3.28103ZM61.1357 3.28103L105.884 3.28103L105.884-2.7587L61.1357-2.7587ZM105.373-52.4817L122.271-52.4817Q124.375-52.4817 125.922-51.9177Q127.469-51.3538 128.833-49.8579L144.658-32.1088Q145.71-30.9943 146.219-29.5511Q146.728-28.1079 146.728-26.668L146.728-9.87983Q146.728-6.36436 144.925-4.56153Q143.122-2.7587 139.607-2.7587L132.731-2.7587L132.731 3.28103L139.731 3.28103Q146.142 3.28103 149.455-0.0316132Q152.767-3.34426 152.767-9.75522L152.767-26.5434Q152.767-29.6594 152.051-31.6809Q151.334-33.7023 149.576-35.7177L132.94-54.4435Q130.967-56.6108 128.53-57.5661Q126.093-58.5214 122.769-58.5214L105.373-58.5214ZM117.635-26.6741L140.961-26.6741Q140.961-27.5185 140.636-28.0967Q140.31-28.6748 139.777-29.2979L125.233-45.6217Q124.45-46.4661 123.474-46.9645Q122.498-47.463 121.211-47.463L114.007-47.463L114.007-30.3026Q114.007-28.6267 114.983-27.6504Q115.959-26.6741 117.635-26.6741ZM47.7544 17.1813Q52.2339 17.1813 55.9309 14.9866Q59.6279 12.792 61.8051 9.095Q63.9823 5.39802 63.9823 0.918973Q63.9823-3.56008 61.8051-7.23984Q59.6279-10.9196 55.9309-13.1105Q52.2339-15.3015 47.7544-15.3015Q43.2754-15.3015 39.5784-13.1105Q35.8814-10.9196 33.6902-7.23984Q31.4991-3.56008 31.4991 0.918973Q31.4991 5.39802 33.6902 9.095Q35.8814 12.792 39.5784 14.9866Q43.2754 17.1813 47.7544 17.1813ZM47.7544 11.9383Q43.1934 11.9383 39.9642 8.70937Q36.7351 5.48042 36.7351 0.918973Q36.7351-3.60759 39.9642-6.85398Q43.1934-10.1004 47.7544-10.1004Q52.3158-10.1004 55.5276-6.85398Q58.7393-3.60759 58.7393 0.918973Q58.7393 5.48042 55.5276 8.70937Q52.3158 11.9383 47.7544 11.9383ZM118.746 17.1813Q123.198 17.1813 126.895 14.9866Q130.592 12.792 132.783 9.095Q134.974 5.39802 134.974 0.918973Q134.974-3.56008 132.783-7.23984Q130.592-10.9196 126.895-13.1105Q123.198-15.3015 118.746-15.3015Q114.267-15.3015 110.57-13.1105Q106.873-10.9196 104.682-7.23984Q102.491-3.56008 102.491 0.918973Q102.491 5.39802 104.682 9.095Q106.873 12.792 110.57 14.9866Q114.267 17.1813 118.746 17.1813ZM118.746 11.9383Q114.185 11.9383 110.942 8.70937Q107.699 5.48042 107.699 0.918973Q107.699-3.60759 110.942-6.85398Q114.185-10.1004 118.746-10.1004Q123.239-10.1004 126.485-6.85398Q129.731-3.60759 129.731 0.918973Q129.731 5.48042 126.519 8.70937Q123.308 11.9383 118.746 11.9383Z"/>
  </g>
  <g id="Thin-M" transform="matrix(1 0 0 1 775.008 1126)">
   <path d="M25.2024 1.22175L32.8563 1.22175L32.8563-2.41917L25.327-2.41917Q20.7705-2.41917 18.4362-4.75393Q16.1019-7.08868 16.1019-11.6452L16.1019-72.4707Q16.1019-77.0272 18.4362-79.3616Q20.7705-81.6959 25.327-81.6959L93.5776-81.6959Q97.9828-81.6959 100.393-79.3616Q102.803-77.0272 102.803-72.4707L102.803 0.0249061L106.444-0.535693L106.444-72.5953Q106.444-78.7467 103.199-82.0418Q99.9541-85.3368 93.7022-85.3368L25.2024-85.3368Q18.9505-85.3368 15.7057-82.0921Q12.4609-78.8473 12.4609-72.5953L12.4609-11.5206Q12.4609-5.2678 15.7057-2.02302Q18.9505 1.22175 25.2024 1.22175ZM60.4342 1.22175L105.499 1.22175L105.499-2.41917L60.4342-2.41917ZM104.06-54.5409L121.071-54.5409Q123.47-54.5409 125.187-53.8979Q126.903-53.2549 128.109-51.9624L144.544-33.5571Q145.642-32.3974 146.185-30.9203Q146.728-29.4432 146.728-27.8448L146.728-11.6452Q146.728-7.08868 144.393-4.75393Q142.059-2.41917 137.502-2.41917L131.984-2.41917L131.984 1.22175L137.627 1.22175Q143.879 1.22175 147.124-2.02302Q150.368-5.2678 150.368-11.5206L150.368-27.7202Q150.368-30.2252 149.652-32.1674Q148.935-34.1096 147.471-35.7857L130.836-54.4887Q129.134-56.3394 126.844-57.2606Q124.554-58.1819 121.57-58.1819L104.06-58.1819ZM114.784-28.6205L140.78-28.6205Q140.78-29.442 140.443-30.009Q140.106-30.576 139.596-31.199L125.029-47.5228Q124.269-48.3444 123.259-48.8428Q122.249-49.3413 120.622-49.3413L111.857-49.3413L111.857-31.5474Q111.857-30.2335 112.663-29.427Q113.47-28.6205 114.784-28.6205ZM46.5548 15.484Q50.8761 15.484 54.4374 13.3798Q57.9986 11.2756 60.0966 7.71441Q62.1945 4.15318 62.1945-0.167319Q62.1945-4.48782 60.0966-8.04325Q57.9986-11.5987 54.4374-13.7215Q50.8761-15.8444 46.5548-15.8444Q42.2343-15.8444 38.6731-13.7215Q35.1118-11.5987 32.9885-8.04325Q30.8653-4.48782 30.8653-0.167319Q30.8653 4.15318 32.9885 7.71441Q35.1118 11.2756 38.6731 13.3798Q42.2343 15.484 46.5548 15.484ZM46.5548 12.1193Q41.4737 12.1193 37.8709 8.51697Q34.2682 4.91465 34.2682-0.167319Q34.2682-5.23684 37.8709-8.84539Q41.4737-12.4539 46.5548-12.4539Q51.6368-12.4539 55.2333-8.84539Q58.8298-5.23684 58.8298-0.167319Q58.8298 4.91465 55.2333 8.51697Q51.6368 12.1193 46.5548 12.1193ZM118.384 15.484Q122.655 15.484 126.216 13.3798Q129.777 11.2756 131.9 7.71441Q134.023 4.15318 134.023-0.167319Q134.023-4.48782 131.9-8.04325Q129.777-11.5987 126.216-13.7215Q122.655-15.8444 118.384-15.8444Q114.063-15.8444 110.502-13.7215Q106.941-11.5987 104.818-8.04325Q102.695-4.48782 102.695-0.167319Q102.695 4.15318 104.818 7.71441Q106.941 11.2756 110.502 13.3798Q114.063 15.484 118.384 15.484ZM118.384 12.1193Q113.302 12.1193 109.675 8.51697Q106.047 4.91465 106.047-0.167319Q106.047-5.23684 109.675-8.84539Q113.302-12.4539 118.384-12.4539Q123.442-12.4539 127.05-8.84539Q130.659-5.23684 130.659-0.167319Q130.659 4.91465 127.063 8.51697Q123.466 12.1193 118.384 12.1193Z"/>
  </g>
  <g id="Ultralight-M" transform="matrix(1 0 0 1 478.911 1126)">
   <path d="M25.0517 0.167002L31.813 0.167002L31.813-2.24526L25.1763-2.24526Q20.0866-2.24526 17.4799-4.85247Q14.8732-7.45968 14.8732-12.5494L14.8732-72.5171Q14.8732-77.6068 17.4799-80.2135Q20.0866-82.8202 25.1763-82.8202L92.4996-82.8202Q97.4032-82.8202 100.103-80.2135Q102.803-77.6068 102.803-72.5171L102.803 0.245166L105.215 0.34515L105.215-72.6417Q105.215-78.6887 102.005-81.9606Q98.795-85.2325 92.6242-85.2325L25.0517-85.2325Q18.881-85.2325 15.671-82.0224Q12.4609-78.8124 12.4609-72.6417L12.4609-12.4248Q12.4609-6.25303 15.671-3.04301Q18.881 0.167002 25.0517 0.167002ZM60.0749 0.167002L105.302 0.167002L105.302-2.24526L60.0749-2.24526ZM103.388-55.5957L120.457-55.5957Q123.006-55.5957 124.81-54.9121Q126.614-54.2286 127.738-53.0403L144.486-34.2989Q145.607-33.116 146.167-31.6216Q146.728-30.1272 146.728-28.4475L146.728-12.5494Q146.728-7.45968 144.121-4.85247Q141.514-2.24526 136.424-2.24526L131.602-2.24526L131.602 0.167002L136.549 0.167002Q142.72 0.167002 145.93-3.04301Q149.14-6.25303 149.14-12.4248L149.14-28.3229Q149.14-30.515 148.423-32.4166Q147.707-34.3181 146.393-35.8206L129.758-54.5119Q128.195-56.2003 125.98-57.1041Q123.766-58.008 120.955-58.008L103.388-58.008ZM113.323-29.6174L140.688-29.6174Q140.688-30.4272 140.345-30.9885Q140.002-31.5497 139.504-32.1727L124.924-48.4966Q124.177-49.3064 123.149-49.8049Q122.122-50.3033 120.321-50.3033L110.756-50.3033L110.756-32.185Q110.756-31.0565 111.475-30.3369Q112.195-29.6174 113.323-29.6174ZM45.9404 14.6146Q50.1807 14.6146 53.6724 12.5568Q57.1641 10.499 59.2215 7.00728Q61.2788 3.51557 61.2788-0.723713Q61.2788-4.963 59.2215-8.45475Q57.1641-11.9465 53.6724-14.0345Q50.1807-16.1225 45.9404-16.1225Q41.7011-16.1225 38.2094-14.0345Q34.7177-11.9465 32.6291-8.45475Q30.5406-4.963 30.5406-0.723713Q30.5406 3.51557 32.6291 7.00728Q34.7177 10.499 38.2094 12.5568Q41.7011 14.6146 45.9404 14.6146ZM45.9404 12.212Q40.5928 12.212 36.7988 8.41843Q33.0047 4.62486 33.0047-0.723713Q33.0047-6.07133 36.7988-9.86538Q40.5928-13.6594 45.9404-13.6594Q51.289-13.6594 55.0826-9.86538Q58.8762-6.07133 58.8762-0.723713Q58.8762 4.62486 55.0826 8.41843Q51.289 12.212 45.9404 12.212ZM118.199 14.6146Q122.377 14.6146 125.868 12.5568Q129.359 10.499 131.448 7.00728Q133.536 3.51557 133.536-0.723713Q133.536-4.963 131.448-8.45475Q129.359-11.9465 125.868-14.0345Q122.377-16.1225 118.199-16.1225Q113.959-16.1225 110.468-14.0345Q106.976-11.9465 104.888-8.45475Q102.799-4.963 102.799-0.723713Q102.799 3.51557 104.888 7.00728Q106.976 10.499 110.468 12.5568Q113.959 14.6146 118.199 14.6146ZM118.199 12.212Q112.85 12.212 109.026 8.41843Q105.201 4.62486 105.201-0.723713Q105.201-6.07133 109.026-9.86538Q112.85-13.6594 118.199-13.6594Q123.547-13.6594 127.34-9.86538Q131.134-6.07133 131.134-0.723713Q131.134 4.62486 127.341 8.41843Q123.548 12.212 118.199 12.212Z"/>
  </g>
  <g id="Black-S" transform="matrix(1 0 0 1 2857.69 696)">
   <path d="M25.6348 1.12305L31.6406 1.12305L31.6406-12.8906L27.2949-12.8906Q25.5371-12.8906 24.6826-13.6719Q23.8281-14.4531 23.8281-16.3574L23.8281-65.4785Q23.8281-67.3828 24.6826-68.1641Q25.5371-68.9453 27.2949-68.9453L83.8379-68.9453Q85.5957-68.9453 86.4502-68.1641Q87.3047-67.3828 87.3047-65.4785L87.3047-11.7676L101.367-11.7676L101.367-67.0898Q101.367-74.5605 97.1924-78.7598Q93.0176-82.959 85.5469-82.959L25.6348-82.959Q18.1641-82.959 13.9648-78.7598Q9.76562-74.5605 9.76562-67.0898L9.76562-14.7461Q9.76562-7.27539 13.9648-3.07617Q18.1641 1.12305 25.6348 1.12305ZM56.7383 1.12305L93.0176 1.12305L93.0176-12.8906L56.7383-12.8906ZM94.0918-47.6562L109.814-47.6562Q111.377-47.6562 112.573-47.1436Q113.77-46.6309 114.697-45.6055L125.781-33.1543Q126.709-32.0801 127.148-30.8838Q127.588-29.6875 127.588-27.832L127.588-16.3574Q127.588-14.4531 126.733-13.6719Q125.879-12.8906 124.121-12.8906L119.775-12.8906L119.775 1.12305L125.781 1.12305Q133.252 1.12305 137.451-3.07617Q141.65-7.27539 141.65-14.7461L141.65-29.7852Q141.65-33.6914 140.845-36.0352Q140.039-38.3789 137.842-40.8203L123.73-56.7871Q121.387-59.4238 118.555-60.5713Q115.723-61.7188 111.768-61.7188L94.0918-61.7188ZM109.131-29.3457L122.852-29.3457Q122.852-29.9805 122.632-30.3467Q122.412-30.7129 122.021-31.1523L112.793-41.6016Q111.963-42.5781 111.182-42.9443Q110.4-43.3105 109.033-43.3105L104.834-43.3105L104.834-33.6914Q104.834-31.7383 106.006-30.542Q107.178-29.3457 109.131-29.3457ZM44.1406 12.5Q48.9746 12.5 52.9541 10.1318Q56.9336 7.76367 59.2773 3.75977Q61.6211-0.244141 61.6211-5.0293Q61.6211-9.86328 59.2773-13.8428Q56.9336-17.8223 52.9541-20.166Q48.9746-22.5098 44.1406-22.5098Q39.3555-22.5098 35.3516-20.166Q31.3477-17.8223 28.9795-13.8428Q26.6113-9.86328 26.6113-5.0293Q26.6113-0.244141 28.9795 3.75977Q31.3477 7.76367 35.3516 10.1318Q39.3555 12.5 44.1406 12.5ZM44.1406 1.07422Q41.6504 1.07422 39.8438-0.732422Q38.0371-2.53906 38.0371-5.0293Q38.0371-7.56836 39.8438-9.35059Q41.6504-11.1328 44.1406-11.1328Q46.6797-11.1328 48.4375-9.35059Q50.1953-7.56836 50.1953-5.0293Q50.1953-2.53906 48.4375-0.732422Q46.6797 1.07422 44.1406 1.07422ZM106.055 12.5Q110.889 12.5 114.844 10.1318Q118.799 7.76367 121.167 3.75977Q123.535-0.244141 123.535-5.0293Q123.535-9.86328 121.167-13.8428Q118.799-17.8223 114.844-20.166Q110.889-22.5098 106.055-22.5098Q101.221-22.5098 97.2412-20.166Q93.2617-17.8223 90.8936-13.8428Q88.5254-9.86328 88.5254-5.0293Q88.5254-0.244141 90.8936 3.75977Q93.2617 7.76367 97.2412 10.1318Q101.221 12.5 106.055 12.5ZM106.055 1.07422Q103.516 1.07422 101.733-0.732422Q99.9512-2.53906 99.9512-5.0293Q99.9512-7.56836 101.733-9.35059Q103.516-11.1328 106.055-11.1328Q108.594-11.1328 110.352-9.35059Q112.109-7.56836 112.109-5.0293Q112.109-2.53906 110.352-0.732422Q108.594 1.07422 106.055 1.07422Z"/>
  </g>
  <g id="Heavy-S" transform="matrix(1 0 0 1 2563.3 696)">
   <path d="M24.3671 0.131943L31.0875 0.131943L31.0875-12.2337L25.6584-12.2337Q23.9006-12.2337 23.0346-13.0438Q22.1686-13.8539 22.1686-15.7236L22.1686-65.1904Q22.1686-67.0601 23.0346-67.8702Q23.9006-68.6802 25.6584-68.6802L82.2245-68.6802Q83.9823-68.6802 84.8483-67.8702Q85.7143-67.0601 85.7143-65.1904L85.7143-10.9609L98.1173-11.5947L98.1173-66.4445Q98.1173-73.3735 94.2997-77.2097Q90.4822-81.0459 83.5531-81.0459L24.3671-81.0459Q17.438-81.0459 13.6018-77.2097Q9.76562-73.3735 9.76562-66.4445L9.76562-14.4695Q9.76562-7.54045 13.6018-3.70426Q17.438 0.131943 24.3671 0.131943ZM54.8137 0.131943L90.7357 0.131943L90.7357-12.2337L54.8137-12.2337ZM91.6717-47.4488L106.784-47.4488Q108.3-47.4488 109.462-46.9707Q110.623-46.4926 111.62-45.3865L122.877-32.7394Q123.77-31.7228 124.192-30.5496Q124.615-29.3763 124.615-27.7283L124.615-15.7236Q124.615-13.8539 123.749-13.0438Q122.883-12.2337 121.125-12.2337L116.226-12.2337L116.226 0.131943L122.416 0.131943Q129.345 0.131943 133.181-3.70426Q137.018-7.54045 137.018-14.4695L137.018-29.1974Q137.018-32.8962 136.27-35.0786Q135.521-37.261 133.451-39.5757L119.593-55.2428Q117.376-57.7297 114.729-58.7908Q112.081-59.8518 108.368-59.8518L91.6717-59.8518ZM105.777-28.7119L119.97-28.7119Q119.97-29.3581 119.745-29.7474Q119.519-30.1367 119.117-30.5876L109.382-41.59Q108.598-42.4975 107.828-42.8694Q107.058-43.2414 105.852-43.2414L101.665-43.2414L101.665-32.8616Q101.665-30.9777 102.779-29.8448Q103.893-28.7119 105.777-28.7119ZM42.8268 11.313Q47.3842 11.313 51.139 9.07735Q54.8938 6.84171 57.105 3.0683Q59.3162-0.705119 59.3162-5.22521Q59.3162-9.78261 57.105-13.5316Q54.8938-17.2806 51.139-19.4918Q47.3842-21.7031 42.8268-21.7031Q38.3067-21.7031 34.5333-19.4918Q30.7599-17.2806 28.53-13.5316Q26.3002-9.78261 26.3002-5.22521Q26.3002-0.705119 28.53 3.0683Q30.7599 6.84171 34.5333 9.07735Q38.3067 11.313 42.8268 11.313ZM42.8268 1.18946Q40.1983 1.18946 38.3052-0.703611Q36.4122-2.59668 36.4122-5.22521Q36.4122-7.87952 38.3052-9.7597Q40.1983-11.6399 42.8268-11.6399Q45.4927-11.6399 47.3427-9.7597Q49.1927-7.87952 49.1927-5.22521Q49.1927-2.59668 47.3427-0.703611Q45.4927 1.18946 42.8268 1.18946ZM103.07 11.313Q107.627 11.313 111.363 9.07735Q115.099 6.84171 117.329 3.0683Q119.559-0.705119 119.559-5.22521Q119.559-9.78261 117.329-13.5316Q115.099-17.2806 111.363-19.4918Q107.627-21.7031 103.07-21.7031Q98.5125-21.7031 94.7577-19.4918Q91.0029-17.2806 88.7731-13.5316Q86.5432-9.78261 86.5432-5.22521Q86.5432-0.705119 88.7731 3.0683Q91.0029 6.84171 94.7577 9.07735Q98.5125 11.313 103.07 11.313ZM103.07 1.18946Q100.404 1.18946 98.5296-0.703611Q96.6552-2.59668 96.6552-5.22521Q96.6552-7.87952 98.5296-9.7597Q100.404-11.6399 103.07-11.6399Q105.713-11.6399 107.574-9.7597Q109.436-7.87952 109.436-5.22521Q109.436-2.59668 107.586-0.703611Q105.736 1.18946 103.07 1.18946Z"/>
  </g>
  <g id="Bold-S" transform="matrix(1 0 0 1 2269.18 696)">
   <path d="M22.9492-0.976562L30.4688-0.976562L30.4688-11.499L23.8281-11.499Q22.0703-11.499 21.1914-12.3413Q20.3125-13.1836 20.3125-15.0146L20.3125-64.8682Q20.3125-66.6992 21.1914-67.5415Q22.0703-68.3838 23.8281-68.3838L80.4199-68.3838Q82.1777-68.3838 83.0566-67.5415Q83.9355-66.6992 83.9355-64.8682L83.9355-10.0586L94.4824-11.4014L94.4824-65.7227Q94.4824-72.0459 91.0645-75.4761Q87.6465-78.9062 81.3232-78.9062L22.9492-78.9062Q16.626-78.9062 13.1958-75.4761Q9.76562-72.0459 9.76562-65.7227L9.76562-14.1602Q9.76562-7.83691 13.1958-4.40674Q16.626-0.976562 22.9492-0.976562ZM52.6611-0.976562L88.1836-0.976562L88.1836-11.499L52.6611-11.499ZM88.9648-47.2168L103.394-47.2168Q104.858-47.2168 105.981-46.7773Q107.104-46.3379 108.179-45.1416L119.629-32.2754Q120.483-31.3232 120.886-30.1758Q121.289-29.0283 121.289-27.6123L121.289-15.0146Q121.289-13.1836 120.41-12.3413Q119.531-11.499 117.773-11.499L112.256-11.499L112.256-0.976562L118.652-0.976562Q124.976-0.976562 128.406-4.40674Q131.836-7.83691 131.836-14.1602L131.836-28.54Q131.836-32.0068 131.152-34.0088Q130.469-36.0107 128.54-38.1836L114.966-53.5156Q112.891-55.835 110.449-56.7993Q108.008-57.7637 104.565-57.7637L88.9648-57.7637ZM102.026-28.0029L116.748-28.0029Q116.748-28.6621 116.516-29.0771Q116.284-29.4922 115.869-29.9561L105.566-41.5771Q104.834-42.4072 104.077-42.7856Q103.32-43.1641 102.295-43.1641L98.1201-43.1641L98.1201-31.9336Q98.1201-30.127 99.1699-29.0649Q100.22-28.0029 102.026-28.0029ZM41.3574 9.98535Q45.6055 9.98535 49.1089 7.89795Q52.6123 5.81055 54.6753 2.29492Q56.7383-1.2207 56.7383-5.44434Q56.7383-9.69238 54.6753-13.1836Q52.6123-16.6748 49.1089-18.7378Q45.6055-20.8008 41.3574-20.8008Q37.1338-20.8008 33.6182-18.7378Q30.1025-16.6748 28.0273-13.1836Q25.9521-9.69238 25.9521-5.44434Q25.9521-1.2207 28.0273 2.29492Q30.1025 5.81055 33.6182 7.89795Q37.1338 9.98535 41.3574 9.98535ZM41.3574 1.31836Q38.5742 1.31836 36.5845-0.671387Q34.5947-2.66113 34.5947-5.44434Q34.5947-8.22754 36.5845-10.2173Q38.5742-12.207 41.3574-12.207Q44.165-12.207 46.1182-10.2173Q48.0713-8.22754 48.0713-5.44434Q48.0713-2.66113 46.1182-0.671387Q44.165 1.31836 41.3574 1.31836ZM99.7314 9.98535Q103.979 9.98535 107.471 7.89795Q110.962 5.81055 113.037 2.29492Q115.112-1.2207 115.112-5.44434Q115.112-9.69238 113.037-13.1836Q110.962-16.6748 107.471-18.7378Q103.979-20.8008 99.7314-20.8008Q95.4834-20.8008 91.98-18.7378Q88.4766-16.6748 86.4014-13.1836Q84.3262-9.69238 84.3262-5.44434Q84.3262-1.2207 86.4014 2.29492Q88.4766 5.81055 91.98 7.89795Q95.4834 9.98535 99.7314 9.98535ZM99.7314 1.31836Q96.9238 1.31836 94.9463-0.671387Q92.9688-2.66113 92.9688-5.44434Q92.9688-8.22754 94.9463-10.2173Q96.9238-12.207 99.7314-12.207Q102.49-12.207 104.468-10.2173Q106.445-8.22754 106.445-5.44434Q106.445-2.66113 104.492-0.671387Q102.539 1.31836 99.7314 1.31836Z"/>
  </g>
  <g id="Semibold-S" transform="matrix(1 0 0 1 1974.25 696)">
   <path d="M21.9717-1.74082L30.0422-1.74082L30.0422-10.9925L22.5662-10.9925Q20.8084-10.9925 19.9206-11.857Q19.0328-12.7215 19.0328-14.5259L19.0328-64.646Q19.0328-66.4504 19.9206-67.3149Q20.8084-68.1794 22.5662-68.1794L79.1758-68.1794Q80.9336-68.1794 81.8214-67.3149Q82.7092-66.4504 82.7092-64.646L82.7092-9.43652L91.9764-11.2681L91.9764-65.225Q91.9764-71.1306 88.8339-74.2808Q85.6914-77.4311 79.7858-77.4311L21.9717-77.4311Q16.0661-77.4311 12.9159-74.2808Q9.76562-71.1306 9.76562-65.225L9.76562-13.9469Q9.76562-8.04131 12.9159-4.89106Q16.0661-1.74082 21.9717-1.74082ZM51.1771-1.74082L86.424-1.74082L86.424-10.9925L51.1771-10.9925ZM87.0986-47.0568L101.056-47.0568Q102.486-47.0568 103.582-46.644Q104.678-46.2313 105.806-44.9728L117.389-31.9555Q118.217-31.0478 118.607-29.9181Q118.996-28.7884 118.996-27.5323L118.996-14.5259Q118.996-12.7215 118.108-11.857Q117.221-10.9925 115.463-10.9925L109.519-10.9925L109.519-1.74082L116.057-1.74082Q121.963-1.74082 125.113-4.89106Q128.263-8.04131 128.263-13.9469L128.263-28.0868Q128.263-31.3937 127.624-33.2712Q126.985-35.1487 125.154-37.2238L111.775-52.3248Q109.798-54.5286 107.499-55.4263Q105.2-56.324 101.944-56.324L87.0986-56.324ZM99.4403-27.5142L114.526-27.5142Q114.526-28.1822 114.29-28.615Q114.054-29.0479 113.63-29.5206L102.936-41.5683Q102.239-42.345 101.491-42.7279Q100.743-43.1107 99.8422-43.1107L95.6763-43.1107L95.6763-31.2937Q95.6763-29.5404 96.6816-28.5273Q97.687-27.5142 99.4403-27.5142ZM40.3443 9.07002Q44.3791 9.07002 47.7092 7.08481Q51.0394 5.09961 53.0001 1.76172Q54.9609-1.57617 54.9609-5.59541Q54.9609-9.63018 53.0001-12.9437Q51.0394-16.2571 47.7092-18.2179Q44.3791-20.1787 40.3443-20.1787Q36.3251-20.1787 32.9872-18.2179Q29.6493-16.2571 27.6808-12.9437Q25.7122-9.63018 25.7122-5.59541Q25.7122-1.57617 27.6808 1.76172Q29.6493 5.09961 32.9872 7.08481Q36.3251 9.07002 40.3443 9.07002ZM40.3443 1.40723Q37.4545 1.40723 35.3981-0.64917Q33.3417-2.70557 33.3417-5.59541Q33.3417-8.46748 35.3981-10.5328Q37.4545-12.598 40.3443-12.598Q43.2497-12.598 45.2739-10.5328Q47.2981-8.46748 47.2981-5.59541Q47.2981-2.70557 45.2739-0.64917Q43.2497 1.40723 40.3443 1.40723ZM97.4298 9.07002Q101.465 9.07002 104.787 7.08481Q108.109 5.09961 110.078 1.76172Q112.046-1.57617 112.046-5.59541Q112.046-9.63018 110.078-12.9437Q108.109-16.2571 104.787-18.2179Q101.465-20.1787 97.4298-20.1787Q93.395-20.1787 90.0649-18.2179Q86.7348-16.2571 84.7662-12.9437Q82.7977-9.63018 82.7977-5.59541Q82.7977-1.57617 84.7662 1.76172Q86.7348 5.09961 90.0649 7.08481Q93.395 9.07002 97.4298 9.07002ZM97.4298 1.40723Q94.5244 1.40723 92.4758-0.64917Q90.4271-2.70557 90.4271-5.59541Q90.4271-8.46748 92.4758-10.5328Q94.5244-12.598 97.4298-12.598Q100.269-12.598 102.326-10.5328Q104.384-8.46748 104.384-5.59541Q104.384-2.70557 102.359-0.64917Q100.335 1.40723 97.4298 1.40723Z"/>
  </g>
  <g id="Medium-S" transform="matrix(1 0 0 1 1678.9 696)">
   <path d="M21.2305-2.32031L29.7188-2.32031L29.7188-10.6084L21.6094-10.6084Q19.8516-10.6084 18.957-11.4897Q18.0625-12.3711 18.0625-14.1553L18.0625-64.4775Q18.0625-66.2617 18.957-67.1431Q19.8516-68.0244 21.6094-68.0244L78.2324-68.0244Q79.9902-68.0244 80.8848-67.1431Q81.7793-66.2617 81.7793-64.4775L81.7793-8.96484L90.0762-11.167L90.0762-64.8477Q90.0762-70.4365 87.1426-73.3745Q84.209-76.3125 78.6201-76.3125L21.2305-76.3125Q15.6416-76.3125 12.7036-73.3745Q9.76562-70.4365 9.76562-64.8477L9.76562-13.7852Q9.76562-8.19629 12.7036-5.2583Q15.6416-2.32031 21.2305-2.32031ZM50.0518-2.32031L85.0898-2.32031L85.0898-10.6084L50.0518-10.6084ZM85.6836-46.9355L99.2842-46.9355Q100.687-46.9355 101.763-46.543Q102.839-46.1504 104.007-44.8447L115.691-31.7129Q116.499-30.8389 116.878-29.7227Q117.258-28.6064 117.258-27.4717L117.258-14.1553Q117.258-12.3711 116.363-11.4897Q115.469-10.6084 113.711-10.6084L107.443-10.6084L107.443-2.32031L114.09-2.32031Q119.679-2.32031 122.617-5.2583Q125.555-8.19629 125.555-13.7852L125.555-27.7432Q125.555-30.9287 124.949-32.7119Q124.344-34.4951 122.587-36.4961L109.356-51.4219Q107.453-53.5381 105.262-54.3853Q103.07-55.2324 99.9561-55.2324L85.6836-55.2324ZM97.4795-27.1436L112.842-27.1436Q112.842-27.8184 112.602-28.2646Q112.362-28.7109 111.932-29.1904L100.941-41.5615Q100.271-42.2979 99.5303-42.6841Q98.7891-43.0703 97.9824-43.0703L93.8232-43.0703L93.8232-30.8086Q93.8232-29.0957 94.7949-28.1196Q95.7666-27.1436 97.4795-27.1436ZM39.5762 8.37598Q43.4492 8.37598 46.6479 6.46826Q49.8467 4.56055 51.73 1.35742Q53.6133-1.8457 53.6133-5.70996Q53.6133-9.58301 51.73-12.7617Q49.8467-15.9404 46.6479-17.8237Q43.4492-19.707 39.5762-19.707Q35.7119-19.707 32.5088-17.8237Q29.3057-15.9404 27.418-12.7617Q25.5303-9.58301 25.5303-5.70996Q25.5303-1.8457 27.418 1.35742Q29.3057 4.56055 32.5088 6.46826Q35.7119 8.37598 39.5762 8.37598ZM39.5762 1.47461Q36.6055 1.47461 34.4985-0.632324Q32.3916-2.73926 32.3916-5.70996Q32.3916-8.64941 34.4985-10.772Q36.6055-12.8945 39.5762-12.8945Q42.5557-12.8945 44.6338-10.772Q46.7119-8.64941 46.7119-5.70996Q46.7119-2.73926 44.6338-0.632324Q42.5557 1.47461 39.5762 1.47461ZM95.6846 8.37598Q99.5576 8.37598 102.752 6.46826Q105.946 4.56055 107.834 1.35742Q109.722-1.8457 109.722-5.70996Q109.722-9.58301 107.834-12.7617Q105.946-15.9404 102.752-17.8237Q99.5576-19.707 95.6846-19.707Q91.8115-19.707 88.6128-17.8237Q85.4141-15.9404 83.5264-12.7617Q81.6387-9.58301 81.6387-5.70996Q81.6387-1.8457 83.5264 1.35742Q85.4141 4.56055 88.6128 6.46826Q91.8115 8.37598 95.6846 8.37598ZM95.6846 1.47461Q92.7051 1.47461 90.6025-0.632324Q88.5-2.73926 88.5-5.70996Q88.5-8.64941 90.6025-10.772Q92.7051-12.8945 95.6846-12.8945Q98.584-12.8945 100.702-10.772Q102.82-8.64941 102.82-5.70996Q102.82-2.73926 100.742-0.632324Q98.6641 1.47461 95.6846 1.47461Z"/>
  </g>
  <g id="Regular-S" transform="matrix(1 0 0 1 1383.95 696)">
   <path d="M20.2637-3.07617L29.2969-3.07617L29.2969-10.1074L20.3613-10.1074Q18.6035-10.1074 17.7002-11.0107Q16.7969-11.9141 16.7969-13.6719L16.7969-64.2578Q16.7969-66.0156 17.7002-66.9189Q18.6035-67.8223 20.3613-67.8223L77.002-67.8223Q78.7598-67.8223 79.6631-66.9189Q80.5664-66.0156 80.5664-64.2578L80.5664-8.34961L87.5977-11.0352L87.5977-64.3555Q87.5977-69.5312 84.9365-72.1924Q82.2754-74.8535 77.0996-74.8535L20.2637-74.8535Q15.0879-74.8535 12.4268-72.1924Q9.76562-69.5312 9.76562-64.3555L9.76562-13.5742Q9.76562-8.39844 12.4268-5.7373Q15.0879-3.07617 20.2637-3.07617ZM48.584-3.07617L83.3496-3.07617L83.3496-10.1074L48.584-10.1074ZM83.8379-46.7773L96.9727-46.7773Q98.3398-46.7773 99.3896-46.4111Q100.439-46.0449 101.66-44.6777L113.477-31.3965Q114.258-30.5664 114.624-29.4678Q114.99-28.3691 114.99-27.3926L114.99-13.6719Q114.99-11.9141 114.087-11.0107Q113.184-10.1074 111.426-10.1074L104.736-10.1074L104.736-3.07617L111.523-3.07617Q116.699-3.07617 119.36-5.7373Q122.021-8.39844 122.021-13.5742L122.021-27.2949Q122.021-30.3223 121.46-31.9824Q120.898-33.6426 119.238-35.5469L106.201-50.2441Q104.395-52.2461 102.344-53.0273Q100.293-53.8086 97.3633-53.8086L83.8379-53.8086ZM94.9219-26.6602L110.645-26.6602Q110.645-27.3438 110.4-27.8076Q110.156-28.2715 109.717-28.7598L98.3398-41.5527Q97.7051-42.2363 96.9727-42.627Q96.2402-43.0176 95.5566-43.0176L91.4062-43.0176L91.4062-30.1758Q91.4062-28.5156 92.334-27.5879Q93.2617-26.6602 94.9219-26.6602ZM38.5742 7.4707Q42.2363 7.4707 45.2637 5.66406Q48.291 3.85742 50.0732 0.830078Q51.8555-2.19727 51.8555-5.85938Q51.8555-9.52148 50.0732-12.5244Q48.291-15.5273 45.2637-17.3096Q42.2363-19.0918 38.5742-19.0918Q34.9121-19.0918 31.8848-17.3096Q28.8574-15.5273 27.0752-12.5244Q25.293-9.52148 25.293-5.85938Q25.293-2.19727 27.0752 0.830078Q28.8574 3.85742 31.8848 5.66406Q34.9121 7.4707 38.5742 7.4707ZM38.5742 1.5625Q35.498 1.5625 33.3252-0.610352Q31.1523-2.7832 31.1523-5.85938Q31.1523-8.88672 33.3252-11.084Q35.498-13.2812 38.5742-13.2812Q41.6504-13.2812 43.7988-11.084Q45.9473-8.88672 45.9473-5.85938Q45.9473-2.7832 43.7988-0.610352Q41.6504 1.5625 38.5742 1.5625ZM93.4082 7.4707Q97.0703 7.4707 100.098 5.66406Q103.125 3.85742 104.907 0.830078Q106.689-2.19727 106.689-5.85938Q106.689-9.52148 104.907-12.5244Q103.125-15.5273 100.098-17.3096Q97.0703-19.0918 93.4082-19.0918Q89.7461-19.0918 86.7188-17.3096Q83.6914-15.5273 81.9092-12.5244Q80.127-9.52148 80.127-5.85938Q80.127-2.19727 81.9092 0.830078Q83.6914 3.85742 86.7188 5.66406Q89.7461 7.4707 93.4082 7.4707ZM93.4082 1.5625Q90.332 1.5625 88.1592-0.610352Q85.9863-2.7832 85.9863-5.85938Q85.9863-8.88672 88.1592-11.084Q90.332-13.2812 93.4082-13.2812Q96.3867-13.2812 98.584-11.084Q100.781-8.88672 100.781-5.85938Q100.781-2.7832 98.6328-0.610352Q96.4844 1.5625 93.4082 1.5625Z"/>
  </g>
  <g id="Light-S" transform="matrix(1 0 0 1 1088.04 696)">
   <path d="M20.0668-4.45353L27.9345-4.45353L27.9345-9.88032L20.1645-9.88032Q17.7104-9.88032 16.4514-11.1394Q15.1924-12.3985 15.1924-14.8527L15.1924-64.3183Q15.1924-66.7725 16.4514-68.0314Q17.7104-69.2904 20.1645-69.2904L75.5943-69.2904Q78.0029-69.2904 79.2847-68.0314Q80.5664-66.7725 80.5664-64.3183L80.5664-8.06198L85.9932-9.8849L85.9932-64.416Q85.9932-69.4555 83.3775-72.0863Q80.7617-74.7172 75.692-74.7172L20.0668-74.7172Q14.9971-74.7172 12.3814-72.1015Q9.76562-69.4857 9.76562-64.416L9.76562-14.755Q9.76562-9.68501 12.3814-7.06927Q14.9971-4.45353 20.0668-4.45353ZM48.1148-4.45353L83.0922-4.45353L83.0922-9.88032L48.1148-9.88032ZM82.96-48.1547L96.1703-48.1547Q97.7343-48.1547 98.8977-47.7356Q100.061-47.3165 101.176-46.0854L113.401-32.3652Q114.212-31.5048 114.601-30.3836Q114.99-29.2623 114.99-28.1797L114.99-14.8527Q114.99-12.3985 113.731-11.1394Q112.472-9.88032 110.018-9.88032L104.237-9.88032L104.237-4.45353L110.116-4.45353Q115.186-4.45353 117.801-7.06927Q120.417-9.68501 120.417-14.755L120.417-28.082Q120.417-30.7007 119.855-32.3078Q119.294-33.9149 117.831-35.5924L104.794-50.2744Q103.168-52.0645 101.216-52.823Q99.2638-53.5815 96.5609-53.5815L82.96-53.5815ZM93.0148-27.962L110.523-27.962Q110.523-28.6303 110.272-29.0867Q110.02-29.5431 109.596-30.0313L98.2035-42.8243Q97.584-43.4926 96.8288-43.8833Q96.0737-44.2739 95.163-44.2739L89.9684-44.2739L89.9684-31.0084Q89.9684-29.5904 90.7825-28.7762Q91.5967-27.962 93.0148-27.962ZM37.7719 6.33545Q41.3282 6.33545 44.2647 4.58934Q47.2013 2.84322 48.9305-0.0933329Q50.6597-3.02989 50.6597-6.58595Q50.6597-10.142 48.9305-13.0618Q47.2013-15.9815 44.2647-17.7183Q41.3282-19.455 37.7719-19.455Q34.2158-19.455 31.2792-17.7183Q28.3427-15.9815 26.6059-13.0618Q24.869-10.142 24.869-6.58595Q24.869-3.02989 26.6059-0.0933329Q28.3427 2.84322 31.2792 4.58934Q34.2158 6.33545 37.7719 6.33545ZM37.7719 1.68355Q34.3478 1.68355 31.9251-0.739034Q29.5024-3.16162 29.5024-6.58595Q29.5024-9.97645 31.9251-12.4159Q34.3478-14.8554 37.7719-14.8554Q41.1962-14.8554 43.602-12.4159Q46.0078-9.97645 46.0078-6.58595Q46.0078-3.16162 43.602-0.739034Q41.1962 1.68355 37.7719 1.68355ZM93.1661 6.33545Q96.7072 6.33545 99.6436 4.58934Q102.58 2.84322 104.317-0.0933329Q106.054-3.02989 106.054-6.58595Q106.054-10.142 104.317-13.0618Q102.58-15.9815 99.6436-17.7183Q96.7072-19.455 93.1661-19.455Q89.6098-19.455 86.6734-17.7183Q83.7369-15.9815 82.0001-13.0618Q80.2633-10.142 80.2633-6.58595Q80.2633-3.02989 82.0001-0.0933329Q83.7369 2.84322 86.6734 4.58934Q89.6098 6.33545 93.1661 6.33545ZM93.1661 1.68355Q89.7418 1.68355 87.3116-0.739034Q84.8813-3.16162 84.8813-6.58595Q84.8813-9.97645 87.3116-12.4159Q89.7418-14.8554 93.1661-14.8554Q96.523-14.8554 98.9624-12.4159Q101.402-9.97645 101.402-6.58595Q101.402-3.16162 98.9961-0.739034Q96.5904 1.68355 93.1661 1.68355Z"/>
  </g>
  <g id="Thin-S" transform="matrix(1 0 0 1 792.392 696)">
   <path d="M19.8065-6.2752L26.1327-6.2752L26.1327-9.57996L19.9042-9.57996Q16.5291-9.57996 14.7997-11.3096Q13.0704-13.0393 13.0704-16.4143L13.0704-64.3984Q13.0704-67.7734 14.7997-69.5028Q16.5291-71.2322 19.9042-71.2322L73.7326-71.2322Q77.002-71.2322 78.7842-69.5028Q80.5664-67.7734 80.5664-64.3984L80.5664-7.68157L83.8712-8.36359L83.8712-64.496Q83.8712-69.3552 81.3155-71.9461Q78.7598-74.5369 73.8303-74.5369L19.8065-74.5369Q14.877-74.5369 12.3213-71.9812Q9.76562-69.4255 9.76562-64.496L9.76562-16.3167Q9.76562-11.3866 12.3213-8.8309Q14.877-6.2752 19.8065-6.2752ZM47.4942-6.2752L82.7519-6.2752L82.7519-9.57996L47.4942-9.57996ZM81.7989-49.9764L95.1091-49.9764Q96.9335-49.9764 98.247-49.4873Q99.5605-48.9982 100.535-47.9471L113.301-33.6463Q114.152-32.746 114.571-31.5948Q114.99-30.4435 114.99-29.2207L114.99-16.4143Q114.99-13.0393 113.261-11.3096Q111.532-9.57996 108.156-9.57996L103.576-9.57996L103.576-6.2752L108.254-6.2752Q113.184-6.2752 115.739-8.8309Q118.295-11.3866 118.295-16.3167L118.295-29.123Q118.295-31.2012 117.733-32.7382Q117.172-34.2752 115.969-35.6526L102.932-50.3144Q101.547-51.8244 99.7248-52.5527Q97.9026-53.2811 95.4997-53.2811L81.7989-53.2811ZM90.4925-29.6838L110.363-29.6838Q110.363-30.3319 110.102-30.7784Q109.84-31.2248 109.436-31.7131L98.0232-44.506Q97.4239-45.1542 96.6386-45.5448Q95.8534-45.9355 94.6423-45.9355L88.0666-45.9355L88.0666-32.1096Q88.0666-31.0118 88.7306-30.3478Q89.3946-29.6838 90.4925-29.6838ZM36.7107 4.83398Q40.1271 4.83398 42.9435 3.16792Q45.76 1.50186 47.4191-1.31462Q49.0782-4.1311 49.0782-7.5469Q49.0782-10.9627 47.4191-13.7725Q45.76-16.5823 42.9435-18.2588Q40.1271-19.9353 36.7107-19.9353Q33.2949-19.9353 30.4784-18.2588Q27.6619-16.5823 25.9851-13.7725Q24.3083-10.9627 24.3083-7.5469Q24.3083-4.1311 25.9851-1.31462Q27.6619 1.50186 30.4784 3.16792Q33.2949 4.83398 36.7107 4.83398ZM36.7107 1.84366Q32.8265 1.84366 30.0733-0.909227Q27.3201-3.66211 27.3201-7.5469Q27.3201-11.4177 30.0733-14.1776Q32.8265-16.9375 36.7107-16.9375Q40.5955-16.9375 43.3417-14.1776Q46.0878-11.4177 46.0878-7.5469Q46.0878-3.66211 43.3417-0.909227Q40.5955 1.84366 36.7107 1.84366ZM92.8459 4.83398Q96.2268 4.83398 99.043 3.16792Q101.859 1.50186 103.536-1.31462Q105.213-4.1311 105.213-7.5469Q105.213-10.9627 103.536-13.7725Q101.859-16.5823 99.043-18.2588Q96.2268-19.9353 92.8459-19.9353Q89.4295-19.9353 86.6133-18.2588Q83.7971-16.5823 82.1203-13.7725Q80.4435-10.9627 80.4435-7.5469Q80.4435-4.1311 82.1203-1.31462Q83.7971 1.50186 86.6133 3.16792Q89.4295 4.83398 92.8459 4.83398ZM92.8459 1.84366Q88.9611 1.84366 86.1905-0.909227Q83.4199-3.66211 83.4199-7.5469Q83.4199-11.4177 86.1905-14.1776Q88.9611-16.9375 92.8459-16.9375Q96.7033-16.9375 99.4629-14.1776Q102.222-11.4177 102.222-7.5469Q102.222-3.66211 99.4766-0.909227Q96.7307 1.84366 92.8459 1.84366Z"/>
  </g>
  <g id="Ultralight-S" transform="matrix(1 0 0 1 496.224 696)">
   <path d="M19.6732-7.20825L25.2098-7.20825L25.2098-9.42612L19.7708-9.42612Q15.9241-9.42612 13.9538-11.3968Q11.9835-13.3675 11.9835-17.2142L11.9835-64.4394Q11.9835-68.2861 13.9538-70.2564Q15.9241-72.2267 19.7708-72.2267L72.7791-72.2267Q76.4893-72.2267 78.5278-70.2564Q80.5664-68.2861 80.5664-64.4394L80.5664-7.48672L82.7843-7.58438L82.7843-64.537Q82.7843-69.3039 80.2593-71.8742Q77.7344-74.4446 72.8767-74.4446L19.6732-74.4446Q14.8155-74.4446 12.2906-71.9196Q9.76562-69.3947 9.76562-64.537L9.76562-17.1165Q9.76562-12.2581 12.2906-9.7332Q14.8155-7.20825 19.6732-7.20825ZM47.1764-7.20825L82.5775-7.20825L82.5775-9.42612L47.1764-9.42612ZM81.2042-50.9094L94.5656-50.9094Q96.5233-50.9094 97.9137-50.3845Q99.3042-49.8596 100.207-48.9006L113.249-34.3025Q114.121-33.3817 114.556-32.2151Q114.99-31.0486 114.99-29.7539L114.99-17.2142Q114.99-13.3675 113.02-11.3968Q111.05-9.42612 107.203-9.42612L103.238-9.42612L103.238-7.20825L107.301-7.20825Q112.158-7.20825 114.683-9.7332Q117.208-12.2581 117.208-17.1165L117.208-29.6562Q117.208-31.4575 116.647-32.9586Q116.085-34.4597 115.015-35.6834L101.978-50.3349Q100.716-51.7014 98.9609-52.4143Q97.2054-53.1273 94.9562-53.1273L81.2042-53.1273ZM89.2006-30.5656L110.281-30.5656Q110.281-31.2035 110.014-31.6448Q109.747-32.0862 109.354-32.5745L97.9309-45.3674Q97.3419-46.0052 96.5412-46.3959Q95.7405-46.7865 94.3756-46.7865L87.0926-46.7865L87.0926-32.6736Q87.0926-31.7398 87.6797-31.1527Q88.2668-30.5656 89.2006-30.5656ZM36.1671 4.06494Q39.5119 4.06494 42.2668 2.43988Q45.0218 0.814819 46.645-1.94016Q48.2681-4.69513 48.2681-8.03909Q48.2681-11.3831 46.645-14.1365Q45.0218-16.89 42.2668-18.5356Q39.5119-20.1813 36.1671-20.1813Q32.8232-20.1813 30.0682-18.5356Q27.3132-16.89 25.6672-14.1365Q24.0211-11.3831 24.0211-8.03909Q24.0211-4.69513 25.6672-1.94016Q27.3132 0.814819 30.0682 2.43988Q32.8232 4.06494 36.1671 4.06494ZM36.1671 1.92566Q32.0473 1.92566 29.1248-0.996399Q26.2024-3.91846 26.2024-8.03909Q26.2024-12.1559 29.1248-15.0799Q32.0473-18.0038 36.1671-18.0038Q40.2878-18.0038 43.2083-15.0799Q46.1288-12.1559 46.1288-8.03909Q46.1288-3.91846 43.2083-0.996399Q40.2878 1.92566 36.1671 1.92566ZM92.6819 4.06494Q95.9808 4.06494 98.7354 2.43988Q101.49 0.814819 103.136-1.94016Q104.782-4.69513 104.782-8.03909Q104.782-11.3831 103.136-14.1365Q101.49-16.89 98.7354-18.5356Q95.9808-20.1813 92.6819-20.1813Q89.3372-20.1813 86.5826-18.5356Q83.828-16.89 82.1819-14.1365Q80.5359-11.3831 80.5359-8.03909Q80.5359-4.69513 82.1819-1.94016Q83.828 0.814819 86.5826 2.43988Q89.3372 4.06494 92.6819 4.06494ZM92.6819 1.92566Q88.5612 1.92566 85.6163-0.996399Q82.6714-3.91846 82.6714-8.03909Q82.6714-12.1559 85.6163-15.0799Q88.5612-18.0038 92.6819-18.0038Q96.7957-18.0038 99.7192-15.0799Q102.643-12.1559 102.643-8.03909Q102.643-3.91846 99.7227-0.996399Q96.8025 1.92566 92.6819 1.92566Z"/>
  </g>
 </g>
</svg>
