<?xml version="1.0" encoding="UTF-8"?>
<!--Generator: Apple Native CoreSVG 175.5-->
<!DOCTYPE svg
PUBLIC "-//W3C//DTD SVG 1.1//EN"
       "http://www.w3.org/Graphics/SVG/1.1/DTD/svg11.dtd">
<svg version="1.1" xmlns="http://www.w3.org/2000/svg" xmlns:xlink="http://www.w3.org/1999/xlink" width="3300" height="2200">
 <!--glyph: "uni100FA0.medium", point size: 100.0, font version: "18.0d9e1", template writer version: "84"-->
 <g id="Notes">
  <rect height="2200" id="artboard" style="fill:white;opacity:1" width="3300" x="0" y="0"/>
  <line style="fill:none;stroke:black;opacity:1;stroke-width:0.5;" x1="263" x2="3036" y1="292" y2="292"/>
  <text style="stroke:none;fill:black;font-family:sans-serif;font-size:13;font-weight:bold;" transform="matrix(1 0 0 1 263 322)">Weight/Scale Variations</text>
  <text style="stroke:none;fill:black;font-family:sans-serif;font-size:13;text-anchor:middle;" transform="matrix(1 0 0 1 559.711 322)">Ultralight</text>
  <text style="stroke:none;fill:black;font-family:sans-serif;font-size:13;text-anchor:middle;" transform="matrix(1 0 0 1 856.422 322)">Thin</text>
  <text style="stroke:none;fill:black;font-family:sans-serif;font-size:13;text-anchor:middle;" transform="matrix(1 0 0 1 1153.13 322)">Light</text>
  <text style="stroke:none;fill:black;font-family:sans-serif;font-size:13;text-anchor:middle;" transform="matrix(1 0 0 1 1449.84 322)">Regular</text>
  <text style="stroke:none;fill:black;font-family:sans-serif;font-size:13;text-anchor:middle;" transform="matrix(1 0 0 1 1746.56 322)">Medium</text>
  <text style="stroke:none;fill:black;font-family:sans-serif;font-size:13;text-anchor:middle;" transform="matrix(1 0 0 1 2043.27 322)">Semibold</text>
  <text style="stroke:none;fill:black;font-family:sans-serif;font-size:13;text-anchor:middle;" transform="matrix(1 0 0 1 2339.98 322)">Bold</text>
  <text style="stroke:none;fill:black;font-family:sans-serif;font-size:13;text-anchor:middle;" transform="matrix(1 0 0 1 2636.69 322)">Heavy</text>
  <text style="stroke:none;fill:black;font-family:sans-serif;font-size:13;text-anchor:middle;" transform="matrix(1 0 0 1 2933.4 322)">Black</text>
  <line style="fill:none;stroke:black;opacity:1;stroke-width:0.5;" x1="263" x2="3036" y1="1903" y2="1903"/>
  <g transform="matrix(1 0 0 1 263 1933)">
   <path d="M9.24805 0.830078Q10.8691 0.830078 12.2949 0.214844Q13.7207-0.400391 14.8096-1.49414Q15.8984-2.58789 16.5186-4.01367Q17.1387-5.43945 17.1387-7.05078Q17.1387-8.66211 16.5186-10.0879Q15.8984-11.5137 14.8047-12.6074Q13.7109-13.7012 12.2852-14.3164Q10.8594-14.9316 9.23828-14.9316Q7.62695-14.9316 6.20117-14.3164Q4.77539-13.7012 3.69141-12.6074Q2.60742-11.5137 1.9873-10.0879Q1.36719-8.66211 1.36719-7.05078Q1.36719-5.43945 1.9873-4.01367Q2.60742-2.58789 3.69629-1.49414Q4.78516-0.400391 6.21094 0.214844Q7.63672 0.830078 9.24805 0.830078ZM9.24805-0.654297Q7.91992-0.654297 6.7627-1.14746Q5.60547-1.64062 4.73145-2.51953Q3.85742-3.39844 3.36426-4.56055Q2.87109-5.72266 2.87109-7.05078Q2.87109-8.37891 3.35938-9.54102Q3.84766-10.7031 4.72168-11.582Q5.5957-12.4609 6.75293-12.9541Q7.91016-13.4473 9.23828-13.4473Q10.5762-13.4473 11.7383-12.9541Q12.9004-12.4609 13.7793-11.582Q14.6582-10.7031 15.1514-9.54102Q15.6445-8.37891 15.6445-7.05078Q15.6445-5.72266 15.1514-4.56055Q14.6582-3.39844 13.7793-2.51953Q12.9004-1.64062 11.7432-1.14746Q10.5859-0.654297 9.24805-0.654297ZM5.6543-7.05078Q5.6543-6.72852 5.85938-6.52832Q6.06445-6.32812 6.40625-6.32812L8.51562-6.32812L8.51562-4.20898Q8.51562-3.88672 8.71094-3.67676Q8.90625-3.4668 9.23828-3.4668Q9.56055-3.4668 9.77051-3.67676Q9.98047-3.88672 9.98047-4.20898L9.98047-6.32812L12.0898-6.32812Q12.4219-6.32812 12.627-6.52832Q12.832-6.72852 12.832-7.05078Q12.832-7.38281 12.627-7.58789Q12.4219-7.79297 12.0898-7.79297L9.98047-7.79297L9.98047-9.90234Q9.98047-10.2344 9.77051-10.4443Q9.56055-10.6543 9.23828-10.6543Q8.90625-10.6543 8.71094-10.4443Q8.51562-10.2344 8.51562-9.90234L8.51562-7.79297L6.40625-7.79297Q6.06445-7.79297 5.85938-7.58789Q5.6543-7.38281 5.6543-7.05078Z"/>
  </g>
  <g transform="matrix(1 0 0 1 281.867 1933)">
   <path d="M11.709 2.91016Q13.75 2.91016 15.5518 2.12891Q17.3535 1.34766 18.7305-0.0292969Q20.1074-1.40625 20.8887-3.20801Q21.6699-5.00977 21.6699-7.05078Q21.6699-9.0918 20.8887-10.8936Q20.1074-12.6953 18.7305-14.0723Q17.3535-15.4492 15.5469-16.2305Q13.7402-17.0117 11.6992-17.0117Q9.6582-17.0117 7.85645-16.2305Q6.05469-15.4492 4.68262-14.0723Q3.31055-12.6953 2.5293-10.8936Q1.74805-9.0918 1.74805-7.05078Q1.74805-5.00977 2.5293-3.20801Q3.31055-1.40625 4.6875-0.0292969Q6.06445 1.34766 7.86621 2.12891Q9.66797 2.91016 11.709 2.91016ZM11.709 1.25Q9.98047 1.25 8.47656 0.605469Q6.97266-0.0390625 5.83496-1.17676Q4.69727-2.31445 4.05762-3.81836Q3.41797-5.32227 3.41797-7.05078Q3.41797-8.7793 4.05762-10.2832Q4.69727-11.7871 5.83008-12.9297Q6.96289-14.0723 8.4668-14.7119Q9.9707-15.3516 11.6992-15.3516Q13.4277-15.3516 14.9365-14.7119Q16.4453-14.0723 17.583-12.9297Q18.7207-11.7871 19.3652-10.2832Q20.0098-8.7793 20.0098-7.05078Q20.0098-5.32227 19.3701-3.81836Q18.7305-2.31445 17.5879-1.17676Q16.4453-0.0390625 14.9414 0.605469Q13.4375 1.25 11.709 1.25ZM7.17773-7.05078Q7.17773-6.69922 7.41211-6.47461Q7.64648-6.25 8.01758-6.25L10.8887-6.25L10.8887-3.36914Q10.8887-2.99805 11.1133-2.76855Q11.3379-2.53906 11.6895-2.53906Q12.0605-2.53906 12.29-2.76855Q12.5195-2.99805 12.5195-3.36914L12.5195-6.25L15.4004-6.25Q15.7715-6.25 16.001-6.47461Q16.2305-6.69922 16.2305-7.05078Q16.2305-7.42188 16.001-7.65137Q15.7715-7.88086 15.4004-7.88086L12.5195-7.88086L12.5195-10.752Q12.5195-11.1328 12.29-11.3623Q12.0605-11.5918 11.6895-11.5918Q11.3379-11.5918 11.1133-11.3574Q10.8887-11.123 10.8887-10.752L10.8887-7.88086L8.01758-7.88086Q7.63672-7.88086 7.40723-7.65137Q7.17773-7.42188 7.17773-7.05078Z"/>
  </g>
  <g transform="matrix(1 0 0 1 305.646 1933)">
   <path d="M14.9707 5.66406Q17.0605 5.66406 18.96 5.01465Q20.8594 4.36523 22.4512 3.19336Q24.043 2.02148 25.2197 0.429688Q26.3965-1.16211 27.0459-3.06641Q27.6953-4.9707 27.6953-7.05078Q27.6953-9.14062 27.0459-11.04Q26.3965-12.9395 25.2197-14.5312Q24.043-16.123 22.4512-17.2998Q20.8594-18.4766 18.9551-19.126Q17.0508-19.7754 14.9609-19.7754Q12.8711-19.7754 10.9717-19.126Q9.07227-18.4766 7.48535-17.2998Q5.89844-16.123 4.72168-14.5312Q3.54492-12.9395 2.90039-11.04Q2.25586-9.14062 2.25586-7.05078Q2.25586-4.9707 2.90527-3.06641Q3.55469-1.16211 4.72656 0.429688Q5.89844 2.02148 7.49023 3.19336Q9.08203 4.36523 10.9814 5.01465Q12.8809 5.66406 14.9707 5.66406ZM14.9707 3.84766Q13.1641 3.84766 11.5283 3.2959Q9.89258 2.74414 8.53516 1.74805Q7.17773 0.751953 6.17676-0.610352Q5.17578-1.97266 4.62891-3.6084Q4.08203-5.24414 4.08203-7.05078Q4.08203-8.86719 4.62891-10.5029Q5.17578-12.1387 6.17188-13.501Q7.16797-14.8633 8.52539-15.8594Q9.88281-16.8555 11.5186-17.4023Q13.1543-17.9492 14.9609-17.9492Q16.7773-17.9492 18.4131-17.4023Q20.0488-16.8555 21.4111-15.8594Q22.7734-14.8633 23.7744-13.501Q24.7754-12.1387 25.3223-10.5029Q25.8691-8.86719 25.8691-7.05078Q25.8691-5.24414 25.3223-3.6084Q24.7754-1.97266 23.7793-0.610352Q22.7832 0.751953 21.4209 1.74805Q20.0586 2.74414 18.4229 3.2959Q16.7871 3.84766 14.9707 3.84766ZM9.19922-7.05078Q9.19922-6.66992 9.45801-6.4209Q9.7168-6.17188 10.1172-6.17188L14.0625-6.17188L14.0625-2.2168Q14.0625-1.81641 14.3115-1.55762Q14.5605-1.29883 14.9512-1.29883Q15.3516-1.29883 15.6104-1.55273Q15.8691-1.80664 15.8691-2.2168L15.8691-6.17188L19.8242-6.17188Q20.2246-6.17188 20.4785-6.4209Q20.7324-6.66992 20.7324-7.05078Q20.7324-7.46094 20.4785-7.71484Q20.2246-7.96875 19.8242-7.96875L15.8691-7.96875L15.8691-11.9141Q15.8691-12.3242 15.6104-12.583Q15.3516-12.8418 14.9512-12.8418Q14.5605-12.8418 14.3115-12.583Q14.0625-12.3242 14.0625-11.9141L14.0625-7.96875L10.1172-7.96875Q9.70703-7.96875 9.45312-7.71484Q9.19922-7.46094 9.19922-7.05078Z"/>
  </g>
  <text style="stroke:none;fill:black;font-family:sans-serif;font-size:13;font-weight:bold;" transform="matrix(1 0 0 1 263 1953)">Design Variations</text>
  <text style="stroke:none;fill:black;font-family:sans-serif;font-size:13;" transform="matrix(1 0 0 1 263 1971)">Symbols are supported in up to nine weights and three scales.</text>
  <text style="stroke:none;fill:black;font-family:sans-serif;font-size:13;" transform="matrix(1 0 0 1 263 1989)">For optimal layout with text and other symbols, vertically align</text>
  <text style="stroke:none;fill:black;font-family:sans-serif;font-size:13;" transform="matrix(1 0 0 1 263 2007)">symbols with the adjacent text.</text>
  <line style="fill:none;stroke:#00AEEF;stroke-width:0.5;opacity:1.0;" x1="776" x2="776" y1="1919" y2="1933"/>
  <g transform="matrix(1 0 0 1 776 1933)">
   <path d="M3.31055 0.15625Q3.70117 0.15625 3.91602-0.00976562Q4.13086-0.175781 4.26758-0.585938L5.52734-4.0332L11.2891-4.0332L12.5488-0.585938Q12.6855-0.175781 12.9004-0.00976562Q13.1152 0.15625 13.4961 0.15625Q13.8867 0.15625 14.1162-0.0585938Q14.3457-0.273438 14.3457-0.644531Q14.3457-0.869141 14.2383-1.17188L9.6582-13.3691Q9.48242-13.8184 9.17969-14.043Q8.87695-14.2676 8.4082-14.2676Q7.5-14.2676 7.17773-13.3789L2.59766-1.16211Q2.49023-0.859375 2.49023-0.634766Q2.49023-0.263672 2.70996-0.0537109Q2.92969 0.15625 3.31055 0.15625ZM6.00586-5.51758L8.37891-12.0898L8.42773-12.0898L10.8008-5.51758Z"/>
  </g>
  <line style="fill:none;stroke:#00AEEF;stroke-width:0.5;opacity:1.0;" x1="793.197" x2="793.197" y1="1919" y2="1933"/>
  <text style="stroke:none;fill:black;font-family:sans-serif;font-size:13;font-weight:bold;" transform="matrix(1 0 0 1 776 1953)">Margins</text>
  <text style="stroke:none;fill:black;font-family:sans-serif;font-size:13;" transform="matrix(1 0 0 1 776 1971)">Leading and trailing margins on the left and right side of each symbol</text>
  <text style="stroke:none;fill:black;font-family:sans-serif;font-size:13;" transform="matrix(1 0 0 1 776 1989)">can be adjusted by modifying the x-location of the margin guidelines.</text>
  <text style="stroke:none;fill:black;font-family:sans-serif;font-size:13;" transform="matrix(1 0 0 1 776 2007)">Modifications are automatically applied proportionally to all</text>
  <text style="stroke:none;fill:black;font-family:sans-serif;font-size:13;" transform="matrix(1 0 0 1 776 2025)">scales and weights.</text>
  <g transform="matrix(1 0 0 1 1289 1933)">
   <path d="M2.8418 1.86523L4.54102 3.57422Q5.18555 4.22852 5.90332 4.17969Q6.62109 4.13086 7.31445 3.35938L18.0078-8.42773L17.041-9.4043L6.42578 2.27539Q6.16211 2.57812 5.89355 2.61719Q5.625 2.65625 5.27344 2.30469L4.10156 1.14258Q3.75 0.791016 3.79395 0.522461Q3.83789 0.253906 4.14062-0.0195312L15.6152-10.8203L14.6387-11.7871L3.04688-0.898438Q2.30469-0.214844 2.25098 0.498047Q2.19727 1.21094 2.8418 1.86523ZM9.25781-16.3281Q8.94531-16.0254 8.90625-15.6348Q8.86719-15.2441 9.04297-14.9512Q9.21875-14.6777 9.55566-14.541Q9.89258-14.4043 10.3809-14.5215Q11.4746-14.7754 12.5977-14.7314Q13.7207-14.6875 14.7949-13.9844L14.209-12.5293Q13.9551-11.9043 14.0674-11.4404Q14.1797-10.9766 14.5801-10.5664L16.875-8.25195Q17.2363-7.88086 17.5781-7.82227Q17.9199-7.76367 18.3398-7.8418L19.4043-8.03711L20.0684-7.36328L20.0293-6.80664Q20-6.43555 20.1221-6.12305Q20.2441-5.81055 20.6055-5.44922L21.3672-4.70703Q21.7285-4.3457 22.1533-4.33105Q22.5781-4.31641 22.9297-4.66797L25.8398-7.58789Q26.1914-7.93945 26.1816-8.35449Q26.1719-8.76953 25.8105-9.13086L25.0391-9.89258Q24.6875-10.2539 24.3799-10.3857Q24.0723-10.5176 23.7109-10.4883L23.1348-10.4395L22.4902-11.0742L22.7344-12.1973Q22.832-12.6172 22.6953-12.9834Q22.5586-13.3496 22.1191-13.7891L19.9219-15.9766Q18.6719-17.2168 17.2607-17.8369Q15.8496-18.457 14.4189-18.4814Q12.9883-18.5059 11.665-17.959Q10.3418-17.4121 9.25781-16.3281ZM10.752-15.957Q11.6602-16.6211 12.7002-16.9043Q13.7402-17.1875 14.8047-17.085Q15.8691-16.9824 16.8701-16.5137Q17.8711-16.0449 18.7012-15.2051L21.1328-12.793Q21.3086-12.6172 21.3525-12.4512Q21.3965-12.2852 21.3379-12.0312L21.0156-10.5469L22.5195-9.0625L23.5059-9.12109Q23.6914-9.13086 23.7891-9.09668Q23.8867-9.0625 24.0332-8.91602L24.6094-8.33984L22.168-5.89844L21.5918-6.47461Q21.4453-6.62109 21.4062-6.71875Q21.3672-6.81641 21.377-7.01172L21.4453-7.98828L19.9512-9.47266L18.4277-9.21875Q18.1836-9.16992 18.042-9.2041Q17.9004-9.23828 17.7148-9.41406L15.7129-11.416Q15.5176-11.5918 15.4932-11.7529Q15.4688-11.9141 15.5859-12.1875L16.4648-14.2773Q15.293-15.3711 13.8281-15.791Q12.3633-16.2109 10.8398-15.7617Q10.7227-15.7324 10.6885-15.8057Q10.6543-15.8789 10.752-15.957Z"/>
  </g>
  <text style="stroke:none;fill:black;font-family:sans-serif;font-size:13;font-weight:bold;" transform="matrix(1 0 0 1 1289 1953)">Exporting</text>
  <text style="stroke:none;fill:black;font-family:sans-serif;font-size:13;" transform="matrix(1 0 0 1 1289 1971)">Symbols should be outlined when exporting to ensure the</text>
  <text style="stroke:none;fill:black;font-family:sans-serif;font-size:13;" transform="matrix(1 0 0 1 1289 1989)">design is preserved when submitting to Xcode.</text>
  <text id="template-version" style="stroke:none;fill:black;font-family:sans-serif;font-size:13;text-anchor:end;" transform="matrix(1 0 0 1 3036 1933)">Template v.2.0</text>
  <text style="stroke:none;fill:black;font-family:sans-serif;font-size:13;text-anchor:end;" transform="matrix(1 0 0 1 3036 1951)">Requires Xcode 12 or greater</text>
  <text id="descriptive-name" style="stroke:none;fill:black;font-family:sans-serif;font-size:13;text-anchor:end;" transform="matrix(1 0 0 1 3036 1969)">Generated from tshirt</text>
  <text style="stroke:none;fill:black;font-family:sans-serif;font-size:13;text-anchor:end;" transform="matrix(1 0 0 1 3036 1987)">Typeset at 100 points</text>
  <text style="stroke:none;fill:black;font-family:sans-serif;font-size:13;" transform="matrix(1 0 0 1 263 726)">Small</text>
  <text style="stroke:none;fill:black;font-family:sans-serif;font-size:13;" transform="matrix(1 0 0 1 263 1156)">Medium</text>
  <text style="stroke:none;fill:black;font-family:sans-serif;font-size:13;" transform="matrix(1 0 0 1 263 1586)">Large</text>
 </g>
 <g id="Guides">
  <g id="H-reference" style="fill:#27AAE1;stroke:none;" transform="matrix(1 0 0 1 339 696)">
   <path d="M0.993347 0L3.6377 0L29.3282-67.1326L30.0301-67.1326L30.0301-70.459L28.1227-70.459ZM11.6882-24.4797L46.9818-24.4797L46.2311-26.7288L12.4382-26.7288ZM55.1193 0L57.7637 0L30.6381-70.459L29.4327-70.459L29.4327-67.1326Z"/>
  </g>
  <line id="Baseline-S" style="fill:none;stroke:#27AAE1;opacity:1;stroke-width:0.5;" x1="263" x2="3036" y1="696" y2="696"/>
  <line id="Capline-S" style="fill:none;stroke:#27AAE1;opacity:1;stroke-width:0.5;" x1="263" x2="3036" y1="625.541" y2="625.541"/>
  <g id="H-reference" style="fill:#27AAE1;stroke:none;" transform="matrix(1 0 0 1 339 1126)">
   <path d="M0.993347 0L3.6377 0L29.3282-67.1326L30.0301-67.1326L30.0301-70.459L28.1227-70.459ZM11.6882-24.4797L46.9818-24.4797L46.2311-26.7288L12.4382-26.7288ZM55.1193 0L57.7637 0L30.6381-70.459L29.4327-70.459L29.4327-67.1326Z"/>
  </g>
  <line id="Baseline-M" style="fill:none;stroke:#27AAE1;opacity:1;stroke-width:0.5;" x1="263" x2="3036" y1="1126" y2="1126"/>
  <line id="Capline-M" style="fill:none;stroke:#27AAE1;opacity:1;stroke-width:0.5;" x1="263" x2="3036" y1="1055.54" y2="1055.54"/>
  <g id="H-reference" style="fill:#27AAE1;stroke:none;" transform="matrix(1 0 0 1 339 1556)">
   <path d="M0.993347 0L3.6377 0L29.3282-67.1326L30.0301-67.1326L30.0301-70.459L28.1227-70.459ZM11.6882-24.4797L46.9818-24.4797L46.2311-26.7288L12.4382-26.7288ZM55.1193 0L57.7637 0L30.6381-70.459L29.4327-70.459L29.4327-67.1326Z"/>
  </g>
  <line id="Baseline-L" style="fill:none;stroke:#27AAE1;opacity:1;stroke-width:0.5;" x1="263" x2="3036" y1="1556" y2="1556"/>
  <line id="Capline-L" style="fill:none;stroke:#27AAE1;opacity:1;stroke-width:0.5;" x1="263" x2="3036" y1="1485.54" y2="1485.54"/>
  <line id="left-margin" style="fill:none;stroke:#00AEEF;stroke-width:0.5;opacity:1.0;" x1="1372.87" x2="1372.87" y1="1030.79" y2="1150.12"/>
  <line id="right-margin" style="fill:none;stroke:#00AEEF;stroke-width:0.5;opacity:1.0;" x1="1526.82" x2="1526.82" y1="1030.79" y2="1150.12"/>
 </g>
 <g id="Symbols">
  <g id="Black-L" transform="matrix(1 0 0 1 2829.59 1556)">
   <path d="M71.4487 39.2765L136.172 39.2765Q146.094 39.2765 152.158 33.2935Q158.222 27.3104 158.361 17.4878L159.107-33.4794L167.097-31.8443Q174.93-30.4336 179.915-33.1708Q184.9-35.9081 186.161-43.1433L191.133-70.1Q193.809-84.8755 180.102-90.5539L138.189-108.119Q134.852-109.531 132.067-109.53Q129.281-109.529 126.424-108.139Q119.587-104.995 114.796-103.768Q110.004-102.542 103.81-102.542Q97.6367-102.542 92.8349-103.768Q88.0331-104.995 81.2158-108.139Q78.3592-109.529 75.5739-109.53Q72.7887-109.531 69.4507-108.119L27.5172-90.5539Q13.8106-84.8755 16.5069-70.1L21.4582-43.1433Q22.7777-35.9081 27.7335-33.1708Q32.6894-30.4336 40.5438-31.8443L48.5121-33.4794L49.2579 17.4878Q49.4175 27.3104 55.5108 33.2935Q61.604 39.2765 71.4487 39.2765ZM71.6072 21.0182Q69.7718 21.0182 68.6648 19.8442Q67.5578 18.6702 67.537 16.7384L66.5964-53.77Q66.5964-54.7218 65.8804-55.355Q65.1644-55.9882 63.8008-55.6677L40.5534-50.578Q38.6899-50.1711 38.417-51.8542L34.7432-71.9664Q34.4483-73.6035 35.8686-74.182L77.075-91.3792Q83.5062-88.122 89.9259-86.5488Q96.3456-84.9756 103.81-84.9756Q111.275-84.9756 117.704-86.5488Q124.134-88.122 130.544-91.3792L171.751-74.182Q173.171-73.6035 172.876-71.9664L169.202-51.8542Q168.931-50.1711 167.088-50.578L143.82-55.6677Q142.476-55.9882 141.75-55.355Q141.024-54.7218 141.024-53.77L140.083 16.7384Q140.082 18.6702 138.975 19.8442Q137.868 21.0182 136.013 21.0182ZM103.81-61.1238Q113.172-61.1238 120.78-64.9941Q128.388-68.8644 133.291-75.83Q138.195-82.7955 139.435-91.9219L123.191-98.856Q122.998-93.0823 120.473-88.7118Q117.947-84.3414 113.655-81.8716Q109.362-79.4018 103.81-79.4018Q98.3159-79.4018 93.9944-81.8716Q89.673-84.3414 87.1471-88.7118Q84.6212-93.0823 84.4279-98.856L68.1843-91.9219Q69.4243-82.7955 74.3279-75.83Q79.2315-68.8644 86.8501-64.9941Q94.4687-61.1238 103.81-61.1238Z"/>
  </g>
  <g id="Heavy-L" transform="matrix(1 0 0 1 2534.06 1556)">
   <path d="M70.3804 37.8623L134.886 37.8623Q144.37 37.8623 150.102 32.2133Q155.835 26.5642 155.96 17.1849L156.719-36.3147L166.461-34.2308Q173.466-32.9155 177.935-35.4344Q182.404-37.9532 183.638-44.5448L188.775-70.3467Q191.341-83.7205 178.813-88.9323L136.471-106.797Q133.366-108.118 130.815-108.112Q128.264-108.107 125.63-106.822Q118.977-103.746 113.993-102.45Q109.01-101.155 102.63-101.155Q96.2866-101.155 91.2878-102.45Q86.2891-103.746 79.661-106.822Q77.0271-108.107 74.4788-108.112Q71.9304-108.118 68.8198-106.797L26.448-88.9323Q13.9198-83.7205 16.5162-70.3467L21.6225-44.5448Q22.9013-37.9532 27.3478-35.4344Q31.7944-32.9155 38.8354-34.2308L48.5412-36.3147L49.3008 17.1849Q49.4561 26.5642 55.2107 32.2133Q60.9653 37.8623 70.3804 37.8623ZM70.53 21.778Q68.1944 21.778 66.82 20.3523Q65.4455 18.9266 65.4153 16.5028L64.4973-53.8104Q64.4973-54.808 63.7628-55.4508Q63.0284-56.0937 61.678-55.7775L38.786-50.764Q36.898-50.3395 36.5761-52.042L32.5648-72.0863Q32.207-73.8294 33.7558-74.4653L75.9277-92.1959Q82.3501-88.9243 88.7726-87.3191Q95.1951-85.7139 102.63-85.7139Q110.071-85.7139 116.506-87.3191Q122.941-88.9243 129.333-92.1959L171.505-74.4653Q173.054-73.8294 172.696-72.0863L168.684-52.042Q168.368-50.3395 166.51-50.764L143.588-55.7775Q142.262-56.0937 141.516-55.4508Q140.769-54.808 140.769-53.8104L139.851 16.5028Q139.845 18.9266 138.471 20.3523Q137.096 21.778 134.736 21.778ZM102.63-63.0493Q111.539-63.0493 118.873-66.7748Q126.206-70.5004 130.994-77.1696Q135.783-83.8388 137.039-92.5291L122.594-98.6931Q122.294-92.9398 119.63-88.5478Q116.965-84.1557 112.566-81.657Q108.167-79.1582 102.63-79.1582Q97.1382-79.1582 92.7197-81.657Q88.3011-84.1557 85.6338-88.5478Q82.9664-92.9398 82.6667-98.6931L68.2216-92.5291Q69.4781-83.8388 74.2664-77.1696Q79.0547-70.5004 86.4058-66.7748Q93.757-63.0493 102.63-63.0493Z"/>
  </g>
  <g id="Bold-L" transform="matrix(1 0 0 1 2238.9 1556)">
   <path d="M69.014 36.0583L133.161 36.0583Q142.115 36.0583 147.421 30.839Q152.727 25.6198 152.837 16.7711L153.612-39.6175L165.439-37.0102Q171.452-35.8177 175.298-38.0601Q179.144-40.3025 180.339-46.1099L185.676-70.5049Q188.104-82.1795 176.998-86.8372L134.201-105.093Q131.395-106.299 129.136-106.286Q126.877-106.273 124.527-105.118Q118.142-102.134 112.898-100.758Q107.654-99.3819 101.081-99.3819Q94.5594-99.3819 89.2962-100.758Q84.033-102.134 77.6729-105.118Q75.3229-106.273 73.0703-106.286Q70.8178-106.299 67.9988-105.093L25.1635-86.8372Q14.058-82.1795 16.524-70.5049L21.8224-46.1099Q23.0475-40.3025 26.8789-38.0601Q30.7102-35.8177 36.7744-37.0102L48.5497-39.6175L49.3247 16.7711Q49.4725 25.6198 54.7934 30.839Q60.1143 36.0583 69.014 36.0583ZM69.1484 22.6708Q66.1756 22.6708 64.4819 20.9488Q62.7882 19.2269 62.7501 16.1885L61.8627-53.6629Q61.8627-54.7143 61.109-55.3613Q60.3552-56.0082 59.0277-55.6997L36.6483-50.8008Q34.6848-50.3458 34.2865-52.1235L29.8602-72.0759Q29.4107-74.0017 31.1729-74.7367L74.4168-93.1281Q80.8239-89.8485 87.2763-88.2048Q93.7287-86.5612 101.081-86.5612Q108.446-86.5612 114.911-88.2048Q121.376-89.8485 127.745-93.1281L170.989-74.7367Q172.751-74.0017 172.302-72.0759L167.875-52.1235Q167.49-50.3458 165.565-50.8008L143.147-55.6997Q141.845-56.0082 141.078-55.3613Q140.312-54.7143 140.312-53.6629L139.425 16.1885Q139.412 19.2269 137.718 20.9488Q136.024 22.6708 133.027 22.6708ZM101.081-65.2674Q109.466-65.2674 116.472-68.831Q123.479-72.3947 128.11-78.7324Q132.741-85.07 133.976-93.2671L121.789-98.4038Q121.381-92.6439 118.547-88.2063Q115.714-83.7687 111.169-81.2242Q106.625-78.6796 101.081-78.6796Q95.5666-78.6796 91.014-81.2242Q86.4614-83.7687 83.621-88.2063Q80.7807-92.6439 80.3727-98.4038L68.1858-93.2671Q69.4205-85.07 74.0517-78.7324Q78.6829-72.3947 85.7148-68.831Q92.7466-65.2674 101.081-65.2674Z"/>
  </g>
  <g id="Semibold-L" transform="matrix(1 0 0 1 1943.25 1556)">
   <path d="M68.072 34.8145L131.972 34.8145Q140.56 34.8145 145.573 29.8916Q150.585 24.9687 150.684 16.4858L151.47-41.8945L164.734-38.9263Q170.063-37.8184 173.479-39.8703Q176.896-41.9221 178.065-47.1888L183.54-70.614Q185.872-81.1171 175.748-85.3929L132.636-103.919Q130.036-105.045 127.979-105.027Q125.921-105.008 123.767-103.943Q117.566-101.023 112.142-99.5912Q106.719-98.1594 100.013-98.1594Q93.3687-98.1594 87.9232-99.5912Q82.4777-101.023 76.3023-103.943Q74.1481-105.008 72.0994-105.027Q70.0507-105.045 67.4329-103.919L24.278-85.3929Q14.1533-81.1171 16.5293-70.614L21.9602-47.1888Q23.1484-41.9221 26.5556-39.8703Q29.9628-37.8184 35.3536-38.9263L48.5556-41.8945L49.3412 16.4858Q49.4837 24.9687 54.5057 29.8916Q59.5276 34.8145 68.072 34.8145ZM68.1959 23.2863Q64.7838 23.2863 62.87 21.3601Q60.9562 19.4339 60.9127 15.9717L60.0464-53.5612Q60.0464-54.6497 59.2794-55.2995Q58.5124-55.9493 57.2005-55.646L35.1745-50.8262Q33.159-50.3502 32.7081-52.1797L27.9957-72.0687Q27.4829-74.1205 29.3923-74.9238L73.3751-93.7708Q79.7718-90.4856 86.2448-88.8155Q92.7178-87.1453 100.013-87.1453Q107.326-87.1453 113.812-88.8155Q120.297-90.4856 126.65-93.7708L170.633-74.9238Q172.543-74.1205 172.03-72.0687L167.317-52.1797Q166.885-50.3502 164.913-50.8262L142.843-55.646Q141.556-55.9493 140.777-55.2995Q139.998-54.6497 139.998-53.5612L139.131 15.9717Q139.113 19.4339 137.199 21.3601Q135.285 23.2863 131.848 23.2863ZM100.013-66.7965Q108.037-66.7965 114.818-70.2486Q121.599-73.7006 126.122-79.8097Q130.645-85.9189 131.865-93.7759L121.234-98.2044Q120.752-92.4399 117.801-87.9709Q114.851-83.5019 110.206-80.9258Q105.561-78.3497 100.013-78.3497Q94.4831-78.3497 89.8381-80.9258Q85.193-83.5019 82.2335-87.9709Q79.2739-92.4399 78.7912-98.2044L68.1611-93.7759Q69.3807-85.9189 73.9037-79.8097Q78.4266-73.7006 85.2384-70.2486Q92.0501-66.7965 100.013-66.7965Z"/>
  </g>
  <g id="Medium-L" transform="matrix(1 0 0 1 1647.35 1556)">
   <path d="M67.3578 33.8715L131.07 33.8715Q139.381 33.8715 144.171 29.1732Q148.961 24.475 149.052 16.2695L149.845-43.621L164.199-40.3791Q169.01-39.3354 172.101-41.2428Q175.192-43.1502 176.341-48.0069L181.92-70.6968Q184.18-80.3116 174.799-84.2977L131.449-103.028Q129.006-104.094 127.101-104.072Q125.196-104.049 123.19-103.053Q117.13-100.181 111.57-98.7066Q106.01-97.2325 99.2027-97.2325Q92.4658-97.2325 86.8821-98.7066Q81.2984-100.181 75.263-103.053Q73.2572-104.049 71.3631-104.072Q69.469-104.094 67.0038-103.028L23.6066-84.2977Q14.2256-80.3116 16.5333-70.6968L22.0647-48.0069Q23.2248-43.1502 26.3104-41.2428Q29.396-39.3354 34.2762-40.3791L48.56-43.621L49.3537 16.2695Q49.4923 24.475 54.2876 29.1732Q59.0828 33.8715 67.3578 33.8715ZM67.4737 23.753Q63.7285 23.753 61.6478 21.6719Q59.5671 19.5908 59.5195 15.8074L58.6693-53.4841Q58.6693-54.6008 57.8922-55.2527Q57.1151-55.9047 55.8151-55.6053L34.0571-50.8454Q32.0021-50.3535 31.5113-52.2223L26.5819-72.0633Q26.0212-74.2106 28.0421-75.0656L72.5853-94.2582Q78.974-90.9687 85.4627-89.2785Q91.9513-87.5882 99.2027-87.5882Q106.477-87.5882 112.978-89.2785Q119.479-90.9687 125.82-94.2582L170.363-75.0656Q172.385-74.2106 171.824-72.0633L166.894-52.2223Q166.426-50.3535 164.419-50.8454L142.613-55.6053Q141.338-55.9047 140.548-55.2527Q139.759-54.6008 139.759-53.4841L138.909 15.8074Q138.886 19.5908 136.805 21.6719Q134.725 23.753 130.954 23.753ZM99.2027-67.956Q106.953-67.956 113.563-71.3234Q120.173-74.6908 124.614-80.6266Q129.055-86.5625 130.264-94.1617L120.814-98.0532Q120.274-92.2852 117.236-87.7924Q114.197-83.2996 109.476-80.6995Q104.755-78.0995 99.2027-78.0995Q93.6616-78.0995 88.9465-80.6995Q84.2314-83.2996 81.1814-87.7924Q78.1314-92.2852 77.592-98.0532L68.1423-94.1617Q69.3506-86.5625 73.7914-80.6266Q78.2323-74.6908 84.8771-71.3234Q91.522-67.956 99.2027-67.956Z"/>
  </g>
  <g id="Regular-L" transform="matrix(1 0 0 1 1351.7 1556)">
   <path d="M66.4262 32.6414L129.894 32.6414Q137.843 32.6414 142.343 28.2362Q146.842 23.831 146.923 15.9874L147.727-45.873L163.502-42.2741Q167.636-41.3141 170.302-43.0331Q172.968-44.752 174.092-49.074L179.807-70.8046Q181.973-79.2609 173.562-82.8693L129.901-101.866Q127.663-102.854 125.956-102.826Q124.25-102.799 122.438-101.891Q116.56-99.0817 110.823-97.5526Q105.085-96.0235 98.1463-96.0235Q91.2882-96.0235 85.5242-97.5526Q79.7602-99.0817 73.9074-101.891Q72.0953-102.799 70.4028-102.826Q68.7104-102.854 66.4441-101.866L22.7309-82.8693Q14.3198-79.2609 16.5386-70.8046L22.2009-49.074Q23.3245-44.752 25.9907-43.0331Q28.6568-41.3141 32.871-42.2741L48.5658-45.873L49.37 15.9874Q49.5035 23.831 54.003 28.2362Q58.5026 32.6414 66.4262 32.6414ZM66.5317 24.3617Q62.3521 24.3617 60.0537 22.0786Q57.7553 19.7956 57.7023 15.5931L56.873-53.3836Q56.873-54.5369 56.0827-55.1917Q55.2924-55.8464 54.008-55.5522L32.5996-50.8705Q30.493-50.3578 29.9502-52.2779L24.7379-72.0562Q24.1146-74.3281 26.281-75.2507L71.5552-94.8938Q77.9335-91.5989 84.4425-89.8824Q90.9515-88.1659 98.1463-88.1659Q105.369-88.1659 111.891-89.8824Q118.412-91.5989 124.738-94.8938L170.012-75.2507Q172.178-74.3281 171.555-72.0562L166.342-52.2779Q165.827-50.3578 163.774-50.8705L142.312-55.5522Q141.053-55.8464 140.25-55.1917Q139.447-54.5369 139.447-53.3836L138.618 15.5931Q138.59 19.7956 136.292 22.0786Q133.993 24.3617 129.789 24.3617ZM98.1463-69.4684Q105.54-69.4684 111.927-72.7254Q118.314-75.9824 122.648-81.6922Q126.982-87.402 128.175-94.6649L120.265-97.8559Q119.652-92.0835 116.498-87.5596Q113.343-83.0357 108.523-80.4045Q103.703-77.7732 98.1463-77.7732Q92.59-77.7732 87.7835-80.4045Q82.977-83.0357 79.8091-87.5596Q76.6411-92.0835 76.0279-97.8559L68.1179-94.6649Q69.3113-87.402 73.645-81.6922Q77.9788-75.9824 84.4059-72.7254Q90.8331-69.4684 98.1463-69.4684Z"/>
  </g>
  <g id="Light-L" transform="matrix(1 0 0 1 1056.63 1556)">
   <path d="M65.2048 31.0574L127.852 31.0574Q135.515 31.0574 139.623 27.053Q143.731 23.0486 143.812 15.4529L144.616-46.808L161.289-43.0565Q164.945-42.211 167.287-43.701Q169.629-45.191 170.695-49.0548L176.524-69.9649Q178.576-77.4861 170.909-80.8652L127.42-100.263Q125.468-101.156 123.972-101.109Q122.475-101.062 120.911-100.25Q115.472-97.5548 109.41-95.9971Q103.349-94.4394 96.5048-94.4394Q89.7423-94.4394 83.6634-95.9971Q77.5845-97.5548 72.1326-100.25Q70.5683-101.062 69.0954-101.109Q67.6224-101.156 65.6235-100.263L22.1011-80.8652Q14.4343-77.4861 16.5194-69.9649L22.3154-49.0548Q23.3819-45.191 25.7236-43.701Q28.0652-42.211 31.8023-43.0565L48.394-46.808L49.1982 15.4529Q49.3127 23.0486 53.421 27.053Q57.5294 31.0574 65.2048 31.0574ZM65.2722 24.667Q60.5391 24.667 58.0975 22.2791Q55.656 19.8911 55.6219 15.2304L54.8307-52.0096Q54.8307-53.1818 54.0501-53.789Q53.2694-54.3961 52.0421-54.1208L31.4545-49.6491Q29.0042-49.0601 28.3087-51.3618L22.8294-71.0256Q22.0535-73.7554 24.7159-74.9262L69.933-95.0275Q76.2731-91.7897 82.9729-90.0541Q89.6727-88.3186 96.5048-88.3186Q103.384-88.3186 110.077-90.0541Q116.771-91.7897 123.078-95.0275L168.294-74.9262Q170.957-73.7554 170.181-71.0256L164.701-51.3618Q164.053-49.0601 161.636-49.6491L141.015-54.1208Q139.774-54.3961 139-53.789Q138.226-53.1818 138.226-52.0096L137.435 15.2304Q137.388 19.8911 134.946 22.2791Q132.505 24.667 127.785 24.667ZM96.5048-69.9262Q103.784-69.9262 110.028-73.1833Q116.272-76.4403 120.405-82.1501Q124.539-87.8599 125.446-95.0847L119.292-97.0924Q118.755-91.1103 115.505-86.4336Q112.255-81.7569 107.244-79.0303Q102.233-76.3036 96.5048-76.3036Q90.777-76.3036 85.7892-79.0303Q80.8013-81.7569 77.5284-86.4336Q74.2555-91.1103 73.7186-97.0924L67.5644-95.0847Q68.4715-87.8599 72.6048-82.1501Q76.7382-76.4403 83.0222-73.1833Q89.3062-69.9262 96.5048-69.9262Z"/>
  </g>
  <g id="Thin-L" transform="matrix(1 0 0 1 762.088 1556)">
   <path d="M63.5894 28.9624L125.151 28.9624Q132.436 28.9624 136.026 25.4881Q139.617 22.0138 139.697 14.7459L140.501-48.0446L158.361-44.0913Q161.386-43.3972 163.299-44.5844Q165.211-45.7716 166.202-49.0294L172.183-68.8542Q174.083-75.1387 167.401-78.2146L124.139-98.1425Q122.565-98.9092 121.346-98.8372Q120.128-98.7653 118.892-98.079Q114.033-95.5352 107.542-93.9398Q101.052-92.3444 94.3339-92.3444Q87.6978-92.3444 81.2024-93.9398Q74.7071-95.5352 69.7852-98.079Q68.5488-98.7653 67.3661-98.8372Q66.1835-98.9092 64.5383-98.1425L21.2682-78.2146Q14.5857-75.1387 16.4939-68.8542L22.4668-49.0294Q23.4578-45.7716 25.3703-44.5844Q27.2827-43.3972 30.3887-44.0913L48.1666-48.0446L48.9708 14.7459Q49.0603 22.0138 52.6513 25.4881Q56.2423 28.9624 63.5894 28.9624ZM63.6064 25.0707Q58.1413 25.0707 55.5103 22.5441Q52.8794 20.0175 52.8704 14.7508L52.1297-50.1923Q52.1297-51.3896 51.3617-51.9338Q50.5938-52.4779 49.442-52.2276L29.9401-48.0337Q27.0352-47.3438 26.1378-50.1501L20.3052-69.6625Q19.3274-72.998 22.6459-74.497L67.7875-95.2044Q74.0772-92.042 81.0293-90.2812Q87.9814-88.5204 94.3339-88.5204Q100.759-88.5204 107.679-90.2812Q114.6-92.042 120.882-95.2044L166.022-74.497Q169.342-72.998 168.364-69.6625L162.53-50.1501Q161.705-47.3438 158.809-48.0337L139.298-52.2276Q138.083-52.4779 137.347-51.9338Q136.611-51.3896 136.611-50.1923L135.87 14.7508Q135.797 20.0175 133.167 22.5441Q130.536 25.0707 125.134 25.0707ZM94.3339-70.5319Q101.462-70.5319 107.516-73.7889Q113.57-77.0459 117.439-82.7557Q121.308-88.4655 121.837-95.6398L118.005-96.0827Q117.569-89.8232 114.193-84.9444Q110.817-80.0657 105.553-77.2128Q100.29-74.36 94.3339-74.36Q88.3792-74.36 83.1515-77.2128Q77.9239-80.0657 74.512-84.9444Q71.1002-89.8232 70.6643-96.0827L66.8324-95.6398Q67.3608-88.4655 71.2291-82.7557Q75.0973-77.0459 81.192-73.7889Q87.2866-70.5319 94.3339-70.5319Z"/>
  </g>
  <g id="Ultralight-L" transform="matrix(1 0 0 1 466.489 1556)">
   <path d="M62.7621 27.8893L123.767 27.8893Q130.859 27.8893 134.184 24.6866Q137.509 21.4838 137.59 14.3838L138.394-48.6781L156.861-44.6213Q159.563-44.0048 161.256-45.0369Q162.949-46.069 163.901-49.0163L169.959-68.2853Q171.782-73.9364 165.604-76.857L122.458-97.0564Q121.078-97.7586 120.002-97.6737Q118.926-97.5888 117.857-96.9671Q113.296-94.5008 106.586-92.8861Q99.8752-91.2714 93.222-91.2714Q86.6506-91.2714 79.9419-92.8861Q73.2332-94.5008 68.5829-96.9671Q67.5144-97.5888 66.4804-97.6737Q65.4464-97.7586 63.9824-97.0564L20.8416-76.857Q14.6632-73.9364 16.4809-68.2853L22.5444-49.0163Q23.4967-46.069 25.1893-45.0369Q26.882-44.0048 29.6648-44.6213L48.0502-48.6781L48.8544 14.3838Q48.9311 21.4838 52.257 24.6866Q55.583 27.8893 62.7621 27.8893ZM62.7531 25.2775Q56.9131 25.2775 54.1852 22.6799Q51.4573 20.0822 51.461 14.5051L50.7462-49.2616Q50.7462-50.4716 49.9848-50.9835Q49.2234-51.4955 48.1102-51.258L29.1644-47.2064Q26.0266-46.4647 25.0259-49.5296L19.0123-68.9644Q17.9311-72.61 21.5857-74.2772L66.6886-95.2949Q72.9524-92.1712 80.0338-90.3975Q87.1152-88.6238 93.222-88.6238Q99.4144-88.6238 106.451-90.3975Q113.488-92.1712 119.757-95.2949L164.858-74.2772Q168.514-72.61 167.433-68.9644L161.418-49.5296Q160.503-46.4647 157.361-47.2064L138.419-51.258Q137.217-51.4955 136.5-50.9835Q135.783-50.4716 135.783-49.2616L135.068 14.5051Q134.983 20.0822 132.255 22.6799Q129.527 25.2775 123.776 25.2775ZM93.222-70.842Q100.272-70.842 106.23-74.099Q112.187-77.3561 115.92-83.0659Q119.653-88.7757 119.988-95.9241L117.346-95.5655Q116.961-89.1639 113.52-84.1816Q110.08-79.1994 104.687-76.2819Q99.2944-73.3645 93.222-73.3645Q87.151-73.3645 81.8005-76.2819Q76.45-79.1994 72.9671-84.1816Q69.4841-89.1639 69.0999-95.5655L66.4575-95.9241Q66.7919-88.7757 70.5244-83.0659Q74.2569-77.3561 80.2546-74.099Q86.2522-70.842 93.222-70.842Z"/>
  </g>
  <g id="Black-M" transform="matrix(1 0 0 1 2852.18 1126)">
   <path d="M56.107 23.4942L106.326 23.4942Q114.352 23.4942 119.282 18.6261Q124.212 13.7581 124.332 5.80067L124.898-31.5635L129.704-30.6619Q136.419-29.5024 140.68-31.7797Q144.942-34.0571 145.935-40.1535L149.661-61.9193Q151.812-74.4446 140.281-79.2138L108.202-92.6192Q105.456-93.7783 103.125-93.7786Q100.793-93.7789 98.422-92.625Q93.0262-90.1467 89.4354-89.2514Q85.8446-88.3561 81.2168-88.3561Q76.5942-88.3561 73.0006-89.2514Q69.4071-90.1467 64.0171-92.625Q61.646-93.7789 59.3143-93.7786Q56.9827-93.7783 54.2375-92.6192L22.1524-79.2138Q10.6213-74.4446 12.778-61.9193L16.4988-40.1535Q17.5484-34.0571 21.7817-31.7797Q26.0149-29.5024 32.7345-30.6619L37.536-31.5635L38.102 5.80067Q38.2269 13.7581 43.1856 18.6261Q48.1443 23.4942 56.107 23.4942ZM56.2322 7.73626Q55.1652 7.73626 54.518 7.02883Q53.8708 6.3214 53.8654 5.18549L53.1223-49.3727Q53.1223-50.0734 52.5848-50.5492Q52.0473-51.025 50.9872-50.7755L32.7823-46.7953Q31.3129-46.4849 31.123-47.8239L28.5306-63.4485Q28.3356-64.6878 29.3926-65.1202L60.4795-78.0473Q65.4644-75.5439 70.4615-74.35Q75.4585-73.156 81.2168-73.156Q86.9748-73.156 91.9747-74.35Q96.9747-75.5439 101.954-78.0473L133.041-65.1202Q134.098-64.6878 133.903-63.4485L131.311-47.8239Q131.12-46.4849 129.657-46.7953L111.446-50.7755Q110.392-51.025 109.851-50.5492Q109.311-50.0734 109.311-49.3727L108.568 5.18549Q108.568 6.3214 107.921 7.02883Q107.274 7.73626 106.201 7.73626ZM81.2168-53.6982Q88.8451-53.6982 94.9554-56.821Q101.066-59.9439 104.937-65.5951Q108.808-71.2463 109.715-78.6866L95.823-84.5602Q95.775-80.0411 93.9253-76.653Q92.0756-73.2648 88.8152-71.3633Q85.5547-69.4619 81.2168-69.4619Q76.9359-69.4619 73.6468-71.3633Q70.3577-73.2648 68.5081-76.653Q66.6586-80.0411 66.6106-84.5602L52.7182-78.6866Q53.6259-71.2463 57.4969-65.5951Q61.3679-59.9439 67.4808-56.821Q73.5937-53.6982 81.2168-53.6982Z"/>
  </g>
  <g id="Heavy-M" transform="matrix(1 0 0 1 2556.47 1126)">
   <path d="M55.1753 22.2579L105.258 22.2579Q112.881 22.2579 117.523 17.6794Q122.165 13.1008 122.271 5.55389L122.85-34.249L129.286-32.9226Q135.236-31.8459 139.023-33.9309Q142.81-36.0158 143.782-41.5254L147.658-62.2379Q149.713-73.4792 139.266-77.8134L106.751-91.4746Q104.205-92.5537 102.084-92.5514Q99.9624-92.5491 97.7862-91.4888Q92.5301-89.0663 88.7813-88.1065Q85.0325-87.1468 80.2154-87.1468Q75.4169-87.1468 71.6599-88.1065Q67.9029-89.0663 62.6609-91.4888Q60.4847-92.5491 58.3644-92.5514Q56.244-92.5537 53.6964-91.4746L21.1652-77.8134Q10.7175-73.4792 12.7889-62.2379L16.6489-41.5254Q17.6639-36.0158 21.4292-33.9309Q25.1945-31.8459 31.163-32.9226L37.5804-34.249L38.1598 5.55389Q38.2821 13.1008 42.9459 17.6794Q47.6097 22.2579 55.1753 22.2579ZM55.2954 8.45089Q53.7904 8.45089 52.895 7.50708Q51.9996 6.56327 51.9832 4.98868L51.2587-49.539Q51.2587-50.2826 50.7023-50.7722Q50.1458-51.2619 49.0934-51.0149L31.1601-47.0898Q29.6986-46.7692 29.4748-48.0919L26.5771-63.6607Q26.3347-64.9614 27.4716-65.4271L59.5076-78.8333Q64.4874-76.3106 69.4696-75.0871Q74.4518-73.8637 80.2154-73.8637Q85.9812-73.8637 90.9705-75.0871Q95.9598-76.3106 100.923-78.8333L132.959-65.4271Q134.096-64.9614 133.854-63.6607L130.956-48.0919Q130.734-46.7692 129.289-47.0898L111.34-51.0149Q110.301-51.2619 109.738-50.7722Q109.174-50.2826 109.174-49.539L108.45 4.98868Q108.448 6.56327 107.552 7.50708Q106.657 8.45089 105.138 8.45089ZM80.2154-55.5382Q87.4106-55.5382 93.2659-58.5196Q99.1212-61.5009 102.898-66.8624Q106.675-72.2239 107.625-79.2414L95.3288-84.4714Q95.1698-79.9916 93.1927-76.5964Q91.2157-73.2013 87.8691-71.2803Q84.5224-69.3593 80.2154-69.3593Q75.9519-69.3593 72.5846-71.2803Q69.2173-73.2013 67.2391-76.5964Q65.261-79.9916 65.1019-84.4714L52.8057-79.2414Q53.756-72.2239 57.5327-66.8624Q61.3095-61.5009 67.1741-58.5196Q73.0388-55.5382 80.2154-55.5382Z"/>
  </g>
  <g id="Bold-M" transform="matrix(1 0 0 1 2260.88 1126)">
   <path d="M54.1331 20.8749L104.062 20.8749Q111.236 20.8749 115.555 16.6202Q119.875 12.3656 119.966 5.27782L120.56-37.2531L128.819-35.4516Q133.913-34.4674 137.17-36.3372Q140.426-38.207 141.373-43.06L145.418-62.5944Q147.365-72.3992 138.129-76.2469L105.128-90.1943Q102.806-91.1837 100.92-91.1786Q99.0332-91.1734 97.0751-90.2178Q91.9752-87.8577 88.0496-86.8258Q84.1241-85.794 79.0951-85.794Q74.1-85.794 70.1601-86.8258Q66.2202-87.8577 61.1438-90.2178Q59.1857-91.1734 57.3017-91.1786Q55.4177-91.1837 53.0911-90.1943L20.0609-76.2469Q10.8251-72.3992 12.801-62.5944L16.8168-43.06Q17.7931-38.207 21.035-36.3372Q24.2768-34.4674 29.405-35.4516L37.63-37.2531L38.2245 5.27782Q38.344 12.3656 42.6778 16.6202Q47.0116 20.8749 54.1331 20.8749ZM54.2474 9.25031Q52.2525 9.25031 51.0794 8.04208Q49.9063 6.83384 49.8776 4.76852L49.174-49.725Q49.174-50.5167 48.5964-51.0218Q48.0187-51.5269 46.9749-51.2828L29.3455-47.4193Q27.8928-47.0872 27.631-48.3918L24.3919-63.8982Q24.0964-65.2675 25.3228-65.7704L58.4203-79.7125Q63.3944-77.1682 68.36-75.9118Q73.3256-74.6553 79.0951-74.6553Q84.8698-74.6553 89.8471-75.9118Q94.8244-77.1682 99.77-79.7125L132.867-65.7704Q134.094-65.2675 133.798-63.8982L130.559-48.3918Q130.303-47.0872 128.879-47.4193L111.22-51.2828Q110.2-51.5269 109.611-51.0218Q109.021-50.5167 109.021-49.725L108.318 4.76852Q108.313 6.83384 107.139 8.04208Q105.966 9.25031 103.948 9.25031ZM79.0951-57.5965Q85.8059-57.5965 91.376-60.4196Q96.9461-63.2427 100.617-68.2801Q104.289-73.3175 105.287-79.862L94.776-84.372Q94.4927-79.9362 92.3733-76.5332Q90.2538-73.1303 86.8107-71.1874Q83.3676-69.2446 79.0951-69.2446Q74.8512-69.2446 71.3964-71.1874Q67.9416-73.1303 65.8196-76.5332Q63.6976-79.9362 63.4143-84.372L52.9037-79.862Q53.9014-73.3175 57.5728-68.2801Q61.2441-63.2427 66.8311-60.4196Q72.418-57.5965 79.0951-57.5965Z"/>
  </g>
  <g id="Semibold-M" transform="matrix(1 0 0 1 1964.94 1126)">
   <path d="M53.4146 19.9215L103.238 19.9215Q110.102 19.9215 114.199 15.8901Q118.296 11.8587 118.377 5.08751L118.981-39.3241L128.497-37.1951Q133.002-36.2747 135.892-37.9961Q138.782-39.7175 139.713-44.1179L143.873-62.8402Q145.746-71.6547 137.346-75.167L104.009-89.3116Q101.842-90.2392 100.117-90.2321Q98.3926-90.225 96.5848-89.3416Q91.5926-87.0245 87.5452-85.9429Q83.4978-84.8613 78.3228-84.8613Q73.1921-84.8613 69.1261-85.9429Q65.0602-87.0245 60.098-89.3416Q58.2901-90.225 56.5691-90.2321Q54.8481-90.2392 52.6737-89.3116L19.2996-75.167Q10.8993-71.6547 12.8094-62.8402L16.9325-44.1179Q17.8822-39.7175 20.7632-37.9961Q23.6442-36.2747 28.1931-37.1951L37.6642-39.3241L38.2691 5.08751Q38.3866 11.8587 42.493 15.8901Q46.5994 19.9215 53.4146 19.9215ZM53.525 9.80143Q51.1923 9.80143 49.8278 8.4109Q48.4632 7.02037 48.4261 4.61675L47.7368-49.8532Q47.7368-50.678 47.1446-51.1938Q46.5523-51.7096 45.5144-51.4674L28.0945-47.6464Q26.6478-47.3065 26.36-48.5985L22.8854-64.0619Q22.5533-65.4785 23.8413-66.007L57.6708-80.3187Q62.641-77.7594 67.5951-76.4802Q72.5492-75.2011 78.3228-75.2011Q84.1036-75.2011 89.0727-76.4802Q94.0417-77.7594 98.9749-80.3187L132.804-66.007Q134.092-65.4785 133.76-64.0619L130.286-48.5985Q130.005-47.3065 128.595-47.6464L111.138-51.4674Q110.13-51.7096 109.523-51.1938Q108.916-50.678 108.916-49.8532L108.227 4.61675Q108.22 7.02037 106.855 8.4109Q105.49 9.80143 103.128 9.80143ZM78.3228-59.0155Q84.6997-59.0155 90.0731-61.7295Q95.4465-64.4435 99.0453-69.2575Q102.644-74.0715 103.675-80.2899L94.3949-84.3035Q94.026-79.898 91.8083-76.4896Q89.5906-73.0813 86.0811-71.1234Q82.5715-69.1655 78.3228-69.1655Q74.0924-69.1655 70.5773-71.1234Q67.0622-73.0813 64.841-76.4896Q62.6198-79.898 62.2509-84.3035L52.9712-80.2899Q54.0017-74.0715 57.6004-69.2575Q61.1991-64.4435 66.5946-61.7295Q71.9901-59.0155 78.3228-59.0155Z"/>
  </g>
  <g id="Medium-M" transform="matrix(1 0 0 1 1668.82 1126)">
   <path d="M52.8698 19.1986L102.613 19.1986Q109.242 19.1986 113.17 15.3365Q117.099 11.4743 117.172 4.9432L117.784-40.8944L128.252-38.5171Q132.31-37.645 134.923-39.254Q137.535-40.8629 138.454-44.9201L142.702-63.0266Q144.519-71.0902 136.752-74.3481L103.161-88.6424Q101.11-89.5231 99.5086-89.5145Q97.9069-89.5059 96.213-88.6772Q91.3025-86.3927 87.1627-85.2734Q83.023-84.1542 77.7372-84.1542Q72.5037-84.1542 68.3421-85.2734Q64.1806-86.3927 59.3049-88.6772Q57.6111-89.5059 56.0136-89.5145Q54.4162-89.5231 52.3573-88.6424L18.7224-74.3481Q10.9555-71.0902 12.8158-63.0266L17.0203-44.9201Q17.9497-40.8629 20.5571-39.254Q23.1645-37.645 27.2742-38.5171L37.6901-40.8944L38.3029 4.9432Q38.419 11.4743 42.3528 15.3365Q46.2867 19.1986 52.8698 19.1986ZM52.9772 10.2193Q50.3885 10.2193 48.8787 8.69056Q47.369 7.1618 47.3255 4.50167L46.6471-49.9504Q46.6471-50.8004 46.0438-51.3242Q45.4405-51.8481 44.407-51.6074L27.146-47.8186Q25.7039-47.4727 25.3962-48.7552L21.7431-64.186Q21.3833-65.6385 22.7181-66.1865L57.1025-80.7783Q62.0697-78.2077 67.0151-76.9113Q71.9605-75.6149 77.7372-75.6149Q83.5226-75.6149 88.4854-76.9113Q93.4483-78.2077 98.3721-80.7783L132.756-66.1865Q134.091-65.6385 133.732-64.186L130.078-48.7552Q129.779-47.4727 128.381-47.8186L111.076-51.6074Q110.077-51.8481 109.457-51.3242Q108.836-50.8004 108.836-49.9504L108.158 4.50167Q108.149 7.1618 106.639 8.69056Q105.129 10.2193 102.506 10.2193ZM77.7372-60.0914Q83.8609-60.0914 89.0852-62.7227Q94.3095-65.3539 97.8532-69.9985Q101.397-74.6431 102.452-80.6143L94.1059-84.2516Q93.6721-79.869 91.3799-76.4566Q89.0878-73.0441 85.5278-71.0748Q81.9679-69.1055 77.7372-69.1055Q73.517-69.1055 69.9561-71.0748Q66.3953-73.0441 64.0989-76.4566Q61.8025-79.869 61.3687-84.2516L53.0224-80.6143Q54.0778-74.6431 57.6213-69.9985Q61.1649-65.3539 66.4153-62.7227Q71.6656-60.0914 77.7372-60.0914Z"/>
  </g>
  <g id="Regular-M" transform="matrix(1 0 0 1 1372.87 1126)">
   <path d="M52.1592 18.2556L101.798 18.2556Q108.12 18.2556 111.829 14.6143Q115.538 10.973 115.6 4.75498L116.223-42.9426L127.934-40.2414Q131.408-39.4324 133.659-40.8946Q135.909-42.3568 136.812-45.9664L141.175-63.2696Q142.918-70.3539 135.978-73.28L102.054-87.7694Q100.156-88.589 98.7148-88.5785Q97.2733-88.5679 95.7281-87.8106Q90.9241-85.5686 86.6638-84.4002Q82.4036-83.2318 76.9734-83.2318Q71.6057-83.2318 67.3195-84.4002Q63.0334-85.5686 58.2706-87.8106Q56.7254-88.5679 55.2891-88.5785Q53.8528-88.589 51.9446-87.7694L17.9694-73.28Q11.0289-70.3539 12.8241-63.2696L17.1348-45.9664Q18.0378-42.3568 20.2883-40.8946Q22.5388-39.4324 26.0756-40.2414L37.7239-42.9426L38.347 4.75498Q38.4611 10.973 42.1701 14.6143Q45.879 18.2556 52.1592 18.2556ZM52.2627 10.7644Q49.3399 10.7644 47.6408 9.05533Q45.9418 7.34628 45.8899 4.35156L45.2257-50.0772Q45.2257-50.9599 44.6079-51.4944Q43.9902-52.0288 42.9626-51.79L25.9088-48.0432Q24.4726-47.6895 24.139-48.9597L20.2531-64.3479Q19.8572-65.8472 21.2529-66.4205L56.3612-81.3777Q61.3245-78.7925 66.2586-77.4735Q71.1927-76.1546 76.9734-76.1546Q82.7648-76.1546 87.7195-77.4735Q92.6742-78.7925 97.5858-81.3777L132.694-66.4205Q134.09-65.8472 133.694-64.3479L129.808-48.9597Q129.485-47.6895 128.101-48.0432L110.995-51.79Q110.008-52.0288 109.37-51.4944Q108.732-50.9599 108.732-50.0772L108.068 4.35156Q108.057 7.34628 106.358 9.05533Q104.659 10.7644 101.695 10.7644ZM76.9734-61.4948Q82.7668-61.4948 87.7966-64.0182Q92.8264-66.5415 96.2982-70.9652Q99.7701-75.3888 100.858-81.0374L93.729-84.1839Q93.2104-79.8312 90.8212-76.4135Q88.4319-72.9957 84.8062-71.0115Q81.1805-69.0273 76.9734-69.0273Q72.7665-69.0273 69.146-71.0115Q65.5255-72.9957 63.1311-76.4135Q60.7366-79.8312 60.218-84.1839L53.0891-81.0374Q54.1769-75.3888 57.6487-70.9652Q61.1204-66.5415 66.1814-64.0182Q71.2424-61.4948 76.9734-61.4948Z"/>
  </g>
  <g id="Light-M" transform="matrix(1 0 0 1 1077.63 1126)">
   <path d="M51.0641 16.8355L99.9673 16.8355Q106.032 16.8355 109.39 13.5535Q112.748 10.2716 112.811 4.27574L113.434-43.7809L125.949-40.9429Q128.996-40.2365 130.955-41.4935Q132.915-42.7504 133.767-45.9492L138.232-62.5167Q139.872-68.7626 133.599-71.4833L99.8295-86.332Q98.1885-87.0662 96.9353-87.0386Q95.6821-87.0109 94.3591-86.339Q89.9487-84.1996 85.3976-83.0056Q80.8466-81.8116 75.5018-81.8116Q70.2198-81.8116 65.6513-83.0056Q61.0828-84.1996 56.6793-86.339Q55.3564-87.0109 54.1169-87.0386Q52.8774-87.0662 51.2089-86.332L17.4048-71.4833Q11.1315-68.7626 12.8069-62.5167L17.2374-45.9492Q18.0892-42.7504 20.0488-41.4935Q22.0083-40.2365 25.1174-40.9429L37.5698-43.7809L38.1929 4.27574Q38.2901 10.2716 41.6483 13.5535Q45.0065 16.8355 51.0641 16.8355ZM51.1334 11.0381Q47.7145 11.0381 45.887 9.235Q44.0596 7.43195 44.0247 4.02641L43.3947-48.8453Q43.3947-49.745 42.7856-50.2368Q42.1765-50.7285 41.2-50.5067L24.8822-46.9482Q23.1378-46.5261 22.6674-48.1383L18.542-63.424Q18.0092-65.3337 19.8497-66.1296L54.9068-81.4976Q59.8359-78.9635 64.941-77.6275Q70.0462-76.2914 75.5018-76.2914Q80.9853-76.2914 86.0939-77.6275Q91.2026-78.9635 96.0972-81.4976L131.154-66.1296Q132.995-65.3337 132.462-63.424L128.336-48.1383Q127.894-46.5261 126.184-46.9482L109.831-50.5067Q108.862-50.7285 108.249-50.2368Q107.637-49.745 107.637-48.8453L107.007 4.02641Q106.979 7.43195 105.151 9.235Q103.324 11.0381 99.898 11.0381ZM75.5018-61.9054Q81.1925-61.9054 86.094-64.4287Q90.9954-66.952 94.2877-71.3757Q97.58-75.7993 98.4111-81.4137L92.8565-83.4994Q92.4063-78.9587 89.9314-75.404Q87.4565-71.8492 83.6597-69.7795Q79.863-67.7098 75.5018-67.7098Q71.141-67.7098 67.358-69.7795Q63.575-71.8492 61.0863-75.404Q58.5977-78.9587 58.1476-83.4994L52.593-81.4137Q53.424-75.7993 56.7161-71.3757Q60.0081-66.952 64.9407-64.4287Q69.8734-61.9054 75.5018-61.9054Z"/>
  </g>
  <g id="Thin-M" transform="matrix(1 0 0 1 782.867 1126)">
   <path d="M49.6159 14.9572L97.5457 14.9572Q103.272 14.9572 106.166 12.1505Q109.059 9.34383 109.122 3.64191L109.745-44.8896L123.324-41.8706Q125.805-41.3 127.38-42.2855Q128.954-43.2709 129.739-45.9264L134.339-61.5209Q135.844-66.6581 130.454-69.1069L96.8874-84.4309Q95.5859-85.0522 94.5817-85.0019Q93.5776-84.9516 92.5485-84.3926Q88.6586-82.389 83.7229-81.1612Q78.7873-79.9333 73.5554-79.9333Q68.3867-79.9333 63.4448-81.1612Q58.503-82.389 54.5748-84.3926Q53.5458-84.9516 52.5665-85.0019Q51.5873-85.0522 50.2359-84.4309L16.658-69.1069Q11.2673-66.6581 12.7841-61.5209L17.3731-45.9264Q18.1573-43.2709 19.7321-42.2855Q21.3068-41.3 23.8501-41.8706L37.366-44.8896L37.9891 3.64191Q38.0638 9.34383 40.9582 12.1505Q43.8525 14.9572 49.6159 14.9572ZM49.6399 11.4Q45.5647 11.4 43.5675 9.47264Q41.5703 7.54526 41.5578 3.59638L40.973-47.2161Q40.973-48.1382 40.3753-48.5735Q39.7776-49.0087 38.8689-48.8094L23.5244-45.4999Q21.3725-44.9873 20.7211-47.052L16.2789-62.2019Q15.5652-64.6546 17.9938-65.7448L52.9833-81.6562Q57.8671-79.1898 63.1985-77.8311Q68.5298-76.4724 73.5554-76.4724Q78.6317-76.4724 83.944-77.8311Q89.2562-79.1898 94.1284-81.6562L129.117-65.7448Q131.547-64.6546 130.833-62.2019L126.39-47.052Q125.789-44.9873 123.65-45.4999L108.293-48.8094Q107.346-49.0087 106.767-48.5735Q106.189-48.1382 106.189-47.2161L105.604 3.59638Q105.553 7.54526 103.556 9.47264Q101.559 11.4 97.5216 11.4ZM73.5554-62.4483Q79.1104-62.4483 83.8421-64.9717Q88.5738-67.495 91.6286-71.9186Q94.6835-76.3423 95.175-81.9114L91.7025-82.5941Q91.3429-77.8047 88.7546-74.0688Q86.1664-70.3329 82.1434-68.15Q78.1204-65.9672 73.5554-65.9672Q68.9913-65.9672 64.9932-68.15Q60.9952-70.3329 58.382-74.0688Q55.7688-77.8047 55.4092-82.5941L51.9367-81.9114Q52.4282-76.3423 55.4826-71.9186Q58.537-67.495 63.2999-64.9717Q68.0627-62.4483 73.5554-62.4483Z"/>
  </g>
  <g id="Ultralight-M" transform="matrix(1 0 0 1 487.152 1126)">
   <path d="M48.8741 13.9951L96.3053 13.9951Q101.858 13.9951 104.514 11.4319Q107.17 8.86864 107.232 3.31727L107.855-45.4575L121.979-42.3458Q124.171-41.8447 125.548-42.6911Q126.926-43.5375 127.675-45.9147L132.346-61.0109Q133.781-65.5802 128.843-67.8897L95.3804-83.4571Q94.2528-84.0206 93.3762-83.9587Q92.4996-83.8969 91.6211-83.3957Q87.9978-81.4616 82.8652-80.2165Q77.7325-78.9713 72.5585-78.9713Q67.4478-78.9713 62.3147-80.2165Q57.1816-81.4616 53.4969-83.3957Q52.6184-83.8969 51.7724-83.9587Q50.9265-84.0206 49.7376-83.4571L16.2756-67.8897Q11.3368-65.5802 12.7724-61.0109L17.4427-45.9147Q18.1922-43.5375 19.5698-42.6911Q20.9475-41.8447 23.201-42.3458L37.2617-45.4575L37.8847 3.31727Q37.948 8.86864 40.6047 11.4319Q43.2614 13.9951 48.8741 13.9951ZM48.875 11.5854Q44.4636 11.5854 42.3794 9.59436Q40.2953 7.60329 40.2943 3.37612L39.7327-46.3816Q39.7327-47.3152 39.1408-47.7216Q38.549-48.1279 37.6749-47.94L22.8289-44.7582Q20.4683-44.1992 19.7241-46.4956L15.1198-61.576Q14.3133-64.3068 17.0433-65.5477L51.998-81.7374Q56.8587-79.3056 62.3059-77.9354Q67.7532-76.5651 72.5585-76.5651Q77.4262-76.5651 82.8428-77.9354Q88.2593-79.3056 93.12-81.7374L128.074-65.5477Q130.805-64.3068 129.998-61.576L125.393-46.4956Q124.711-44.1992 122.351-44.7582L107.505-47.94Q106.569-48.1279 106.008-47.7216Q105.447-47.3152 105.447-46.3816L104.885 3.37612Q104.823 7.60329 102.739 9.59436Q100.654 11.5854 96.3045 11.5854ZM72.5585-62.7264Q78.044-62.7264 82.6887-65.2498Q87.3335-67.7731 90.2667-72.1967Q93.1999-76.6204 93.5175-82.1664L91.1114-82.1304Q90.7981-77.2137 88.1519-73.3849Q85.5056-69.5562 81.3668-67.3155Q77.2279-65.0747 72.5585-65.0747Q67.8902-65.0747 63.782-67.3155Q59.6738-69.5562 56.9969-73.3849Q54.3199-77.2137 54.0066-82.1304L51.6006-82.1664Q51.9182-76.6204 54.8509-72.1967Q57.7836-67.7731 62.4595-65.2498Q67.1354-62.7264 72.5585-62.7264Z"/>
  </g>
  <g id="Black-S" transform="matrix(1 0 0 1 2869.53 696)">
   <path d="M44.1895 11.084L83.5449 11.084Q89.9414 11.084 93.8721 7.20215Q97.8027 3.32031 97.9004-3.02734L98.3398-31.5918L101.66-31.0059Q107.129-30.0781 110.596-31.9092Q114.062-33.7402 114.844-38.6719L117.725-56.0059Q119.434-66.1621 110.107-70.0195L85.1074-80.4688Q82.9102-81.3965 81.0303-81.3965Q79.1504-81.3965 77.2461-80.4688Q72.998-78.5156 70.2148-77.832Q67.4316-77.1484 63.8672-77.1484Q60.3027-77.1484 57.5195-77.832Q54.7363-78.5156 50.4883-80.4688Q48.584-81.3965 46.7041-81.3965Q44.8242-81.3965 42.627-80.4688L17.627-70.0195Q8.30078-66.1621 10.0098-56.0059L12.8906-38.6719Q13.7207-33.7402 17.1631-31.9092Q20.6055-30.0781 26.0742-31.0059L29.3945-31.5918L29.834-3.02734Q29.9316 3.32031 33.8867 7.20215Q37.8418 11.084 44.1895 11.084ZM44.2871-1.75781Q43.5547-1.75781 43.1152-2.24609Q42.6758-2.73438 42.6758-3.51562L42.0898-46.1914Q42.0898-46.7285 41.6748-47.0947Q41.2598-47.4609 40.4297-47.2656L26.123-44.1406Q24.9512-43.8965 24.8047-44.9707L22.8516-57.2266Q22.7051-58.2031 23.5352-58.5449L47.6074-68.5547Q51.5137-66.6016 55.4443-65.6738Q59.375-64.7461 63.8672-64.7461Q68.3594-64.7461 72.29-65.6738Q76.2207-66.6016 80.127-68.5547L104.199-58.5449Q105.029-58.2031 104.883-57.2266L102.93-44.9707Q102.783-43.8965 101.611-44.1406L87.3047-47.2656Q86.4746-47.4609 86.0596-47.0947Q85.6445-46.7285 85.6445-46.1914L85.0586-3.51562Q85.0586-2.73438 84.6191-2.24609Q84.1797-1.75781 83.4473-1.75781ZM63.8672-49.1699Q69.9707-49.1699 74.8291-51.6602Q79.6875-54.1504 82.7393-58.667Q85.791-63.1836 86.4746-69.1406L75.1953-73.877Q75.1953-70.3125 73.7793-67.6514Q72.3633-64.9902 69.8242-63.501Q67.2852-62.0117 63.8672-62.0117Q60.498-62.0117 57.9346-63.501Q55.3711-64.9902 53.9551-67.6514Q52.5391-70.3125 52.5391-73.877L41.2598-69.1406Q41.9434-63.1836 44.9951-58.667Q48.0469-54.1504 52.9053-51.6602Q57.7637-49.1699 63.8672-49.1699Z"/>
  </g>
  <g id="Heavy-S" transform="matrix(1 0 0 1 2573.49 696)">
   <path d="M43.5326 10.2081L82.865 10.2081Q88.9503 10.2081 92.6793 6.52797Q96.4083 2.84781 96.4944-3.17716L96.9454-33.7814L101.556-32.8498Q106.426-31.9797 109.524-33.6724Q112.622-35.3652 113.392-39.8474L116.388-56.3746Q118.028-65.5398 109.543-69.0515L84.1509-79.6736Q82.0919-80.5437 80.3676-80.5437Q78.6433-80.5437 76.8773-79.6851Q72.6984-77.7665 69.8172-77.0311Q66.9361-76.2956 63.1988-76.2956Q59.473-76.2956 56.586-77.0311Q53.6991-77.7665 49.5318-79.6851Q47.7657-80.5437 46.0414-80.5437Q44.3171-80.5437 42.2582-79.6736L16.8548-69.0515Q8.36993-65.5398 10.0213-56.3746L13.0059-39.8474Q13.8129-35.3652 16.8923-33.6724Q19.9716-31.9797 24.8526-32.8498L29.4522-33.7814L29.9031-3.17716Q30.0008 2.84781 33.7484 6.52797Q37.4961 10.2081 43.5326 10.2081ZM43.6302-1.18159Q42.5866-1.18159 41.9513-1.86002Q41.3159-2.53846 41.3044-3.64239L40.73-46.491Q40.73-47.0627 40.2976-47.4462Q39.8653-47.8297 39.0352-47.6344L24.8669-44.5325Q23.7411-44.2883 23.5831-45.3049L21.3995-57.5262Q21.2299-58.5028 22.0715-58.8446L46.9621-69.2116Q50.8683-67.2354 54.7644-66.2846Q58.6605-65.3338 63.1988-65.3338Q67.7371-65.3338 71.6389-66.2846Q75.5408-67.2354 79.4355-69.2116L104.326-58.8446Q105.168-58.5028 104.998-57.5262L102.814-45.3049Q102.656-44.2883 101.542-44.5325L87.3623-47.6344Q86.5438-47.8297 86.1057-47.4462Q85.6676-47.0627 85.6676-46.491L85.0932-3.64239Q85.0932-2.53846 84.4578-1.86002Q83.8224-1.18159 82.7673-1.18159ZM63.1988-50.6912Q68.945-50.6912 73.6017-53.0604Q78.2585-55.4296 81.2526-59.6984Q84.2467-63.9673 84.9995-69.567L74.8842-73.8885Q74.7804-70.3816 73.2665-67.732Q71.7525-65.0824 69.1616-63.5874Q66.5706-62.0924 63.1988-62.0924Q59.8642-62.0924 57.2546-63.5874Q54.6451-65.0824 53.1311-67.732Q51.6171-70.3816 51.5134-73.8885L41.3981-69.567Q42.1508-63.9673 45.1449-59.6984Q48.1391-55.4296 52.8016-53.0604Q57.464-50.6912 63.1988-50.6912Z"/>
  </g>
  <g id="Bold-S" transform="matrix(1 0 0 1 2277.53 696)">
   <path d="M42.7979 9.22852L82.1045 9.22852Q87.8418 9.22852 91.3452 5.77393Q94.8486 2.31934 94.9219-3.34473L95.3857-36.2305L101.44-34.9121Q105.64-34.1064 108.325-35.6445Q111.011-37.1826 111.768-41.1621L114.893-56.7871Q116.455-64.8438 108.911-67.9688L83.0811-78.7842Q81.1768-79.5898 79.6265-79.5898Q78.0762-79.5898 76.4648-78.8086Q72.3633-76.9287 69.3726-76.1353Q66.3818-75.3418 62.4512-75.3418Q58.5449-75.3418 55.542-76.1353Q52.5391-76.9287 48.4619-78.8086Q46.8506-79.5898 45.3003-79.5898Q43.75-79.5898 41.8457-78.7842L15.9912-67.9688Q8.44727-64.8438 10.0342-56.7871L13.1348-41.1621Q13.916-37.1826 16.5894-35.6445Q19.2627-34.1064 23.4863-34.9121L29.5166-36.2305L29.9805-3.34473Q30.0781 2.31934 33.5938 5.77393Q37.1094 9.22852 42.7979 9.22852ZM42.8955-0.537109Q41.5039-0.537109 40.6494-1.42822Q39.7949-2.31934 39.7705-3.78418L39.209-46.8262Q39.209-47.4365 38.7573-47.8394Q38.3057-48.2422 37.4756-48.0469L23.4619-44.9707Q22.3877-44.7266 22.2168-45.6787L19.7754-57.8613Q19.5801-58.8379 20.4346-59.1797L46.2402-69.9463Q50.1465-67.9443 54.0039-66.9678Q57.8613-65.9912 62.4512-65.9912Q67.041-65.9912 70.9106-66.9678Q74.7803-67.9443 78.6621-69.9463L104.468-59.1797Q105.322-58.8379 105.127-57.8613L102.686-45.6787Q102.515-44.7266 101.465-44.9707L87.4268-48.0469Q86.6211-48.2422 86.1572-47.8394Q85.6934-47.4365 85.6934-46.8262L85.1318-3.78418Q85.1318-2.31934 84.2773-1.42822Q83.4229-0.537109 82.0068-0.537109ZM62.4512-52.3926Q67.7979-52.3926 72.229-54.6265Q76.6602-56.8604 79.5898-60.8521Q82.5195-64.8438 83.3496-70.0439L74.5361-73.9014Q74.3164-70.459 72.6929-67.8223Q71.0693-65.1855 68.4204-63.6841Q65.7715-62.1826 62.4512-62.1826Q59.1553-62.1826 56.4941-63.6841Q53.833-65.1855 52.2095-67.8223Q50.5859-70.459 50.3662-73.9014L41.5527-70.0439Q42.3828-64.8438 45.3125-60.8521Q48.2422-56.8604 52.6855-54.6265Q57.1289-52.3926 62.4512-52.3926Z"/>
  </g>
  <g id="Semibold-S" transform="matrix(1 0 0 1 1981.33 696)">
   <path d="M42.2913 8.55312L81.5802 8.55312Q87.0775 8.55312 90.4254 5.25405Q93.7733 1.95498 93.8377-3.46025L94.3104-37.9189L101.36-36.334Q105.098-35.5728 107.499-37.0042Q109.9-38.4356 110.648-42.0686L113.862-57.0715Q115.371-64.3639 108.476-67.2223L82.3435-78.171Q80.5458-78.9322 79.1155-78.9322Q77.6852-78.9322 76.1805-78.2043Q72.1322-76.3511 69.066-75.5176Q65.9997-74.6842 61.9357-74.6842Q57.9051-74.6842 54.8222-75.5176Q51.7393-76.3511 47.7243-78.2043Q46.2196-78.9322 44.7893-78.9322Q43.359-78.9322 41.5613-78.171L15.3958-67.2223Q8.50059-64.3639 10.0431-57.0715L13.2236-42.0686Q13.9871-38.4356 16.3805-37.0042Q18.7739-35.5728 22.5443-36.334L29.561-37.9189L30.0338-3.46025Q30.1314 1.95498 33.4871 5.25405Q36.8428 8.55312 42.2913 8.55312ZM42.389-0.0927734Q40.7574-0.0927734 39.7519-1.13052Q38.7463-2.16826 38.713-3.88193L38.1604-47.0572Q38.1604-47.6942 37.6954-48.1104Q37.2304-48.5266 36.4003-48.3312L22.4933-45.2729Q21.4546-45.0287 21.2748-45.9364L18.6557-58.0924Q18.4426-59.0689 19.306-59.4107L45.7426-70.4528Q49.6488-68.4331 53.4796-67.4388Q57.3104-66.4444 61.9357-66.4444Q66.5611-66.4444 70.4085-67.4388Q74.256-68.4331 78.1289-70.4528L104.566-59.4107Q105.429-59.0689 105.216-58.0924L102.597-45.9364Q102.417-45.0287 101.412-45.2729L87.4712-48.3312Q86.6744-48.5266 86.1928-48.1104Q85.7111-47.6942 85.7111-47.0572L85.1585-3.88193Q85.1585-2.16826 84.1529-1.13052Q83.1474-0.0927734 81.4825-0.0927734ZM61.9357-53.5656Q67.0069-53.5656 71.2826-55.7062Q75.5582-57.8468 78.4435-61.6474Q81.3287-65.448 82.2121-70.3728L74.2962-73.9103Q73.9965-70.5123 72.2974-67.8845Q70.5983-65.2566 67.9094-63.7507Q65.2205-62.2448 61.9357-62.2448Q58.6665-62.2448 55.9698-63.7507Q53.2731-65.2566 51.5741-67.8845Q49.875-70.5123 49.5753-73.9103L41.6594-70.3728Q42.5428-65.448 45.428-61.6474Q48.3133-57.8468 52.6056-55.7062Q56.8979-53.5656 61.9357-53.5656Z"/>
  </g>
  <g id="Medium-S" transform="matrix(1 0 0 1 1685.01 696)">
   <path d="M41.9072 8.04102L81.1826 8.04102Q86.498 8.04102 89.728 4.85986Q92.958 1.67871 93.0156-3.54785L93.4951-39.1992L101.3-37.4121Q104.687-36.6846 106.872-38.0352Q109.058-39.3857 109.799-42.7559L113.08-57.2871Q114.549-64 108.146-66.6562L81.7842-77.7061Q80.0674-78.4336 78.728-78.4336Q77.3887-78.4336 75.9648-77.7461Q71.957-75.9131 68.8335-75.0493Q65.71-74.1855 61.5449-74.1855Q57.4199-74.1855 54.2764-75.0493Q51.1328-75.9131 47.165-77.7461Q45.7412-78.4336 44.4019-78.4336Q43.0625-78.4336 41.3457-77.7061L14.9443-66.6562Q8.54102-64 10.0498-57.2871L13.291-42.7559Q14.041-39.3857 16.2222-38.0352Q18.4033-36.6846 21.8301-37.4121L29.5947-39.1992L30.0742-3.54785Q30.1719 1.67871 33.4062 4.85986Q36.6406 8.04102 41.9072 8.04102ZM42.0049 0.244141Q40.1914 0.244141 39.0713-0.904785Q37.9512-2.05371 37.9111-3.95605L37.3652-47.2324Q37.3652-47.8896 36.8901-48.3159Q36.415-48.7422 35.585-48.5469L21.7588-45.502Q20.7471-45.2578 20.5605-46.1318L17.8066-58.2676Q17.5801-59.2441 18.4502-59.5859L45.3652-70.8369Q49.2715-68.8037 53.082-67.7959Q56.8926-66.7881 61.5449-66.7881Q66.1973-66.7881 70.0278-67.7959Q73.8584-68.8037 77.7246-70.8369L104.64-59.5859Q105.51-59.2441 105.283-58.2676L102.529-46.1318Q102.343-45.2578 101.371-45.502L87.5049-48.5469Q86.7148-48.7422 86.2197-48.3159Q85.7246-47.8896 85.7246-47.2324L85.1787-3.95605Q85.1787-2.05371 84.0586-0.904785Q82.9385 0.244141 81.085 0.244141ZM61.5449-54.4551Q66.4072-54.4551 70.5649-56.5249Q74.7227-58.5947 77.5742-62.2505Q80.4258-65.9062 81.3496-70.6221L74.1143-73.917Q73.7539-70.5527 71.9976-67.9316Q70.2412-65.3105 67.522-63.8013Q64.8027-62.292 61.5449-62.292Q58.2959-62.292 55.5723-63.8013Q52.8486-65.3105 51.0923-67.9316Q49.3359-70.5527 48.9756-73.917L41.7402-70.6221Q42.6641-65.9062 45.5156-62.2505Q48.3672-58.5947 52.5449-56.5249Q56.7227-54.4551 61.5449-54.4551Z"/>
  </g>
  <g id="Regular-S" transform="matrix(1 0 0 1 1388.81 696)">
   <path d="M41.4062 7.37305L80.6641 7.37305Q85.7422 7.37305 88.8184 4.3457Q91.8945 1.31836 91.9434-3.66211L92.4316-40.8691L101.221-38.8184Q104.15-38.1348 106.055-39.3799Q107.959-40.625 108.691-43.6523L112.061-57.5684Q113.477-63.5254 107.715-65.918L81.0547-77.0996Q79.4434-77.7832 78.2227-77.7832Q77.002-77.7832 75.6836-77.1484Q71.7285-75.3418 68.5303-74.4385Q65.332-73.5352 61.0352-73.5352Q56.7871-73.5352 53.5645-74.4385Q50.3418-75.3418 46.4355-77.1484Q45.1172-77.7832 43.8965-77.7832Q42.6758-77.7832 41.0645-77.0996L14.3555-65.918Q8.59375-63.5254 10.0586-57.5684L13.3789-43.6523Q14.1113-40.625 16.0156-39.3799Q17.9199-38.1348 20.8984-38.8184L29.6387-40.8691L30.127-3.66211Q30.2246 1.31836 33.3008 4.3457Q36.377 7.37305 41.4062 7.37305ZM41.5039 0.683594Q39.4531 0.683594 38.1836-0.610352Q36.9141-1.9043 36.8652-4.05273L36.3281-47.4609Q36.3281-48.1445 35.8398-48.584Q35.3516-49.0234 34.5215-48.8281L20.8008-45.8008Q19.8242-45.5566 19.6289-46.3867L16.6992-58.4961Q16.4551-59.4727 17.334-59.8145L44.873-71.3379Q48.7793-69.2871 52.5635-68.2617Q56.3477-67.2363 61.0352-67.2363Q65.7227-67.2363 69.5312-68.2617Q73.3398-69.2871 77.1973-71.3379L104.736-59.8145Q105.615-59.4727 105.371-58.4961L102.441-46.3867Q102.246-45.5566 101.318-45.8008L87.5488-48.8281Q86.7676-49.0234 86.2549-48.584Q85.7422-48.1445 85.7422-47.4609L85.2051-4.05273Q85.2051-1.9043 83.9355-0.610352Q82.666 0.683594 80.5664 0.683594ZM61.0352-55.6152Q65.625-55.6152 69.6289-57.5928Q73.6328-59.5703 76.4404-63.0371Q79.248-66.5039 80.2246-70.9473L73.877-73.9258Q73.4375-70.6055 71.6064-67.9932Q69.7754-65.3809 67.0166-63.8672Q64.2578-62.3535 61.0352-62.3535Q57.8125-62.3535 55.0537-63.8672Q52.2949-65.3809 50.4639-67.9932Q48.6328-70.6055 48.1934-73.9258L41.8457-70.9473Q42.8223-66.5039 45.6299-63.0371Q48.4375-59.5703 52.4658-57.5928Q56.4941-55.6152 61.0352-55.6152Z"/>
  </g>
  <g id="Light-S" transform="matrix(1 0 0 1 1093.4 696)">
   <path d="M40.4376 6.11674L79.0443 6.11674Q83.8956 6.11674 86.6614 3.40729Q89.4272 0.697835 89.476-4.08605L89.9643-41.6107L99.4649-39.4389Q102.016-38.8461 103.663-39.9096Q105.31-40.9732 105.997-43.6371L109.457-56.9023Q110.782-62.1178 105.611-64.3285L79.0868-75.828Q77.7026-76.4361 76.6485-76.421Q75.5943-76.4058 74.4726-75.8466Q70.8656-74.1308 67.4102-73.2048Q63.9547-72.2788 59.7333-72.2788Q55.5611-72.2788 52.0887-73.2048Q48.6163-74.1308 45.0279-75.8466Q43.9061-76.4058 42.8595-76.421Q41.8129-76.4361 40.4137-75.828L13.856-64.3285Q8.68454-62.1178 10.0433-56.9023L13.4697-43.6371Q14.1569-40.9732 15.8038-39.9096Q17.4507-38.8461 20.0508-39.4389L29.5024-41.6107L29.9906-4.08605Q30.0733 0.697835 32.8392 3.40729Q35.6051 6.11674 40.4376 6.11674ZM40.505 0.9257Q38.0152 0.9257 36.6322-0.451406Q35.2491-1.82851 35.2153-4.34036L34.7084-46.3712Q34.7084-47.0698 34.2278-47.4715Q33.7471-47.8732 32.9623-47.6929L19.8926-44.8321Q18.6434-44.5274 18.3271-45.6601L15.1855-57.6787Q14.8204-59.0185 16.0927-59.5571L43.5865-71.4439Q47.4625-69.4384 51.398-68.3979Q55.3335-67.3574 59.7333-67.3574Q64.1485-67.3574 68.0932-68.3979Q72.038-69.4384 75.8804-71.4439L103.374-59.5571Q104.647-59.0185 104.281-57.6787L101.14-45.6601Q100.838-44.5274 99.6231-44.8321L86.5196-47.6929Q85.7534-47.8732 85.2634-47.4715Q84.7735-47.0698 84.7735-46.3712L84.2667-4.34036Q84.2514-1.82851 82.8683-0.451406Q81.4852 0.9257 78.9769 0.9257ZM59.7333-55.9784Q64.2324-55.9784 68.1227-57.9559Q72.0131-59.9335 74.6619-63.4003Q77.3107-66.8671 78.0602-71.2802L73.1051-73.3203Q72.7262-69.8336 70.8193-67.1001Q68.9125-64.3667 66.0024-62.7773Q63.0923-61.188 59.7333-61.188Q56.3746-61.188 53.472-62.7773Q50.5694-64.3667 48.6551-67.1001Q46.7407-69.8336 46.3618-73.3203L41.4068-71.2802Q42.1562-66.8671 44.8049-63.4003Q47.4536-59.9335 51.3683-57.9559Q55.2831-55.9784 59.7333-55.9784Z"/>
  </g>
  <g id="Thin-S" transform="matrix(1 0 0 1 798.41 696)">
   <path d="M39.1564 4.45517L76.9021 4.45517Q81.4534 4.45517 83.8087 2.16616Q86.1639-0.122858 86.2127-4.64674L86.701-42.5915L97.1428-40.2596Q99.1935-39.7868 100.5-40.6102Q101.807-41.4336 102.434-43.6169L106.014-56.0214Q107.219-60.2561 102.828-62.2263L76.4841-74.1463Q75.4003-74.6545 74.5665-74.6193Q73.7326-74.5842 72.8709-74.1248Q69.7244-72.5291 65.9287-71.5732Q62.133-70.6173 58.0116-70.6173Q53.9395-70.6173 50.1368-71.5732Q46.3341-72.5291 43.1662-74.1248Q42.3045-74.5842 41.4881-74.6193Q40.6717-74.6545 39.5529-74.1463L13.1954-62.2263Q8.80462-60.2561 10.0232-56.0214L13.5898-43.6169Q14.2171-41.4336 15.5236-40.6102Q16.8301-39.7868 18.9298-40.2596L29.3221-42.5915L29.8104-4.64674Q29.8732-0.122858 32.2287 2.16616Q34.5843 4.45517 39.1564 4.45517ZM39.1838 1.2459Q36.1135 1.2459 34.5803-0.241187Q33.047-1.72828 33.033-4.72077L32.5662-44.9299Q32.5662-45.6484 32.0956-46.0001Q31.6251-46.3519 30.9001-46.1914L18.6915-43.5509Q17.0818-43.1662 16.6053-44.6992L13.1836-56.5977Q12.6583-58.4177 14.451-59.2167L41.8849-71.5842Q45.7208-69.6386 49.8565-68.578Q53.9921-67.5175 58.0116-67.5175Q62.0665-67.5175 66.1913-68.578Q70.3162-69.6386 74.1388-71.5842L101.572-59.2167Q103.365-58.4177 102.84-56.5977L99.4178-44.6992Q98.9768-43.1662 97.381-43.5509L85.1584-46.1914Q84.412-46.3519 83.9522-46.0001Q83.4924-45.6484 83.4924-44.9299L83.0255-4.72077Q82.9901-1.72828 81.4568-0.241187Q79.9236 1.2459 76.8748 1.2459ZM58.0116-56.4587Q62.3905-56.4587 66.1307-58.4362Q69.8709-60.4138 72.3096-63.8806Q74.7484-67.3474 75.1975-71.7204L72.0843-72.5194Q71.7854-68.8128 69.7783-65.9191Q67.7713-63.0253 64.661-61.3359Q61.5508-59.6465 58.0116-59.6465Q54.4729-59.6465 51.3801-61.3359Q48.2873-63.0253 46.2628-65.9191Q44.2383-68.8128 43.9394-72.5194L40.8262-71.7204Q41.2753-67.3474 43.7138-63.8806Q46.1522-60.4138 49.9168-58.4362Q53.6814-56.4587 58.0116-56.4587Z"/>
  </g>
  <g id="Ultralight-S" transform="matrix(1 0 0 1 502.581 696)">
   <path d="M38.5002 3.60413L75.8049 3.60413Q80.2025 3.60413 82.3475 1.53046Q84.4925-0.543213 84.5413-4.93393L85.0296-43.0939L95.9534-40.6799Q97.7478-40.2687 98.88-40.9691Q100.012-41.6695 100.609-43.6066L104.25-55.5702Q105.394-59.3025 101.403-61.1496L75.1511-73.2849Q74.221-73.7419 73.5001-73.6965Q72.7791-73.6511 72.0505-73.243Q69.1399-71.7087 65.1699-70.7375Q61.2-69.7662 57.1297-69.7662Q53.109-69.7662 49.1371-70.7375Q45.1653-71.7087 42.2127-73.243Q41.4841-73.6511 40.7856-73.6965Q40.0871-73.7419 39.1121-73.2849L12.8571-61.1496Q8.86612-59.3025 10.0128-55.5702L13.6513-43.6066Q14.2479-41.6695 15.3801-40.9691Q16.5123-40.2687 18.3556-40.6799L29.2297-43.0939L29.718-4.93393Q29.7707-0.543213 31.916 1.53046Q34.0614 3.60413 38.5002 3.60413ZM38.5071 1.40991Q35.1395 1.40991 33.5293-0.133514Q31.9191-1.67694 31.9153-4.91562L31.469-44.1917Q31.469-44.9203 31.0036-45.2465Q30.5382-45.5727 29.8439-45.4224L18.0763-42.8947Q16.2819-42.469 15.7234-44.207L12.1582-56.044Q11.5509-58.11 13.6101-59.0424L41.0133-71.656Q44.8288-69.7411 49.0669-68.6703Q53.3051-67.5995 57.1297-67.5995Q61.0001-67.5995 65.2172-68.6703Q69.4344-69.7411 73.2468-71.656L100.649-59.0424Q102.709-58.11 102.102-56.044L98.5359-44.207Q98.0232-42.469 96.2326-42.8947L84.4612-45.4224Q83.725-45.5727 83.2806-45.2465Q82.8362-44.9203 82.8362-44.1917L82.3898-4.91562Q82.3441-1.67694 80.7339-0.133514Q79.1237 1.40991 75.798 1.40991ZM57.1297-56.7047Q61.4471-56.7047 65.1104-58.6823Q68.7737-60.6598 71.1048-64.1266Q73.436-67.5934 73.7312-71.946L71.5614-72.1092Q71.3036-68.2899 69.2451-65.3141Q67.1867-62.3383 63.974-60.5976Q60.7613-58.857 57.1297-58.857Q53.4988-58.857 50.3086-60.5976Q47.1184-62.3383 45.0375-65.3141Q42.9565-68.2899 42.6987-72.1092L40.5289-71.946Q40.8241-67.5934 43.1549-64.1266Q45.4857-60.6598 49.1734-58.6823Q52.861-56.7047 57.1297-56.7047Z"/>
  </g>
 </g>
</svg>
