<?xml version="1.0" encoding="UTF-8"?>
<!--Generator: Apple Native CoreSVG 175.5-->
<!DOCTYPE svg
PUBLIC "-//W3C//DTD SVG 1.1//EN"
       "http://www.w3.org/Graphics/SVG/1.1/DTD/svg11.dtd">
<svg version="1.1" xmlns="http://www.w3.org/2000/svg" xmlns:xlink="http://www.w3.org/1999/xlink" width="3300" height="2200">
 <!--glyph: "uni101306.medium", point size: 100.0, font version: "18.0d9e1", template writer version: "84"-->
 <style>.template-0 {fill:#000000}

.SFSymbolsPreview000000 {fill:#000000;opacity:1.0}
</style>
 <g id="Notes">
  <rect height="2200" id="artboard" style="fill:white;opacity:1" width="3300" x="0" y="0"/>
  <line style="fill:none;stroke:black;opacity:1;stroke-width:0.5;" x1="263" x2="3036" y1="292" y2="292"/>
  <text style="stroke:none;fill:black;font-family:sans-serif;font-size:13;font-weight:bold;" transform="matrix(1 0 0 1 263 322)">Weight/Scale Variations</text>
  <text style="stroke:none;fill:black;font-family:sans-serif;font-size:13;text-anchor:middle;" transform="matrix(1 0 0 1 559.711 322)">Ultralight</text>
  <text style="stroke:none;fill:black;font-family:sans-serif;font-size:13;text-anchor:middle;" transform="matrix(1 0 0 1 856.422 322)">Thin</text>
  <text style="stroke:none;fill:black;font-family:sans-serif;font-size:13;text-anchor:middle;" transform="matrix(1 0 0 1 1153.13 322)">Light</text>
  <text style="stroke:none;fill:black;font-family:sans-serif;font-size:13;text-anchor:middle;" transform="matrix(1 0 0 1 1449.84 322)">Regular</text>
  <text style="stroke:none;fill:black;font-family:sans-serif;font-size:13;text-anchor:middle;" transform="matrix(1 0 0 1 1746.56 322)">Medium</text>
  <text style="stroke:none;fill:black;font-family:sans-serif;font-size:13;text-anchor:middle;" transform="matrix(1 0 0 1 2043.27 322)">Semibold</text>
  <text style="stroke:none;fill:black;font-family:sans-serif;font-size:13;text-anchor:middle;" transform="matrix(1 0 0 1 2339.98 322)">Bold</text>
  <text style="stroke:none;fill:black;font-family:sans-serif;font-size:13;text-anchor:middle;" transform="matrix(1 0 0 1 2636.69 322)">Heavy</text>
  <text style="stroke:none;fill:black;font-family:sans-serif;font-size:13;text-anchor:middle;" transform="matrix(1 0 0 1 2933.4 322)">Black</text>
  <line style="fill:none;stroke:black;opacity:1;stroke-width:0.5;" x1="263" x2="3036" y1="1903" y2="1903"/>
  <g transform="matrix(1 0 0 1 263 1933)">
   <path d="M9.24805 0.830078Q10.8691 0.830078 12.2949 0.214844Q13.7207-0.400391 14.8096-1.49414Q15.8984-2.58789 16.5186-4.01367Q17.1387-5.43945 17.1387-7.05078Q17.1387-8.66211 16.5186-10.0879Q15.8984-11.5137 14.8047-12.6074Q13.7109-13.7012 12.2852-14.3164Q10.8594-14.9316 9.23828-14.9316Q7.62695-14.9316 6.20117-14.3164Q4.77539-13.7012 3.69141-12.6074Q2.60742-11.5137 1.9873-10.0879Q1.36719-8.66211 1.36719-7.05078Q1.36719-5.43945 1.9873-4.01367Q2.60742-2.58789 3.69629-1.49414Q4.78516-0.400391 6.21094 0.214844Q7.63672 0.830078 9.24805 0.830078ZM9.24805-0.654297Q7.91992-0.654297 6.7627-1.14746Q5.60547-1.64062 4.73145-2.51953Q3.85742-3.39844 3.36426-4.56055Q2.87109-5.72266 2.87109-7.05078Q2.87109-8.37891 3.35938-9.54102Q3.84766-10.7031 4.72168-11.582Q5.5957-12.4609 6.75293-12.9541Q7.91016-13.4473 9.23828-13.4473Q10.5762-13.4473 11.7383-12.9541Q12.9004-12.4609 13.7793-11.582Q14.6582-10.7031 15.1514-9.54102Q15.6445-8.37891 15.6445-7.05078Q15.6445-5.72266 15.1514-4.56055Q14.6582-3.39844 13.7793-2.51953Q12.9004-1.64062 11.7432-1.14746Q10.5859-0.654297 9.24805-0.654297ZM5.6543-7.05078Q5.6543-6.72852 5.85938-6.52832Q6.06445-6.32812 6.40625-6.32812L8.51562-6.32812L8.51562-4.20898Q8.51562-3.88672 8.71094-3.67676Q8.90625-3.4668 9.23828-3.4668Q9.56055-3.4668 9.77051-3.67676Q9.98047-3.88672 9.98047-4.20898L9.98047-6.32812L12.0898-6.32812Q12.4219-6.32812 12.627-6.52832Q12.832-6.72852 12.832-7.05078Q12.832-7.38281 12.627-7.58789Q12.4219-7.79297 12.0898-7.79297L9.98047-7.79297L9.98047-9.90234Q9.98047-10.2344 9.77051-10.4443Q9.56055-10.6543 9.23828-10.6543Q8.90625-10.6543 8.71094-10.4443Q8.51562-10.2344 8.51562-9.90234L8.51562-7.79297L6.40625-7.79297Q6.06445-7.79297 5.85938-7.58789Q5.6543-7.38281 5.6543-7.05078Z"/>
  </g>
  <g transform="matrix(1 0 0 1 281.867 1933)">
   <path d="M11.709 2.91016Q13.75 2.91016 15.5518 2.12891Q17.3535 1.34766 18.7305-0.0292969Q20.1074-1.40625 20.8887-3.20801Q21.6699-5.00977 21.6699-7.05078Q21.6699-9.0918 20.8887-10.8936Q20.1074-12.6953 18.7305-14.0723Q17.3535-15.4492 15.5469-16.2305Q13.7402-17.0117 11.6992-17.0117Q9.6582-17.0117 7.85645-16.2305Q6.05469-15.4492 4.68262-14.0723Q3.31055-12.6953 2.5293-10.8936Q1.74805-9.0918 1.74805-7.05078Q1.74805-5.00977 2.5293-3.20801Q3.31055-1.40625 4.6875-0.0292969Q6.06445 1.34766 7.86621 2.12891Q9.66797 2.91016 11.709 2.91016ZM11.709 1.25Q9.98047 1.25 8.47656 0.605469Q6.97266-0.0390625 5.83496-1.17676Q4.69727-2.31445 4.05762-3.81836Q3.41797-5.32227 3.41797-7.05078Q3.41797-8.7793 4.05762-10.2832Q4.69727-11.7871 5.83008-12.9297Q6.96289-14.0723 8.4668-14.7119Q9.9707-15.3516 11.6992-15.3516Q13.4277-15.3516 14.9365-14.7119Q16.4453-14.0723 17.583-12.9297Q18.7207-11.7871 19.3652-10.2832Q20.0098-8.7793 20.0098-7.05078Q20.0098-5.32227 19.3701-3.81836Q18.7305-2.31445 17.5879-1.17676Q16.4453-0.0390625 14.9414 0.605469Q13.4375 1.25 11.709 1.25ZM7.17773-7.05078Q7.17773-6.69922 7.41211-6.47461Q7.64648-6.25 8.01758-6.25L10.8887-6.25L10.8887-3.36914Q10.8887-2.99805 11.1133-2.76855Q11.3379-2.53906 11.6895-2.53906Q12.0605-2.53906 12.29-2.76855Q12.5195-2.99805 12.5195-3.36914L12.5195-6.25L15.4004-6.25Q15.7715-6.25 16.001-6.47461Q16.2305-6.69922 16.2305-7.05078Q16.2305-7.42188 16.001-7.65137Q15.7715-7.88086 15.4004-7.88086L12.5195-7.88086L12.5195-10.752Q12.5195-11.1328 12.29-11.3623Q12.0605-11.5918 11.6895-11.5918Q11.3379-11.5918 11.1133-11.3574Q10.8887-11.123 10.8887-10.752L10.8887-7.88086L8.01758-7.88086Q7.63672-7.88086 7.40723-7.65137Q7.17773-7.42188 7.17773-7.05078Z"/>
  </g>
  <g transform="matrix(1 0 0 1 305.646 1933)">
   <path d="M14.9707 5.66406Q17.0605 5.66406 18.96 5.01465Q20.8594 4.36523 22.4512 3.19336Q24.043 2.02148 25.2197 0.429688Q26.3965-1.16211 27.0459-3.06641Q27.6953-4.9707 27.6953-7.05078Q27.6953-9.14062 27.0459-11.04Q26.3965-12.9395 25.2197-14.5312Q24.043-16.123 22.4512-17.2998Q20.8594-18.4766 18.9551-19.126Q17.0508-19.7754 14.9609-19.7754Q12.8711-19.7754 10.9717-19.126Q9.07227-18.4766 7.48535-17.2998Q5.89844-16.123 4.72168-14.5312Q3.54492-12.9395 2.90039-11.04Q2.25586-9.14062 2.25586-7.05078Q2.25586-4.9707 2.90527-3.06641Q3.55469-1.16211 4.72656 0.429688Q5.89844 2.02148 7.49023 3.19336Q9.08203 4.36523 10.9814 5.01465Q12.8809 5.66406 14.9707 5.66406ZM14.9707 3.84766Q13.1641 3.84766 11.5283 3.2959Q9.89258 2.74414 8.53516 1.74805Q7.17773 0.751953 6.17676-0.610352Q5.17578-1.97266 4.62891-3.6084Q4.08203-5.24414 4.08203-7.05078Q4.08203-8.86719 4.62891-10.5029Q5.17578-12.1387 6.17188-13.501Q7.16797-14.8633 8.52539-15.8594Q9.88281-16.8555 11.5186-17.4023Q13.1543-17.9492 14.9609-17.9492Q16.7773-17.9492 18.4131-17.4023Q20.0488-16.8555 21.4111-15.8594Q22.7734-14.8633 23.7744-13.501Q24.7754-12.1387 25.3223-10.5029Q25.8691-8.86719 25.8691-7.05078Q25.8691-5.24414 25.3223-3.6084Q24.7754-1.97266 23.7793-0.610352Q22.7832 0.751953 21.4209 1.74805Q20.0586 2.74414 18.4229 3.2959Q16.7871 3.84766 14.9707 3.84766ZM9.19922-7.05078Q9.19922-6.66992 9.45801-6.4209Q9.7168-6.17188 10.1172-6.17188L14.0625-6.17188L14.0625-2.2168Q14.0625-1.81641 14.3115-1.55762Q14.5605-1.29883 14.9512-1.29883Q15.3516-1.29883 15.6104-1.55273Q15.8691-1.80664 15.8691-2.2168L15.8691-6.17188L19.8242-6.17188Q20.2246-6.17188 20.4785-6.4209Q20.7324-6.66992 20.7324-7.05078Q20.7324-7.46094 20.4785-7.71484Q20.2246-7.96875 19.8242-7.96875L15.8691-7.96875L15.8691-11.9141Q15.8691-12.3242 15.6104-12.583Q15.3516-12.8418 14.9512-12.8418Q14.5605-12.8418 14.3115-12.583Q14.0625-12.3242 14.0625-11.9141L14.0625-7.96875L10.1172-7.96875Q9.70703-7.96875 9.45312-7.71484Q9.19922-7.46094 9.19922-7.05078Z"/>
  </g>
  <text style="stroke:none;fill:black;font-family:sans-serif;font-size:13;font-weight:bold;" transform="matrix(1 0 0 1 263 1953)">Design Variations</text>
  <text style="stroke:none;fill:black;font-family:sans-serif;font-size:13;" transform="matrix(1 0 0 1 263 1971)">Symbols are supported in up to nine weights and three scales.</text>
  <text style="stroke:none;fill:black;font-family:sans-serif;font-size:13;" transform="matrix(1 0 0 1 263 1989)">For optimal layout with text and other symbols, vertically align</text>
  <text style="stroke:none;fill:black;font-family:sans-serif;font-size:13;" transform="matrix(1 0 0 1 263 2007)">symbols with the adjacent text.</text>
  <line style="fill:none;stroke:#00AEEF;stroke-width:0.5;opacity:1.0;" x1="776" x2="776" y1="1919" y2="1933"/>
  <g transform="matrix(1 0 0 1 776 1933)">
   <path d="M3.31055 0.15625Q3.70117 0.15625 3.91602-0.00976562Q4.13086-0.175781 4.26758-0.585938L5.52734-4.0332L11.2891-4.0332L12.5488-0.585938Q12.6855-0.175781 12.9004-0.00976562Q13.1152 0.15625 13.4961 0.15625Q13.8867 0.15625 14.1162-0.0585938Q14.3457-0.273438 14.3457-0.644531Q14.3457-0.869141 14.2383-1.17188L9.6582-13.3691Q9.48242-13.8184 9.17969-14.043Q8.87695-14.2676 8.4082-14.2676Q7.5-14.2676 7.17773-13.3789L2.59766-1.16211Q2.49023-0.859375 2.49023-0.634766Q2.49023-0.263672 2.70996-0.0537109Q2.92969 0.15625 3.31055 0.15625ZM6.00586-5.51758L8.37891-12.0898L8.42773-12.0898L10.8008-5.51758Z"/>
  </g>
  <line style="fill:none;stroke:#00AEEF;stroke-width:0.5;opacity:1.0;" x1="793.197" x2="793.197" y1="1919" y2="1933"/>
  <text style="stroke:none;fill:black;font-family:sans-serif;font-size:13;font-weight:bold;" transform="matrix(1 0 0 1 776 1953)">Margins</text>
  <text style="stroke:none;fill:black;font-family:sans-serif;font-size:13;" transform="matrix(1 0 0 1 776 1971)">Leading and trailing margins on the left and right side of each symbol</text>
  <text style="stroke:none;fill:black;font-family:sans-serif;font-size:13;" transform="matrix(1 0 0 1 776 1989)">can be adjusted by modifying the x-location of the margin guidelines.</text>
  <text style="stroke:none;fill:black;font-family:sans-serif;font-size:13;" transform="matrix(1 0 0 1 776 2007)">Modifications are automatically applied proportionally to all</text>
  <text style="stroke:none;fill:black;font-family:sans-serif;font-size:13;" transform="matrix(1 0 0 1 776 2025)">scales and weights.</text>
  <g transform="matrix(1 0 0 1 1289 1933)">
   <path d="M2.8418 1.86523L4.54102 3.57422Q5.18555 4.22852 5.90332 4.17969Q6.62109 4.13086 7.31445 3.35938L18.0078-8.42773L17.041-9.4043L6.42578 2.27539Q6.16211 2.57812 5.89355 2.61719Q5.625 2.65625 5.27344 2.30469L4.10156 1.14258Q3.75 0.791016 3.79395 0.522461Q3.83789 0.253906 4.14062-0.0195312L15.6152-10.8203L14.6387-11.7871L3.04688-0.898438Q2.30469-0.214844 2.25098 0.498047Q2.19727 1.21094 2.8418 1.86523ZM9.25781-16.3281Q8.94531-16.0254 8.90625-15.6348Q8.86719-15.2441 9.04297-14.9512Q9.21875-14.6777 9.55566-14.541Q9.89258-14.4043 10.3809-14.5215Q11.4746-14.7754 12.5977-14.7314Q13.7207-14.6875 14.7949-13.9844L14.209-12.5293Q13.9551-11.9043 14.0674-11.4404Q14.1797-10.9766 14.5801-10.5664L16.875-8.25195Q17.2363-7.88086 17.5781-7.82227Q17.9199-7.76367 18.3398-7.8418L19.4043-8.03711L20.0684-7.36328L20.0293-6.80664Q20-6.43555 20.1221-6.12305Q20.2441-5.81055 20.6055-5.44922L21.3672-4.70703Q21.7285-4.3457 22.1533-4.33105Q22.5781-4.31641 22.9297-4.66797L25.8398-7.58789Q26.1914-7.93945 26.1816-8.35449Q26.1719-8.76953 25.8105-9.13086L25.0391-9.89258Q24.6875-10.2539 24.3799-10.3857Q24.0723-10.5176 23.7109-10.4883L23.1348-10.4395L22.4902-11.0742L22.7344-12.1973Q22.832-12.6172 22.6953-12.9834Q22.5586-13.3496 22.1191-13.7891L19.9219-15.9766Q18.6719-17.2168 17.2607-17.8369Q15.8496-18.457 14.4189-18.4814Q12.9883-18.5059 11.665-17.959Q10.3418-17.4121 9.25781-16.3281ZM10.752-15.957Q11.6602-16.6211 12.7002-16.9043Q13.7402-17.1875 14.8047-17.085Q15.8691-16.9824 16.8701-16.5137Q17.8711-16.0449 18.7012-15.2051L21.1328-12.793Q21.3086-12.6172 21.3525-12.4512Q21.3965-12.2852 21.3379-12.0312L21.0156-10.5469L22.5195-9.0625L23.5059-9.12109Q23.6914-9.13086 23.7891-9.09668Q23.8867-9.0625 24.0332-8.91602L24.6094-8.33984L22.168-5.89844L21.5918-6.47461Q21.4453-6.62109 21.4062-6.71875Q21.3672-6.81641 21.377-7.01172L21.4453-7.98828L19.9512-9.47266L18.4277-9.21875Q18.1836-9.16992 18.042-9.2041Q17.9004-9.23828 17.7148-9.41406L15.7129-11.416Q15.5176-11.5918 15.4932-11.7529Q15.4688-11.9141 15.5859-12.1875L16.4648-14.2773Q15.293-15.3711 13.8281-15.791Q12.3633-16.2109 10.8398-15.7617Q10.7227-15.7324 10.6885-15.8057Q10.6543-15.8789 10.752-15.957Z"/>
  </g>
  <text style="stroke:none;fill:black;font-family:sans-serif;font-size:13;font-weight:bold;" transform="matrix(1 0 0 1 1289 1953)">Exporting</text>
  <text style="stroke:none;fill:black;font-family:sans-serif;font-size:13;" transform="matrix(1 0 0 1 1289 1971)">Symbols should be outlined when exporting to ensure the</text>
  <text style="stroke:none;fill:black;font-family:sans-serif;font-size:13;" transform="matrix(1 0 0 1 1289 1989)">design is preserved when submitting to Xcode.</text>
  <text id="template-version" style="stroke:none;fill:black;font-family:sans-serif;font-size:13;text-anchor:end;" transform="matrix(1 0 0 1 3036 1933)">Template v.4.0</text>
  <text style="stroke:none;fill:black;font-family:sans-serif;font-size:13;text-anchor:end;" transform="matrix(1 0 0 1 3036 1951)">Requires Xcode 14 or greater</text>
  <text id="descriptive-name" style="stroke:none;fill:black;font-family:sans-serif;font-size:13;text-anchor:end;" transform="matrix(1 0 0 1 3036 1969)">Generated from figure.pool.swim</text>
  <text style="stroke:none;fill:black;font-family:sans-serif;font-size:13;text-anchor:end;" transform="matrix(1 0 0 1 3036 1987)">Typeset at 100 points</text>
  <text style="stroke:none;fill:black;font-family:sans-serif;font-size:13;" transform="matrix(1 0 0 1 263 726)">Small</text>
  <text style="stroke:none;fill:black;font-family:sans-serif;font-size:13;" transform="matrix(1 0 0 1 263 1156)">Medium</text>
  <text style="stroke:none;fill:black;font-family:sans-serif;font-size:13;" transform="matrix(1 0 0 1 263 1586)">Large</text>
 </g>
 <g id="Guides">
  <g id="H-reference" style="fill:#27AAE1;stroke:none;" transform="matrix(1 0 0 1 339 696)">
   <path d="M0.993347 0L3.6377 0L29.3282-67.1326L30.0301-67.1326L30.0301-70.459L28.1227-70.459ZM11.6882-24.4797L46.9818-24.4797L46.2311-26.7288L12.4382-26.7288ZM55.1193 0L57.7637 0L30.6381-70.459L29.4327-70.459L29.4327-67.1326Z"/>
  </g>
  <line id="Baseline-S" style="fill:none;stroke:#27AAE1;opacity:1;stroke-width:0.5;" x1="263" x2="3036" y1="696" y2="696"/>
  <line id="Capline-S" style="fill:none;stroke:#27AAE1;opacity:1;stroke-width:0.5;" x1="263" x2="3036" y1="625.541" y2="625.541"/>
  <g id="H-reference" style="fill:#27AAE1;stroke:none;" transform="matrix(1 0 0 1 339 1126)">
   <path d="M0.993347 0L3.6377 0L29.3282-67.1326L30.0301-67.1326L30.0301-70.459L28.1227-70.459ZM11.6882-24.4797L46.9818-24.4797L46.2311-26.7288L12.4382-26.7288ZM55.1193 0L57.7637 0L30.6381-70.459L29.4327-70.459L29.4327-67.1326Z"/>
  </g>
  <line id="Baseline-M" style="fill:none;stroke:#27AAE1;opacity:1;stroke-width:0.5;" x1="263" x2="3036" y1="1126" y2="1126"/>
  <line id="Capline-M" style="fill:none;stroke:#27AAE1;opacity:1;stroke-width:0.5;" x1="263" x2="3036" y1="1055.54" y2="1055.54"/>
  <g id="H-reference" style="fill:#27AAE1;stroke:none;" transform="matrix(1 0 0 1 339 1556)">
   <path d="M0.993347 0L3.6377 0L29.3282-67.1326L30.0301-67.1326L30.0301-70.459L28.1227-70.459ZM11.6882-24.4797L46.9818-24.4797L46.2311-26.7288L12.4382-26.7288ZM55.1193 0L57.7637 0L30.6381-70.459L29.4327-70.459L29.4327-67.1326Z"/>
  </g>
  <line id="Baseline-L" style="fill:none;stroke:#27AAE1;opacity:1;stroke-width:0.5;" x1="263" x2="3036" y1="1556" y2="1556"/>
  <line id="Capline-L" style="fill:none;stroke:#27AAE1;opacity:1;stroke-width:0.5;" x1="263" x2="3036" y1="1485.54" y2="1485.54"/>
  <line id="left-margin-Ultralight-S" style="fill:none;stroke:#00AEEF;stroke-width:0.5;opacity:1.0;" x1="506.469" x2="506.469" y1="600.785" y2="720.121"/>
  <line id="right-margin-Ultralight-S" style="fill:none;stroke:#00AEEF;stroke-width:0.5;opacity:1.0;" x1="612.953" x2="612.953" y1="600.785" y2="720.121"/>
  <line id="left-margin-Regular-S" style="fill:none;stroke:#00AEEF;stroke-width:0.5;opacity:1.0;" x1="1394.4" x2="1394.4" y1="600.785" y2="720.121"/>
  <line id="right-margin-Regular-S" style="fill:none;stroke:#00AEEF;stroke-width:0.5;opacity:1.0;" x1="1505.29" x2="1505.29" y1="600.785" y2="720.121"/>
  <line id="left-margin-Black-S" style="fill:none;stroke:#00AEEF;stroke-width:0.5;opacity:1.0;" x1="2874.61" x2="2874.61" y1="600.785" y2="720.121"/>
  <line id="right-margin-Black-S" style="fill:none;stroke:#00AEEF;stroke-width:0.5;opacity:1.0;" x1="2992.19" x2="2992.19" y1="600.785" y2="720.121"/>
 </g>
 <g id="Symbols">
  <g id="Black-S" transform="matrix(1 0 0 1 2874.61 696)">
   <path class="template-0 SFSymbolsPreview000000" d="M58.7891-28.2227Q61.5723-28.2227 64.0137-29.6387Q66.4551-31.0547 69.4336-32.6416Q72.4121-34.2285 76.8555-34.668L46.875-65.8691Q45.3125-67.5293 43.1152-67.7246Q40.918-67.9199 38.916-66.5039L22.9492-55.1758Q20.5078-53.4668 20.5078-51.123Q20.5078-48.7793 21.9238-47.2168Q23.1445-45.8496 25.1221-45.5078Q27.0996-45.166 29.1992-46.6309L41.4551-55.2734L47.7051-48.8281Q48.3398-48.1934 48.2666-47.5586Q48.1934-46.9238 47.4609-46.4355L26.709-32.9102Q28.6621-33.7402 31.4697-34.2529Q34.2773-34.7656 38.3789-34.7656Q42.3828-34.7656 45.2393-33.7891Q48.0957-32.8125 50.3174-31.4941Q52.5391-30.1758 54.541-29.1992Q56.543-28.2227 58.7891-28.2227ZM13.2812-15.332L17.9688-15.332Q22.3633-15.332 25.1953-16.3086Q28.0273-17.2852 30.0537-18.6035Q32.0801-19.9219 33.9844-20.8984Q35.8887-21.875 38.3789-21.875Q40.332-21.875 42.1387-20.8984Q43.9453-19.9219 46.1426-18.6035Q48.3398-17.2852 51.3672-16.3086Q54.3945-15.332 58.7891-15.332Q63.1836-15.332 66.2109-16.3086Q69.2383-17.2852 71.4355-18.6035Q73.6328-19.9219 75.4395-20.8984Q77.2461-21.875 79.1992-21.875Q81.6895-21.875 83.5938-20.8984Q85.498-19.9219 87.5244-18.6035Q89.5508-17.2852 92.3828-16.3086Q95.2148-15.332 99.6094-15.332L104.297-15.332Q105.762-15.332 106.787-16.3574Q107.812-17.3828 107.812-18.8477Q107.812-20.3125 106.787-21.3379Q105.762-22.3633 104.297-22.3633L99.6094-22.3633Q97.0215-22.3633 95.0684-23.3398Q93.1152-24.3164 91.04-25.6348Q88.9648-26.9531 86.1816-27.9297Q83.3984-28.9062 79.1992-28.9062Q75.5371-28.9062 72.8271-27.9297Q70.1172-26.9531 67.8955-25.6348Q65.6738-24.3164 63.5254-23.3398Q61.377-22.3633 58.7891-22.3633Q56.2012-22.3633 54.0527-23.3398Q51.9043-24.3164 49.6826-25.6348Q47.4609-26.9531 44.751-27.9297Q42.041-28.9062 38.3789-28.9062Q34.1797-28.9062 31.3965-27.9297Q28.6133-26.9531 26.5381-25.6348Q24.4629-24.3164 22.5098-23.3398Q20.5566-22.3633 17.9688-22.3633L13.2812-22.3633Q11.8164-22.3633 10.791-21.3379Q9.76562-20.3125 9.76562-18.8477Q9.76562-17.3828 10.791-16.3574Q11.8164-15.332 13.2812-15.332ZM76.8066-46.1426Q80.8594-46.1426 83.7158-49.0234Q86.5723-51.9043 86.5723-55.9082Q86.5723-59.9609 83.7158-62.8174Q80.8594-65.6738 76.8066-65.6738Q72.8027-65.6738 69.9219-62.8174Q67.041-59.9609 67.041-55.9082Q67.041-51.9043 69.9219-49.0234Q72.8027-46.1426 76.8066-46.1426ZM81.3965-8.98438Q82.6172-8.98438 83.4717-9.83887Q84.3262-10.6934 84.3262-11.9141Q84.3262-13.1348 83.4717-13.9893Q82.6172-14.8438 81.3965-14.8438Q80.1758-14.8438 79.3213-13.9893Q78.4668-13.1348 78.4668-11.9141Q78.4668-10.6934 79.3213-9.83887Q80.1758-8.98438 81.3965-8.98438ZM36.1816-8.98438Q37.4023-8.98438 38.2568-9.83887Q39.1113-10.6934 39.1113-11.9141Q39.1113-13.1348 38.2568-13.9893Q37.4023-14.8438 36.1816-14.8438Q34.9609-14.8438 34.1064-13.9893Q33.252-13.1348 33.252-11.9141Q33.252-10.6934 34.1064-9.83887Q34.9609-8.98438 36.1816-8.98438ZM103.955-1.9043Q105.176-1.9043 106.03-2.75879Q106.885-3.61328 106.885-4.83398Q106.885-6.05469 106.03-6.90918Q105.176-7.76367 103.955-7.76367Q102.734-7.76367 101.88-6.90918Q101.025-6.05469 101.025-4.83398Q101.025-3.61328 101.88-2.75879Q102.734-1.9043 103.955-1.9043ZM58.7891-1.9043Q60.0098-1.9043 60.8643-2.75879Q61.7188-3.61328 61.7188-4.83398Q61.7188-6.05469 60.8643-6.90918Q60.0098-7.76367 58.7891-7.76367Q57.5684-7.76367 56.7139-6.90918Q55.8594-6.05469 55.8594-4.83398Q55.8594-3.61328 56.7139-2.75879Q57.5684-1.9043 58.7891-1.9043ZM13.623-1.9043Q14.8438-1.9043 15.6982-2.75879Q16.5527-3.61328 16.5527-4.83398Q16.5527-6.05469 15.6982-6.90918Q14.8438-7.76367 13.623-7.76367Q12.4023-7.76367 11.5479-6.90918Q10.6934-6.05469 10.6934-4.83398Q10.6934-3.61328 11.5479-2.75879Q12.4023-1.9043 13.623-1.9043ZM43.75-6.64062Q44.9707-6.64062 45.8252-7.49512Q46.6797-8.34961 46.6797-9.57031Q46.6797-10.791 45.8252-11.6455Q44.9707-12.5 43.75-12.5Q42.5293-12.5 41.6748-11.6455Q40.8203-10.791 40.8203-9.57031Q40.8203-8.34961 41.6748-7.49512Q42.5293-6.64062 43.75-6.64062ZM28.5645-6.64062Q29.7852-6.64062 30.6396-7.49512Q31.4941-8.34961 31.4941-9.57031Q31.4941-10.791 30.6396-11.6455Q29.7852-12.5 28.5645-12.5Q27.3438-12.5 26.4893-11.6455Q25.6348-10.791 25.6348-9.57031Q25.6348-8.34961 26.4893-7.49512Q27.3438-6.64062 28.5645-6.64062ZM50.8789-3.27148Q52.0996-3.27148 52.9541-4.12598Q53.8086-4.98047 53.8086-6.20117Q53.8086-7.42188 52.9541-8.27637Q52.0996-9.13086 50.8789-9.13086Q49.6582-9.13086 48.8037-8.27637Q47.9492-7.42188 47.9492-6.20117Q47.9492-4.98047 48.8037-4.12598Q49.6582-3.27148 50.8789-3.27148ZM73.8281-6.64062Q75.0488-6.64062 75.9033-7.49512Q76.7578-8.34961 76.7578-9.57031Q76.7578-10.791 75.9033-11.6455Q75.0488-12.5 73.8281-12.5Q72.6074-12.5 71.7529-11.6455Q70.8984-10.791 70.8984-9.57031Q70.8984-8.34961 71.7529-7.49512Q72.6074-6.64062 73.8281-6.64062ZM21.4355-3.27148Q22.6562-3.27148 23.5107-4.12598Q24.3652-4.98047 24.3652-6.20117Q24.3652-7.42188 23.5107-8.27637Q22.6562-9.13086 21.4355-9.13086Q20.2148-9.13086 19.3604-8.27637Q18.5059-7.42188 18.5059-6.20117Q18.5059-4.98047 19.3604-4.12598Q20.2148-3.27148 21.4355-3.27148ZM66.6992-3.27148Q67.9199-3.27148 68.7744-4.12598Q69.6289-4.98047 69.6289-6.20117Q69.6289-7.42188 68.7744-8.27637Q67.9199-9.13086 66.6992-9.13086Q65.4785-9.13086 64.624-8.27637Q63.7695-7.42188 63.7695-6.20117Q63.7695-4.98047 64.624-4.12598Q65.4785-3.27148 66.6992-3.27148ZM96.1426-3.27148Q97.3633-3.27148 98.2178-4.12598Q99.0723-4.98047 99.0723-6.20117Q99.0723-7.42188 98.2178-8.27637Q97.3633-9.13086 96.1426-9.13086Q94.9219-9.13086 94.0674-8.27637Q93.2129-7.42188 93.2129-6.20117Q93.2129-4.98047 94.0674-4.12598Q94.9219-3.27148 96.1426-3.27148ZM89.0137-6.64062Q90.2344-6.64062 91.0889-7.49512Q91.9434-8.34961 91.9434-9.57031Q91.9434-10.791 91.0889-11.6455Q90.2344-12.5 89.0137-12.5Q87.793-12.5 86.9385-11.6455Q86.084-10.791 86.084-9.57031Q86.084-8.34961 86.9385-7.49512Q87.793-6.64062 89.0137-6.64062Z"/>
  </g>
  <g id="Regular-S" transform="matrix(1 0 0 1 1394.4 696)">
   <path class="template-0 SFSymbolsPreview000000" d="M55.4199-27.6855Q59.0332-27.6855 61.2549-28.8574Q63.4766-30.0293 65.5273-31.4209Q67.5781-32.8125 70.7031-33.5449L43.4082-61.9629Q42.0898-63.3301 40.3076-63.4766Q38.5254-63.623 36.9629-62.5L21.7285-51.6602Q19.7754-50.293 19.751-48.4619Q19.7266-46.6309 20.8496-45.4102Q21.8262-44.3359 23.3887-44.0674Q24.9512-43.7988 26.5625-44.9707L38.9648-53.7109L45.9473-46.5332Q46.5332-45.8984 46.6064-45.0928Q46.6797-44.2871 45.752-43.6523L30.4688-33.5938Q31.6895-33.7891 33.1055-33.8623Q34.5215-33.9355 36.1328-33.9355Q39.6484-33.8867 41.9434-32.9346Q44.2383-31.9824 46.0938-30.7617Q47.9492-29.541 50.0977-28.6133Q52.2461-27.6855 55.4199-27.6855ZM12.1094-17.0898L16.1621-17.0898Q20.0684-17.0898 22.6807-18.042Q25.293-18.9941 27.2949-20.2393Q29.2969-21.4844 31.25-22.4365Q33.2031-23.3887 35.791-23.3887Q38.4277-23.3887 40.3809-22.4365Q42.334-21.4844 44.3115-20.2393Q46.2891-18.9941 48.9014-18.042Q51.5137-17.0898 55.4199-17.0898Q59.3262-17.0898 61.9385-18.042Q64.5508-18.9941 66.5527-20.2393Q68.5547-21.4844 70.5078-22.4365Q72.4609-23.3887 75.0488-23.3887Q77.6855-23.3887 79.6387-22.4365Q81.5918-21.4844 83.5693-20.2393Q85.5469-18.9941 88.1592-18.042Q90.7715-17.0898 94.6777-17.0898L98.7305-17.0898Q99.7559-17.0898 100.439-17.7734Q101.123-18.457 101.123-19.4336Q101.123-20.459 100.439-21.1426Q99.7559-21.8262 98.7305-21.8262L94.6777-21.8262Q91.9922-21.8262 89.9658-22.7783Q87.9395-23.7305 85.9375-24.9756Q83.9355-26.2207 81.3721-27.1729Q78.8086-28.125 75.0488-28.125Q71.3379-28.125 68.7744-27.1729Q66.2109-26.2207 64.209-24.9756Q62.207-23.7305 60.1807-22.7783Q58.1543-21.8262 55.4199-21.8262Q52.7344-21.8262 50.708-22.7783Q48.6816-23.7305 46.6797-24.9756Q44.6777-26.2207 42.1143-27.1729Q39.5508-28.125 35.791-28.125Q32.0801-28.125 29.5166-27.1729Q26.9531-26.2207 24.9512-24.9756Q22.9492-23.7305 20.9229-22.7783Q18.8965-21.8262 16.1621-21.8262L12.1094-21.8262Q11.1328-21.8262 10.4492-21.1426Q9.76562-20.459 9.76562-19.4336Q9.76562-18.457 10.4492-17.7734Q11.1328-17.0898 12.1094-17.0898ZM70.8496-43.7988Q74.4141-43.7988 76.8799-46.2891Q79.3457-48.7793 79.3457-52.2949Q79.3457-55.8105 76.8799-58.3008Q74.4141-60.791 70.8496-60.791Q67.334-60.791 64.8438-58.3008Q62.3535-55.8105 62.3535-52.2949Q62.3535-48.7793 64.8438-46.2891Q67.334-43.7988 70.8496-43.7988ZM76.6113-12.6465Q77.6367-12.6465 78.3203-13.3301Q79.0039-14.0137 79.0039-15.0391Q79.0039-16.0645 78.3203-16.748Q77.6367-17.4316 76.6113-17.4316Q75.5859-17.4316 74.9023-16.748Q74.2188-16.0645 74.2188-15.0391Q74.2188-14.0137 74.9023-13.3301Q75.5859-12.6465 76.6113-12.6465ZM34.375-12.6465Q35.3516-12.6465 36.0596-13.3301Q36.7676-14.0137 36.7676-15.0391Q36.7676-16.0645 36.0596-16.748Q35.3516-17.4316 34.375-17.4316Q33.3496-17.4316 32.666-16.748Q31.9824-16.0645 31.9824-15.0391Q31.9824-14.0137 32.666-13.3301Q33.3496-12.6465 34.375-12.6465ZM97.8516-6.39648Q98.877-6.39648 99.5605-7.08008Q100.244-7.76367 100.244-8.78906Q100.244-9.76562 99.5605-10.4736Q98.877-11.1816 97.8516-11.1816Q96.8262-11.1816 96.1426-10.4736Q95.459-9.76562 95.459-8.78906Q95.459-7.76367 96.1426-7.08008Q96.8262-6.39648 97.8516-6.39648ZM55.4688-6.39648Q56.4941-6.39648 57.1777-7.08008Q57.8613-7.76367 57.8613-8.78906Q57.8613-9.76562 57.1777-10.4736Q56.4941-11.1816 55.4688-11.1816Q54.4922-11.1816 53.7842-10.4736Q53.0762-9.76562 53.0762-8.78906Q53.0762-7.76367 53.7842-7.08008Q54.4922-6.39648 55.4688-6.39648ZM13.1348-6.39648Q14.1113-6.39648 14.8193-7.08008Q15.5273-7.76367 15.5273-8.78906Q15.5273-9.76562 14.8193-10.4736Q14.1113-11.1816 13.1348-11.1816Q12.1094-11.1816 11.4258-10.4736Q10.7422-9.76562 10.7422-8.78906Q10.7422-7.76367 11.4258-7.08008Q12.1094-6.39648 13.1348-6.39648ZM41.6504-10.8887Q42.6758-10.8887 43.3594-11.5967Q44.043-12.3047 44.043-13.2812Q44.043-14.3066 43.3594-14.9902Q42.6758-15.6738 41.6504-15.6738Q40.6738-15.6738 39.9658-14.9902Q39.2578-14.3066 39.2578-13.2812Q39.2578-12.3047 39.9658-11.5967Q40.6738-10.8887 41.6504-10.8887ZM27.0508-10.8887Q28.0762-10.8887 28.7598-11.5967Q29.4434-12.3047 29.4434-13.2812Q29.4434-14.3066 28.7598-14.9902Q28.0762-15.6738 27.0508-15.6738Q26.0742-15.6738 25.3662-14.9902Q24.6582-14.3066 24.6582-13.2812Q24.6582-12.3047 25.3662-11.5967Q26.0742-10.8887 27.0508-10.8887ZM48.4863-7.71484Q49.5117-7.71484 50.1953-8.39844Q50.8789-9.08203 50.8789-10.0586Q50.8789-11.084 50.1953-11.7676Q49.5117-12.4512 48.4863-12.4512Q47.4609-12.4512 46.7773-11.7676Q46.0938-11.084 46.0938-10.0586Q46.0938-9.08203 46.7773-8.39844Q47.4609-7.71484 48.4863-7.71484ZM69.2871-10.8887Q70.3125-10.8887 70.9961-11.5967Q71.6797-12.3047 71.6797-13.2812Q71.6797-14.3066 70.9961-14.9902Q70.3125-15.6738 69.2871-15.6738Q68.3105-15.6738 67.627-14.9902Q66.9434-14.3066 66.9434-13.2812Q66.9434-12.3047 67.627-11.5967Q68.3105-10.8887 69.2871-10.8887ZM20.3125-7.71484Q21.2891-7.71484 21.9971-8.39844Q22.7051-9.08203 22.7051-10.0586Q22.7051-11.084 21.9971-11.7676Q21.2891-12.4512 20.3125-12.4512Q19.2871-12.4512 18.6035-11.7676Q17.9199-11.084 17.9199-10.0586Q17.9199-9.08203 18.6035-8.39844Q19.2871-7.71484 20.3125-7.71484ZM62.5-7.71484Q63.4766-7.71484 64.1846-8.39844Q64.8926-9.08203 64.8926-10.0586Q64.8926-11.084 64.1846-11.7676Q63.4766-12.4512 62.5-12.4512Q61.4746-12.4512 60.791-11.7676Q60.1074-11.084 60.1074-10.0586Q60.1074-9.08203 60.791-8.39844Q61.4746-7.71484 62.5-7.71484ZM90.6738-7.71484Q91.6992-7.71484 92.3828-8.39844Q93.0664-9.08203 93.0664-10.0586Q93.0664-11.084 92.3828-11.7676Q91.6992-12.4512 90.6738-12.4512Q89.6973-12.4512 88.9893-11.7676Q88.2812-11.084 88.2812-10.0586Q88.2812-9.08203 88.9893-8.39844Q89.6973-7.71484 90.6738-7.71484ZM83.8867-10.8887Q84.9121-10.8887 85.5957-11.5967Q86.2793-12.3047 86.2793-13.2812Q86.2793-14.3066 85.5957-14.9902Q84.9121-15.6738 83.8867-15.6738Q82.9102-15.6738 82.2266-14.9902Q81.543-14.3066 81.543-13.2812Q81.543-12.3047 82.2266-11.5967Q82.9102-10.8887 83.8867-10.8887Z"/>
  </g>
  <g id="Ultralight-S" transform="matrix(1 0 0 1 506.469 696)">
   <path class="template-0 SFSymbolsPreview000000" d="M53.2402-29.2747Q55.6274-29.2747 57.4177-30.1289Q59.2079-30.983 60.9634-32.1476Q62.719-33.3122 65.1176-34.2262L42.2729-58.0124Q41.1362-59.2888 39.513-59.4124Q37.8899-59.536 36.4632-58.5037L22.5456-48.6633Q20.7741-47.3412 20.7726-45.6692Q20.771-43.9972 21.8033-42.9123Q22.6891-41.9746 24.0925-41.7515Q25.4959-41.5283 26.9714-42.5636L38.2835-50.4868L44.6304-43.9903Q45.1706-43.4464 45.2213-42.6861Q45.2721-41.9258 44.4351-41.3818L35.4187-35.4553Q36.6394-35.3783 37.7148-35.1791Q38.7901-34.98 39.7659-34.7076Q41.964-34.1141 43.6234-33.1844Q45.2827-32.2548 46.7297-31.3519Q48.1766-30.4489 49.712-29.8618Q51.2474-29.2747 53.2402-29.2747ZM10.7925-21.3127L13.9824-21.3127Q17.4797-21.3127 19.9333-22.2649Q22.3869-23.217 24.4343-24.4621Q26.4816-25.7072 28.6163-26.6594Q30.751-27.6115 33.6113-27.6115Q36.4754-27.6115 38.6101-26.6594Q40.7448-25.7072 42.7902-24.4621Q44.8357-23.217 47.2893-22.2649Q49.7429-21.3127 53.2402-21.3127Q56.7375-21.3127 59.1911-22.2649Q61.6447-23.217 63.6921-24.4621Q65.7394-25.7072 67.8741-26.6594Q70.0089-27.6115 72.8691-27.6115Q75.7332-27.6115 77.8679-26.6594Q80.0026-25.7072 82.048-24.4621Q84.0935-23.217 86.5471-22.2649Q89.0007-21.3127 92.498-21.3127L95.6879-21.3127Q96.1227-21.3127 96.4207-21.6103Q96.7186-21.9078 96.7186-22.3396Q96.7186-22.7745 96.4207-23.0949Q96.1227-23.4154 95.6879-23.4154L92.498-23.4154Q89.5401-23.4154 87.3322-24.3675Q85.1242-25.3197 83.0769-26.5648Q81.0295-27.8099 78.6247-28.7621Q76.2199-29.7142 72.8691-29.7142Q69.5213-29.7142 67.1169-28.7621Q64.7125-27.8099 62.6652-26.5648Q60.6178-25.3197 58.4099-24.3675Q56.2019-23.4154 53.2402-23.4154Q50.2823-23.4154 48.0743-24.3675Q45.8664-25.3197 43.819-26.5648Q41.7717-27.8099 39.3669-28.7621Q36.9621-29.7142 33.6113-29.7142Q30.2635-29.7142 27.8591-28.7621Q25.4547-27.8099 23.4074-26.5648Q21.36-25.3197 19.1521-24.3675Q16.9441-23.4154 13.9824-23.4154L10.7925-23.4154Q10.3607-23.4154 10.0632-23.0949Q9.76562-22.7745 9.76562-22.3396Q9.76562-21.9078 10.0632-21.6103Q10.3607-21.3127 10.7925-21.3127ZM67.762-41.9823Q70.9175-41.9823 73.1789-44.2684Q75.4402-46.5546 75.4402-49.752Q75.4402-52.9045 73.1789-55.1678Q70.9175-57.431 67.762-57.431Q64.5187-57.431 62.2555-55.1678Q59.9922-52.9045 59.9922-49.752Q59.9922-46.5546 62.2555-44.2684Q64.5187-41.9823 67.762-41.9823ZM74.0685-16.8243Q74.6849-16.8243 75.119-17.2581Q75.5531-17.6918 75.5531-18.354Q75.5531-18.9705 75.119-19.4046Q74.6849-19.8387 74.0685-19.8387Q73.4062-19.8387 72.9725-19.4046Q72.5388-18.9705 72.5388-18.354Q72.5388-17.6918 72.9725-17.2581Q73.4062-16.8243 74.0685-16.8243ZM32.5134-16.8243Q33.1718-16.8243 33.6075-17.2581Q34.0431-17.6918 34.0431-18.354Q34.0431-18.9705 33.6075-19.4046Q33.1718-19.8387 32.5134-19.8387Q31.8962-19.8387 31.4625-19.4046Q31.0287-18.9705 31.0287-18.354Q31.0287-17.6918 31.4625-17.2581Q31.8962-16.8243 32.5134-16.8243ZM94.4458-11.1191Q95.108-11.1191 95.5418-11.5528Q95.9755-11.9865 95.9755-12.6488Q95.9755-13.2622 95.5418-13.6978Q95.108-14.1335 94.4458-14.1335Q93.8293-14.1335 93.3952-13.6978Q92.9611-13.2622 92.9611-12.6488Q92.9611-11.9865 93.3952-11.5528Q93.8293-11.1191 94.4458-11.1191ZM53.289-11.1191Q53.9513-11.1191 54.385-11.5528Q54.8187-11.9865 54.8187-12.6488Q54.8187-13.2622 54.385-13.6978Q53.9513-14.1335 53.289-14.1335Q52.6306-14.1335 52.195-13.6978Q51.7593-13.2622 51.7593-12.6488Q51.7593-11.9865 52.195-11.5528Q52.6306-11.1191 53.289-11.1191ZM11.9995-11.1191Q12.6579-11.1191 13.0936-11.5528Q13.5292-11.9865 13.5292-12.6488Q13.5292-13.2622 13.0936-13.6978Q12.6579-14.1335 11.9995-14.1335Q11.3831-14.1335 10.9489-13.6978Q10.5148-13.2622 10.5148-12.6488Q10.5148-11.9865 10.9489-11.5528Q11.3831-11.1191 11.9995-11.1191ZM39.3799-15.2481Q39.9963-15.2481 40.4305-15.6837Q40.8646-16.1194 40.8646-16.7778Q40.8646-17.3943 40.4305-17.8284Q39.9963-18.2625 39.3799-18.2625Q38.7215-18.2625 38.2858-17.8284Q37.8502-17.3943 37.8502-16.7778Q37.8502-16.1194 38.2858-15.6837Q38.7215-15.2481 39.3799-15.2481ZM25.5974-15.2481Q26.2596-15.2481 26.6937-15.6837Q27.1278-16.1194 27.1278-16.7778Q27.1278-17.3943 26.6937-17.8284Q26.2596-18.2625 25.5974-18.2625Q24.9847-18.2625 24.5491-17.8284Q24.1135-17.3943 24.1135-16.7778Q24.1135-16.1194 24.5491-15.6837Q24.9847-15.2481 25.5974-15.2481ZM45.9885-12.3009Q46.6057-12.3009 47.0394-12.735Q47.4731-13.1691 47.4731-13.8275Q47.4731-14.444 47.0394-14.8781Q46.6057-15.3122 45.9885-15.3122Q45.327-15.3122 44.8929-14.8781Q44.4588-14.444 44.4588-13.8275Q44.4588-13.1691 44.8929-12.735Q45.327-12.3009 45.9885-12.3009ZM67.1982-15.2481Q67.8604-15.2481 68.2941-15.6837Q68.7279-16.1194 68.7279-16.7778Q68.7279-17.3943 68.2941-17.8284Q67.8604-18.2625 67.1982-18.2625Q66.5398-18.2625 66.1057-17.8284Q65.6715-17.3943 65.6715-16.7778Q65.6715-16.1194 66.1057-15.6837Q66.5398-15.2481 67.1982-15.2481ZM19.0865-12.3009Q19.7449-12.3009 20.1805-12.735Q20.6161-13.1691 20.6161-13.8275Q20.6161-14.444 20.1805-14.8781Q19.7449-15.3122 19.0865-15.3122Q18.47-15.3122 18.0359-14.8781Q17.6018-14.444 17.6018-13.8275Q17.6018-13.1691 18.0359-12.735Q18.47-12.3009 19.0865-12.3009ZM60.5927-12.3009Q61.2518-12.3009 61.6871-12.735Q62.1223-13.1691 62.1223-13.8275Q62.1223-14.444 61.6871-14.8781Q61.2518-15.3122 60.5927-15.3122Q59.9762-15.3122 59.5425-14.8781Q59.1087-14.444 59.1087-13.8275Q59.1087-13.1691 59.5425-12.735Q59.9762-12.3009 60.5927-12.3009ZM87.4496-12.3009Q88.1119-12.3009 88.5456-12.735Q88.9793-13.1691 88.9793-13.8275Q88.9793-14.444 88.5456-14.8781Q88.1119-15.3122 87.4496-15.3122Q86.8362-15.3122 86.401-14.8781Q85.9657-14.444 85.9657-13.8275Q85.9657-13.1691 86.401-12.735Q86.8362-12.3009 87.4496-12.3009ZM80.9807-15.2481Q81.5971-15.2481 82.0309-15.6837Q82.4646-16.1194 82.4646-16.7778Q82.4646-17.3943 82.0309-17.8284Q81.5971-18.2625 80.9807-18.2625Q80.3215-18.2625 79.8878-17.8284Q79.454-17.3943 79.454-16.7778Q79.454-16.1194 79.8878-15.6837Q80.3215-15.2481 80.9807-15.2481Z"/>
  </g>
 </g>
</svg>
