<?xml version="1.0" encoding="UTF-8"?>
<!--Generator: Apple Native CoreSVG 175.5-->
<!DOCTYPE svg
PUBLIC "-//W3C//DTD SVG 1.1//EN"
       "http://www.w3.org/Graphics/SVG/1.1/DTD/svg11.dtd">
<svg version="1.1" xmlns="http://www.w3.org/2000/svg" xmlns:xlink="http://www.w3.org/1999/xlink" width="21.6855" height="22.1191">
 <g>
  <rect height="22.1191" opacity="0" width="21.6855" x="0" y="0"/>
  <path d="M4.1582 20.5469Q4.46094 20.7812 4.8418 20.708Q5.22266 20.6348 5.67188 20.3125L10.8379 16.5137L16.0137 20.3125Q16.4629 20.6348 16.8438 20.708Q17.2246 20.7812 17.5273 20.5469Q17.8301 20.3223 17.8936 19.9414Q17.957 19.5605 17.7715 19.0332L15.7305 12.959L20.9453 9.20898Q21.4043 8.88672 21.5801 8.54492Q21.7559 8.20312 21.6387 7.8418Q21.5215 7.49023 21.1797 7.31445Q20.8379 7.13867 20.2715 7.14844L13.875 7.1875L11.9316 1.08398Q11.7559 0.546875 11.4873 0.273438Q11.2188 0 10.8379 0Q10.4668 0 10.1982 0.273438Q9.92969 0.546875 9.75391 1.08398L7.81055 7.1875L1.41406 7.14844Q0.847656 7.13867 0.505859 7.31445Q0.164062 7.49023 0.046875 7.8418Q-0.0703125 8.20312 0.105469 8.54492Q0.28125 8.88672 0.740234 9.20898L5.95508 12.959L3.91406 19.0332Q3.72852 19.5605 3.79199 19.9414Q3.85547 20.3223 4.1582 20.5469Z" fill="#ffd60a"/>
 </g>
</svg>
