<?xml version="1.0" encoding="UTF-8"?>
<!--Generator: Apple Native CoreSVG 175.5-->
<!DOCTYPE svg
PUBLIC "-//W3C//DTD SVG 1.1//EN"
       "http://www.w3.org/Graphics/SVG/1.1/DTD/svg11.dtd">
<svg version="1.1" xmlns="http://www.w3.org/2000/svg" xmlns:xlink="http://www.w3.org/1999/xlink" width="21.6855" height="22.1191">
 <g>
  <rect height="22.1191" opacity="0" width="21.6855" x="0" y="0"/>
  <path d="M4.1582 20.5469Q4.46094 20.7812 4.8418 20.708Q5.22266 20.6348 5.67188 20.3125L10.8379 16.5137L16.0137 20.3125Q16.4629 20.6348 16.8438 20.708Q17.2246 20.7812 17.5273 20.5469Q17.8301 20.3223 17.8936 19.9414Q17.957 19.5605 17.7715 19.0332L15.7305 12.959L20.9453 9.20898Q21.4043 8.88672 21.5801 8.54492Q21.7559 8.20312 21.6387 7.8418Q21.5215 7.49023 21.1797 7.31445Q20.8379 7.13867 20.2715 7.14844L13.875 7.1875L11.9316 1.08398Q11.7559 0.546875 11.4873 0.273438Q11.2188 0 10.8379 0Q10.4668 0 10.1982 0.273438Q9.92969 0.546875 9.75391 1.08398L7.81055 7.1875L1.41406 7.14844Q0.847656 7.13867 0.505859 7.31445Q0.164062 7.49023 0.046875 7.8418Q-0.0703125 8.20312 0.105469 8.54492Q0.28125 8.88672 0.740234 9.20898L5.95508 12.959L3.91406 19.0332Q3.72852 19.5605 3.79199 19.9414Q3.85547 20.3223 4.1582 20.5469ZM5.56445 18.6133Q5.54492 18.5938 5.56445 18.5254L7.50781 12.9395Q7.57617 12.7539 7.57129 12.5879Q7.56641 12.4219 7.47852 12.2803Q7.39062 12.1387 7.22461 12.0215L2.36133 8.66211Q2.29297 8.62305 2.3125 8.58398Q2.32227 8.55469 2.40039 8.55469L8.30859 8.66211Q8.61133 8.67188 8.80664 8.54004Q9.00195 8.4082 9.08984 8.10547L10.7891 2.45117Q10.8086 2.37305 10.8379 2.37305Q10.877 2.37305 10.8965 2.45117L12.5957 8.10547Q12.6836 8.4082 12.8789 8.54004Q13.0742 8.67188 13.377 8.66211L19.2852 8.55469Q19.3633 8.55469 19.373 8.58398Q19.3926 8.62305 19.3242 8.66211L14.4609 12.0215Q14.2949 12.1387 14.207 12.2803Q14.1191 12.4219 14.1143 12.5879Q14.1094 12.7539 14.1777 12.9395L16.1211 18.5254Q16.1309 18.5938 16.1211 18.6133Q16.1016 18.6426 16.0332 18.5938L11.3359 15.0098Q11.1016 14.8242 10.8428 14.8242Q10.584 14.8242 10.3496 15.0098L5.65234 18.5938Q5.58398 18.6426 5.56445 18.6133Z" fill="#ffd60a"/>
 </g>
</svg>
